<svg width="1097" height="163" viewBox="0 0 1097 163" fill="none" xmlns="http://www.w3.org/2000/svg">
<rect width="1097" height="163" fill="#F0F0F0"/>
<path d="M64.9062 53.9219L57.3945 51.2383V48.0859L67.6016 52.375V54.6367L64.9062 53.9219ZM57.3945 56.1719L64.918 53.4297L67.6016 52.7852V55.0352L57.3945 59.3242V56.1719ZM82.543 54.918H78.1953V52.1758H82.543C83.2148 52.1758 83.7617 52.0664 84.1836 51.8477C84.6055 51.6211 84.9141 51.3086 85.1094 50.9102C85.3047 50.5117 85.4023 50.0625 85.4023 49.5625C85.4023 49.0547 85.3047 48.582 85.1094 48.1445C84.9141 47.707 84.6055 47.3555 84.1836 47.0898C83.7617 46.8242 83.2148 46.6914 82.543 46.6914H79.4141V61H75.8984V43.9375H82.543C83.8789 43.9375 85.0234 44.1797 85.9766 44.6641C86.9375 45.1406 87.6719 45.8008 88.1797 46.6445C88.6875 47.4883 88.9414 48.4531 88.9414 49.5391C88.9414 50.6406 88.6875 51.5938 88.1797 52.3984C87.6719 53.2031 86.9375 53.8242 85.9766 54.2617C85.0234 54.6992 83.8789 54.918 82.543 54.918ZM94.5312 51.0859V61H91.1562V48.3203H94.332L94.5312 51.0859ZM98.3516 48.2383L98.293 51.3672C98.1289 51.3438 97.9297 51.3242 97.6953 51.3086C97.4688 51.2852 97.2617 51.2734 97.0742 51.2734C96.5977 51.2734 96.1836 51.3359 95.832 51.4609C95.4883 51.5781 95.1992 51.7539 94.9648 51.9883C94.7383 52.2227 94.5664 52.5078 94.4492 52.8438C94.3398 53.1797 94.2773 53.5625 94.2617 53.9922L93.582 53.7812C93.582 52.9609 93.6641 52.207 93.8281 51.5195C93.9922 50.8242 94.2305 50.2188 94.543 49.7031C94.8633 49.1875 95.2539 48.7891 95.7148 48.5078C96.1758 48.2266 96.7031 48.0859 97.2969 48.0859C97.4844 48.0859 97.6758 48.1016 97.8711 48.1328C98.0664 48.1562 98.2266 48.1914 98.3516 48.2383ZM99.0547 54.7891V54.543C99.0547 53.6133 99.1875 52.7578 99.4531 51.9766C99.7188 51.1875 100.105 50.5039 100.613 49.9258C101.121 49.3477 101.746 48.8984 102.488 48.5781C103.23 48.25 104.082 48.0859 105.043 48.0859C106.004 48.0859 106.859 48.25 107.609 48.5781C108.359 48.8984 108.988 49.3477 109.496 49.9258C110.012 50.5039 110.402 51.1875 110.668 51.9766C110.934 52.7578 111.066 53.6133 111.066 54.543V54.7891C111.066 55.7109 110.934 56.5664 110.668 57.3555C110.402 58.1367 110.012 58.8203 109.496 59.4062C108.988 59.9844 108.363 60.4336 107.621 60.7539C106.879 61.0742 106.027 61.2344 105.066 61.2344C104.105 61.2344 103.25 61.0742 102.5 60.7539C101.758 60.4336 101.129 59.9844 100.613 59.4062C100.105 58.8203 99.7188 58.1367 99.4531 57.3555C99.1875 56.5664 99.0547 55.7109 99.0547 54.7891ZM102.43 54.543V54.7891C102.43 55.3203 102.477 55.8164 102.57 56.2773C102.664 56.7383 102.812 57.1445 103.016 57.4961C103.227 57.8398 103.5 58.1094 103.836 58.3047C104.172 58.5 104.582 58.5977 105.066 58.5977C105.535 58.5977 105.938 58.5 106.273 58.3047C106.609 58.1094 106.879 57.8398 107.082 57.4961C107.285 57.1445 107.434 56.7383 107.527 56.2773C107.629 55.8164 107.68 55.3203 107.68 54.7891V54.543C107.68 54.0273 107.629 53.543 107.527 53.0898C107.434 52.6289 107.281 52.2227 107.07 51.8711C106.867 51.5117 106.598 51.2305 106.262 51.0273C105.926 50.8242 105.52 50.7227 105.043 50.7227C104.566 50.7227 104.16 50.8242 103.824 51.0273C103.496 51.2305 103.227 51.5117 103.016 51.8711C102.812 52.2227 102.664 52.6289 102.57 53.0898C102.477 53.543 102.43 54.0273 102.43 54.543ZM113.328 48.3203H116.715V61.7617C116.715 62.6992 116.543 63.4922 116.199 64.1406C115.855 64.7891 115.359 65.2812 114.711 65.6172C114.062 65.9531 113.277 66.1211 112.355 66.1211C112.066 66.1211 111.785 66.1055 111.512 66.0742C111.23 66.043 110.941 65.9922 110.645 65.9219L110.656 63.332C110.844 63.3633 111.027 63.3867 111.207 63.4023C111.379 63.4258 111.555 63.4375 111.734 63.4375C112.086 63.4375 112.379 63.3789 112.613 63.2617C112.848 63.1445 113.023 62.9609 113.141 62.7109C113.266 62.4688 113.328 62.1523 113.328 61.7617V48.3203ZM113.059 45.0156C113.059 44.5234 113.23 44.1172 113.574 43.7969C113.926 43.4766 114.387 43.3164 114.957 43.3164C115.535 43.3164 115.996 43.4766 116.34 43.7969C116.684 44.1172 116.855 44.5234 116.855 45.0156C116.855 45.5078 116.684 45.9141 116.34 46.2344C115.996 46.5547 115.535 46.7148 114.957 46.7148C114.387 46.7148 113.926 46.5547 113.574 46.2344C113.23 45.9141 113.059 45.5078 113.059 45.0156ZM125.234 61.2344C124.25 61.2344 123.367 61.0781 122.586 60.7656C121.805 60.4453 121.141 60.0039 120.594 59.4414C120.055 58.8789 119.641 58.2266 119.352 57.4844C119.062 56.7344 118.918 55.9375 118.918 55.0938V54.625C118.918 53.6641 119.055 52.7852 119.328 51.9883C119.602 51.1914 119.992 50.5 120.5 49.9141C121.016 49.3281 121.641 48.8789 122.375 48.5664C123.109 48.2461 123.938 48.0859 124.859 48.0859C125.758 48.0859 126.555 48.2344 127.25 48.5312C127.945 48.8281 128.527 49.25 128.996 49.7969C129.473 50.3438 129.832 51 130.074 51.7656C130.316 52.5234 130.438 53.3672 130.438 54.2969V55.7031H120.359V53.4531H127.121V53.1953C127.121 52.7266 127.035 52.3086 126.863 51.9414C126.699 51.5664 126.449 51.2695 126.113 51.0508C125.777 50.832 125.348 50.7227 124.824 50.7227C124.379 50.7227 123.996 50.8203 123.676 51.0156C123.355 51.2109 123.094 51.4844 122.891 51.8359C122.695 52.1875 122.547 52.6016 122.445 53.0781C122.352 53.5469 122.305 54.0625 122.305 54.625V55.0938C122.305 55.6016 122.375 56.0703 122.516 56.5C122.664 56.9297 122.871 57.3008 123.137 57.6133C123.41 57.9258 123.738 58.168 124.121 58.3398C124.512 58.5117 124.953 58.5977 125.445 58.5977C126.055 58.5977 126.621 58.4805 127.145 58.2461C127.676 58.0039 128.133 57.6406 128.516 57.1562L130.156 58.9375C129.891 59.3203 129.527 59.6875 129.066 60.0391C128.613 60.3906 128.066 60.6797 127.426 60.9062C126.785 61.125 126.055 61.2344 125.234 61.2344ZM137.598 58.5977C138.012 58.5977 138.379 58.5195 138.699 58.3633C139.02 58.1992 139.27 57.9727 139.449 57.6836C139.637 57.3867 139.734 57.0391 139.742 56.6406H142.918C142.91 57.5312 142.672 58.3242 142.203 59.0195C141.734 59.707 141.105 60.25 140.316 60.6484C139.527 61.0391 138.645 61.2344 137.668 61.2344C136.684 61.2344 135.824 61.0703 135.09 60.7422C134.363 60.4141 133.758 59.9609 133.273 59.3828C132.789 58.7969 132.426 58.1172 132.184 57.3438C131.941 56.5625 131.82 55.7266 131.82 54.8359V54.4961C131.82 53.5977 131.941 52.7617 132.184 51.9883C132.426 51.207 132.789 50.5273 133.273 49.9492C133.758 49.3633 134.363 48.9062 135.09 48.5781C135.816 48.25 136.668 48.0859 137.645 48.0859C138.684 48.0859 139.594 48.2852 140.375 48.6836C141.164 49.082 141.781 49.6523 142.227 50.3945C142.68 51.1289 142.91 52 142.918 53.0078H139.742C139.734 52.5859 139.645 52.2031 139.473 51.8594C139.309 51.5156 139.066 51.2422 138.746 51.0391C138.434 50.8281 138.047 50.7227 137.586 50.7227C137.094 50.7227 136.691 50.8281 136.379 51.0391C136.066 51.2422 135.824 51.5234 135.652 51.8828C135.48 52.2344 135.359 52.6367 135.289 53.0898C135.227 53.5352 135.195 54.0039 135.195 54.4961V54.8359C135.195 55.3281 135.227 55.8008 135.289 56.2539C135.352 56.707 135.469 57.1094 135.641 57.4609C135.82 57.8125 136.066 58.0898 136.379 58.293C136.691 58.4961 137.098 58.5977 137.598 58.5977ZM151.086 48.3203V50.7109H143.703V48.3203H151.086ZM145.531 45.1914H148.906V57.1797C148.906 57.5469 148.953 57.8281 149.047 58.0234C149.148 58.2188 149.297 58.3555 149.492 58.4336C149.688 58.5039 149.934 58.5391 150.23 58.5391C150.441 58.5391 150.629 58.5312 150.793 58.5156C150.965 58.4922 151.109 58.4688 151.227 58.4453L151.238 60.9297C150.949 61.0234 150.637 61.0977 150.301 61.1523C149.965 61.207 149.594 61.2344 149.188 61.2344C148.445 61.2344 147.797 61.1133 147.242 60.8711C146.695 60.6211 146.273 60.2227 145.977 59.6758C145.68 59.1289 145.531 58.4102 145.531 57.5195V45.1914ZM166.191 43.9375V61H162.688V43.9375H166.191ZM171.441 43.9375V46.6914H157.52V43.9375H171.441ZM176.797 48.3203V61H173.41V48.3203H176.797ZM173.199 45.0156C173.199 44.5234 173.371 44.1172 173.715 43.7969C174.059 43.4766 174.52 43.3164 175.098 43.3164C175.668 43.3164 176.125 43.4766 176.469 43.7969C176.82 44.1172 176.996 44.5234 176.996 45.0156C176.996 45.5078 176.82 45.9141 176.469 46.2344C176.125 46.5547 175.668 46.7148 175.098 46.7148C174.52 46.7148 174.059 46.5547 173.715 46.2344C173.371 45.9141 173.199 45.5078 173.199 45.0156ZM185.797 48.3203V50.7109H178.414V48.3203H185.797ZM180.242 45.1914H183.617V57.1797C183.617 57.5469 183.664 57.8281 183.758 58.0234C183.859 58.2188 184.008 58.3555 184.203 58.4336C184.398 58.5039 184.645 58.5391 184.941 58.5391C185.152 58.5391 185.34 58.5312 185.504 58.5156C185.676 58.4922 185.82 58.4688 185.938 58.4453L185.949 60.9297C185.66 61.0234 185.348 61.0977 185.012 61.1523C184.676 61.207 184.305 61.2344 183.898 61.2344C183.156 61.2344 182.508 61.1133 181.953 60.8711C181.406 60.6211 180.984 60.2227 180.688 59.6758C180.391 59.1289 180.242 58.4102 180.242 57.5195V45.1914ZM191.281 43V61H187.895V43H191.281ZM199.906 61.2344C198.922 61.2344 198.039 61.0781 197.258 60.7656C196.477 60.4453 195.812 60.0039 195.266 59.4414C194.727 58.8789 194.312 58.2266 194.023 57.4844C193.734 56.7344 193.59 55.9375 193.59 55.0938V54.625C193.59 53.6641 193.727 52.7852 194 51.9883C194.273 51.1914 194.664 50.5 195.172 49.9141C195.688 49.3281 196.312 48.8789 197.047 48.5664C197.781 48.2461 198.609 48.0859 199.531 48.0859C200.43 48.0859 201.227 48.2344 201.922 48.5312C202.617 48.8281 203.199 49.25 203.668 49.7969C204.145 50.3438 204.504 51 204.746 51.7656C204.988 52.5234 205.109 53.3672 205.109 54.2969V55.7031H195.031V53.4531H201.793V53.1953C201.793 52.7266 201.707 52.3086 201.535 51.9414C201.371 51.5664 201.121 51.2695 200.785 51.0508C200.449 50.832 200.02 50.7227 199.496 50.7227C199.051 50.7227 198.668 50.8203 198.348 51.0156C198.027 51.2109 197.766 51.4844 197.562 51.8359C197.367 52.1875 197.219 52.6016 197.117 53.0781C197.023 53.5469 196.977 54.0625 196.977 54.625V55.0938C196.977 55.6016 197.047 56.0703 197.188 56.5C197.336 56.9297 197.543 57.3008 197.809 57.6133C198.082 57.9258 198.41 58.168 198.793 58.3398C199.184 58.5117 199.625 58.5977 200.117 58.5977C200.727 58.5977 201.293 58.4805 201.816 58.2461C202.348 58.0039 202.805 57.6406 203.188 57.1562L204.828 58.9375C204.562 59.3203 204.199 59.6875 203.738 60.0391C203.285 60.3906 202.738 60.6797 202.098 60.9062C201.457 61.125 200.727 61.2344 199.906 61.2344Z" fill="#888888"/>
<path d="M69.6875 119H62.1172L62.1641 112.672H69.6875C71.25 112.672 72.5703 112.297 73.6484 111.547C74.7422 110.797 75.5703 109.68 76.1328 108.195C76.7109 106.695 77 104.852 77 102.664V101.188C77 99.5469 76.8359 98.1094 76.5078 96.875C76.1953 95.625 75.7266 94.5859 75.1016 93.7578C74.4766 92.9141 73.6953 92.2812 72.7578 91.8594C71.8359 91.4375 70.7734 91.2266 69.5703 91.2266H61.9766V84.875H69.5703C71.8828 84.875 74 85.2734 75.9219 86.0703C77.8594 86.8516 79.5312 87.9766 80.9375 89.4453C82.3594 90.8984 83.4531 92.625 84.2188 94.625C85 96.6094 85.3906 98.8125 85.3906 101.234V102.664C85.3906 105.07 85 107.273 84.2188 109.273C83.4531 111.273 82.3672 113 80.9609 114.453C79.5547 115.906 77.8906 117.031 75.9688 117.828C74.0625 118.609 71.9688 119 69.6875 119ZM66.8281 84.875V119H58.6016V84.875H66.8281ZM102.477 112.625V102.172C102.477 101.453 102.375 100.836 102.172 100.32C101.969 99.8047 101.648 99.4062 101.211 99.125C100.773 98.8281 100.188 98.6797 99.4531 98.6797C98.8594 98.6797 98.3516 98.7812 97.9297 98.9844C97.5078 99.1875 97.1875 99.4922 96.9688 99.8984C96.75 100.305 96.6406 100.82 96.6406 101.445H88.7422C88.7422 100.273 89 99.1875 89.5156 98.1875C90.0469 97.1719 90.7969 96.2891 91.7656 95.5391C92.75 94.7891 93.9219 94.2109 95.2812 93.8047C96.6562 93.3828 98.1875 93.1719 99.875 93.1719C101.891 93.1719 103.688 93.5078 105.266 94.1797C106.859 94.8516 108.117 95.8594 109.039 97.2031C109.961 98.5312 110.422 100.203 110.422 102.219V112.602C110.422 114.258 110.516 115.516 110.703 116.375C110.891 117.219 111.156 117.961 111.5 118.602V119H103.578C103.203 118.219 102.922 117.266 102.734 116.141C102.562 115 102.477 113.828 102.477 112.625ZM103.438 103.508L103.484 107.727H99.9922C99.2578 107.727 98.6328 107.828 98.1172 108.031C97.6172 108.234 97.2109 108.516 96.8984 108.875C96.6016 109.219 96.3828 109.609 96.2422 110.047C96.1172 110.484 96.0547 110.945 96.0547 111.43C96.0547 111.898 96.1641 112.32 96.3828 112.695C96.6172 113.055 96.9297 113.336 97.3203 113.539C97.7109 113.742 98.1484 113.844 98.6328 113.844C99.5078 113.844 100.25 113.68 100.859 113.352C101.484 113.008 101.961 112.594 102.289 112.109C102.617 111.625 102.781 111.172 102.781 110.75L104.516 113.984C104.203 114.609 103.844 115.242 103.438 115.883C103.047 116.523 102.555 117.117 101.961 117.664C101.383 118.195 100.672 118.633 99.8281 118.977C98.9844 119.305 97.9609 119.469 96.7578 119.469C95.1953 119.469 93.7578 119.148 92.4453 118.508C91.1484 117.867 90.1094 116.977 89.3281 115.836C88.5469 114.68 88.1562 113.352 88.1562 111.852C88.1562 110.539 88.3906 109.367 88.8594 108.336C89.3438 107.305 90.0703 106.43 91.0391 105.711C92.0078 104.992 93.2422 104.445 94.7422 104.07C96.2422 103.695 98.0078 103.508 100.039 103.508H103.438ZM128.164 93.6406V99.125H112.883V93.6406H128.164ZM116.094 87.3359H123.992V110.727C123.992 111.398 124.07 111.922 124.227 112.297C124.383 112.656 124.648 112.914 125.023 113.07C125.414 113.211 125.93 113.281 126.57 113.281C127.023 113.281 127.398 113.273 127.695 113.258C127.992 113.227 128.273 113.188 128.539 113.141V118.789C127.867 119.008 127.164 119.172 126.43 119.281C125.695 119.406 124.914 119.469 124.086 119.469C122.398 119.469 120.953 119.203 119.75 118.672C118.562 118.141 117.656 117.305 117.031 116.164C116.406 115.023 116.094 113.539 116.094 111.711V87.3359ZM144.477 112.625V102.172C144.477 101.453 144.375 100.836 144.172 100.32C143.969 99.8047 143.648 99.4062 143.211 99.125C142.773 98.8281 142.188 98.6797 141.453 98.6797C140.859 98.6797 140.352 98.7812 139.93 98.9844C139.508 99.1875 139.188 99.4922 138.969 99.8984C138.75 100.305 138.641 100.82 138.641 101.445H130.742C130.742 100.273 131 99.1875 131.516 98.1875C132.047 97.1719 132.797 96.2891 133.766 95.5391C134.75 94.7891 135.922 94.2109 137.281 93.8047C138.656 93.3828 140.188 93.1719 141.875 93.1719C143.891 93.1719 145.688 93.5078 147.266 94.1797C148.859 94.8516 150.117 95.8594 151.039 97.2031C151.961 98.5312 152.422 100.203 152.422 102.219V112.602C152.422 114.258 152.516 115.516 152.703 116.375C152.891 117.219 153.156 117.961 153.5 118.602V119H145.578C145.203 118.219 144.922 117.266 144.734 116.141C144.562 115 144.477 113.828 144.477 112.625ZM145.438 103.508L145.484 107.727H141.992C141.258 107.727 140.633 107.828 140.117 108.031C139.617 108.234 139.211 108.516 138.898 108.875C138.602 109.219 138.383 109.609 138.242 110.047C138.117 110.484 138.055 110.945 138.055 111.43C138.055 111.898 138.164 112.32 138.383 112.695C138.617 113.055 138.93 113.336 139.32 113.539C139.711 113.742 140.148 113.844 140.633 113.844C141.508 113.844 142.25 113.68 142.859 113.352C143.484 113.008 143.961 112.594 144.289 112.109C144.617 111.625 144.781 111.172 144.781 110.75L146.516 113.984C146.203 114.609 145.844 115.242 145.438 115.883C145.047 116.523 144.555 117.117 143.961 117.664C143.383 118.195 142.672 118.633 141.828 118.977C140.984 119.305 139.961 119.469 138.758 119.469C137.195 119.469 135.758 119.148 134.445 118.508C133.148 117.867 132.109 116.977 131.328 115.836C130.547 114.68 130.156 113.352 130.156 111.852C130.156 110.539 130.391 109.367 130.859 108.336C131.344 107.305 132.07 106.43 133.039 105.711C134.008 104.992 135.242 104.445 136.742 104.07C138.242 103.695 140.008 103.508 142.039 103.508H145.438ZM156.875 83H164.773V112.766L163.953 119H156.875V83ZM180.336 106.039V106.531C180.336 108.453 180.141 110.203 179.75 111.781C179.359 113.359 178.758 114.727 177.945 115.883C177.133 117.023 176.109 117.906 174.875 118.531C173.641 119.156 172.18 119.469 170.492 119.469C168.961 119.469 167.648 119.141 166.555 118.484C165.461 117.812 164.547 116.891 163.812 115.719C163.078 114.531 162.484 113.164 162.031 111.617C161.578 110.055 161.219 108.383 160.953 106.602V106.016C161.219 104.25 161.578 102.594 162.031 101.047C162.484 99.4844 163.078 98.1172 163.812 96.9453C164.547 95.7578 165.453 94.8359 166.531 94.1797C167.625 93.5078 168.93 93.1719 170.445 93.1719C172.148 93.1719 173.617 93.4922 174.852 94.1328C176.102 94.7734 177.133 95.6719 177.945 96.8281C178.758 97.9844 179.359 99.3438 179.75 100.906C180.141 102.469 180.336 104.18 180.336 106.039ZM172.438 106.531V106.039C172.438 105.117 172.383 104.25 172.273 103.438C172.164 102.625 171.969 101.906 171.688 101.281C171.406 100.656 171.008 100.164 170.492 99.8047C169.977 99.4453 169.305 99.2656 168.477 99.2656C167.633 99.2656 166.922 99.4062 166.344 99.6875C165.781 99.9688 165.328 100.375 164.984 100.906C164.656 101.422 164.422 102.062 164.281 102.828C164.141 103.578 164.078 104.43 164.094 105.383V107.234C164.062 108.531 164.18 109.641 164.445 110.562C164.711 111.484 165.172 112.188 165.828 112.672C166.484 113.156 167.383 113.398 168.523 113.398C169.367 113.398 170.047 113.234 170.562 112.906C171.094 112.578 171.492 112.109 171.758 111.5C172.023 110.891 172.203 110.164 172.297 109.32C172.391 108.477 172.438 107.547 172.438 106.531ZM197.023 112.625V102.172C197.023 101.453 196.922 100.836 196.719 100.32C196.516 99.8047 196.195 99.4062 195.758 99.125C195.32 98.8281 194.734 98.6797 194 98.6797C193.406 98.6797 192.898 98.7812 192.477 98.9844C192.055 99.1875 191.734 99.4922 191.516 99.8984C191.297 100.305 191.188 100.82 191.188 101.445H183.289C183.289 100.273 183.547 99.1875 184.062 98.1875C184.594 97.1719 185.344 96.2891 186.312 95.5391C187.297 94.7891 188.469 94.2109 189.828 93.8047C191.203 93.3828 192.734 93.1719 194.422 93.1719C196.438 93.1719 198.234 93.5078 199.812 94.1797C201.406 94.8516 202.664 95.8594 203.586 97.2031C204.508 98.5312 204.969 100.203 204.969 102.219V112.602C204.969 114.258 205.062 115.516 205.25 116.375C205.438 117.219 205.703 117.961 206.047 118.602V119H198.125C197.75 118.219 197.469 117.266 197.281 116.141C197.109 115 197.023 113.828 197.023 112.625ZM197.984 103.508L198.031 107.727H194.539C193.805 107.727 193.18 107.828 192.664 108.031C192.164 108.234 191.758 108.516 191.445 108.875C191.148 109.219 190.93 109.609 190.789 110.047C190.664 110.484 190.602 110.945 190.602 111.43C190.602 111.898 190.711 112.32 190.93 112.695C191.164 113.055 191.477 113.336 191.867 113.539C192.258 113.742 192.695 113.844 193.18 113.844C194.055 113.844 194.797 113.68 195.406 113.352C196.031 113.008 196.508 112.594 196.836 112.109C197.164 111.625 197.328 111.172 197.328 110.75L199.062 113.984C198.75 114.609 198.391 115.242 197.984 115.883C197.594 116.523 197.102 117.117 196.508 117.664C195.93 118.195 195.219 118.633 194.375 118.977C193.531 119.305 192.508 119.469 191.305 119.469C189.742 119.469 188.305 119.148 186.992 118.508C185.695 117.867 184.656 116.977 183.875 115.836C183.094 114.68 182.703 113.352 182.703 111.852C182.703 110.539 182.938 109.367 183.406 108.336C183.891 107.305 184.617 106.43 185.586 105.711C186.555 104.992 187.789 104.445 189.289 104.07C190.789 103.695 192.555 103.508 194.586 103.508H197.984ZM222.641 111.875C222.641 111.438 222.492 111.062 222.195 110.75C221.914 110.422 221.414 110.125 220.695 109.859C219.977 109.578 218.969 109.297 217.672 109.016C216.438 108.75 215.273 108.398 214.18 107.961C213.102 107.523 212.156 106.992 211.344 106.367C210.531 105.742 209.891 105 209.422 104.141C208.969 103.281 208.742 102.297 208.742 101.188C208.742 100.109 208.969 99.0938 209.422 98.1406C209.891 97.1719 210.57 96.3203 211.461 95.5859C212.367 94.8359 213.469 94.25 214.766 93.8281C216.062 93.3906 217.539 93.1719 219.195 93.1719C221.477 93.1719 223.445 93.5234 225.102 94.2266C226.758 94.9141 228.031 95.8828 228.922 97.1328C229.828 98.3672 230.281 99.7969 230.281 101.422H222.383C222.383 100.781 222.273 100.234 222.055 99.7812C221.852 99.3281 221.516 98.9844 221.047 98.75C220.578 98.5 219.953 98.375 219.172 98.375C218.625 98.375 218.125 98.4766 217.672 98.6797C217.234 98.8828 216.883 99.1641 216.617 99.5234C216.352 99.8828 216.219 100.305 216.219 100.789C216.219 101.133 216.297 101.445 216.453 101.727C216.625 101.992 216.883 102.242 217.227 102.477C217.57 102.695 218.008 102.898 218.539 103.086C219.07 103.258 219.711 103.414 220.461 103.555C222.164 103.867 223.758 104.312 225.242 104.891C226.727 105.469 227.93 106.289 228.852 107.352C229.789 108.414 230.258 109.844 230.258 111.641C230.258 112.766 230 113.805 229.484 114.758C228.969 115.695 228.227 116.523 227.258 117.242C226.289 117.945 225.125 118.492 223.766 118.883C222.406 119.273 220.875 119.469 219.172 119.469C216.75 119.469 214.703 119.039 213.031 118.18C211.359 117.305 210.094 116.211 209.234 114.898C208.391 113.57 207.969 112.227 207.969 110.867H215.328C215.359 111.648 215.547 112.289 215.891 112.789C216.25 113.289 216.727 113.656 217.32 113.891C217.914 114.125 218.602 114.242 219.383 114.242C220.102 114.242 220.695 114.141 221.164 113.938C221.648 113.734 222.016 113.461 222.266 113.117C222.516 112.758 222.641 112.344 222.641 111.875ZM246.242 119.469C244.18 119.469 242.336 119.148 240.711 118.508C239.086 117.852 237.711 116.953 236.586 115.812C235.477 114.672 234.625 113.359 234.031 111.875C233.453 110.391 233.164 108.82 233.164 107.164V106.273C233.164 104.414 233.422 102.695 233.938 101.117C234.453 99.5234 235.219 98.1328 236.234 96.9453C237.25 95.7578 238.523 94.8359 240.055 94.1797C241.586 93.5078 243.367 93.1719 245.398 93.1719C247.195 93.1719 248.805 93.4609 250.227 94.0391C251.648 94.6172 252.852 95.4453 253.836 96.5234C254.836 97.6016 255.594 98.9062 256.109 100.438C256.641 101.969 256.906 103.688 256.906 105.594V108.805H236.188V103.859H249.195V103.25C249.211 102.406 249.062 101.688 248.75 101.094C248.453 100.5 248.016 100.047 247.438 99.7344C246.859 99.4219 246.156 99.2656 245.328 99.2656C244.469 99.2656 243.758 99.4531 243.195 99.8281C242.648 100.203 242.219 100.719 241.906 101.375C241.609 102.016 241.398 102.758 241.273 103.602C241.148 104.445 241.086 105.336 241.086 106.273V107.164C241.086 108.102 241.211 108.953 241.461 109.719C241.727 110.484 242.102 111.141 242.586 111.688C243.086 112.219 243.68 112.633 244.367 112.93C245.07 113.227 245.867 113.375 246.758 113.375C247.836 113.375 248.898 113.172 249.945 112.766C250.992 112.359 251.891 111.688 252.641 110.75L256.227 115.016C255.711 115.75 254.977 116.461 254.023 117.148C253.086 117.836 251.961 118.398 250.648 118.836C249.336 119.258 247.867 119.469 246.242 119.469ZM283.531 119H275.961L276.008 112.672H283.531C285.094 112.672 286.414 112.297 287.492 111.547C288.586 110.797 289.414 109.68 289.977 108.195C290.555 106.695 290.844 104.852 290.844 102.664V101.188C290.844 99.5469 290.68 98.1094 290.352 96.875C290.039 95.625 289.57 94.5859 288.945 93.7578C288.32 92.9141 287.539 92.2812 286.602 91.8594C285.68 91.4375 284.617 91.2266 283.414 91.2266H275.82V84.875H283.414C285.727 84.875 287.844 85.2734 289.766 86.0703C291.703 86.8516 293.375 87.9766 294.781 89.4453C296.203 90.8984 297.297 92.625 298.062 94.625C298.844 96.6094 299.234 98.8125 299.234 101.234V102.664C299.234 105.07 298.844 107.273 298.062 109.273C297.297 111.273 296.211 113 294.805 114.453C293.398 115.906 291.734 117.031 289.812 117.828C287.906 118.609 285.812 119 283.531 119ZM280.672 84.875V119H272.445V84.875H280.672ZM315.43 119.469C313.367 119.469 311.523 119.148 309.898 118.508C308.273 117.852 306.898 116.953 305.773 115.812C304.664 114.672 303.812 113.359 303.219 111.875C302.641 110.391 302.352 108.82 302.352 107.164V106.273C302.352 104.414 302.609 102.695 303.125 101.117C303.641 99.5234 304.406 98.1328 305.422 96.9453C306.438 95.7578 307.711 94.8359 309.242 94.1797C310.773 93.5078 312.555 93.1719 314.586 93.1719C316.383 93.1719 317.992 93.4609 319.414 94.0391C320.836 94.6172 322.039 95.4453 323.023 96.5234C324.023 97.6016 324.781 98.9062 325.297 100.438C325.828 101.969 326.094 103.688 326.094 105.594V108.805H305.375V103.859H318.383V103.25C318.398 102.406 318.25 101.688 317.938 101.094C317.641 100.5 317.203 100.047 316.625 99.7344C316.047 99.4219 315.344 99.2656 314.516 99.2656C313.656 99.2656 312.945 99.4531 312.383 99.8281C311.836 100.203 311.406 100.719 311.094 101.375C310.797 102.016 310.586 102.758 310.461 103.602C310.336 104.445 310.273 105.336 310.273 106.273V107.164C310.273 108.102 310.398 108.953 310.648 109.719C310.914 110.484 311.289 111.141 311.773 111.688C312.273 112.219 312.867 112.633 313.555 112.93C314.258 113.227 315.055 113.375 315.945 113.375C317.023 113.375 318.086 113.172 319.133 112.766C320.18 112.359 321.078 111.688 321.828 110.75L325.414 115.016C324.898 115.75 324.164 116.461 323.211 117.148C322.273 117.836 321.148 118.398 319.836 118.836C318.523 119.258 317.055 119.469 315.43 119.469ZM342.594 111.875C342.594 111.438 342.445 111.062 342.148 110.75C341.867 110.422 341.367 110.125 340.648 109.859C339.93 109.578 338.922 109.297 337.625 109.016C336.391 108.75 335.227 108.398 334.133 107.961C333.055 107.523 332.109 106.992 331.297 106.367C330.484 105.742 329.844 105 329.375 104.141C328.922 103.281 328.695 102.297 328.695 101.188C328.695 100.109 328.922 99.0938 329.375 98.1406C329.844 97.1719 330.523 96.3203 331.414 95.5859C332.32 94.8359 333.422 94.25 334.719 93.8281C336.016 93.3906 337.492 93.1719 339.148 93.1719C341.43 93.1719 343.398 93.5234 345.055 94.2266C346.711 94.9141 347.984 95.8828 348.875 97.1328C349.781 98.3672 350.234 99.7969 350.234 101.422H342.336C342.336 100.781 342.227 100.234 342.008 99.7812C341.805 99.3281 341.469 98.9844 341 98.75C340.531 98.5 339.906 98.375 339.125 98.375C338.578 98.375 338.078 98.4766 337.625 98.6797C337.188 98.8828 336.836 99.1641 336.57 99.5234C336.305 99.8828 336.172 100.305 336.172 100.789C336.172 101.133 336.25 101.445 336.406 101.727C336.578 101.992 336.836 102.242 337.18 102.477C337.523 102.695 337.961 102.898 338.492 103.086C339.023 103.258 339.664 103.414 340.414 103.555C342.117 103.867 343.711 104.312 345.195 104.891C346.68 105.469 347.883 106.289 348.805 107.352C349.742 108.414 350.211 109.844 350.211 111.641C350.211 112.766 349.953 113.805 349.438 114.758C348.922 115.695 348.18 116.523 347.211 117.242C346.242 117.945 345.078 118.492 343.719 118.883C342.359 119.273 340.828 119.469 339.125 119.469C336.703 119.469 334.656 119.039 332.984 118.18C331.312 117.305 330.047 116.211 329.188 114.898C328.344 113.57 327.922 112.227 327.922 110.867H335.281C335.312 111.648 335.5 112.289 335.844 112.789C336.203 113.289 336.68 113.656 337.273 113.891C337.867 114.125 338.555 114.242 339.336 114.242C340.055 114.242 340.648 114.141 341.117 113.938C341.602 113.734 341.969 113.461 342.219 113.117C342.469 112.758 342.594 112.344 342.594 111.875ZM362.258 93.6406V119H354.336V93.6406H362.258ZM353.867 87.1016C353.867 85.9766 354.273 85.0547 355.086 84.3359C355.898 83.6172 356.953 83.2578 358.25 83.2578C359.547 83.2578 360.602 83.6172 361.414 84.3359C362.227 85.0547 362.633 85.9766 362.633 87.1016C362.633 88.2266 362.227 89.1484 361.414 89.8672C360.602 90.5859 359.547 90.9453 358.25 90.9453C356.953 90.9453 355.898 90.5859 355.086 89.8672C354.273 89.1484 353.867 88.2266 353.867 87.1016ZM383.07 93.6406H390.242V118.016C390.242 120.359 389.703 122.344 388.625 123.969C387.547 125.609 386.039 126.852 384.102 127.695C382.18 128.555 379.93 128.984 377.352 128.984C376.211 128.984 375.047 128.836 373.859 128.539C372.672 128.258 371.562 127.836 370.531 127.273C369.5 126.711 368.633 126.016 367.93 125.188L371.234 120.547C371.875 121.266 372.68 121.875 373.648 122.375C374.617 122.891 375.758 123.148 377.07 123.148C378.211 123.148 379.164 122.945 379.93 122.539C380.711 122.133 381.305 121.539 381.711 120.758C382.117 119.992 382.32 119.062 382.32 117.969V99.6406L383.07 93.6406ZM366.219 106.625V106.133C366.219 104.211 366.453 102.461 366.922 100.883C367.406 99.2891 368.094 97.9219 368.984 96.7812C369.891 95.625 370.984 94.7344 372.266 94.1094C373.547 93.4844 374.992 93.1719 376.602 93.1719C378.336 93.1719 379.758 93.5078 380.867 94.1797C381.992 94.8359 382.891 95.7578 383.562 96.9453C384.25 98.1328 384.781 99.5234 385.156 101.117C385.547 102.695 385.875 104.398 386.141 106.227V106.812C385.875 108.531 385.508 110.156 385.039 111.688C384.586 113.203 383.992 114.547 383.258 115.719C382.523 116.891 381.602 117.812 380.492 118.484C379.398 119.141 378.086 119.469 376.555 119.469C374.961 119.469 373.523 119.148 372.242 118.508C370.977 117.867 369.891 116.969 368.984 115.812C368.094 114.656 367.406 113.297 366.922 111.734C366.453 110.172 366.219 108.469 366.219 106.625ZM374.117 106.133V106.625C374.117 107.578 374.203 108.461 374.375 109.273C374.562 110.086 374.844 110.805 375.219 111.43C375.594 112.039 376.055 112.516 376.602 112.859C377.164 113.203 377.82 113.375 378.57 113.375C379.711 113.375 380.633 113.133 381.336 112.648C382.039 112.164 382.547 111.477 382.859 110.586C383.172 109.695 383.305 108.648 383.258 107.445V105.594C383.289 104.562 383.219 103.656 383.047 102.875C382.875 102.078 382.602 101.414 382.227 100.883C381.867 100.352 381.383 99.9531 380.773 99.6875C380.18 99.4062 379.461 99.2656 378.617 99.2656C377.883 99.2656 377.234 99.4375 376.672 99.7812C376.109 100.125 375.641 100.609 375.266 101.234C374.891 101.844 374.602 102.57 374.398 103.414C374.211 104.242 374.117 105.148 374.117 106.133ZM402.547 99.0547V119H394.648V93.6406H402.055L402.547 99.0547ZM401.609 105.453L399.758 105.5C399.758 103.562 399.992 101.836 400.461 100.32C400.93 98.7891 401.594 97.4922 402.453 96.4297C403.312 95.3672 404.336 94.5625 405.523 94.0156C406.727 93.4531 408.062 93.1719 409.531 93.1719C410.703 93.1719 411.773 93.3438 412.742 93.6875C413.727 94.0312 414.57 94.5859 415.273 95.3516C415.992 96.1172 416.539 97.1328 416.914 98.3984C417.305 99.6484 417.5 101.195 417.5 103.039V119H409.555V103.016C409.555 102 409.414 101.227 409.133 100.695C408.852 100.148 408.445 99.7734 407.914 99.5703C407.383 99.3672 406.734 99.2656 405.969 99.2656C405.156 99.2656 404.469 99.4219 403.906 99.7344C403.344 100.047 402.891 100.484 402.547 101.047C402.219 101.594 401.977 102.242 401.82 102.992C401.68 103.742 401.609 104.562 401.609 105.453Z" fill="black"/>
</svg>
