<svg width="1097" height="186" viewBox="0 0 1097 186" fill="none" xmlns="http://www.w3.org/2000/svg">
<rect width="1097" height="186" fill="#F0F0F0"/>
<path d="M64.9062 65.4219L57.3945 62.7383V59.5859L67.6016 63.875V66.1367L64.9062 65.4219ZM57.3945 67.6719L64.918 64.9297L67.6016 64.2852V66.5352L57.3945 70.8242V67.6719ZM82.543 66.418H78.1953V63.6758H82.543C83.2148 63.6758 83.7617 63.5664 84.1836 63.3477C84.6055 63.1211 84.9141 62.8086 85.1094 62.4102C85.3047 62.0117 85.4023 61.5625 85.4023 61.0625C85.4023 60.5547 85.3047 60.082 85.1094 59.6445C84.9141 59.207 84.6055 58.8555 84.1836 58.5898C83.7617 58.3242 83.2148 58.1914 82.543 58.1914H79.4141V72.5H75.8984V55.4375H82.543C83.8789 55.4375 85.0234 55.6797 85.9766 56.1641C86.9375 56.6406 87.6719 57.3008 88.1797 58.1445C88.6875 58.9883 88.9414 59.9531 88.9414 61.0391C88.9414 62.1406 88.6875 63.0938 88.1797 63.8984C87.6719 64.7031 86.9375 65.3242 85.9766 65.7617C85.0234 66.1992 83.8789 66.418 82.543 66.418ZM94.5312 62.5859V72.5H91.1562V59.8203H94.332L94.5312 62.5859ZM98.3516 59.7383L98.293 62.8672C98.1289 62.8438 97.9297 62.8242 97.6953 62.8086C97.4688 62.7852 97.2617 62.7734 97.0742 62.7734C96.5977 62.7734 96.1836 62.8359 95.832 62.9609C95.4883 63.0781 95.1992 63.2539 94.9648 63.4883C94.7383 63.7227 94.5664 64.0078 94.4492 64.3438C94.3398 64.6797 94.2773 65.0625 94.2617 65.4922L93.582 65.2812C93.582 64.4609 93.6641 63.707 93.8281 63.0195C93.9922 62.3242 94.2305 61.7188 94.543 61.2031C94.8633 60.6875 95.2539 60.2891 95.7148 60.0078C96.1758 59.7266 96.7031 59.5859 97.2969 59.5859C97.4844 59.5859 97.6758 59.6016 97.8711 59.6328C98.0664 59.6562 98.2266 59.6914 98.3516 59.7383ZM99.0547 66.2891V66.043C99.0547 65.1133 99.1875 64.2578 99.4531 63.4766C99.7188 62.6875 100.105 62.0039 100.613 61.4258C101.121 60.8477 101.746 60.3984 102.488 60.0781C103.23 59.75 104.082 59.5859 105.043 59.5859C106.004 59.5859 106.859 59.75 107.609 60.0781C108.359 60.3984 108.988 60.8477 109.496 61.4258C110.012 62.0039 110.402 62.6875 110.668 63.4766C110.934 64.2578 111.066 65.1133 111.066 66.043V66.2891C111.066 67.2109 110.934 68.0664 110.668 68.8555C110.402 69.6367 110.012 70.3203 109.496 70.9062C108.988 71.4844 108.363 71.9336 107.621 72.2539C106.879 72.5742 106.027 72.7344 105.066 72.7344C104.105 72.7344 103.25 72.5742 102.5 72.2539C101.758 71.9336 101.129 71.4844 100.613 70.9062C100.105 70.3203 99.7188 69.6367 99.4531 68.8555C99.1875 68.0664 99.0547 67.2109 99.0547 66.2891ZM102.43 66.043V66.2891C102.43 66.8203 102.477 67.3164 102.57 67.7773C102.664 68.2383 102.812 68.6445 103.016 68.9961C103.227 69.3398 103.5 69.6094 103.836 69.8047C104.172 70 104.582 70.0977 105.066 70.0977C105.535 70.0977 105.938 70 106.273 69.8047C106.609 69.6094 106.879 69.3398 107.082 68.9961C107.285 68.6445 107.434 68.2383 107.527 67.7773C107.629 67.3164 107.68 66.8203 107.68 66.2891V66.043C107.68 65.5273 107.629 65.043 107.527 64.5898C107.434 64.1289 107.281 63.7227 107.07 63.3711C106.867 63.0117 106.598 62.7305 106.262 62.5273C105.926 62.3242 105.52 62.2227 105.043 62.2227C104.566 62.2227 104.16 62.3242 103.824 62.5273C103.496 62.7305 103.227 63.0117 103.016 63.3711C102.812 63.7227 102.664 64.1289 102.57 64.5898C102.477 65.043 102.43 65.5273 102.43 66.043ZM113.328 59.8203H116.715V73.2617C116.715 74.1992 116.543 74.9922 116.199 75.6406C115.855 76.2891 115.359 76.7812 114.711 77.1172C114.062 77.4531 113.277 77.6211 112.355 77.6211C112.066 77.6211 111.785 77.6055 111.512 77.5742C111.23 77.543 110.941 77.4922 110.645 77.4219L110.656 74.832C110.844 74.8633 111.027 74.8867 111.207 74.9023C111.379 74.9258 111.555 74.9375 111.734 74.9375C112.086 74.9375 112.379 74.8789 112.613 74.7617C112.848 74.6445 113.023 74.4609 113.141 74.2109C113.266 73.9688 113.328 73.6523 113.328 73.2617V59.8203ZM113.059 56.5156C113.059 56.0234 113.23 55.6172 113.574 55.2969C113.926 54.9766 114.387 54.8164 114.957 54.8164C115.535 54.8164 115.996 54.9766 116.34 55.2969C116.684 55.6172 116.855 56.0234 116.855 56.5156C116.855 57.0078 116.684 57.4141 116.34 57.7344C115.996 58.0547 115.535 58.2148 114.957 58.2148C114.387 58.2148 113.926 58.0547 113.574 57.7344C113.23 57.4141 113.059 57.0078 113.059 56.5156ZM125.234 72.7344C124.25 72.7344 123.367 72.5781 122.586 72.2656C121.805 71.9453 121.141 71.5039 120.594 70.9414C120.055 70.3789 119.641 69.7266 119.352 68.9844C119.062 68.2344 118.918 67.4375 118.918 66.5938V66.125C118.918 65.1641 119.055 64.2852 119.328 63.4883C119.602 62.6914 119.992 62 120.5 61.4141C121.016 60.8281 121.641 60.3789 122.375 60.0664C123.109 59.7461 123.938 59.5859 124.859 59.5859C125.758 59.5859 126.555 59.7344 127.25 60.0312C127.945 60.3281 128.527 60.75 128.996 61.2969C129.473 61.8438 129.832 62.5 130.074 63.2656C130.316 64.0234 130.438 64.8672 130.438 65.7969V67.2031H120.359V64.9531H127.121V64.6953C127.121 64.2266 127.035 63.8086 126.863 63.4414C126.699 63.0664 126.449 62.7695 126.113 62.5508C125.777 62.332 125.348 62.2227 124.824 62.2227C124.379 62.2227 123.996 62.3203 123.676 62.5156C123.355 62.7109 123.094 62.9844 122.891 63.3359C122.695 63.6875 122.547 64.1016 122.445 64.5781C122.352 65.0469 122.305 65.5625 122.305 66.125V66.5938C122.305 67.1016 122.375 67.5703 122.516 68C122.664 68.4297 122.871 68.8008 123.137 69.1133C123.41 69.4258 123.738 69.668 124.121 69.8398C124.512 70.0117 124.953 70.0977 125.445 70.0977C126.055 70.0977 126.621 69.9805 127.145 69.7461C127.676 69.5039 128.133 69.1406 128.516 68.6562L130.156 70.4375C129.891 70.8203 129.527 71.1875 129.066 71.5391C128.613 71.8906 128.066 72.1797 127.426 72.4062C126.785 72.625 126.055 72.7344 125.234 72.7344ZM137.598 70.0977C138.012 70.0977 138.379 70.0195 138.699 69.8633C139.02 69.6992 139.27 69.4727 139.449 69.1836C139.637 68.8867 139.734 68.5391 139.742 68.1406H142.918C142.91 69.0312 142.672 69.8242 142.203 70.5195C141.734 71.207 141.105 71.75 140.316 72.1484C139.527 72.5391 138.645 72.7344 137.668 72.7344C136.684 72.7344 135.824 72.5703 135.09 72.2422C134.363 71.9141 133.758 71.4609 133.273 70.8828C132.789 70.2969 132.426 69.6172 132.184 68.8438C131.941 68.0625 131.82 67.2266 131.82 66.3359V65.9961C131.82 65.0977 131.941 64.2617 132.184 63.4883C132.426 62.707 132.789 62.0273 133.273 61.4492C133.758 60.8633 134.363 60.4062 135.09 60.0781C135.816 59.75 136.668 59.5859 137.645 59.5859C138.684 59.5859 139.594 59.7852 140.375 60.1836C141.164 60.582 141.781 61.1523 142.227 61.8945C142.68 62.6289 142.91 63.5 142.918 64.5078H139.742C139.734 64.0859 139.645 63.7031 139.473 63.3594C139.309 63.0156 139.066 62.7422 138.746 62.5391C138.434 62.3281 138.047 62.2227 137.586 62.2227C137.094 62.2227 136.691 62.3281 136.379 62.5391C136.066 62.7422 135.824 63.0234 135.652 63.3828C135.48 63.7344 135.359 64.1367 135.289 64.5898C135.227 65.0352 135.195 65.5039 135.195 65.9961V66.3359C135.195 66.8281 135.227 67.3008 135.289 67.7539C135.352 68.207 135.469 68.6094 135.641 68.9609C135.82 69.3125 136.066 69.5898 136.379 69.793C136.691 69.9961 137.098 70.0977 137.598 70.0977ZM151.086 59.8203V62.2109H143.703V59.8203H151.086ZM145.531 56.6914H148.906V68.6797C148.906 69.0469 148.953 69.3281 149.047 69.5234C149.148 69.7188 149.297 69.8555 149.492 69.9336C149.688 70.0039 149.934 70.0391 150.23 70.0391C150.441 70.0391 150.629 70.0312 150.793 70.0156C150.965 69.9922 151.109 69.9688 151.227 69.9453L151.238 72.4297C150.949 72.5234 150.637 72.5977 150.301 72.6523C149.965 72.707 149.594 72.7344 149.188 72.7344C148.445 72.7344 147.797 72.6133 147.242 72.3711C146.695 72.1211 146.273 71.7227 145.977 71.1758C145.68 70.6289 145.531 69.9102 145.531 69.0195V56.6914ZM166.191 55.4375V72.5H162.688V55.4375H166.191ZM171.441 55.4375V58.1914H157.52V55.4375H171.441ZM176.797 59.8203V72.5H173.41V59.8203H176.797ZM173.199 56.5156C173.199 56.0234 173.371 55.6172 173.715 55.2969C174.059 54.9766 174.52 54.8164 175.098 54.8164C175.668 54.8164 176.125 54.9766 176.469 55.2969C176.82 55.6172 176.996 56.0234 176.996 56.5156C176.996 57.0078 176.82 57.4141 176.469 57.7344C176.125 58.0547 175.668 58.2148 175.098 58.2148C174.52 58.2148 174.059 58.0547 173.715 57.7344C173.371 57.4141 173.199 57.0078 173.199 56.5156ZM185.797 59.8203V62.2109H178.414V59.8203H185.797ZM180.242 56.6914H183.617V68.6797C183.617 69.0469 183.664 69.3281 183.758 69.5234C183.859 69.7188 184.008 69.8555 184.203 69.9336C184.398 70.0039 184.645 70.0391 184.941 70.0391C185.152 70.0391 185.34 70.0312 185.504 70.0156C185.676 69.9922 185.82 69.9688 185.938 69.9453L185.949 72.4297C185.66 72.5234 185.348 72.5977 185.012 72.6523C184.676 72.707 184.305 72.7344 183.898 72.7344C183.156 72.7344 182.508 72.6133 181.953 72.3711C181.406 72.1211 180.984 71.7227 180.688 71.1758C180.391 70.6289 180.242 69.9102 180.242 69.0195V56.6914ZM191.281 54.5V72.5H187.895V54.5H191.281ZM199.906 72.7344C198.922 72.7344 198.039 72.5781 197.258 72.2656C196.477 71.9453 195.812 71.5039 195.266 70.9414C194.727 70.3789 194.312 69.7266 194.023 68.9844C193.734 68.2344 193.59 67.4375 193.59 66.5938V66.125C193.59 65.1641 193.727 64.2852 194 63.4883C194.273 62.6914 194.664 62 195.172 61.4141C195.688 60.8281 196.312 60.3789 197.047 60.0664C197.781 59.7461 198.609 59.5859 199.531 59.5859C200.43 59.5859 201.227 59.7344 201.922 60.0312C202.617 60.3281 203.199 60.75 203.668 61.2969C204.145 61.8438 204.504 62.5 204.746 63.2656C204.988 64.0234 205.109 64.8672 205.109 65.7969V67.2031H195.031V64.9531H201.793V64.6953C201.793 64.2266 201.707 63.8086 201.535 63.4414C201.371 63.0664 201.121 62.7695 200.785 62.5508C200.449 62.332 200.02 62.2227 199.496 62.2227C199.051 62.2227 198.668 62.3203 198.348 62.5156C198.027 62.7109 197.766 62.9844 197.562 63.3359C197.367 63.6875 197.219 64.1016 197.117 64.5781C197.023 65.0469 196.977 65.5625 196.977 66.125V66.5938C196.977 67.1016 197.047 67.5703 197.188 68C197.336 68.4297 197.543 68.8008 197.809 69.1133C198.082 69.4258 198.41 69.668 198.793 69.8398C199.184 70.0117 199.625 70.0977 200.117 70.0977C200.727 70.0977 201.293 69.9805 201.816 69.7461C202.348 69.5039 202.805 69.1406 203.188 68.6562L204.828 70.4375C204.562 70.8203 204.199 71.1875 203.738 71.5391C203.285 71.8906 202.738 72.1797 202.098 72.4062C201.457 72.625 200.727 72.7344 199.906 72.7344Z" fill="#888888"/>
<path d="M72.2188 118.922H63.7344V112.57H72.2188C73.375 112.57 74.3125 112.375 75.0312 111.984C75.75 111.594 76.2734 111.055 76.6016 110.367C76.9453 109.664 77.1172 108.875 77.1172 108C77.1172 107.062 76.9453 106.195 76.6016 105.398C76.2734 104.602 75.75 103.961 75.0312 103.477C74.3125 102.977 73.375 102.727 72.2188 102.727H66.8281V130.5H58.6016V96.375H72.2188C74.9531 96.375 77.3047 96.875 79.2734 97.875C81.2578 98.875 82.7812 100.25 83.8438 102C84.9062 103.734 85.4375 105.719 85.4375 107.953C85.4375 110.156 84.9062 112.078 83.8438 113.719C82.7812 115.359 81.2578 116.641 79.2734 117.562C77.3047 118.469 74.9531 118.922 72.2188 118.922ZM97.4609 111.422V130.5H89.5625V105.141H96.9453L97.4609 111.422ZM104.961 104.953L104.82 112.289C104.508 112.258 104.086 112.219 103.555 112.172C103.023 112.125 102.578 112.102 102.219 112.102C101.297 112.102 100.5 112.211 99.8281 112.43C99.1719 112.633 98.625 112.945 98.1875 113.367C97.7656 113.773 97.4531 114.289 97.25 114.914C97.0625 115.539 96.9766 116.266 96.9922 117.094L95.5625 116.156C95.5625 114.453 95.7266 112.906 96.0547 111.516C96.3984 110.109 96.8828 108.898 97.5078 107.883C98.1328 106.852 98.8906 106.062 99.7812 105.516C100.672 104.953 101.672 104.672 102.781 104.672C103.172 104.672 103.555 104.695 103.93 104.742C104.32 104.789 104.664 104.859 104.961 104.953ZM105.852 118.078V117.586C105.852 115.727 106.117 114.016 106.648 112.453C107.18 110.875 107.961 109.508 108.992 108.352C110.023 107.195 111.297 106.297 112.812 105.656C114.328 105 116.078 104.672 118.062 104.672C120.062 104.672 121.82 105 123.336 105.656C124.867 106.297 126.148 107.195 127.18 108.352C128.211 109.508 128.992 110.875 129.523 112.453C130.055 114.016 130.32 115.727 130.32 117.586V118.078C130.32 119.922 130.055 121.633 129.523 123.211C128.992 124.773 128.211 126.141 127.18 127.312C126.148 128.469 124.875 129.367 123.359 130.008C121.844 130.648 120.094 130.969 118.109 130.969C116.125 130.969 114.367 130.648 112.836 130.008C111.305 129.367 110.023 128.469 108.992 127.312C107.961 126.141 107.18 124.773 106.648 123.211C106.117 121.633 105.852 119.922 105.852 118.078ZM113.75 117.586V118.078C113.75 119.031 113.82 119.922 113.961 120.75C114.102 121.578 114.336 122.305 114.664 122.93C114.992 123.539 115.438 124.016 116 124.359C116.562 124.703 117.266 124.875 118.109 124.875C118.938 124.875 119.625 124.703 120.172 124.359C120.734 124.016 121.18 123.539 121.508 122.93C121.836 122.305 122.07 121.578 122.211 120.75C122.352 119.922 122.422 119.031 122.422 118.078V117.586C122.422 116.664 122.352 115.797 122.211 114.984C122.07 114.156 121.836 113.43 121.508 112.805C121.18 112.164 120.734 111.664 120.172 111.305C119.609 110.945 118.906 110.766 118.062 110.766C117.234 110.766 116.539 110.945 115.977 111.305C115.43 111.664 114.992 112.164 114.664 112.805C114.336 113.43 114.102 114.156 113.961 114.984C113.82 115.797 113.75 116.664 113.75 117.586ZM134.422 105.141H142.344V131.32C142.344 133.352 141.953 135.062 141.172 136.453C140.391 137.859 139.273 138.922 137.82 139.641C136.367 140.375 134.633 140.742 132.617 140.742C131.945 140.742 131.328 140.711 130.766 140.648C130.188 140.602 129.555 140.5 128.867 140.344V134.367C129.273 134.43 129.648 134.477 129.992 134.508C130.336 134.555 130.711 134.578 131.117 134.578C131.836 134.578 132.438 134.461 132.922 134.227C133.406 133.992 133.773 133.633 134.023 133.148C134.289 132.664 134.422 132.055 134.422 131.32V105.141ZM133.836 98.6016C133.836 97.4766 134.242 96.5547 135.055 95.8359C135.867 95.1172 136.922 94.7578 138.219 94.7578C139.516 94.7578 140.57 95.1172 141.383 95.8359C142.195 96.5547 142.602 97.4766 142.602 98.6016C142.602 99.7266 142.195 100.648 141.383 101.367C140.57 102.086 139.516 102.445 138.219 102.445C136.922 102.445 135.867 102.086 135.055 101.367C134.242 100.648 133.836 99.7266 133.836 98.6016ZM159.102 130.969C157.039 130.969 155.195 130.648 153.57 130.008C151.945 129.352 150.57 128.453 149.445 127.312C148.336 126.172 147.484 124.859 146.891 123.375C146.312 121.891 146.023 120.32 146.023 118.664V117.773C146.023 115.914 146.281 114.195 146.797 112.617C147.312 111.023 148.078 109.633 149.094 108.445C150.109 107.258 151.383 106.336 152.914 105.68C154.445 105.008 156.227 104.672 158.258 104.672C160.055 104.672 161.664 104.961 163.086 105.539C164.508 106.117 165.711 106.945 166.695 108.023C167.695 109.102 168.453 110.406 168.969 111.938C169.5 113.469 169.766 115.188 169.766 117.094V120.305H149.047V115.359H162.055V114.75C162.07 113.906 161.922 113.188 161.609 112.594C161.312 112 160.875 111.547 160.297 111.234C159.719 110.922 159.016 110.766 158.188 110.766C157.328 110.766 156.617 110.953 156.055 111.328C155.508 111.703 155.078 112.219 154.766 112.875C154.469 113.516 154.258 114.258 154.133 115.102C154.008 115.945 153.945 116.836 153.945 117.773V118.664C153.945 119.602 154.07 120.453 154.32 121.219C154.586 121.984 154.961 122.641 155.445 123.188C155.945 123.719 156.539 124.133 157.227 124.43C157.93 124.727 158.727 124.875 159.617 124.875C160.695 124.875 161.758 124.672 162.805 124.266C163.852 123.859 164.75 123.188 165.5 122.25L169.086 126.516C168.57 127.25 167.836 127.961 166.883 128.648C165.945 129.336 164.82 129.898 163.508 130.336C162.195 130.758 160.727 130.969 159.102 130.969ZM183.688 124.875C184.422 124.875 185.047 124.742 185.562 124.477C186.094 124.195 186.492 123.805 186.758 123.305C187.039 122.789 187.172 122.172 187.156 121.453H194.586C194.602 123.359 194.133 125.031 193.18 126.469C192.242 127.891 190.961 129 189.336 129.797C187.727 130.578 185.906 130.969 183.875 130.969C181.891 130.969 180.156 130.648 178.672 130.008C177.188 129.352 175.945 128.445 174.945 127.289C173.961 126.117 173.219 124.75 172.719 123.188C172.234 121.625 171.992 119.93 171.992 118.102V117.562C171.992 115.734 172.234 114.039 172.719 112.477C173.219 110.898 173.961 109.531 174.945 108.375C175.945 107.203 177.18 106.297 178.648 105.656C180.133 105 181.859 104.672 183.828 104.672C185.938 104.672 187.797 105.07 189.406 105.867C191.031 106.664 192.305 107.82 193.227 109.336C194.148 110.852 194.602 112.688 194.586 114.844H187.156C187.172 114.078 187.055 113.391 186.805 112.781C186.555 112.172 186.164 111.688 185.633 111.328C185.117 110.953 184.453 110.766 183.641 110.766C182.828 110.766 182.172 110.945 181.672 111.305C181.172 111.664 180.789 112.164 180.523 112.805C180.273 113.43 180.102 114.148 180.008 114.961C179.93 115.773 179.891 116.641 179.891 117.562V118.102C179.891 119.039 179.93 119.922 180.008 120.75C180.102 121.562 180.281 122.281 180.547 122.906C180.812 123.516 181.195 124 181.695 124.359C182.195 124.703 182.859 124.875 183.688 124.875ZM211.32 105.141V110.625H196.039V105.141H211.32ZM199.25 98.8359H207.148V122.227C207.148 122.898 207.227 123.422 207.383 123.797C207.539 124.156 207.805 124.414 208.18 124.57C208.57 124.711 209.086 124.781 209.727 124.781C210.18 124.781 210.555 124.773 210.852 124.758C211.148 124.727 211.43 124.688 211.695 124.641V130.289C211.023 130.508 210.32 130.672 209.586 130.781C208.852 130.906 208.07 130.969 207.242 130.969C205.555 130.969 204.109 130.703 202.906 130.172C201.719 129.641 200.812 128.805 200.188 127.664C199.562 126.523 199.25 125.039 199.25 123.211V98.8359ZM240.406 118.922H231.922V112.57H240.406C241.562 112.57 242.5 112.375 243.219 111.984C243.938 111.594 244.461 111.055 244.789 110.367C245.133 109.664 245.305 108.875 245.305 108C245.305 107.062 245.133 106.195 244.789 105.398C244.461 104.602 243.938 103.961 243.219 103.477C242.5 102.977 241.562 102.727 240.406 102.727H235.016V130.5H226.789V96.375H240.406C243.141 96.375 245.492 96.875 247.461 97.875C249.445 98.875 250.969 100.25 252.031 102C253.094 103.734 253.625 105.719 253.625 107.953C253.625 110.156 253.094 112.078 252.031 113.719C250.969 115.359 249.445 116.641 247.461 117.562C245.492 118.469 243.141 118.922 240.406 118.922ZM265.414 94.5V130.5H257.516V94.5H265.414ZM264.477 116.953L262.625 117C262.625 115.219 262.844 113.578 263.281 112.078C263.719 110.578 264.344 109.273 265.156 108.164C265.969 107.055 266.945 106.195 268.086 105.586C269.227 104.977 270.492 104.672 271.883 104.672C273.133 104.672 274.273 104.852 275.305 105.211C276.352 105.57 277.25 106.148 278 106.945C278.766 107.742 279.352 108.781 279.758 110.062C280.18 111.344 280.391 112.906 280.391 114.75V130.5H272.445V114.703C272.445 113.672 272.297 112.875 272 112.312C271.719 111.734 271.312 111.336 270.781 111.117C270.25 110.883 269.602 110.766 268.836 110.766C267.914 110.766 267.164 110.922 266.586 111.234C266.008 111.547 265.562 111.984 265.25 112.547C264.953 113.094 264.75 113.742 264.641 114.492C264.531 115.242 264.477 116.062 264.477 116.953ZM293.117 105.141V130.5H285.195V105.141H293.117ZM284.727 98.6016C284.727 97.4766 285.133 96.5547 285.945 95.8359C286.758 95.1172 287.812 94.7578 289.109 94.7578C290.406 94.7578 291.461 95.1172 292.273 95.8359C293.086 96.5547 293.492 97.4766 293.492 98.6016C293.492 99.7266 293.086 100.648 292.273 101.367C291.461 102.086 290.406 102.445 289.109 102.445C287.812 102.445 286.758 102.086 285.945 101.367C285.133 100.648 284.727 99.7266 284.727 98.6016ZM306.336 94.5V130.5H298.414V94.5H306.336ZM310.227 118.078V117.586C310.227 115.727 310.492 114.016 311.023 112.453C311.555 110.875 312.336 109.508 313.367 108.352C314.398 107.195 315.672 106.297 317.188 105.656C318.703 105 320.453 104.672 322.438 104.672C324.438 104.672 326.195 105 327.711 105.656C329.242 106.297 330.523 107.195 331.555 108.352C332.586 109.508 333.367 110.875 333.898 112.453C334.43 114.016 334.695 115.727 334.695 117.586V118.078C334.695 119.922 334.43 121.633 333.898 123.211C333.367 124.773 332.586 126.141 331.555 127.312C330.523 128.469 329.25 129.367 327.734 130.008C326.219 130.648 324.469 130.969 322.484 130.969C320.5 130.969 318.742 130.648 317.211 130.008C315.68 129.367 314.398 128.469 313.367 127.312C312.336 126.141 311.555 124.773 311.023 123.211C310.492 121.633 310.227 119.922 310.227 118.078ZM318.125 117.586V118.078C318.125 119.031 318.195 119.922 318.336 120.75C318.477 121.578 318.711 122.305 319.039 122.93C319.367 123.539 319.812 124.016 320.375 124.359C320.938 124.703 321.641 124.875 322.484 124.875C323.312 124.875 324 124.703 324.547 124.359C325.109 124.016 325.555 123.539 325.883 122.93C326.211 122.305 326.445 121.578 326.586 120.75C326.727 119.922 326.797 119.031 326.797 118.078V117.586C326.797 116.664 326.727 115.797 326.586 114.984C326.445 114.156 326.211 113.43 325.883 112.805C325.555 112.164 325.109 111.664 324.547 111.305C323.984 110.945 323.281 110.766 322.438 110.766C321.609 110.766 320.914 110.945 320.352 111.305C319.805 111.664 319.367 112.164 319.039 112.805C318.711 113.43 318.477 114.156 318.336 114.984C318.195 115.797 318.125 116.664 318.125 117.586ZM351.5 123.375C351.5 122.938 351.352 122.562 351.055 122.25C350.773 121.922 350.273 121.625 349.555 121.359C348.836 121.078 347.828 120.797 346.531 120.516C345.297 120.25 344.133 119.898 343.039 119.461C341.961 119.023 341.016 118.492 340.203 117.867C339.391 117.242 338.75 116.5 338.281 115.641C337.828 114.781 337.602 113.797 337.602 112.688C337.602 111.609 337.828 110.594 338.281 109.641C338.75 108.672 339.43 107.82 340.32 107.086C341.227 106.336 342.328 105.75 343.625 105.328C344.922 104.891 346.398 104.672 348.055 104.672C350.336 104.672 352.305 105.023 353.961 105.727C355.617 106.414 356.891 107.383 357.781 108.633C358.688 109.867 359.141 111.297 359.141 112.922H351.242C351.242 112.281 351.133 111.734 350.914 111.281C350.711 110.828 350.375 110.484 349.906 110.25C349.438 110 348.812 109.875 348.031 109.875C347.484 109.875 346.984 109.977 346.531 110.18C346.094 110.383 345.742 110.664 345.477 111.023C345.211 111.383 345.078 111.805 345.078 112.289C345.078 112.633 345.156 112.945 345.312 113.227C345.484 113.492 345.742 113.742 346.086 113.977C346.43 114.195 346.867 114.398 347.398 114.586C347.93 114.758 348.57 114.914 349.32 115.055C351.023 115.367 352.617 115.812 354.102 116.391C355.586 116.969 356.789 117.789 357.711 118.852C358.648 119.914 359.117 121.344 359.117 123.141C359.117 124.266 358.859 125.305 358.344 126.258C357.828 127.195 357.086 128.023 356.117 128.742C355.148 129.445 353.984 129.992 352.625 130.383C351.266 130.773 349.734 130.969 348.031 130.969C345.609 130.969 343.562 130.539 341.891 129.68C340.219 128.805 338.953 127.711 338.094 126.398C337.25 125.07 336.828 123.727 336.828 122.367H344.188C344.219 123.148 344.406 123.789 344.75 124.289C345.109 124.789 345.586 125.156 346.18 125.391C346.773 125.625 347.461 125.742 348.242 125.742C348.961 125.742 349.555 125.641 350.023 125.438C350.508 125.234 350.875 124.961 351.125 124.617C351.375 124.258 351.5 123.844 351.5 123.375ZM361.836 118.078V117.586C361.836 115.727 362.102 114.016 362.633 112.453C363.164 110.875 363.945 109.508 364.977 108.352C366.008 107.195 367.281 106.297 368.797 105.656C370.312 105 372.062 104.672 374.047 104.672C376.047 104.672 377.805 105 379.32 105.656C380.852 106.297 382.133 107.195 383.164 108.352C384.195 109.508 384.977 110.875 385.508 112.453C386.039 114.016 386.305 115.727 386.305 117.586V118.078C386.305 119.922 386.039 121.633 385.508 123.211C384.977 124.773 384.195 126.141 383.164 127.312C382.133 128.469 380.859 129.367 379.344 130.008C377.828 130.648 376.078 130.969 374.094 130.969C372.109 130.969 370.352 130.648 368.82 130.008C367.289 129.367 366.008 128.469 364.977 127.312C363.945 126.141 363.164 124.773 362.633 123.211C362.102 121.633 361.836 119.922 361.836 118.078ZM369.734 117.586V118.078C369.734 119.031 369.805 119.922 369.945 120.75C370.086 121.578 370.32 122.305 370.648 122.93C370.977 123.539 371.422 124.016 371.984 124.359C372.547 124.703 373.25 124.875 374.094 124.875C374.922 124.875 375.609 124.703 376.156 124.359C376.719 124.016 377.164 123.539 377.492 122.93C377.82 122.305 378.055 121.578 378.195 120.75C378.336 119.922 378.406 119.031 378.406 118.078V117.586C378.406 116.664 378.336 115.797 378.195 114.984C378.055 114.156 377.82 113.43 377.492 112.805C377.164 112.164 376.719 111.664 376.156 111.305C375.594 110.945 374.891 110.766 374.047 110.766C373.219 110.766 372.523 110.945 371.961 111.305C371.414 111.664 370.977 112.164 370.648 112.805C370.32 113.43 370.086 114.156 369.945 114.984C369.805 115.797 369.734 116.664 369.734 117.586ZM397.789 110.016V140.25H389.891V105.141H397.25L397.789 110.016ZM413.352 117.516V118.008C413.352 119.852 413.141 121.562 412.719 123.141C412.297 124.719 411.672 126.094 410.844 127.266C410.016 128.438 408.984 129.352 407.75 130.008C406.531 130.648 405.117 130.969 403.508 130.969C401.992 130.969 400.688 130.633 399.594 129.961C398.5 129.289 397.586 128.359 396.852 127.172C396.117 125.984 395.523 124.625 395.07 123.094C394.617 121.562 394.258 119.945 393.992 118.242V117.609C394.258 115.781 394.617 114.086 395.07 112.523C395.523 110.945 396.117 109.57 396.852 108.398C397.586 107.227 398.492 106.312 399.57 105.656C400.664 105 401.969 104.672 403.484 104.672C405.094 104.672 406.508 104.977 407.727 105.586C408.961 106.195 409.992 107.07 410.82 108.211C411.664 109.336 412.297 110.688 412.719 112.266C413.141 113.844 413.352 115.594 413.352 117.516ZM405.453 118.008V117.516C405.453 116.531 405.383 115.633 405.242 114.82C405.102 113.992 404.875 113.273 404.562 112.664C404.266 112.055 403.867 111.586 403.367 111.258C402.867 110.93 402.25 110.766 401.516 110.766C400.672 110.766 399.961 110.898 399.383 111.164C398.82 111.414 398.367 111.805 398.023 112.336C397.695 112.852 397.461 113.5 397.32 114.281C397.195 115.047 397.141 115.945 397.156 116.977V118.898C397.125 120.086 397.242 121.133 397.508 122.039C397.773 122.93 398.234 123.625 398.891 124.125C399.547 124.625 400.438 124.875 401.562 124.875C402.312 124.875 402.938 124.703 403.438 124.359C403.938 124 404.336 123.508 404.633 122.883C404.93 122.242 405.141 121.508 405.266 120.68C405.391 119.852 405.453 118.961 405.453 118.008ZM424.602 94.5V130.5H416.703V94.5H424.602ZM423.664 116.953L421.812 117C421.812 115.219 422.031 113.578 422.469 112.078C422.906 110.578 423.531 109.273 424.344 108.164C425.156 107.055 426.133 106.195 427.273 105.586C428.414 104.977 429.68 104.672 431.07 104.672C432.32 104.672 433.461 104.852 434.492 105.211C435.539 105.57 436.438 106.148 437.188 106.945C437.953 107.742 438.539 108.781 438.945 110.062C439.367 111.344 439.578 112.906 439.578 114.75V130.5H431.633V114.703C431.633 113.672 431.484 112.875 431.188 112.312C430.906 111.734 430.5 111.336 429.969 111.117C429.438 110.883 428.789 110.766 428.023 110.766C427.102 110.766 426.352 110.922 425.773 111.234C425.195 111.547 424.75 111.984 424.438 112.547C424.141 113.094 423.938 113.742 423.828 114.492C423.719 115.242 423.664 116.062 423.664 116.953ZM451.742 127.523L458.305 105.141H466.789L456.594 134.273C456.375 134.914 456.086 135.602 455.727 136.336C455.367 137.086 454.875 137.797 454.25 138.469C453.625 139.141 452.82 139.688 451.836 140.109C450.867 140.531 449.664 140.742 448.227 140.742C447.461 140.742 446.898 140.703 446.539 140.625C446.195 140.562 445.664 140.445 444.945 140.273V134.625C445.148 134.625 445.32 134.625 445.461 134.625C445.617 134.625 445.789 134.625 445.977 134.625C446.82 134.625 447.492 134.539 447.992 134.367C448.508 134.195 448.898 133.945 449.164 133.617C449.445 133.289 449.664 132.891 449.82 132.422L451.742 127.523ZM450.078 105.141L455.07 122.883L455.938 131.25H450.641L441.617 105.141H450.078Z" fill="black"/>
</svg>
