<svg width="1029" height="297" viewBox="0 0 1029 297" fill="none" xmlns="http://www.w3.org/2000/svg">
<path d="M0 0H1029V297H0V0Z" fill="#F0F0F0"/>
<path d="M79.3086 61.6055V62.8184C79.3086 64.7637 79.0449 66.5098 78.5176 68.0566C77.9902 69.6035 77.2461 70.9219 76.2852 72.0117C75.3242 73.0898 74.1758 73.916 72.8398 74.4902C71.5156 75.0645 70.0449 75.3516 68.4277 75.3516C66.8223 75.3516 65.3516 75.0645 64.0156 74.4902C62.6914 73.916 61.543 73.0898 60.5703 72.0117C59.5977 70.9219 58.8418 69.6035 58.3027 68.0566C57.7754 66.5098 57.5117 64.7637 57.5117 62.8184V61.6055C57.5117 59.6484 57.7754 57.9023 58.3027 56.3672C58.8301 54.8203 59.5742 53.502 60.5352 52.4121C61.5078 51.3223 62.6562 50.4902 63.9805 49.916C65.3164 49.3418 66.7871 49.0547 68.3926 49.0547C70.0098 49.0547 71.4805 49.3418 72.8047 49.916C74.1406 50.4902 75.2891 51.3223 76.25 52.4121C77.2227 53.502 77.9727 54.8203 78.5 56.3672C79.0391 57.9023 79.3086 59.6484 79.3086 61.6055ZM73.9824 62.8184V61.5703C73.9824 60.2109 73.8594 59.0156 73.6133 57.9844C73.3672 56.9531 73.0039 56.0859 72.5234 55.3828C72.043 54.6797 71.457 54.1523 70.7656 53.8008C70.0742 53.4375 69.2832 53.2559 68.3926 53.2559C67.502 53.2559 66.7109 53.4375 66.0195 53.8008C65.3398 54.1523 64.7598 54.6797 64.2793 55.3828C63.8105 56.0859 63.4531 56.9531 63.207 57.9844C62.9609 59.0156 62.8379 60.2109 62.8379 61.5703V62.8184C62.8379 64.166 62.9609 65.3613 63.207 66.4043C63.4531 67.4355 63.8164 68.3086 64.2969 69.0234C64.7773 69.7266 65.3633 70.2598 66.0547 70.623C66.7461 70.9863 67.5371 71.168 68.4277 71.168C69.3184 71.168 70.1094 70.9863 70.8008 70.623C71.4922 70.2598 72.0723 69.7266 72.541 69.0234C73.0098 68.3086 73.3672 67.4355 73.6133 66.4043C73.8594 65.3613 73.9824 64.166 73.9824 62.8184ZM87.8516 59.918V75H82.7715V55.9805H87.5352L87.8516 59.918ZM87.1484 64.8223H85.7422C85.7422 63.498 85.9004 62.2793 86.2168 61.166C86.5449 60.041 87.0195 59.0684 87.6406 58.248C88.2734 57.416 89.0527 56.7715 89.9785 56.3145C90.9043 55.8574 91.9766 55.6289 93.1953 55.6289C94.0391 55.6289 94.8125 55.7578 95.5156 56.0156C96.2188 56.2617 96.8223 56.6543 97.3262 57.1934C97.8418 57.7207 98.2402 58.4121 98.5215 59.2676C98.8027 60.1113 98.9434 61.125 98.9434 62.3086V75H93.8809V62.8711C93.8809 62.0039 93.7637 61.3359 93.5293 60.8672C93.2949 60.3984 92.9609 60.0703 92.5273 59.8828C92.1055 59.6953 91.5957 59.6016 90.998 59.6016C90.3418 59.6016 89.7676 59.7363 89.2754 60.0059C88.7949 60.2754 88.3965 60.6504 88.0801 61.1309C87.7637 61.5996 87.5293 62.1504 87.377 62.7832C87.2246 63.416 87.1484 64.0957 87.1484 64.8223ZM98.4688 64.2422L96.6582 64.4707C96.6582 63.2285 96.8105 62.0742 97.1152 61.0078C97.4316 59.9414 97.8945 59.0039 98.5039 58.1953C99.125 57.3867 99.8926 56.7598 100.807 56.3145C101.721 55.8574 102.775 55.6289 103.971 55.6289C104.885 55.6289 105.717 55.7637 106.467 56.0332C107.217 56.291 107.855 56.707 108.383 57.2812C108.922 57.8438 109.332 58.582 109.613 59.4961C109.906 60.4102 110.053 61.5293 110.053 62.8535V75H104.973V62.8535C104.973 61.9746 104.855 61.3066 104.621 60.8496C104.398 60.3809 104.07 60.0586 103.637 59.8828C103.215 59.6953 102.711 59.6016 102.125 59.6016C101.516 59.6016 100.982 59.7246 100.525 59.9707C100.068 60.2051 99.6875 60.5332 99.3828 60.9551C99.0781 61.377 98.8496 61.8691 98.6973 62.4316C98.5449 62.9824 98.4688 63.5859 98.4688 64.2422ZM124.238 70.7109V62.2383C124.238 61.6289 124.139 61.1074 123.939 60.6738C123.74 60.2285 123.43 59.8828 123.008 59.6367C122.598 59.3906 122.064 59.2676 121.408 59.2676C120.846 59.2676 120.359 59.3672 119.949 59.5664C119.539 59.7539 119.223 60.0293 119 60.3926C118.777 60.7441 118.666 61.1602 118.666 61.6406H113.604C113.604 60.832 113.791 60.0645 114.166 59.3379C114.541 58.6113 115.086 57.9727 115.801 57.4219C116.516 56.8594 117.365 56.4199 118.35 56.1035C119.346 55.7871 120.459 55.6289 121.689 55.6289C123.166 55.6289 124.479 55.875 125.627 56.3672C126.775 56.8594 127.678 57.5977 128.334 58.582C129.002 59.5664 129.336 60.7969 129.336 62.2734V70.4121C129.336 71.4551 129.4 72.3105 129.529 72.9785C129.658 73.6348 129.846 74.209 130.092 74.7012V75H124.977C124.73 74.4844 124.543 73.8398 124.414 73.0664C124.297 72.2812 124.238 71.4961 124.238 70.7109ZM124.906 63.416L124.941 66.2812H122.111C121.443 66.2812 120.863 66.3574 120.371 66.5098C119.879 66.6621 119.475 66.8789 119.158 67.1602C118.842 67.4297 118.607 67.7461 118.455 68.1094C118.314 68.4727 118.244 68.8711 118.244 69.3047C118.244 69.7383 118.344 70.1309 118.543 70.4824C118.742 70.8223 119.029 71.0918 119.404 71.291C119.779 71.4785 120.219 71.5723 120.723 71.5723C121.484 71.5723 122.146 71.4199 122.709 71.1152C123.271 70.8105 123.705 70.4355 124.01 69.9902C124.326 69.5449 124.49 69.123 124.502 68.7246L125.838 70.8691C125.65 71.3496 125.393 71.8477 125.064 72.3633C124.748 72.8789 124.344 73.3652 123.852 73.8223C123.359 74.2676 122.768 74.6367 122.076 74.9297C121.385 75.2109 120.564 75.3516 119.615 75.3516C118.408 75.3516 117.312 75.1113 116.328 74.6309C115.355 74.1387 114.582 73.4648 114.008 72.6094C113.445 71.7422 113.164 70.7578 113.164 69.6562C113.164 68.6602 113.352 67.7754 113.727 67.002C114.102 66.2285 114.652 65.5781 115.379 65.0508C116.117 64.5117 117.037 64.1074 118.139 63.8379C119.24 63.5566 120.518 63.416 121.971 63.416H124.906ZM138.301 60.1289V75H133.238V55.9805H138.002L138.301 60.1289ZM144.031 55.8574L143.943 60.5508C143.697 60.5156 143.398 60.4863 143.047 60.4629C142.707 60.4277 142.396 60.4102 142.115 60.4102C141.4 60.4102 140.779 60.5039 140.252 60.6914C139.736 60.8672 139.303 61.1309 138.951 61.4824C138.611 61.834 138.354 62.2617 138.178 62.7656C138.014 63.2695 137.92 63.8438 137.896 64.4883L136.877 64.1719C136.877 62.9414 137 61.8105 137.246 60.7793C137.492 59.7363 137.85 58.8281 138.318 58.0547C138.799 57.2812 139.385 56.6836 140.076 56.2617C140.768 55.8398 141.559 55.6289 142.449 55.6289C142.73 55.6289 143.018 55.6523 143.311 55.6992C143.604 55.7344 143.844 55.7871 144.031 55.8574ZM158.111 49.4062H162.576L169.15 68.1973L175.725 49.4062H180.189L170.943 75H167.357L158.111 49.4062ZM155.703 49.4062H160.15L160.959 67.7227V75H155.703V49.4062ZM178.15 49.4062H182.615V75H177.342V67.7227L178.15 49.4062ZM197.188 70.7109V62.2383C197.188 61.6289 197.088 61.1074 196.889 60.6738C196.689 60.2285 196.379 59.8828 195.957 59.6367C195.547 59.3906 195.014 59.2676 194.357 59.2676C193.795 59.2676 193.309 59.3672 192.898 59.5664C192.488 59.7539 192.172 60.0293 191.949 60.3926C191.727 60.7441 191.615 61.1602 191.615 61.6406H186.553C186.553 60.832 186.74 60.0645 187.115 59.3379C187.49 58.6113 188.035 57.9727 188.75 57.4219C189.465 56.8594 190.314 56.4199 191.299 56.1035C192.295 55.7871 193.408 55.6289 194.639 55.6289C196.115 55.6289 197.428 55.875 198.576 56.3672C199.725 56.8594 200.627 57.5977 201.283 58.582C201.951 59.5664 202.285 60.7969 202.285 62.2734V70.4121C202.285 71.4551 202.35 72.3105 202.479 72.9785C202.607 73.6348 202.795 74.209 203.041 74.7012V75H197.926C197.68 74.4844 197.492 73.8398 197.363 73.0664C197.246 72.2812 197.188 71.4961 197.188 70.7109ZM197.855 63.416L197.891 66.2812H195.061C194.393 66.2812 193.812 66.3574 193.32 66.5098C192.828 66.6621 192.424 66.8789 192.107 67.1602C191.791 67.4297 191.557 67.7461 191.404 68.1094C191.264 68.4727 191.193 68.8711 191.193 69.3047C191.193 69.7383 191.293 70.1309 191.492 70.4824C191.691 70.8223 191.979 71.0918 192.354 71.291C192.729 71.4785 193.168 71.5723 193.672 71.5723C194.434 71.5723 195.096 71.4199 195.658 71.1152C196.221 70.8105 196.654 70.4355 196.959 69.9902C197.275 69.5449 197.439 69.123 197.451 68.7246L198.787 70.8691C198.6 71.3496 198.342 71.8477 198.014 72.3633C197.697 72.8789 197.293 73.3652 196.801 73.8223C196.309 74.2676 195.717 74.6367 195.025 74.9297C194.334 75.2109 193.514 75.3516 192.564 75.3516C191.357 75.3516 190.262 75.1113 189.277 74.6309C188.305 74.1387 187.531 73.4648 186.957 72.6094C186.395 71.7422 186.113 70.7578 186.113 69.6562C186.113 68.6602 186.301 67.7754 186.676 67.002C187.051 66.2285 187.602 65.5781 188.328 65.0508C189.066 64.5117 189.986 64.1074 191.088 63.8379C192.189 63.5566 193.467 63.416 194.92 63.416H197.855ZM211.531 48V75H206.451V48H211.531ZM221.059 48V75H215.979V48H221.059ZM224.434 65.6836V65.3145C224.434 63.9199 224.633 62.6367 225.031 61.4648C225.43 60.2812 226.01 59.2559 226.771 58.3887C227.533 57.5215 228.471 56.8477 229.584 56.3672C230.697 55.875 231.975 55.6289 233.416 55.6289C234.857 55.6289 236.141 55.875 237.266 56.3672C238.391 56.8477 239.334 57.5215 240.096 58.3887C240.869 59.2559 241.455 60.2812 241.854 61.4648C242.252 62.6367 242.451 63.9199 242.451 65.3145V65.6836C242.451 67.0664 242.252 68.3496 241.854 69.5332C241.455 70.7051 240.869 71.7305 240.096 72.6094C239.334 73.4766 238.396 74.1504 237.283 74.6309C236.17 75.1113 234.893 75.3516 233.451 75.3516C232.01 75.3516 230.727 75.1113 229.602 74.6309C228.488 74.1504 227.545 73.4766 226.771 72.6094C226.01 71.7305 225.43 70.7051 225.031 69.5332C224.633 68.3496 224.434 67.0664 224.434 65.6836ZM229.496 65.3145V65.6836C229.496 66.4805 229.566 67.2246 229.707 67.916C229.848 68.6074 230.07 69.2168 230.375 69.7441C230.691 70.2598 231.102 70.6641 231.605 70.957C232.109 71.25 232.725 71.3965 233.451 71.3965C234.154 71.3965 234.758 71.25 235.262 70.957C235.766 70.6641 236.17 70.2598 236.475 69.7441C236.779 69.2168 237.002 68.6074 237.143 67.916C237.295 67.2246 237.371 66.4805 237.371 65.6836V65.3145C237.371 64.541 237.295 63.8145 237.143 63.1348C237.002 62.4434 236.773 61.834 236.457 61.3066C236.152 60.7676 235.748 60.3457 235.244 60.041C234.74 59.7363 234.131 59.584 233.416 59.584C232.701 59.584 232.092 59.7363 231.588 60.041C231.096 60.3457 230.691 60.7676 230.375 61.3066C230.07 61.834 229.848 62.4434 229.707 63.1348C229.566 63.8145 229.496 64.541 229.496 65.3145ZM256.812 70.4473V55.9805H261.875V75H257.111L256.812 70.4473ZM257.375 66.5449L258.869 66.5098C258.869 67.7754 258.723 68.9531 258.43 70.043C258.137 71.1211 257.697 72.0586 257.111 72.8555C256.525 73.6406 255.787 74.2559 254.896 74.7012C254.006 75.1348 252.957 75.3516 251.75 75.3516C250.824 75.3516 249.969 75.2227 249.184 74.9648C248.41 74.6953 247.742 74.2793 247.18 73.7168C246.629 73.1426 246.195 72.4102 245.879 71.5195C245.574 70.6172 245.422 69.5332 245.422 68.2676V55.9805H250.484V68.3027C250.484 68.8652 250.549 69.3398 250.678 69.7266C250.818 70.1133 251.012 70.4297 251.258 70.6758C251.504 70.9219 251.791 71.0977 252.119 71.2031C252.459 71.3086 252.834 71.3613 253.244 71.3613C254.287 71.3613 255.107 71.1504 255.705 70.7285C256.314 70.3066 256.742 69.7324 256.988 69.0059C257.246 68.2676 257.375 67.4473 257.375 66.5449ZM270.805 47.9824V75H265.742V47.9824H270.805ZM282.793 55.9805L274.531 65.4023L270.102 69.8848L268.256 66.2285L271.771 61.7637L276.711 55.9805H282.793ZM277.537 75L271.912 66.2109L275.41 63.1523L283.373 75H277.537Z" fill="#888888"/>
<path d="M86.4336 132.617V140H65.2148V132.617H86.4336ZM68.6328 100.188V140H59.0352V100.188H68.6328ZM83.6992 115.992V123.129H65.2148V115.992H83.6992ZM86.5156 100.188V107.598H65.2148V100.188H86.5156ZM101.883 133.438C102.74 133.438 103.469 133.283 104.07 132.973C104.69 132.645 105.155 132.189 105.465 131.605C105.793 131.004 105.948 130.284 105.93 129.445H114.598C114.616 131.669 114.069 133.62 112.957 135.297C111.863 136.956 110.368 138.25 108.473 139.18C106.595 140.091 104.471 140.547 102.102 140.547C99.7865 140.547 97.763 140.173 96.0312 139.426C94.2995 138.66 92.8503 137.603 91.6836 136.254C90.5352 134.887 89.6693 133.292 89.0859 131.469C88.5208 129.646 88.2383 127.668 88.2383 125.535V124.906C88.2383 122.773 88.5208 120.796 89.0859 118.973C89.6693 117.132 90.5352 115.536 91.6836 114.188C92.8503 112.82 94.2904 111.763 96.0039 111.016C97.7357 110.25 99.75 109.867 102.047 109.867C104.508 109.867 106.677 110.332 108.555 111.262C110.451 112.191 111.936 113.54 113.012 115.309C114.087 117.077 114.616 119.219 114.598 121.734H105.93C105.948 120.841 105.811 120.039 105.52 119.328C105.228 118.617 104.772 118.052 104.152 117.633C103.551 117.195 102.776 116.977 101.828 116.977C100.88 116.977 100.115 117.186 99.5312 117.605C98.9479 118.025 98.5013 118.608 98.1914 119.355C97.8997 120.085 97.6992 120.923 97.5898 121.871C97.4987 122.819 97.4531 123.831 97.4531 124.906V125.535C97.4531 126.629 97.4987 127.659 97.5898 128.625C97.6992 129.573 97.9089 130.411 98.2188 131.141C98.5286 131.852 98.9753 132.417 99.5586 132.836C100.142 133.237 100.917 133.438 101.883 133.438ZM127.559 98V140H118.344V98H127.559ZM126.465 124.195L124.305 124.25C124.305 122.172 124.56 120.258 125.07 118.508C125.581 116.758 126.31 115.236 127.258 113.941C128.206 112.647 129.345 111.645 130.676 110.934C132.007 110.223 133.483 109.867 135.105 109.867C136.564 109.867 137.895 110.077 139.098 110.496C140.319 110.915 141.367 111.59 142.242 112.52C143.135 113.449 143.819 114.661 144.293 116.156C144.785 117.651 145.031 119.474 145.031 121.625V140H135.762V121.57C135.762 120.367 135.589 119.438 135.242 118.781C134.914 118.107 134.44 117.642 133.82 117.387C133.201 117.113 132.444 116.977 131.551 116.977C130.475 116.977 129.6 117.159 128.926 117.523C128.251 117.888 127.732 118.398 127.367 119.055C127.021 119.693 126.784 120.449 126.656 121.324C126.529 122.199 126.465 123.156 126.465 124.195ZM148.996 125.508V124.934C148.996 122.764 149.306 120.768 149.926 118.945C150.546 117.104 151.457 115.509 152.66 114.16C153.863 112.811 155.349 111.763 157.117 111.016C158.885 110.25 160.927 109.867 163.242 109.867C165.576 109.867 167.626 110.25 169.395 111.016C171.181 111.763 172.676 112.811 173.879 114.16C175.082 115.509 175.993 117.104 176.613 118.945C177.233 120.768 177.543 122.764 177.543 124.934V125.508C177.543 127.659 177.233 129.655 176.613 131.496C175.993 133.319 175.082 134.914 173.879 136.281C172.676 137.63 171.19 138.678 169.422 139.426C167.654 140.173 165.612 140.547 163.297 140.547C160.982 140.547 158.931 140.173 157.145 139.426C155.358 138.678 153.863 137.63 152.66 136.281C151.457 134.914 150.546 133.319 149.926 131.496C149.306 129.655 148.996 127.659 148.996 125.508ZM158.211 124.934V125.508C158.211 126.62 158.293 127.659 158.457 128.625C158.621 129.591 158.895 130.439 159.277 131.168C159.66 131.879 160.18 132.435 160.836 132.836C161.492 133.237 162.312 133.438 163.297 133.438C164.263 133.438 165.065 133.237 165.703 132.836C166.359 132.435 166.879 131.879 167.262 131.168C167.645 130.439 167.918 129.591 168.082 128.625C168.246 127.659 168.328 126.62 168.328 125.508V124.934C168.328 123.858 168.246 122.846 168.082 121.898C167.918 120.932 167.645 120.085 167.262 119.355C166.879 118.608 166.359 118.025 165.703 117.605C165.047 117.186 164.227 116.977 163.242 116.977C162.276 116.977 161.465 117.186 160.809 117.605C160.171 118.025 159.66 118.608 159.277 119.355C158.895 120.085 158.621 120.932 158.457 121.898C158.293 122.846 158.211 123.858 158.211 124.934ZM191.27 136.391L199.199 100.188H203.93L206.5 103.277L198.051 140H192.828L191.27 136.391ZM189.164 100.188L195.863 136.664L194.141 140H188.098L179.648 100.188H189.164ZM210.848 136.473L217.492 100.188H226.98L218.531 140H212.516L210.848 136.473ZM207.348 100.188L215.469 136.609L213.828 140H208.605L199.965 103.223L202.645 100.188H207.348ZM244.754 132.562V120.367C244.754 119.529 244.635 118.809 244.398 118.207C244.161 117.605 243.788 117.141 243.277 116.812C242.767 116.466 242.083 116.293 241.227 116.293C240.534 116.293 239.941 116.411 239.449 116.648C238.957 116.885 238.583 117.241 238.328 117.715C238.073 118.189 237.945 118.79 237.945 119.52H228.73C228.73 118.152 229.031 116.885 229.633 115.719C230.253 114.534 231.128 113.504 232.258 112.629C233.406 111.754 234.773 111.079 236.359 110.605C237.964 110.113 239.75 109.867 241.719 109.867C244.07 109.867 246.167 110.259 248.008 111.043C249.867 111.827 251.335 113.003 252.41 114.57C253.486 116.12 254.023 118.07 254.023 120.422V132.535C254.023 134.467 254.133 135.935 254.352 136.938C254.57 137.922 254.88 138.788 255.281 139.535V140H246.039C245.602 139.089 245.273 137.977 245.055 136.664C244.854 135.333 244.754 133.966 244.754 132.562ZM245.875 121.926L245.93 126.848H241.855C240.999 126.848 240.27 126.966 239.668 127.203C239.085 127.44 238.611 127.768 238.246 128.188C237.9 128.589 237.645 129.044 237.48 129.555C237.335 130.065 237.262 130.603 237.262 131.168C237.262 131.715 237.389 132.207 237.645 132.645C237.918 133.064 238.283 133.392 238.738 133.629C239.194 133.866 239.704 133.984 240.27 133.984C241.29 133.984 242.156 133.793 242.867 133.41C243.596 133.009 244.152 132.526 244.535 131.961C244.918 131.396 245.109 130.867 245.109 130.375L247.133 134.148C246.768 134.878 246.349 135.616 245.875 136.363C245.419 137.111 244.845 137.803 244.152 138.441C243.478 139.061 242.648 139.572 241.664 139.973C240.68 140.355 239.486 140.547 238.082 140.547C236.259 140.547 234.582 140.173 233.051 139.426C231.538 138.678 230.326 137.639 229.414 136.309C228.503 134.96 228.047 133.41 228.047 131.66C228.047 130.129 228.32 128.762 228.867 127.559C229.432 126.355 230.28 125.335 231.41 124.496C232.54 123.658 233.98 123.02 235.73 122.582C237.48 122.145 239.54 121.926 241.91 121.926H245.875ZM269.363 133.684L275.188 110.414H284.895L275.215 140H269.473L269.363 133.684ZM265.918 110.414L271.66 133.684L271.605 140H265.836L256.184 110.414H265.918ZM301.574 140.547C299.168 140.547 297.017 140.173 295.121 139.426C293.225 138.66 291.621 137.612 290.309 136.281C289.014 134.951 288.021 133.419 287.328 131.688C286.654 129.956 286.316 128.124 286.316 126.191V125.152C286.316 122.983 286.617 120.978 287.219 119.137C287.82 117.277 288.714 115.655 289.898 114.27C291.083 112.884 292.569 111.809 294.355 111.043C296.142 110.259 298.22 109.867 300.59 109.867C302.686 109.867 304.564 110.204 306.223 110.879C307.882 111.553 309.285 112.52 310.434 113.777C311.6 115.035 312.484 116.557 313.086 118.344C313.706 120.13 314.016 122.135 314.016 124.359V128.105H289.844V122.336H305.02V121.625C305.038 120.641 304.865 119.802 304.5 119.109C304.154 118.417 303.643 117.888 302.969 117.523C302.294 117.159 301.474 116.977 300.508 116.977C299.505 116.977 298.676 117.195 298.02 117.633C297.382 118.07 296.88 118.672 296.516 119.438C296.169 120.185 295.923 121.051 295.777 122.035C295.632 123.02 295.559 124.059 295.559 125.152V126.191C295.559 127.285 295.704 128.279 295.996 129.172C296.306 130.065 296.743 130.831 297.309 131.469C297.892 132.089 298.585 132.572 299.387 132.918C300.207 133.264 301.137 133.438 302.176 133.438C303.434 133.438 304.673 133.201 305.895 132.727C307.116 132.253 308.164 131.469 309.039 130.375L313.223 135.352C312.621 136.208 311.764 137.038 310.652 137.84C309.559 138.642 308.246 139.298 306.715 139.809C305.184 140.301 303.47 140.547 301.574 140.547Z" fill="black"/>
<rect x="56" y="178" width="917" height="77" rx="10" fill="#D3D3D3"/>
<rect x="74" y="196" width="113" height="41" rx="3" fill="#424242"/>
<rect x="74" y="196" width="113" height="41" rx="3" stroke="#424242" stroke-width="4"/>
<path d="M97.4443 210.203H102.48C103.465 210.203 104.32 210.35 105.047 210.643C105.773 210.936 106.333 211.369 106.726 211.943C107.124 212.518 107.323 213.227 107.323 214.07C107.323 214.803 107.209 215.415 106.98 215.907C106.752 216.399 106.433 216.807 106.022 217.129C105.618 217.445 105.146 217.706 104.607 217.911L103.597 218.482H99.3691L99.3516 216.101H102.48C102.873 216.101 103.198 216.03 103.456 215.89C103.714 215.749 103.907 215.55 104.036 215.292C104.171 215.028 104.238 214.715 104.238 214.352C104.238 213.982 104.171 213.666 104.036 213.402C103.901 213.139 103.702 212.937 103.438 212.796C103.181 212.655 102.861 212.585 102.48 212.585H100.529V223H97.4443V210.203ZM104.449 223L101.619 217.34L104.889 217.322L107.754 222.868V223H104.449ZM113.651 223.176C112.878 223.176 112.187 223.056 111.577 222.815C110.968 222.569 110.452 222.232 110.03 221.805C109.614 221.377 109.295 220.885 109.072 220.328C108.855 219.771 108.747 219.183 108.747 218.562V218.228C108.747 217.53 108.844 216.886 109.037 216.294C109.23 215.696 109.518 215.175 109.898 214.729C110.279 214.284 110.757 213.938 111.331 213.692C111.905 213.44 112.573 213.314 113.335 213.314C114.009 213.314 114.612 213.423 115.146 213.64C115.679 213.856 116.13 214.167 116.499 214.571C116.874 214.976 117.158 215.465 117.352 216.039C117.551 216.613 117.65 217.258 117.65 217.973V219.177H109.881V217.322H114.759V217.094C114.765 216.777 114.709 216.508 114.592 216.285C114.48 216.062 114.316 215.893 114.1 215.775C113.883 215.658 113.619 215.6 113.309 215.6C112.986 215.6 112.72 215.67 112.509 215.811C112.304 215.951 112.143 216.145 112.025 216.391C111.914 216.631 111.835 216.909 111.788 217.226C111.741 217.542 111.718 217.876 111.718 218.228V218.562C111.718 218.913 111.765 219.232 111.858 219.52C111.958 219.807 112.099 220.053 112.28 220.258C112.468 220.457 112.69 220.612 112.948 220.724C113.212 220.835 113.511 220.891 113.845 220.891C114.249 220.891 114.647 220.814 115.04 220.662C115.433 220.51 115.77 220.258 116.051 219.906L117.396 221.506C117.202 221.781 116.927 222.048 116.569 222.306C116.218 222.563 115.796 222.774 115.304 222.938C114.812 223.097 114.261 223.176 113.651 223.176ZM123.794 220.609V216.689C123.794 216.42 123.756 216.188 123.68 215.995C123.604 215.802 123.483 215.652 123.319 215.547C123.155 215.436 122.936 215.38 122.66 215.38C122.438 215.38 122.247 215.418 122.089 215.494C121.931 215.57 121.811 215.685 121.729 215.837C121.646 215.989 121.605 216.183 121.605 216.417H118.644C118.644 215.978 118.74 215.57 118.934 215.195C119.133 214.814 119.414 214.483 119.777 214.202C120.146 213.921 120.586 213.704 121.096 213.552C121.611 213.394 122.186 213.314 122.818 213.314C123.574 213.314 124.248 213.44 124.84 213.692C125.438 213.944 125.909 214.322 126.255 214.826C126.601 215.324 126.773 215.951 126.773 216.707V220.601C126.773 221.222 126.809 221.693 126.879 222.016C126.949 222.332 127.049 222.61 127.178 222.851V223H124.207C124.066 222.707 123.961 222.35 123.891 221.928C123.826 221.5 123.794 221.061 123.794 220.609ZM124.154 217.19L124.172 218.772H122.862C122.587 218.772 122.353 218.811 122.159 218.887C121.972 218.963 121.819 219.068 121.702 219.203C121.591 219.332 121.509 219.479 121.456 219.643C121.409 219.807 121.386 219.979 121.386 220.161C121.386 220.337 121.427 220.495 121.509 220.636C121.597 220.771 121.714 220.876 121.86 220.952C122.007 221.028 122.171 221.066 122.353 221.066C122.681 221.066 122.959 221.005 123.188 220.882C123.422 220.753 123.601 220.598 123.724 220.416C123.847 220.234 123.908 220.064 123.908 219.906L124.559 221.119C124.441 221.354 124.307 221.591 124.154 221.831C124.008 222.071 123.823 222.294 123.601 222.499C123.384 222.698 123.117 222.862 122.801 222.991C122.484 223.114 122.101 223.176 121.649 223.176C121.063 223.176 120.524 223.056 120.032 222.815C119.546 222.575 119.156 222.241 118.863 221.813C118.57 221.38 118.424 220.882 118.424 220.319C118.424 219.827 118.512 219.388 118.688 219.001C118.869 218.614 119.142 218.286 119.505 218.017C119.868 217.747 120.331 217.542 120.894 217.401C121.456 217.261 122.118 217.19 122.88 217.19H124.154ZM132.434 220.891C132.709 220.891 132.943 220.841 133.137 220.741C133.336 220.636 133.485 220.489 133.585 220.302C133.69 220.108 133.74 219.877 133.734 219.607H136.521C136.526 220.322 136.351 220.949 135.993 221.488C135.642 222.021 135.161 222.438 134.552 222.736C133.948 223.029 133.266 223.176 132.504 223.176C131.76 223.176 131.109 223.056 130.553 222.815C129.996 222.569 129.53 222.229 129.155 221.796C128.786 221.356 128.508 220.844 128.32 220.258C128.139 219.672 128.048 219.036 128.048 218.351V218.148C128.048 217.463 128.139 216.827 128.32 216.241C128.508 215.649 128.786 215.137 129.155 214.703C129.53 214.264 129.993 213.924 130.544 213.684C131.101 213.438 131.748 213.314 132.486 213.314C133.277 213.314 133.975 213.464 134.578 213.763C135.188 214.062 135.665 214.495 136.011 215.063C136.356 215.632 136.526 216.32 136.521 217.129H133.734C133.74 216.842 133.696 216.584 133.603 216.355C133.509 216.127 133.362 215.945 133.163 215.811C132.97 215.67 132.721 215.6 132.416 215.6C132.111 215.6 131.865 215.667 131.678 215.802C131.49 215.937 131.347 216.124 131.247 216.364C131.153 216.599 131.089 216.868 131.054 217.173C131.024 217.478 131.01 217.803 131.01 218.148V218.351C131.01 218.702 131.024 219.033 131.054 219.344C131.089 219.648 131.156 219.918 131.256 220.152C131.355 220.381 131.499 220.562 131.687 220.697C131.874 220.826 132.123 220.891 132.434 220.891ZM142.796 213.49V215.547H137.065V213.49H142.796ZM138.27 211.126H141.231V219.897C141.231 220.149 141.261 220.346 141.319 220.486C141.378 220.621 141.478 220.718 141.618 220.776C141.765 220.829 141.958 220.855 142.198 220.855C142.368 220.855 142.509 220.853 142.62 220.847C142.731 220.835 142.837 220.82 142.937 220.803V222.921C142.685 223.003 142.421 223.064 142.146 223.105C141.87 223.152 141.577 223.176 141.267 223.176C140.634 223.176 140.092 223.076 139.641 222.877C139.195 222.678 138.855 222.364 138.621 221.937C138.387 221.509 138.27 220.952 138.27 220.267V211.126ZM149.203 218.983V210.203H152.279V218.983C152.279 219.839 152.083 220.58 151.69 221.207C151.304 221.834 150.776 222.32 150.108 222.666C149.446 223.006 148.702 223.176 147.876 223.176C147.021 223.176 146.259 223.032 145.591 222.745C144.929 222.458 144.407 222.016 144.026 221.418C143.651 220.82 143.464 220.059 143.464 219.133H146.558C146.558 219.566 146.607 219.906 146.707 220.152C146.807 220.393 146.953 220.562 147.146 220.662C147.346 220.756 147.589 220.803 147.876 220.803C148.157 220.803 148.395 220.732 148.588 220.592C148.787 220.445 148.939 220.237 149.045 219.968C149.15 219.692 149.203 219.364 149.203 218.983ZM160.831 219.599C160.831 219.399 160.802 219.221 160.743 219.062C160.685 218.898 160.576 218.746 160.418 218.605C160.26 218.465 160.031 218.324 159.732 218.184C159.439 218.037 159.053 217.885 158.572 217.727C158.01 217.539 157.468 217.328 156.946 217.094C156.425 216.854 155.959 216.575 155.549 216.259C155.139 215.937 154.813 215.562 154.573 215.134C154.333 214.7 154.213 214.196 154.213 213.622C154.213 213.071 154.336 212.576 154.582 212.137C154.828 211.691 155.171 211.313 155.61 211.003C156.056 210.687 156.577 210.446 157.175 210.282C157.772 210.112 158.426 210.027 159.135 210.027C160.072 210.027 160.898 210.191 161.613 210.52C162.334 210.842 162.896 211.302 163.301 211.899C163.711 212.491 163.916 213.191 163.916 214H160.849C160.849 213.678 160.781 213.394 160.646 213.147C160.518 212.901 160.321 212.708 160.058 212.567C159.794 212.427 159.463 212.356 159.064 212.356C158.678 212.356 158.353 212.415 158.089 212.532C157.825 212.649 157.626 212.808 157.491 213.007C157.356 213.2 157.289 213.414 157.289 213.648C157.289 213.842 157.342 214.018 157.447 214.176C157.559 214.328 157.714 214.472 157.913 214.606C158.118 214.741 158.364 214.87 158.651 214.993C158.944 215.116 159.272 215.236 159.636 215.354C160.315 215.57 160.919 215.813 161.446 216.083C161.979 216.347 162.428 216.648 162.791 216.988C163.16 217.322 163.438 217.703 163.626 218.131C163.819 218.559 163.916 219.042 163.916 219.581C163.916 220.155 163.805 220.665 163.582 221.11C163.359 221.556 163.04 221.934 162.624 222.244C162.208 222.549 161.71 222.78 161.13 222.938C160.55 223.097 159.902 223.176 159.188 223.176C158.531 223.176 157.884 223.094 157.245 222.93C156.612 222.76 156.038 222.502 155.522 222.156C155.007 221.805 154.594 221.356 154.283 220.812C153.979 220.261 153.826 219.607 153.826 218.852H156.92C156.92 219.227 156.97 219.543 157.069 219.801C157.169 220.059 157.315 220.267 157.509 220.425C157.702 220.577 157.939 220.688 158.221 220.759C158.502 220.823 158.824 220.855 159.188 220.855C159.58 220.855 159.896 220.8 160.137 220.688C160.377 220.571 160.553 220.419 160.664 220.231C160.775 220.038 160.831 219.827 160.831 219.599Z" fill="white"/>
<rect x="207" y="196" width="130" height="41" rx="3" fill="#424242"/>
<rect x="207" y="196" width="130" height="41" rx="3" stroke="#424242" stroke-width="4"/>
<path d="M238.883 220.627V223H232.062V220.627H238.883ZM233.161 210.203V223H230.076V210.203H233.161ZM238.004 215.283V217.577H232.062V215.283H238.004ZM238.909 210.203V212.585H232.062V210.203H238.909ZM242.521 213.49L243.857 216.109L245.237 213.49H248.313L245.817 218.122L248.445 223H245.343L243.857 220.188L242.381 223H239.278L241.906 218.122L239.419 213.49H242.521ZM252.277 215.318V226.656H249.315V213.49H252.075L252.277 215.318ZM258.113 218.131V218.315C258.113 219.007 258.034 219.648 257.876 220.24C257.718 220.832 257.483 221.348 257.173 221.787C256.862 222.227 256.476 222.569 256.013 222.815C255.556 223.056 255.025 223.176 254.422 223.176C253.854 223.176 253.364 223.05 252.954 222.798C252.544 222.546 252.201 222.197 251.926 221.752C251.65 221.307 251.428 220.797 251.258 220.223C251.088 219.648 250.953 219.042 250.854 218.403V218.166C250.953 217.48 251.088 216.845 251.258 216.259C251.428 215.667 251.65 215.151 251.926 214.712C252.201 214.272 252.541 213.93 252.945 213.684C253.355 213.438 253.845 213.314 254.413 213.314C255.017 213.314 255.547 213.429 256.004 213.657C256.467 213.886 256.854 214.214 257.164 214.642C257.48 215.063 257.718 215.57 257.876 216.162C258.034 216.754 258.113 217.41 258.113 218.131ZM255.151 218.315V218.131C255.151 217.762 255.125 217.425 255.072 217.12C255.02 216.81 254.935 216.54 254.817 216.312C254.706 216.083 254.557 215.907 254.369 215.784C254.182 215.661 253.95 215.6 253.675 215.6C253.358 215.6 253.092 215.649 252.875 215.749C252.664 215.843 252.494 215.989 252.365 216.188C252.242 216.382 252.154 216.625 252.102 216.918C252.055 217.205 252.034 217.542 252.04 217.929V218.649C252.028 219.095 252.072 219.487 252.172 219.827C252.271 220.161 252.444 220.422 252.69 220.609C252.937 220.797 253.271 220.891 253.692 220.891C253.974 220.891 254.208 220.826 254.396 220.697C254.583 220.562 254.732 220.378 254.844 220.144C254.955 219.903 255.034 219.628 255.081 219.317C255.128 219.007 255.151 218.673 255.151 218.315ZM262.42 215.846V223H259.458V213.49H262.227L262.42 215.846ZM265.232 213.42L265.18 216.171C265.062 216.159 264.904 216.145 264.705 216.127C264.506 216.109 264.339 216.101 264.204 216.101C263.858 216.101 263.56 216.142 263.308 216.224C263.062 216.3 262.856 216.417 262.692 216.575C262.534 216.728 262.417 216.921 262.341 217.155C262.271 217.39 262.238 217.662 262.244 217.973L261.708 217.621C261.708 216.982 261.77 216.402 261.893 215.881C262.021 215.354 262.203 214.899 262.438 214.519C262.672 214.132 262.956 213.836 263.29 213.631C263.624 213.42 263.999 213.314 264.415 213.314C264.562 213.314 264.705 213.323 264.846 213.341C264.992 213.358 265.121 213.385 265.232 213.42ZM270.682 223.176C269.908 223.176 269.217 223.056 268.607 222.815C267.998 222.569 267.482 222.232 267.061 221.805C266.645 221.377 266.325 220.885 266.103 220.328C265.886 219.771 265.777 219.183 265.777 218.562V218.228C265.777 217.53 265.874 216.886 266.067 216.294C266.261 215.696 266.548 215.175 266.929 214.729C267.31 214.284 267.787 213.938 268.361 213.692C268.936 213.44 269.604 213.314 270.365 213.314C271.039 213.314 271.643 213.423 272.176 213.64C272.709 213.856 273.16 214.167 273.529 214.571C273.904 214.976 274.188 215.465 274.382 216.039C274.581 216.613 274.681 217.258 274.681 217.973V219.177H266.911V217.322H271.789V217.094C271.795 216.777 271.739 216.508 271.622 216.285C271.511 216.062 271.347 215.893 271.13 215.775C270.913 215.658 270.649 215.6 270.339 215.6C270.017 215.6 269.75 215.67 269.539 215.811C269.334 215.951 269.173 216.145 269.056 216.391C268.944 216.631 268.865 216.909 268.818 217.226C268.771 217.542 268.748 217.876 268.748 218.228V218.562C268.748 218.913 268.795 219.232 268.889 219.52C268.988 219.807 269.129 220.053 269.311 220.258C269.498 220.457 269.721 220.612 269.979 220.724C270.242 220.835 270.541 220.891 270.875 220.891C271.279 220.891 271.678 220.814 272.07 220.662C272.463 220.51 272.8 220.258 273.081 219.906L274.426 221.506C274.232 221.781 273.957 222.048 273.6 222.306C273.248 222.563 272.826 222.774 272.334 222.938C271.842 223.097 271.291 223.176 270.682 223.176ZM280.868 220.328C280.868 220.164 280.812 220.023 280.701 219.906C280.596 219.783 280.408 219.672 280.139 219.572C279.869 219.467 279.491 219.361 279.005 219.256C278.542 219.156 278.105 219.024 277.695 218.86C277.291 218.696 276.937 218.497 276.632 218.263C276.327 218.028 276.087 217.75 275.911 217.428C275.741 217.105 275.656 216.736 275.656 216.32C275.656 215.916 275.741 215.535 275.911 215.178C276.087 214.814 276.342 214.495 276.676 214.22C277.016 213.938 277.429 213.719 277.915 213.561C278.401 213.396 278.955 213.314 279.576 213.314C280.432 213.314 281.17 213.446 281.791 213.71C282.412 213.968 282.89 214.331 283.224 214.8C283.563 215.263 283.733 215.799 283.733 216.408H280.771C280.771 216.168 280.73 215.963 280.648 215.793C280.572 215.623 280.446 215.494 280.271 215.406C280.095 215.312 279.86 215.266 279.567 215.266C279.362 215.266 279.175 215.304 279.005 215.38C278.841 215.456 278.709 215.562 278.609 215.696C278.51 215.831 278.46 215.989 278.46 216.171C278.46 216.3 278.489 216.417 278.548 216.522C278.612 216.622 278.709 216.716 278.838 216.804C278.967 216.886 279.131 216.962 279.33 217.032C279.529 217.097 279.77 217.155 280.051 217.208C280.689 217.325 281.287 217.492 281.844 217.709C282.4 217.926 282.852 218.233 283.197 218.632C283.549 219.03 283.725 219.566 283.725 220.24C283.725 220.662 283.628 221.052 283.435 221.409C283.241 221.761 282.963 222.071 282.6 222.341C282.236 222.604 281.8 222.81 281.29 222.956C280.78 223.103 280.206 223.176 279.567 223.176C278.659 223.176 277.892 223.015 277.265 222.692C276.638 222.364 276.163 221.954 275.841 221.462C275.524 220.964 275.366 220.46 275.366 219.95H278.126C278.138 220.243 278.208 220.483 278.337 220.671C278.472 220.858 278.65 220.996 278.873 221.084C279.096 221.172 279.354 221.216 279.646 221.216C279.916 221.216 280.139 221.178 280.314 221.102C280.496 221.025 280.634 220.923 280.728 220.794C280.821 220.659 280.868 220.504 280.868 220.328ZM290.097 220.328C290.097 220.164 290.041 220.023 289.93 219.906C289.824 219.783 289.637 219.672 289.367 219.572C289.098 219.467 288.72 219.361 288.233 219.256C287.771 219.156 287.334 219.024 286.924 218.86C286.52 218.696 286.165 218.497 285.86 218.263C285.556 218.028 285.315 217.75 285.14 217.428C284.97 217.105 284.885 216.736 284.885 216.32C284.885 215.916 284.97 215.535 285.14 215.178C285.315 214.814 285.57 214.495 285.904 214.22C286.244 213.938 286.657 213.719 287.144 213.561C287.63 213.396 288.184 213.314 288.805 213.314C289.66 213.314 290.398 213.446 291.02 213.71C291.641 213.968 292.118 214.331 292.452 214.8C292.792 215.263 292.962 215.799 292.962 216.408H290C290 216.168 289.959 215.963 289.877 215.793C289.801 215.623 289.675 215.494 289.499 215.406C289.323 215.312 289.089 215.266 288.796 215.266C288.591 215.266 288.403 215.304 288.233 215.38C288.069 215.456 287.938 215.562 287.838 215.696C287.738 215.831 287.688 215.989 287.688 216.171C287.688 216.3 287.718 216.417 287.776 216.522C287.841 216.622 287.938 216.716 288.066 216.804C288.195 216.886 288.359 216.962 288.559 217.032C288.758 217.097 288.998 217.155 289.279 217.208C289.918 217.325 290.516 217.492 291.072 217.709C291.629 217.926 292.08 218.233 292.426 218.632C292.777 219.03 292.953 219.566 292.953 220.24C292.953 220.662 292.856 221.052 292.663 221.409C292.47 221.761 292.191 222.071 291.828 222.341C291.465 222.604 291.028 222.81 290.519 222.956C290.009 223.103 289.435 223.176 288.796 223.176C287.888 223.176 287.12 223.015 286.493 222.692C285.866 222.364 285.392 221.954 285.069 221.462C284.753 220.964 284.595 220.46 284.595 219.95H287.354C287.366 220.243 287.437 220.483 287.565 220.671C287.7 220.858 287.879 220.996 288.102 221.084C288.324 221.172 288.582 221.216 288.875 221.216C289.145 221.216 289.367 221.178 289.543 221.102C289.725 221.025 289.862 220.923 289.956 220.794C290.05 220.659 290.097 220.504 290.097 220.328ZM299.571 218.983V210.203H302.647V218.983C302.647 219.839 302.451 220.58 302.059 221.207C301.672 221.834 301.145 222.32 300.477 222.666C299.814 223.006 299.07 223.176 298.244 223.176C297.389 223.176 296.627 223.032 295.959 222.745C295.297 222.458 294.775 222.016 294.395 221.418C294.02 220.82 293.832 220.059 293.832 219.133H296.926C296.926 219.566 296.976 219.906 297.075 220.152C297.175 220.393 297.321 220.562 297.515 220.662C297.714 220.756 297.957 220.803 298.244 220.803C298.525 220.803 298.763 220.732 298.956 220.592C299.155 220.445 299.308 220.237 299.413 219.968C299.519 219.692 299.571 219.364 299.571 218.983ZM311.199 219.599C311.199 219.399 311.17 219.221 311.111 219.062C311.053 218.898 310.944 218.746 310.786 218.605C310.628 218.465 310.399 218.324 310.101 218.184C309.808 218.037 309.421 217.885 308.94 217.727C308.378 217.539 307.836 217.328 307.314 217.094C306.793 216.854 306.327 216.575 305.917 216.259C305.507 215.937 305.182 215.562 304.941 215.134C304.701 214.7 304.581 214.196 304.581 213.622C304.581 213.071 304.704 212.576 304.95 212.137C305.196 211.691 305.539 211.313 305.979 211.003C306.424 210.687 306.945 210.446 307.543 210.282C308.141 210.112 308.794 210.027 309.503 210.027C310.44 210.027 311.267 210.191 311.981 210.52C312.702 210.842 313.265 211.302 313.669 211.899C314.079 212.491 314.284 213.191 314.284 214H311.217C311.217 213.678 311.149 213.394 311.015 213.147C310.886 212.901 310.689 212.708 310.426 212.567C310.162 212.427 309.831 212.356 309.433 212.356C309.046 212.356 308.721 212.415 308.457 212.532C308.193 212.649 307.994 212.808 307.859 213.007C307.725 213.2 307.657 213.414 307.657 213.648C307.657 213.842 307.71 214.018 307.815 214.176C307.927 214.328 308.082 214.472 308.281 214.606C308.486 214.741 308.732 214.87 309.02 214.993C309.312 215.116 309.641 215.236 310.004 215.354C310.684 215.57 311.287 215.813 311.814 216.083C312.348 216.347 312.796 216.648 313.159 216.988C313.528 217.322 313.807 217.703 313.994 218.131C314.188 218.559 314.284 219.042 314.284 219.581C314.284 220.155 314.173 220.665 313.95 221.11C313.728 221.556 313.408 221.934 312.992 222.244C312.576 222.549 312.078 222.78 311.498 222.938C310.918 223.097 310.271 223.176 309.556 223.176C308.899 223.176 308.252 223.094 307.613 222.93C306.98 222.76 306.406 222.502 305.891 222.156C305.375 221.805 304.962 221.356 304.651 220.812C304.347 220.261 304.194 219.607 304.194 218.852H307.288C307.288 219.227 307.338 219.543 307.438 219.801C307.537 220.059 307.684 220.267 307.877 220.425C308.07 220.577 308.308 220.688 308.589 220.759C308.87 220.823 309.192 220.855 309.556 220.855C309.948 220.855 310.265 220.8 310.505 220.688C310.745 220.571 310.921 220.419 311.032 220.231C311.144 220.038 311.199 219.827 311.199 219.599Z" fill="white"/>
<rect x="357" y="196" width="109" height="41" rx="3" fill="#424242"/>
<rect x="357" y="196" width="109" height="41" rx="3" stroke="#424242" stroke-width="4"/>
<path d="M391.118 210.203V223H388.042L383.516 215.037V223H380.431V210.203H383.516L388.042 218.166V210.203H391.118ZM392.56 218.342V218.157C392.56 217.46 392.659 216.818 392.858 216.232C393.058 215.641 393.351 215.128 393.737 214.694C394.124 214.261 394.602 213.924 395.17 213.684C395.738 213.438 396.395 213.314 397.139 213.314C397.889 213.314 398.548 213.438 399.116 213.684C399.69 213.924 400.171 214.261 400.558 214.694C400.944 215.128 401.237 215.641 401.437 216.232C401.636 216.818 401.735 217.46 401.735 218.157V218.342C401.735 219.033 401.636 219.675 401.437 220.267C401.237 220.853 400.944 221.365 400.558 221.805C400.171 222.238 399.693 222.575 399.125 222.815C398.557 223.056 397.9 223.176 397.156 223.176C396.412 223.176 395.753 223.056 395.179 222.815C394.604 222.575 394.124 222.238 393.737 221.805C393.351 221.365 393.058 220.853 392.858 220.267C392.659 219.675 392.56 219.033 392.56 218.342ZM395.521 218.157V218.342C395.521 218.699 395.548 219.033 395.601 219.344C395.653 219.654 395.741 219.927 395.864 220.161C395.987 220.39 396.154 220.568 396.365 220.697C396.576 220.826 396.84 220.891 397.156 220.891C397.467 220.891 397.725 220.826 397.93 220.697C398.141 220.568 398.308 220.39 398.431 220.161C398.554 219.927 398.642 219.654 398.694 219.344C398.747 219.033 398.773 218.699 398.773 218.342V218.157C398.773 217.812 398.747 217.486 398.694 217.182C398.642 216.871 398.554 216.599 398.431 216.364C398.308 216.124 398.141 215.937 397.93 215.802C397.719 215.667 397.455 215.6 397.139 215.6C396.828 215.6 396.567 215.667 396.356 215.802C396.151 215.937 395.987 216.124 395.864 216.364C395.741 216.599 395.653 216.871 395.601 217.182C395.548 217.486 395.521 217.812 395.521 218.157ZM408.521 220.82V209.5H411.5V223H408.828L408.521 220.82ZM402.685 218.359V218.175C402.685 217.454 402.764 216.798 402.922 216.206C403.08 215.608 403.314 215.096 403.625 214.668C403.936 214.234 404.322 213.9 404.785 213.666C405.248 213.432 405.781 213.314 406.385 213.314C406.924 213.314 407.396 213.44 407.8 213.692C408.204 213.938 408.55 214.284 408.837 214.729C409.124 215.175 409.358 215.696 409.54 216.294C409.722 216.886 409.859 217.524 409.953 218.21V218.43C409.859 219.074 409.722 219.684 409.54 220.258C409.358 220.826 409.124 221.33 408.837 221.77C408.55 222.209 408.201 222.555 407.791 222.807C407.387 223.053 406.912 223.176 406.367 223.176C405.764 223.176 405.23 223.056 404.768 222.815C404.311 222.575 403.927 222.238 403.616 221.805C403.312 221.371 403.08 220.861 402.922 220.275C402.764 219.689 402.685 219.051 402.685 218.359ZM405.646 218.175V218.359C405.646 218.717 405.67 219.048 405.717 219.353C405.764 219.657 405.843 219.927 405.954 220.161C406.071 220.39 406.224 220.568 406.411 220.697C406.604 220.826 406.842 220.891 407.123 220.891C407.504 220.891 407.817 220.8 408.063 220.618C408.315 220.437 408.5 220.179 408.617 219.845C408.74 219.511 408.793 219.118 408.775 218.667V217.973C408.787 217.586 408.761 217.246 408.696 216.953C408.632 216.654 408.529 216.405 408.389 216.206C408.254 216.007 408.081 215.857 407.87 215.758C407.665 215.652 407.422 215.6 407.141 215.6C406.865 215.6 406.631 215.664 406.438 215.793C406.25 215.922 406.098 216.104 405.98 216.338C405.863 216.566 405.778 216.839 405.726 217.155C405.673 217.466 405.646 217.806 405.646 218.175ZM417.784 223.176C417.011 223.176 416.319 223.056 415.71 222.815C415.101 222.569 414.585 222.232 414.163 221.805C413.747 221.377 413.428 220.885 413.205 220.328C412.988 219.771 412.88 219.183 412.88 218.562V218.228C412.88 217.53 412.977 216.886 413.17 216.294C413.363 215.696 413.65 215.175 414.031 214.729C414.412 214.284 414.89 213.938 415.464 213.692C416.038 213.44 416.706 213.314 417.468 213.314C418.142 213.314 418.745 213.423 419.278 213.64C419.812 213.856 420.263 214.167 420.632 214.571C421.007 214.976 421.291 215.465 421.484 216.039C421.684 216.613 421.783 217.258 421.783 217.973V219.177H414.014V217.322H418.892V217.094C418.897 216.777 418.842 216.508 418.725 216.285C418.613 216.062 418.449 215.893 418.232 215.775C418.016 215.658 417.752 215.6 417.441 215.6C417.119 215.6 416.853 215.67 416.642 215.811C416.437 215.951 416.275 216.145 416.158 216.391C416.047 216.631 415.968 216.909 415.921 217.226C415.874 217.542 415.851 217.876 415.851 218.228V218.562C415.851 218.913 415.897 219.232 415.991 219.52C416.091 219.807 416.231 220.053 416.413 220.258C416.601 220.457 416.823 220.612 417.081 220.724C417.345 220.835 417.644 220.891 417.978 220.891C418.382 220.891 418.78 220.814 419.173 220.662C419.565 220.51 419.902 220.258 420.184 219.906L421.528 221.506C421.335 221.781 421.06 222.048 420.702 222.306C420.351 222.563 419.929 222.774 419.437 222.938C418.944 223.097 418.394 223.176 417.784 223.176ZM428.217 218.983V210.203H431.293V218.983C431.293 219.839 431.097 220.58 430.704 221.207C430.317 221.834 429.79 222.32 429.122 222.666C428.46 223.006 427.716 223.176 426.89 223.176C426.034 223.176 425.272 223.032 424.604 222.745C423.942 222.458 423.421 222.016 423.04 221.418C422.665 220.82 422.478 220.059 422.478 219.133H425.571C425.571 219.566 425.621 219.906 425.721 220.152C425.82 220.393 425.967 220.562 426.16 220.662C426.359 220.756 426.603 220.803 426.89 220.803C427.171 220.803 427.408 220.732 427.602 220.592C427.801 220.445 427.953 220.237 428.059 219.968C428.164 219.692 428.217 219.364 428.217 218.983ZM439.845 219.599C439.845 219.399 439.815 219.221 439.757 219.062C439.698 218.898 439.59 218.746 439.432 218.605C439.273 218.465 439.045 218.324 438.746 218.184C438.453 218.037 438.066 217.885 437.586 217.727C437.023 217.539 436.481 217.328 435.96 217.094C435.438 216.854 434.973 216.575 434.562 216.259C434.152 215.937 433.827 215.562 433.587 215.134C433.347 214.7 433.227 214.196 433.227 213.622C433.227 213.071 433.35 212.576 433.596 212.137C433.842 211.691 434.185 211.313 434.624 211.003C435.069 210.687 435.591 210.446 436.188 210.282C436.786 210.112 437.439 210.027 438.148 210.027C439.086 210.027 439.912 210.191 440.627 210.52C441.348 210.842 441.91 211.302 442.314 211.899C442.725 212.491 442.93 213.191 442.93 214H439.862C439.862 213.678 439.795 213.394 439.66 213.147C439.531 212.901 439.335 212.708 439.071 212.567C438.808 212.427 438.477 212.356 438.078 212.356C437.691 212.356 437.366 212.415 437.103 212.532C436.839 212.649 436.64 212.808 436.505 213.007C436.37 213.2 436.303 213.414 436.303 213.648C436.303 213.842 436.355 214.018 436.461 214.176C436.572 214.328 436.728 214.472 436.927 214.606C437.132 214.741 437.378 214.87 437.665 214.993C437.958 215.116 438.286 215.236 438.649 215.354C439.329 215.57 439.933 215.813 440.46 216.083C440.993 216.347 441.441 216.648 441.805 216.988C442.174 217.322 442.452 217.703 442.64 218.131C442.833 218.559 442.93 219.042 442.93 219.581C442.93 220.155 442.818 220.665 442.596 221.11C442.373 221.556 442.054 221.934 441.638 222.244C441.222 222.549 440.724 222.78 440.144 222.938C439.563 223.097 438.916 223.176 438.201 223.176C437.545 223.176 436.897 223.094 436.259 222.93C435.626 222.76 435.052 222.502 434.536 222.156C434.021 221.805 433.607 221.356 433.297 220.812C432.992 220.261 432.84 219.607 432.84 218.852H435.934C435.934 219.227 435.983 219.543 436.083 219.801C436.183 220.059 436.329 220.267 436.522 220.425C436.716 220.577 436.953 220.688 437.234 220.759C437.516 220.823 437.838 220.855 438.201 220.855C438.594 220.855 438.91 220.8 439.15 220.688C439.391 220.571 439.566 220.419 439.678 220.231C439.789 220.038 439.845 219.827 439.845 219.599Z" fill="white"/>
<rect x="486" y="196" width="124" height="41" rx="3" fill="#424242"/>
<rect x="486" y="196" width="124" height="41" rx="3" stroke="#424242" stroke-width="4"/>
<path d="M510.585 210.203H513.099L515.955 219.106L518.812 210.203H521.325L516.975 223H514.936L510.585 210.203ZM509.056 210.203H511.657L512.141 220.012V223H509.056V210.203ZM520.253 210.203H522.863V223H519.77V220.012L520.253 210.203ZM524.331 218.342V218.157C524.331 217.46 524.431 216.818 524.63 216.232C524.829 215.641 525.122 215.128 525.509 214.694C525.896 214.261 526.373 213.924 526.941 213.684C527.51 213.438 528.166 213.314 528.91 213.314C529.66 213.314 530.319 213.438 530.888 213.684C531.462 213.924 531.942 214.261 532.329 214.694C532.716 215.128 533.009 215.641 533.208 216.232C533.407 216.818 533.507 217.46 533.507 218.157V218.342C533.507 219.033 533.407 219.675 533.208 220.267C533.009 220.853 532.716 221.365 532.329 221.805C531.942 222.238 531.465 222.575 530.896 222.815C530.328 223.056 529.672 223.176 528.928 223.176C528.184 223.176 527.524 223.056 526.95 222.815C526.376 222.575 525.896 222.238 525.509 221.805C525.122 221.365 524.829 220.853 524.63 220.267C524.431 219.675 524.331 219.033 524.331 218.342ZM527.293 218.157V218.342C527.293 218.699 527.319 219.033 527.372 219.344C527.425 219.654 527.513 219.927 527.636 220.161C527.759 220.39 527.926 220.568 528.137 220.697C528.348 220.826 528.611 220.891 528.928 220.891C529.238 220.891 529.496 220.826 529.701 220.697C529.912 220.568 530.079 220.39 530.202 220.161C530.325 219.927 530.413 219.654 530.466 219.344C530.519 219.033 530.545 218.699 530.545 218.342V218.157C530.545 217.812 530.519 217.486 530.466 217.182C530.413 216.871 530.325 216.599 530.202 216.364C530.079 216.124 529.912 215.937 529.701 215.802C529.49 215.667 529.227 215.6 528.91 215.6C528.6 215.6 528.339 215.667 528.128 215.802C527.923 215.937 527.759 216.124 527.636 216.364C527.513 216.599 527.425 216.871 527.372 217.182C527.319 217.486 527.293 217.812 527.293 218.157ZM537.734 215.521V223H534.772V213.49H537.55L537.734 215.521ZM537.383 217.92L536.688 217.938C536.688 217.211 536.776 216.563 536.952 215.995C537.128 215.421 537.377 214.935 537.699 214.536C538.021 214.138 538.405 213.836 538.851 213.631C539.302 213.42 539.803 213.314 540.354 213.314C540.793 213.314 541.194 213.379 541.558 213.508C541.927 213.637 542.243 213.845 542.507 214.132C542.776 214.419 542.981 214.8 543.122 215.274C543.269 215.743 543.342 216.323 543.342 217.015V223H540.362V217.006C540.362 216.625 540.31 216.335 540.204 216.136C540.099 215.931 539.946 215.79 539.747 215.714C539.548 215.638 539.305 215.6 539.018 215.6C538.713 215.6 538.455 215.658 538.244 215.775C538.033 215.893 537.863 216.057 537.734 216.268C537.611 216.473 537.521 216.716 537.462 216.997C537.409 217.278 537.383 217.586 537.383 217.92ZM550.962 213.49H553.651V222.631C553.651 223.51 553.449 224.254 553.045 224.863C552.641 225.479 552.075 225.944 551.349 226.261C550.628 226.583 549.784 226.744 548.817 226.744C548.39 226.744 547.953 226.688 547.508 226.577C547.062 226.472 546.646 226.313 546.26 226.103C545.873 225.892 545.548 225.631 545.284 225.32L546.523 223.58C546.764 223.85 547.065 224.078 547.429 224.266C547.792 224.459 548.22 224.556 548.712 224.556C549.14 224.556 549.497 224.479 549.784 224.327C550.077 224.175 550.3 223.952 550.452 223.659C550.604 223.372 550.681 223.023 550.681 222.613V215.74L550.962 213.49ZM544.643 218.359V218.175C544.643 217.454 544.73 216.798 544.906 216.206C545.088 215.608 545.346 215.096 545.68 214.668C546.02 214.234 546.43 213.9 546.91 213.666C547.391 213.432 547.933 213.314 548.536 213.314C549.187 213.314 549.72 213.44 550.136 213.692C550.558 213.938 550.895 214.284 551.146 214.729C551.404 215.175 551.604 215.696 551.744 216.294C551.891 216.886 552.014 217.524 552.113 218.21V218.43C552.014 219.074 551.876 219.684 551.7 220.258C551.53 220.826 551.308 221.33 551.032 221.77C550.757 222.209 550.411 222.555 549.995 222.807C549.585 223.053 549.093 223.176 548.519 223.176C547.921 223.176 547.382 223.056 546.901 222.815C546.427 222.575 546.02 222.238 545.68 221.805C545.346 221.371 545.088 220.861 544.906 220.275C544.73 219.689 544.643 219.051 544.643 218.359ZM547.604 218.175V218.359C547.604 218.717 547.637 219.048 547.701 219.353C547.771 219.657 547.877 219.927 548.018 220.161C548.158 220.39 548.331 220.568 548.536 220.697C548.747 220.826 548.993 220.891 549.274 220.891C549.702 220.891 550.048 220.8 550.312 220.618C550.575 220.437 550.766 220.179 550.883 219.845C551 219.511 551.05 219.118 551.032 218.667V217.973C551.044 217.586 551.018 217.246 550.953 216.953C550.889 216.654 550.786 216.405 550.646 216.206C550.511 216.007 550.329 215.857 550.101 215.758C549.878 215.652 549.608 215.6 549.292 215.6C549.017 215.6 548.773 215.664 548.562 215.793C548.352 215.922 548.176 216.104 548.035 216.338C547.895 216.566 547.786 216.839 547.71 217.155C547.64 217.466 547.604 217.806 547.604 218.175ZM554.987 218.342V218.157C554.987 217.46 555.087 216.818 555.286 216.232C555.485 215.641 555.778 215.128 556.165 214.694C556.552 214.261 557.029 213.924 557.598 213.684C558.166 213.438 558.822 213.314 559.566 213.314C560.316 213.314 560.976 213.438 561.544 213.684C562.118 213.924 562.599 214.261 562.985 214.694C563.372 215.128 563.665 215.641 563.864 216.232C564.063 216.818 564.163 217.46 564.163 218.157V218.342C564.163 219.033 564.063 219.675 563.864 220.267C563.665 220.853 563.372 221.365 562.985 221.805C562.599 222.238 562.121 222.575 561.553 222.815C560.984 223.056 560.328 223.176 559.584 223.176C558.84 223.176 558.181 223.056 557.606 222.815C557.032 222.575 556.552 222.238 556.165 221.805C555.778 221.365 555.485 220.853 555.286 220.267C555.087 219.675 554.987 219.033 554.987 218.342ZM557.949 218.157V218.342C557.949 218.699 557.976 219.033 558.028 219.344C558.081 219.654 558.169 219.927 558.292 220.161C558.415 220.39 558.582 220.568 558.793 220.697C559.004 220.826 559.268 220.891 559.584 220.891C559.895 220.891 560.152 220.826 560.357 220.697C560.568 220.568 560.735 220.39 560.858 220.161C560.981 219.927 561.069 219.654 561.122 219.344C561.175 219.033 561.201 218.699 561.201 218.342V218.157C561.201 217.812 561.175 217.486 561.122 217.182C561.069 216.871 560.981 216.599 560.858 216.364C560.735 216.124 560.568 215.937 560.357 215.802C560.146 215.667 559.883 215.6 559.566 215.6C559.256 215.6 558.995 215.667 558.784 215.802C558.579 215.937 558.415 216.124 558.292 216.364C558.169 216.599 558.081 216.871 558.028 217.182C557.976 217.486 557.949 217.812 557.949 218.157ZM569.779 223H566.94L566.958 220.627H569.779C570.365 220.627 570.86 220.486 571.265 220.205C571.675 219.924 571.985 219.505 572.196 218.948C572.413 218.386 572.521 217.694 572.521 216.874V216.32C572.521 215.705 572.46 215.166 572.337 214.703C572.22 214.234 572.044 213.845 571.81 213.534C571.575 213.218 571.282 212.98 570.931 212.822C570.585 212.664 570.187 212.585 569.735 212.585H566.888V210.203H569.735C570.603 210.203 571.396 210.353 572.117 210.651C572.844 210.944 573.471 211.366 573.998 211.917C574.531 212.462 574.941 213.109 575.229 213.859C575.521 214.604 575.668 215.43 575.668 216.338V216.874C575.668 217.776 575.521 218.603 575.229 219.353C574.941 220.103 574.534 220.75 574.007 221.295C573.479 221.84 572.855 222.262 572.135 222.561C571.42 222.854 570.635 223 569.779 223ZM568.707 210.203V223H565.622V210.203H568.707ZM582.497 217.56H579.201L579.184 215.538H581.855C582.336 215.538 582.72 215.485 583.007 215.38C583.294 215.269 583.502 215.107 583.631 214.896C583.766 214.686 583.833 214.422 583.833 214.105C583.833 213.742 583.766 213.449 583.631 213.227C583.496 213.004 583.282 212.843 582.989 212.743C582.702 212.638 582.33 212.585 581.873 212.585H580.361V223H577.276V210.203H581.873C582.664 210.203 583.37 210.276 583.991 210.423C584.612 210.563 585.14 210.78 585.573 211.073C586.013 211.366 586.347 211.735 586.575 212.181C586.804 212.62 586.918 213.139 586.918 213.736C586.918 214.258 586.807 214.747 586.584 215.204C586.361 215.661 585.989 216.033 585.468 216.32C584.952 216.602 584.246 216.748 583.35 216.76L582.497 217.56ZM582.374 223H578.454L579.509 220.627H582.374C582.796 220.627 583.133 220.562 583.385 220.434C583.643 220.299 583.827 220.123 583.938 219.906C584.056 219.684 584.114 219.438 584.114 219.168C584.114 218.84 584.059 218.556 583.947 218.315C583.842 218.075 583.672 217.891 583.438 217.762C583.203 217.627 582.89 217.56 582.497 217.56H579.904L579.922 215.538H583.024L583.745 216.347C584.601 216.312 585.277 216.432 585.775 216.707C586.279 216.982 586.64 217.346 586.856 217.797C587.073 218.248 587.182 218.72 587.182 219.212C587.182 220.05 587 220.75 586.637 221.312C586.279 221.875 585.743 222.297 585.028 222.578C584.313 222.859 583.429 223 582.374 223Z" fill="white"/>
<rect x="630" y="196" width="131" height="41" rx="3" fill="#424242"/>
<rect x="630" y="196" width="131" height="41" rx="3" stroke="#424242" stroke-width="4"/>
<path d="M659.359 210.203V223H656.274V210.203H659.359ZM663.209 210.203V212.585H652.513V210.203H663.209ZM666.575 221.884L669.036 213.49H672.218L668.395 224.415C668.312 224.655 668.204 224.913 668.069 225.188C667.935 225.47 667.75 225.736 667.516 225.988C667.281 226.24 666.979 226.445 666.61 226.604C666.247 226.762 665.796 226.841 665.257 226.841C664.97 226.841 664.759 226.826 664.624 226.797C664.495 226.773 664.296 226.729 664.026 226.665V224.547C664.103 224.547 664.167 224.547 664.22 224.547C664.278 224.547 664.343 224.547 664.413 224.547C664.729 224.547 664.981 224.515 665.169 224.45C665.362 224.386 665.509 224.292 665.608 224.169C665.714 224.046 665.796 223.896 665.854 223.721L666.575 221.884ZM665.951 213.49L667.823 220.144L668.148 223.281H666.162L662.778 213.49H665.951ZM675.979 215.318V226.656H673.018V213.49H675.777L675.979 215.318ZM681.815 218.131V218.315C681.815 219.007 681.736 219.648 681.578 220.24C681.42 220.832 681.186 221.348 680.875 221.787C680.564 222.227 680.178 222.569 679.715 222.815C679.258 223.056 678.728 223.176 678.124 223.176C677.556 223.176 677.066 223.05 676.656 222.798C676.246 222.546 675.903 222.197 675.628 221.752C675.353 221.307 675.13 220.797 674.96 220.223C674.79 219.648 674.655 219.042 674.556 218.403V218.166C674.655 217.48 674.79 216.845 674.96 216.259C675.13 215.667 675.353 215.151 675.628 214.712C675.903 214.272 676.243 213.93 676.647 213.684C677.058 213.438 677.547 213.314 678.115 213.314C678.719 213.314 679.249 213.429 679.706 213.657C680.169 213.886 680.556 214.214 680.866 214.642C681.183 215.063 681.42 215.57 681.578 216.162C681.736 216.754 681.815 217.41 681.815 218.131ZM678.854 218.315V218.131C678.854 217.762 678.827 217.425 678.774 217.12C678.722 216.81 678.637 216.54 678.52 216.312C678.408 216.083 678.259 215.907 678.071 215.784C677.884 215.661 677.652 215.6 677.377 215.6C677.061 215.6 676.794 215.649 676.577 215.749C676.366 215.843 676.196 215.989 676.067 216.188C675.944 216.382 675.856 216.625 675.804 216.918C675.757 217.205 675.736 217.542 675.742 217.929V218.649C675.73 219.095 675.774 219.487 675.874 219.827C675.974 220.161 676.146 220.422 676.393 220.609C676.639 220.797 676.973 220.891 677.395 220.891C677.676 220.891 677.91 220.826 678.098 220.697C678.285 220.562 678.435 220.378 678.546 220.144C678.657 219.903 678.736 219.628 678.783 219.317C678.83 219.007 678.854 218.673 678.854 218.315ZM687.739 223.176C686.966 223.176 686.274 223.056 685.665 222.815C685.056 222.569 684.54 222.232 684.118 221.805C683.702 221.377 683.383 220.885 683.16 220.328C682.943 219.771 682.835 219.183 682.835 218.562V218.228C682.835 217.53 682.932 216.886 683.125 216.294C683.318 215.696 683.605 215.175 683.986 214.729C684.367 214.284 684.845 213.938 685.419 213.692C685.993 213.44 686.661 213.314 687.423 213.314C688.097 213.314 688.7 213.423 689.233 213.64C689.767 213.856 690.218 214.167 690.587 214.571C690.962 214.976 691.246 215.465 691.439 216.039C691.639 216.613 691.738 217.258 691.738 217.973V219.177H683.969V217.322H688.847V217.094C688.853 216.777 688.797 216.508 688.68 216.285C688.568 216.062 688.404 215.893 688.188 215.775C687.971 215.658 687.707 215.6 687.396 215.6C687.074 215.6 686.808 215.67 686.597 215.811C686.392 215.951 686.23 216.145 686.113 216.391C686.002 216.631 685.923 216.909 685.876 217.226C685.829 217.542 685.806 217.876 685.806 218.228V218.562C685.806 218.913 685.853 219.232 685.946 219.52C686.046 219.807 686.187 220.053 686.368 220.258C686.556 220.457 686.778 220.612 687.036 220.724C687.3 220.835 687.599 220.891 687.933 220.891C688.337 220.891 688.735 220.814 689.128 220.662C689.521 220.51 689.857 220.258 690.139 219.906L691.483 221.506C691.29 221.781 691.015 222.048 690.657 222.306C690.306 222.563 689.884 222.774 689.392 222.938C688.899 223.097 688.349 223.176 687.739 223.176ZM697.926 220.328C697.926 220.164 697.87 220.023 697.759 219.906C697.653 219.783 697.466 219.672 697.196 219.572C696.927 219.467 696.549 219.361 696.062 219.256C695.6 219.156 695.163 219.024 694.753 218.86C694.349 218.696 693.994 218.497 693.689 218.263C693.385 218.028 693.145 217.75 692.969 217.428C692.799 217.105 692.714 216.736 692.714 216.32C692.714 215.916 692.799 215.535 692.969 215.178C693.145 214.814 693.399 214.495 693.733 214.22C694.073 213.938 694.486 213.719 694.973 213.561C695.459 213.396 696.013 213.314 696.634 213.314C697.489 213.314 698.228 213.446 698.849 213.71C699.47 213.968 699.947 214.331 700.281 214.8C700.621 215.263 700.791 215.799 700.791 216.408H697.829C697.829 216.168 697.788 215.963 697.706 215.793C697.63 215.623 697.504 215.494 697.328 215.406C697.152 215.312 696.918 215.266 696.625 215.266C696.42 215.266 696.232 215.304 696.062 215.38C695.898 215.456 695.767 215.562 695.667 215.696C695.567 215.831 695.518 215.989 695.518 216.171C695.518 216.3 695.547 216.417 695.605 216.522C695.67 216.622 695.767 216.716 695.896 216.804C696.024 216.886 696.188 216.962 696.388 217.032C696.587 217.097 696.827 217.155 697.108 217.208C697.747 217.325 698.345 217.492 698.901 217.709C699.458 217.926 699.909 218.233 700.255 218.632C700.606 219.03 700.782 219.566 700.782 220.24C700.782 220.662 700.686 221.052 700.492 221.409C700.299 221.761 700.021 222.071 699.657 222.341C699.294 222.604 698.857 222.81 698.348 222.956C697.838 223.103 697.264 223.176 696.625 223.176C695.717 223.176 694.949 223.015 694.322 222.692C693.695 222.364 693.221 221.954 692.898 221.462C692.582 220.964 692.424 220.46 692.424 219.95H695.184C695.195 220.243 695.266 220.483 695.395 220.671C695.529 220.858 695.708 220.996 695.931 221.084C696.153 221.172 696.411 221.216 696.704 221.216C696.974 221.216 697.196 221.178 697.372 221.102C697.554 221.025 697.691 220.923 697.785 220.794C697.879 220.659 697.926 220.504 697.926 220.328ZM706.188 220.891C706.463 220.891 706.697 220.841 706.891 220.741C707.09 220.636 707.239 220.489 707.339 220.302C707.444 220.108 707.494 219.877 707.488 219.607H710.274C710.28 220.322 710.104 220.949 709.747 221.488C709.396 222.021 708.915 222.438 708.306 222.736C707.702 223.029 707.02 223.176 706.258 223.176C705.514 223.176 704.863 223.056 704.307 222.815C703.75 222.569 703.284 222.229 702.909 221.796C702.54 221.356 702.262 220.844 702.074 220.258C701.893 219.672 701.802 219.036 701.802 218.351V218.148C701.802 217.463 701.893 216.827 702.074 216.241C702.262 215.649 702.54 215.137 702.909 214.703C703.284 214.264 703.747 213.924 704.298 213.684C704.854 213.438 705.502 213.314 706.24 213.314C707.031 213.314 707.729 213.464 708.332 213.763C708.941 214.062 709.419 214.495 709.765 215.063C710.11 215.632 710.28 216.32 710.274 217.129H707.488C707.494 216.842 707.45 216.584 707.356 216.355C707.263 216.127 707.116 215.945 706.917 215.811C706.724 215.67 706.475 215.6 706.17 215.6C705.865 215.6 705.619 215.667 705.432 215.802C705.244 215.937 705.101 216.124 705.001 216.364C704.907 216.599 704.843 216.868 704.808 217.173C704.778 217.478 704.764 217.803 704.764 218.148V218.351C704.764 218.702 704.778 219.033 704.808 219.344C704.843 219.648 704.91 219.918 705.01 220.152C705.109 220.381 705.253 220.562 705.44 220.697C705.628 220.826 705.877 220.891 706.188 220.891ZM714.528 215.846V223H711.566V213.49H714.335L714.528 215.846ZM717.341 213.42L717.288 216.171C717.171 216.159 717.013 216.145 716.813 216.127C716.614 216.109 716.447 216.101 716.312 216.101C715.967 216.101 715.668 216.142 715.416 216.224C715.17 216.3 714.965 216.417 714.801 216.575C714.643 216.728 714.525 216.921 714.449 217.155C714.379 217.39 714.347 217.662 714.353 217.973L713.816 217.621C713.816 216.982 713.878 216.402 714.001 215.881C714.13 215.354 714.312 214.899 714.546 214.519C714.78 214.132 715.064 213.836 715.398 213.631C715.732 213.42 716.107 213.314 716.523 213.314C716.67 213.314 716.813 213.323 716.954 213.341C717.101 213.358 717.229 213.385 717.341 213.42ZM721.489 213.49V223H718.519V213.49H721.489ZM718.343 211.038C718.343 210.616 718.495 210.271 718.8 210.001C719.104 209.731 719.5 209.597 719.986 209.597C720.473 209.597 720.868 209.731 721.173 210.001C721.478 210.271 721.63 210.616 721.63 211.038C721.63 211.46 721.478 211.806 721.173 212.075C720.868 212.345 720.473 212.479 719.986 212.479C719.5 212.479 719.104 212.345 718.8 212.075C718.495 211.806 718.343 211.46 718.343 211.038ZM726.306 215.318V226.656H723.344V213.49H726.104L726.306 215.318ZM732.142 218.131V218.315C732.142 219.007 732.062 219.648 731.904 220.24C731.746 220.832 731.512 221.348 731.201 221.787C730.891 222.227 730.504 222.569 730.041 222.815C729.584 223.056 729.054 223.176 728.45 223.176C727.882 223.176 727.393 223.05 726.982 222.798C726.572 222.546 726.229 222.197 725.954 221.752C725.679 221.307 725.456 220.797 725.286 220.223C725.116 219.648 724.981 219.042 724.882 218.403V218.166C724.981 217.48 725.116 216.845 725.286 216.259C725.456 215.667 725.679 215.151 725.954 214.712C726.229 214.272 726.569 213.93 726.974 213.684C727.384 213.438 727.873 213.314 728.441 213.314C729.045 213.314 729.575 213.429 730.032 213.657C730.495 213.886 730.882 214.214 731.192 214.642C731.509 215.063 731.746 215.57 731.904 216.162C732.062 216.754 732.142 217.41 732.142 218.131ZM729.18 218.315V218.131C729.18 217.762 729.153 217.425 729.101 217.12C729.048 216.81 728.963 216.54 728.846 216.312C728.734 216.083 728.585 215.907 728.397 215.784C728.21 215.661 727.979 215.6 727.703 215.6C727.387 215.6 727.12 215.649 726.903 215.749C726.692 215.843 726.522 215.989 726.394 216.188C726.271 216.382 726.183 216.625 726.13 216.918C726.083 217.205 726.062 217.542 726.068 217.929V218.649C726.057 219.095 726.101 219.487 726.2 219.827C726.3 220.161 726.473 220.422 726.719 220.609C726.965 220.797 727.299 220.891 727.721 220.891C728.002 220.891 728.236 220.826 728.424 220.697C728.611 220.562 728.761 220.378 728.872 220.144C728.983 219.903 729.062 219.628 729.109 219.317C729.156 219.007 729.18 218.673 729.18 218.315ZM738.47 213.49V215.547H732.739V213.49H738.47ZM733.943 211.126H736.905V219.897C736.905 220.149 736.935 220.346 736.993 220.486C737.052 220.621 737.151 220.718 737.292 220.776C737.438 220.829 737.632 220.855 737.872 220.855C738.042 220.855 738.183 220.853 738.294 220.847C738.405 220.835 738.511 220.82 738.61 220.803V222.921C738.358 223.003 738.095 223.064 737.819 223.105C737.544 223.152 737.251 223.176 736.94 223.176C736.308 223.176 735.766 223.076 735.314 222.877C734.869 222.678 734.529 222.364 734.295 221.937C734.061 221.509 733.943 220.952 733.943 220.267V211.126Z" fill="white"/>
</svg>
