<svg width="229" height="163" viewBox="0 0 229 163" fill="none" xmlns="http://www.w3.org/2000/svg">
<path d="M0 0H214C222.284 0 229 6.71573 229 15V148C229 156.284 222.284 163 214 163H0V0Z" fill="#3D2365"/>
<path fill-rule="evenodd" clip-rule="evenodd" d="M85.981 53C85.8539 53 85.732 53.0527 85.6421 53.1464C85.5522 53.2402 85.5017 53.3674 85.5017 53.5V109.5C85.5017 109.633 85.5522 109.76 85.6421 109.854C85.732 109.947 85.8539 110 85.981 110H143.019C143.146 110 143.268 109.947 143.358 109.854C143.448 109.76 143.498 109.633 143.498 109.5V64C143.498 63.8674 143.448 63.7402 143.358 63.6464C143.268 63.5527 143.146 63.5 143.019 63.5H114.5C113.647 63.5 112.837 63.1045 112.291 62.4206L104.765 53H85.981ZM81.575 48.9038C82.7436 47.6848 84.3285 47 85.981 47H106.112C106.966 47 107.775 47.3955 108.321 48.0794L115.847 57.5H143.019C144.672 57.5 146.256 58.1848 147.425 59.4038C148.594 60.6228 149.25 62.2761 149.25 64V109.5C149.25 111.224 148.594 112.877 147.425 114.096C146.256 115.315 144.672 116 143.019 116H85.981C84.3285 116 82.7436 115.315 81.575 114.096C80.4065 112.877 79.75 111.224 79.75 109.5V53.5C79.75 51.7761 80.4065 50.1228 81.575 48.9038Z" fill="white"/>
<path fill-rule="evenodd" clip-rule="evenodd" d="M110.162 75.5251C111.472 76.892 111.472 79.108 110.162 80.4749L104.147 86.75L110.162 93.0251C111.472 94.392 111.472 96.608 110.162 97.9749C108.852 99.3417 106.727 99.3417 105.417 97.9749L97.0292 89.2249C95.7189 87.858 95.7189 85.642 97.0292 84.2751L105.417 75.5251C106.727 74.1583 108.852 74.1583 110.162 75.5251Z" fill="white"/>
<path fill-rule="evenodd" clip-rule="evenodd" d="M118.119 97.9749C116.809 96.608 116.809 94.392 118.119 93.0251L124.134 86.75L118.119 80.4749C116.809 79.108 116.809 76.892 118.119 75.5251C119.429 74.1583 121.554 74.1583 122.864 75.5251L131.252 84.2751C132.562 85.642 132.562 87.858 131.252 89.2249L122.864 97.9749C121.554 99.3417 119.429 99.3417 118.119 97.9749Z" fill="white"/>
</svg>
