<svg width="1097" height="163" viewBox="0 0 1097 163" fill="none" xmlns="http://www.w3.org/2000/svg">
<rect width="1097" height="163" fill="#F0F0F0"/>
<path d="M64.9062 53.9219L57.3945 51.2383V48.0859L67.6016 52.375V54.6367L64.9062 53.9219ZM57.3945 56.1719L64.918 53.4297L67.6016 52.7852V55.0352L57.3945 59.3242V56.1719ZM82.543 54.918H78.1953V52.1758H82.543C83.2148 52.1758 83.7617 52.0664 84.1836 51.8477C84.6055 51.6211 84.9141 51.3086 85.1094 50.9102C85.3047 50.5117 85.4023 50.0625 85.4023 49.5625C85.4023 49.0547 85.3047 48.582 85.1094 48.1445C84.9141 47.707 84.6055 47.3555 84.1836 47.0898C83.7617 46.8242 83.2148 46.6914 82.543 46.6914H79.4141V61H75.8984V43.9375H82.543C83.8789 43.9375 85.0234 44.1797 85.9766 44.6641C86.9375 45.1406 87.6719 45.8008 88.1797 46.6445C88.6875 47.4883 88.9414 48.4531 88.9414 49.5391C88.9414 50.6406 88.6875 51.5938 88.1797 52.3984C87.6719 53.2031 86.9375 53.8242 85.9766 54.2617C85.0234 54.6992 83.8789 54.918 82.543 54.918ZM94.5312 51.0859V61H91.1562V48.3203H94.332L94.5312 51.0859ZM98.3516 48.2383L98.293 51.3672C98.1289 51.3438 97.9297 51.3242 97.6953 51.3086C97.4688 51.2852 97.2617 51.2734 97.0742 51.2734C96.5977 51.2734 96.1836 51.3359 95.832 51.4609C95.4883 51.5781 95.1992 51.7539 94.9648 51.9883C94.7383 52.2227 94.5664 52.5078 94.4492 52.8438C94.3398 53.1797 94.2773 53.5625 94.2617 53.9922L93.582 53.7812C93.582 52.9609 93.6641 52.207 93.8281 51.5195C93.9922 50.8242 94.2305 50.2188 94.543 49.7031C94.8633 49.1875 95.2539 48.7891 95.7148 48.5078C96.1758 48.2266 96.7031 48.0859 97.2969 48.0859C97.4844 48.0859 97.6758 48.1016 97.8711 48.1328C98.0664 48.1562 98.2266 48.1914 98.3516 48.2383ZM99.0547 54.7891V54.543C99.0547 53.6133 99.1875 52.7578 99.4531 51.9766C99.7188 51.1875 100.105 50.5039 100.613 49.9258C101.121 49.3477 101.746 48.8984 102.488 48.5781C103.23 48.25 104.082 48.0859 105.043 48.0859C106.004 48.0859 106.859 48.25 107.609 48.5781C108.359 48.8984 108.988 49.3477 109.496 49.9258C110.012 50.5039 110.402 51.1875 110.668 51.9766C110.934 52.7578 111.066 53.6133 111.066 54.543V54.7891C111.066 55.7109 110.934 56.5664 110.668 57.3555C110.402 58.1367 110.012 58.8203 109.496 59.4062C108.988 59.9844 108.363 60.4336 107.621 60.7539C106.879 61.0742 106.027 61.2344 105.066 61.2344C104.105 61.2344 103.25 61.0742 102.5 60.7539C101.758 60.4336 101.129 59.9844 100.613 59.4062C100.105 58.8203 99.7188 58.1367 99.4531 57.3555C99.1875 56.5664 99.0547 55.7109 99.0547 54.7891ZM102.43 54.543V54.7891C102.43 55.3203 102.477 55.8164 102.57 56.2773C102.664 56.7383 102.812 57.1445 103.016 57.4961C103.227 57.8398 103.5 58.1094 103.836 58.3047C104.172 58.5 104.582 58.5977 105.066 58.5977C105.535 58.5977 105.938 58.5 106.273 58.3047C106.609 58.1094 106.879 57.8398 107.082 57.4961C107.285 57.1445 107.434 56.7383 107.527 56.2773C107.629 55.8164 107.68 55.3203 107.68 54.7891V54.543C107.68 54.0273 107.629 53.543 107.527 53.0898C107.434 52.6289 107.281 52.2227 107.07 51.8711C106.867 51.5117 106.598 51.2305 106.262 51.0273C105.926 50.8242 105.52 50.7227 105.043 50.7227C104.566 50.7227 104.16 50.8242 103.824 51.0273C103.496 51.2305 103.227 51.5117 103.016 51.8711C102.812 52.2227 102.664 52.6289 102.57 53.0898C102.477 53.543 102.43 54.0273 102.43 54.543ZM113.328 48.3203H116.715V61.7617C116.715 62.6992 116.543 63.4922 116.199 64.1406C115.855 64.7891 115.359 65.2812 114.711 65.6172C114.062 65.9531 113.277 66.1211 112.355 66.1211C112.066 66.1211 111.785 66.1055 111.512 66.0742C111.23 66.043 110.941 65.9922 110.645 65.9219L110.656 63.332C110.844 63.3633 111.027 63.3867 111.207 63.4023C111.379 63.4258 111.555 63.4375 111.734 63.4375C112.086 63.4375 112.379 63.3789 112.613 63.2617C112.848 63.1445 113.023 62.9609 113.141 62.7109C113.266 62.4688 113.328 62.1523 113.328 61.7617V48.3203ZM113.059 45.0156C113.059 44.5234 113.23 44.1172 113.574 43.7969C113.926 43.4766 114.387 43.3164 114.957 43.3164C115.535 43.3164 115.996 43.4766 116.34 43.7969C116.684 44.1172 116.855 44.5234 116.855 45.0156C116.855 45.5078 116.684 45.9141 116.34 46.2344C115.996 46.5547 115.535 46.7148 114.957 46.7148C114.387 46.7148 113.926 46.5547 113.574 46.2344C113.23 45.9141 113.059 45.5078 113.059 45.0156ZM125.234 61.2344C124.25 61.2344 123.367 61.0781 122.586 60.7656C121.805 60.4453 121.141 60.0039 120.594 59.4414C120.055 58.8789 119.641 58.2266 119.352 57.4844C119.062 56.7344 118.918 55.9375 118.918 55.0938V54.625C118.918 53.6641 119.055 52.7852 119.328 51.9883C119.602 51.1914 119.992 50.5 120.5 49.9141C121.016 49.3281 121.641 48.8789 122.375 48.5664C123.109 48.2461 123.938 48.0859 124.859 48.0859C125.758 48.0859 126.555 48.2344 127.25 48.5312C127.945 48.8281 128.527 49.25 128.996 49.7969C129.473 50.3438 129.832 51 130.074 51.7656C130.316 52.5234 130.438 53.3672 130.438 54.2969V55.7031H120.359V53.4531H127.121V53.1953C127.121 52.7266 127.035 52.3086 126.863 51.9414C126.699 51.5664 126.449 51.2695 126.113 51.0508C125.777 50.832 125.348 50.7227 124.824 50.7227C124.379 50.7227 123.996 50.8203 123.676 51.0156C123.355 51.2109 123.094 51.4844 122.891 51.8359C122.695 52.1875 122.547 52.6016 122.445 53.0781C122.352 53.5469 122.305 54.0625 122.305 54.625V55.0938C122.305 55.6016 122.375 56.0703 122.516 56.5C122.664 56.9297 122.871 57.3008 123.137 57.6133C123.41 57.9258 123.738 58.168 124.121 58.3398C124.512 58.5117 124.953 58.5977 125.445 58.5977C126.055 58.5977 126.621 58.4805 127.145 58.2461C127.676 58.0039 128.133 57.6406 128.516 57.1562L130.156 58.9375C129.891 59.3203 129.527 59.6875 129.066 60.0391C128.613 60.3906 128.066 60.6797 127.426 60.9062C126.785 61.125 126.055 61.2344 125.234 61.2344ZM137.598 58.5977C138.012 58.5977 138.379 58.5195 138.699 58.3633C139.02 58.1992 139.27 57.9727 139.449 57.6836C139.637 57.3867 139.734 57.0391 139.742 56.6406H142.918C142.91 57.5312 142.672 58.3242 142.203 59.0195C141.734 59.707 141.105 60.25 140.316 60.6484C139.527 61.0391 138.645 61.2344 137.668 61.2344C136.684 61.2344 135.824 61.0703 135.09 60.7422C134.363 60.4141 133.758 59.9609 133.273 59.3828C132.789 58.7969 132.426 58.1172 132.184 57.3438C131.941 56.5625 131.82 55.7266 131.82 54.8359V54.4961C131.82 53.5977 131.941 52.7617 132.184 51.9883C132.426 51.207 132.789 50.5273 133.273 49.9492C133.758 49.3633 134.363 48.9062 135.09 48.5781C135.816 48.25 136.668 48.0859 137.645 48.0859C138.684 48.0859 139.594 48.2852 140.375 48.6836C141.164 49.082 141.781 49.6523 142.227 50.3945C142.68 51.1289 142.91 52 142.918 53.0078H139.742C139.734 52.5859 139.645 52.2031 139.473 51.8594C139.309 51.5156 139.066 51.2422 138.746 51.0391C138.434 50.8281 138.047 50.7227 137.586 50.7227C137.094 50.7227 136.691 50.8281 136.379 51.0391C136.066 51.2422 135.824 51.5234 135.652 51.8828C135.48 52.2344 135.359 52.6367 135.289 53.0898C135.227 53.5352 135.195 54.0039 135.195 54.4961V54.8359C135.195 55.3281 135.227 55.8008 135.289 56.2539C135.352 56.707 135.469 57.1094 135.641 57.4609C135.82 57.8125 136.066 58.0898 136.379 58.293C136.691 58.4961 137.098 58.5977 137.598 58.5977ZM151.086 48.3203V50.7109H143.703V48.3203H151.086ZM145.531 45.1914H148.906V57.1797C148.906 57.5469 148.953 57.8281 149.047 58.0234C149.148 58.2188 149.297 58.3555 149.492 58.4336C149.688 58.5039 149.934 58.5391 150.23 58.5391C150.441 58.5391 150.629 58.5312 150.793 58.5156C150.965 58.4922 151.109 58.4688 151.227 58.4453L151.238 60.9297C150.949 61.0234 150.637 61.0977 150.301 61.1523C149.965 61.207 149.594 61.2344 149.188 61.2344C148.445 61.2344 147.797 61.1133 147.242 60.8711C146.695 60.6211 146.273 60.2227 145.977 59.6758C145.68 59.1289 145.531 58.4102 145.531 57.5195V45.1914ZM166.191 43.9375V61H162.688V43.9375H166.191ZM171.441 43.9375V46.6914H157.52V43.9375H171.441ZM176.797 48.3203V61H173.41V48.3203H176.797ZM173.199 45.0156C173.199 44.5234 173.371 44.1172 173.715 43.7969C174.059 43.4766 174.52 43.3164 175.098 43.3164C175.668 43.3164 176.125 43.4766 176.469 43.7969C176.82 44.1172 176.996 44.5234 176.996 45.0156C176.996 45.5078 176.82 45.9141 176.469 46.2344C176.125 46.5547 175.668 46.7148 175.098 46.7148C174.52 46.7148 174.059 46.5547 173.715 46.2344C173.371 45.9141 173.199 45.5078 173.199 45.0156ZM185.797 48.3203V50.7109H178.414V48.3203H185.797ZM180.242 45.1914H183.617V57.1797C183.617 57.5469 183.664 57.8281 183.758 58.0234C183.859 58.2188 184.008 58.3555 184.203 58.4336C184.398 58.5039 184.645 58.5391 184.941 58.5391C185.152 58.5391 185.34 58.5312 185.504 58.5156C185.676 58.4922 185.82 58.4688 185.938 58.4453L185.949 60.9297C185.66 61.0234 185.348 61.0977 185.012 61.1523C184.676 61.207 184.305 61.2344 183.898 61.2344C183.156 61.2344 182.508 61.1133 181.953 60.8711C181.406 60.6211 180.984 60.2227 180.688 59.6758C180.391 59.1289 180.242 58.4102 180.242 57.5195V45.1914ZM191.281 43V61H187.895V43H191.281ZM199.906 61.2344C198.922 61.2344 198.039 61.0781 197.258 60.7656C196.477 60.4453 195.812 60.0039 195.266 59.4414C194.727 58.8789 194.312 58.2266 194.023 57.4844C193.734 56.7344 193.59 55.9375 193.59 55.0938V54.625C193.59 53.6641 193.727 52.7852 194 51.9883C194.273 51.1914 194.664 50.5 195.172 49.9141C195.688 49.3281 196.312 48.8789 197.047 48.5664C197.781 48.2461 198.609 48.0859 199.531 48.0859C200.43 48.0859 201.227 48.2344 201.922 48.5312C202.617 48.8281 203.199 49.25 203.668 49.7969C204.145 50.3438 204.504 51 204.746 51.7656C204.988 52.5234 205.109 53.3672 205.109 54.2969V55.7031H195.031V53.4531H201.793V53.1953C201.793 52.7266 201.707 52.3086 201.535 51.9414C201.371 51.5664 201.121 51.2695 200.785 51.0508C200.449 50.832 200.02 50.7227 199.496 50.7227C199.051 50.7227 198.668 50.8203 198.348 51.0156C198.027 51.2109 197.766 51.4844 197.562 51.8359C197.367 52.1875 197.219 52.6016 197.117 53.0781C197.023 53.5469 196.977 54.0625 196.977 54.625V55.0938C196.977 55.6016 197.047 56.0703 197.188 56.5C197.336 56.9297 197.543 57.3008 197.809 57.6133C198.082 57.9258 198.41 58.168 198.793 58.3398C199.184 58.5117 199.625 58.5977 200.117 58.5977C200.727 58.5977 201.293 58.4805 201.816 58.2461C202.348 58.0039 202.805 57.6406 203.188 57.1562L204.828 58.9375C204.562 59.3203 204.199 59.6875 203.738 60.0391C203.285 60.3906 202.738 60.6797 202.098 60.9062C201.457 61.125 200.727 61.2344 199.906 61.2344Z" fill="#888888"/>
<path d="M73.0625 92.0469L64.7422 119H55.9062L68.4453 84.875H74.0469L73.0625 92.0469ZM79.9531 119L71.6094 92.0469L70.5312 84.875H76.2031L88.8125 119H79.9531ZM79.625 106.273V112.625H62.1172V106.273H79.625ZM98.2578 115.906L105.055 84.875H109.109L111.312 87.5234L104.07 119H99.5938L98.2578 115.906ZM96.4531 84.875L102.195 116.141L100.719 119H95.5391L88.2969 84.875H96.4531ZM115.039 115.977L120.734 84.875H128.867L121.625 119H116.469L115.039 115.977ZM112.039 84.875L119 116.094L117.594 119H113.117L105.711 87.4766L108.008 84.875H112.039ZM149.68 109.93C149.68 109.398 149.602 108.922 149.445 108.5C149.289 108.062 149 107.656 148.578 107.281C148.156 106.906 147.547 106.531 146.75 106.156C145.969 105.766 144.938 105.359 143.656 104.938C142.156 104.438 140.711 103.875 139.32 103.25C137.93 102.609 136.688 101.867 135.594 101.023C134.5 100.164 133.633 99.1641 132.992 98.0234C132.352 96.8672 132.031 95.5234 132.031 93.9922C132.031 92.5234 132.359 91.2031 133.016 90.0312C133.672 88.8438 134.586 87.8359 135.758 87.0078C136.945 86.1641 138.336 85.5234 139.93 85.0859C141.523 84.6328 143.266 84.4062 145.156 84.4062C147.656 84.4062 149.859 84.8438 151.766 85.7188C153.688 86.5781 155.188 87.8047 156.266 89.3984C157.359 90.9766 157.906 92.8438 157.906 95H149.727C149.727 94.1406 149.547 93.3828 149.188 92.7266C148.844 92.0703 148.32 91.5547 147.617 91.1797C146.914 90.8047 146.031 90.6172 144.969 90.6172C143.938 90.6172 143.07 90.7734 142.367 91.0859C141.664 91.3984 141.133 91.8203 140.773 92.3516C140.414 92.8672 140.234 93.4375 140.234 94.0625C140.234 94.5781 140.375 95.0469 140.656 95.4688C140.953 95.875 141.367 96.2578 141.898 96.6172C142.445 96.9766 143.102 97.3203 143.867 97.6484C144.648 97.9766 145.523 98.2969 146.492 98.6094C148.305 99.1875 149.914 99.8359 151.32 100.555C152.742 101.258 153.938 102.062 154.906 102.969C155.891 103.859 156.633 104.875 157.133 106.016C157.648 107.156 157.906 108.445 157.906 109.883C157.906 111.414 157.609 112.773 157.016 113.961C156.422 115.148 155.57 116.156 154.461 116.984C153.352 117.797 152.023 118.414 150.477 118.836C148.93 119.258 147.203 119.469 145.297 119.469C143.547 119.469 141.82 119.25 140.117 118.812C138.43 118.359 136.898 117.672 135.523 116.75C134.148 115.812 133.047 114.617 132.219 113.164C131.406 111.695 131 109.953 131 107.938H139.25C139.25 108.938 139.383 109.781 139.648 110.469C139.914 111.156 140.305 111.711 140.82 112.133C141.336 112.539 141.969 112.836 142.719 113.023C143.469 113.195 144.328 113.281 145.297 113.281C146.344 113.281 147.188 113.133 147.828 112.836C148.469 112.523 148.938 112.117 149.234 111.617C149.531 111.102 149.68 110.539 149.68 109.93ZM185.188 119H177.617L177.664 112.672H185.188C186.75 112.672 188.07 112.297 189.148 111.547C190.242 110.797 191.07 109.68 191.633 108.195C192.211 106.695 192.5 104.852 192.5 102.664V101.188C192.5 99.5469 192.336 98.1094 192.008 96.875C191.695 95.625 191.227 94.5859 190.602 93.7578C189.977 92.9141 189.195 92.2812 188.258 91.8594C187.336 91.4375 186.273 91.2266 185.07 91.2266H177.477V84.875H185.07C187.383 84.875 189.5 85.2734 191.422 86.0703C193.359 86.8516 195.031 87.9766 196.438 89.4453C197.859 90.8984 198.953 92.625 199.719 94.625C200.5 96.6094 200.891 98.8125 200.891 101.234V102.664C200.891 105.07 200.5 107.273 199.719 109.273C198.953 111.273 197.867 113 196.461 114.453C195.055 115.906 193.391 117.031 191.469 117.828C189.562 118.609 187.469 119 185.188 119ZM182.328 84.875V119H174.102V84.875H182.328ZM217.086 119.469C215.023 119.469 213.18 119.148 211.555 118.508C209.93 117.852 208.555 116.953 207.43 115.812C206.32 114.672 205.469 113.359 204.875 111.875C204.297 110.391 204.008 108.82 204.008 107.164V106.273C204.008 104.414 204.266 102.695 204.781 101.117C205.297 99.5234 206.062 98.1328 207.078 96.9453C208.094 95.7578 209.367 94.8359 210.898 94.1797C212.43 93.5078 214.211 93.1719 216.242 93.1719C218.039 93.1719 219.648 93.4609 221.07 94.0391C222.492 94.6172 223.695 95.4453 224.68 96.5234C225.68 97.6016 226.438 98.9062 226.953 100.438C227.484 101.969 227.75 103.688 227.75 105.594V108.805H207.031V103.859H220.039V103.25C220.055 102.406 219.906 101.688 219.594 101.094C219.297 100.5 218.859 100.047 218.281 99.7344C217.703 99.4219 217 99.2656 216.172 99.2656C215.312 99.2656 214.602 99.4531 214.039 99.8281C213.492 100.203 213.062 100.719 212.75 101.375C212.453 102.016 212.242 102.758 212.117 103.602C211.992 104.445 211.93 105.336 211.93 106.273V107.164C211.93 108.102 212.055 108.953 212.305 109.719C212.57 110.484 212.945 111.141 213.43 111.688C213.93 112.219 214.523 112.633 215.211 112.93C215.914 113.227 216.711 113.375 217.602 113.375C218.68 113.375 219.742 113.172 220.789 112.766C221.836 112.359 222.734 111.688 223.484 110.75L227.07 115.016C226.555 115.75 225.82 116.461 224.867 117.148C223.93 117.836 222.805 118.398 221.492 118.836C220.18 119.258 218.711 119.469 217.086 119.469ZM238.93 98.5156V128.75H231.031V93.6406H238.391L238.93 98.5156ZM254.492 106.016V106.508C254.492 108.352 254.281 110.062 253.859 111.641C253.438 113.219 252.812 114.594 251.984 115.766C251.156 116.938 250.125 117.852 248.891 118.508C247.672 119.148 246.258 119.469 244.648 119.469C243.133 119.469 241.828 119.133 240.734 118.461C239.641 117.789 238.727 116.859 237.992 115.672C237.258 114.484 236.664 113.125 236.211 111.594C235.758 110.062 235.398 108.445 235.133 106.742V106.109C235.398 104.281 235.758 102.586 236.211 101.023C236.664 99.4453 237.258 98.0703 237.992 96.8984C238.727 95.7266 239.633 94.8125 240.711 94.1562C241.805 93.5 243.109 93.1719 244.625 93.1719C246.234 93.1719 247.648 93.4766 248.867 94.0859C250.102 94.6953 251.133 95.5703 251.961 96.7109C252.805 97.8359 253.438 99.1875 253.859 100.766C254.281 102.344 254.492 104.094 254.492 106.016ZM246.594 106.508V106.016C246.594 105.031 246.523 104.133 246.383 103.32C246.242 102.492 246.016 101.773 245.703 101.164C245.406 100.555 245.008 100.086 244.508 99.7578C244.008 99.4297 243.391 99.2656 242.656 99.2656C241.812 99.2656 241.102 99.3984 240.523 99.6641C239.961 99.9141 239.508 100.305 239.164 100.836C238.836 101.352 238.602 102 238.461 102.781C238.336 103.547 238.281 104.445 238.297 105.477V107.398C238.266 108.586 238.383 109.633 238.648 110.539C238.914 111.43 239.375 112.125 240.031 112.625C240.688 113.125 241.578 113.375 242.703 113.375C243.453 113.375 244.078 113.203 244.578 112.859C245.078 112.5 245.477 112.008 245.773 111.383C246.07 110.742 246.281 110.008 246.406 109.18C246.531 108.352 246.594 107.461 246.594 106.508ZM266.352 83V119H258.43V83H266.352ZM270.242 106.578V106.086C270.242 104.227 270.508 102.516 271.039 100.953C271.57 99.375 272.352 98.0078 273.383 96.8516C274.414 95.6953 275.688 94.7969 277.203 94.1562C278.719 93.5 280.469 93.1719 282.453 93.1719C284.453 93.1719 286.211 93.5 287.727 94.1562C289.258 94.7969 290.539 95.6953 291.57 96.8516C292.602 98.0078 293.383 99.375 293.914 100.953C294.445 102.516 294.711 104.227 294.711 106.086V106.578C294.711 108.422 294.445 110.133 293.914 111.711C293.383 113.273 292.602 114.641 291.57 115.812C290.539 116.969 289.266 117.867 287.75 118.508C286.234 119.148 284.484 119.469 282.5 119.469C280.516 119.469 278.758 119.148 277.227 118.508C275.695 117.867 274.414 116.969 273.383 115.812C272.352 114.641 271.57 113.273 271.039 111.711C270.508 110.133 270.242 108.422 270.242 106.578ZM278.141 106.086V106.578C278.141 107.531 278.211 108.422 278.352 109.25C278.492 110.078 278.727 110.805 279.055 111.43C279.383 112.039 279.828 112.516 280.391 112.859C280.953 113.203 281.656 113.375 282.5 113.375C283.328 113.375 284.016 113.203 284.562 112.859C285.125 112.516 285.57 112.039 285.898 111.43C286.227 110.805 286.461 110.078 286.602 109.25C286.742 108.422 286.812 107.531 286.812 106.578V106.086C286.812 105.164 286.742 104.297 286.602 103.484C286.461 102.656 286.227 101.93 285.898 101.305C285.57 100.664 285.125 100.164 284.562 99.8047C284 99.4453 283.297 99.2656 282.453 99.2656C281.625 99.2656 280.93 99.4453 280.367 99.8047C279.82 100.164 279.383 100.664 279.055 101.305C278.727 101.93 278.492 102.656 278.352 103.484C278.211 104.297 278.141 105.164 278.141 106.086ZM305.633 116.023L312.195 93.6406H320.68L310.484 122.773C310.266 123.414 309.977 124.102 309.617 124.836C309.258 125.586 308.766 126.297 308.141 126.969C307.516 127.641 306.711 128.188 305.727 128.609C304.758 129.031 303.555 129.242 302.117 129.242C301.352 129.242 300.789 129.203 300.43 129.125C300.086 129.062 299.555 128.945 298.836 128.773V123.125C299.039 123.125 299.211 123.125 299.352 123.125C299.508 123.125 299.68 123.125 299.867 123.125C300.711 123.125 301.383 123.039 301.883 122.867C302.398 122.695 302.789 122.445 303.055 122.117C303.336 121.789 303.555 121.391 303.711 120.922L305.633 116.023ZM303.969 93.6406L308.961 111.383L309.828 119.75H304.531L295.508 93.6406H303.969ZM330.711 99.0078V119H322.812V93.6406H330.219L330.711 99.0078ZM329.75 105.453L327.945 105.5C327.945 103.719 328.156 102.078 328.578 100.578C329 99.0781 329.625 97.7734 330.453 96.6641C331.281 95.5547 332.297 94.6953 333.5 94.0859C334.719 93.4766 336.125 93.1719 337.719 93.1719C338.828 93.1719 339.836 93.3438 340.742 93.6875C341.648 94.0156 342.43 94.5391 343.086 95.2578C343.742 95.9609 344.242 96.8828 344.586 98.0234C344.945 99.1484 345.125 100.5 345.125 102.078V119H337.227V103.086C337.227 102.008 337.102 101.195 336.852 100.648C336.617 100.102 336.273 99.7344 335.82 99.5469C335.367 99.3594 334.812 99.2656 334.156 99.2656C333.469 99.2656 332.852 99.4219 332.305 99.7344C331.758 100.047 331.289 100.484 330.898 101.047C330.523 101.594 330.234 102.242 330.031 102.992C329.844 103.742 329.75 104.562 329.75 105.453ZM344.234 105.453L342.031 105.5C342.031 103.719 342.227 102.078 342.617 100.578C343.023 99.0781 343.625 97.7734 344.422 96.6641C345.234 95.5547 346.242 94.6953 347.445 94.0859C348.648 93.4766 350.047 93.1719 351.641 93.1719C352.797 93.1719 353.859 93.3438 354.828 93.6875C355.797 94.0312 356.633 94.5859 357.336 95.3516C358.039 96.1172 358.586 97.1328 358.977 98.3984C359.367 99.6484 359.562 101.195 359.562 103.039V119H351.641V103.039C351.641 101.992 351.516 101.203 351.266 100.672C351.031 100.125 350.688 99.7578 350.234 99.5703C349.781 99.3672 349.242 99.2656 348.617 99.2656C347.867 99.2656 347.219 99.4219 346.672 99.7344C346.125 100.047 345.664 100.484 345.289 101.047C344.93 101.594 344.664 102.242 344.492 102.992C344.32 103.742 344.234 104.562 344.234 105.453ZM376.367 119.469C374.305 119.469 372.461 119.148 370.836 118.508C369.211 117.852 367.836 116.953 366.711 115.812C365.602 114.672 364.75 113.359 364.156 111.875C363.578 110.391 363.289 108.82 363.289 107.164V106.273C363.289 104.414 363.547 102.695 364.062 101.117C364.578 99.5234 365.344 98.1328 366.359 96.9453C367.375 95.7578 368.648 94.8359 370.18 94.1797C371.711 93.5078 373.492 93.1719 375.523 93.1719C377.32 93.1719 378.93 93.4609 380.352 94.0391C381.773 94.6172 382.977 95.4453 383.961 96.5234C384.961 97.6016 385.719 98.9062 386.234 100.438C386.766 101.969 387.031 103.688 387.031 105.594V108.805H366.312V103.859H379.32V103.25C379.336 102.406 379.188 101.688 378.875 101.094C378.578 100.5 378.141 100.047 377.562 99.7344C376.984 99.4219 376.281 99.2656 375.453 99.2656C374.594 99.2656 373.883 99.4531 373.32 99.8281C372.773 100.203 372.344 100.719 372.031 101.375C371.734 102.016 371.523 102.758 371.398 103.602C371.273 104.445 371.211 105.336 371.211 106.273V107.164C371.211 108.102 371.336 108.953 371.586 109.719C371.852 110.484 372.227 111.141 372.711 111.688C373.211 112.219 373.805 112.633 374.492 112.93C375.195 113.227 375.992 113.375 376.883 113.375C377.961 113.375 379.023 113.172 380.07 112.766C381.117 112.359 382.016 111.688 382.766 110.75L386.352 115.016C385.836 115.75 385.102 116.461 384.148 117.148C383.211 117.836 382.086 118.398 380.773 118.836C379.461 119.258 377.992 119.469 376.367 119.469ZM398 99.0547V119H390.102V93.6406H397.508L398 99.0547ZM397.062 105.453L395.211 105.5C395.211 103.562 395.445 101.836 395.914 100.32C396.383 98.7891 397.047 97.4922 397.906 96.4297C398.766 95.3672 399.789 94.5625 400.977 94.0156C402.18 93.4531 403.516 93.1719 404.984 93.1719C406.156 93.1719 407.227 93.3438 408.195 93.6875C409.18 94.0312 410.023 94.5859 410.727 95.3516C411.445 96.1172 411.992 97.1328 412.367 98.3984C412.758 99.6484 412.953 101.195 412.953 103.039V119H405.008V103.016C405.008 102 404.867 101.227 404.586 100.695C404.305 100.148 403.898 99.7734 403.367 99.5703C402.836 99.3672 402.188 99.2656 401.422 99.2656C400.609 99.2656 399.922 99.4219 399.359 99.7344C398.797 100.047 398.344 100.484 398 101.047C397.672 101.594 397.43 102.242 397.273 102.992C397.133 103.742 397.062 104.562 397.062 105.453ZM430.695 93.6406V99.125H415.414V93.6406H430.695ZM418.625 87.3359H426.523V110.727C426.523 111.398 426.602 111.922 426.758 112.297C426.914 112.656 427.18 112.914 427.555 113.07C427.945 113.211 428.461 113.281 429.102 113.281C429.555 113.281 429.93 113.273 430.227 113.258C430.523 113.227 430.805 113.188 431.07 113.141V118.789C430.398 119.008 429.695 119.172 428.961 119.281C428.227 119.406 427.445 119.469 426.617 119.469C424.93 119.469 423.484 119.203 422.281 118.672C421.094 118.141 420.188 117.305 419.562 116.164C418.938 115.023 418.625 113.539 418.625 111.711V87.3359Z" fill="black"/>
</svg>
