<svg width="229" height="163" viewBox="0 0 229 163" fill="none" xmlns="http://www.w3.org/2000/svg">
<path d="M0 0H214C222.284 0 229 6.71573 229 15V148C229 156.284 222.284 163 214 163H0V0Z" fill="#3D2365"/>
<path d="M146.071 47.5H82.9286L80.5 49.9286V113.071L82.9286 115.5H146.071L148.5 113.071V49.9286L146.071 47.5ZM143.643 110.643H99.9286V100.929H111.1C112.557 103.843 115.957 105.786 119.357 105.786C124.7 105.786 129.071 101.414 129.071 96.0714C129.071 90.7286 124.7 86.3571 119.357 86.3571C114.014 86.3571 109.643 90.7286 109.643 96.0714H95.0714V110.643H85.3571V52.3571H95.0714V63.5286C92.1571 64.9857 90.2143 68.3857 90.2143 71.7857C90.2143 77.1286 94.5857 81.5 99.9286 81.5C105.271 81.5 109.643 77.1286 109.643 71.7857H119.357C119.357 77.1286 123.729 81.5 129.071 81.5C134.414 81.5 138.786 77.1286 138.786 71.7857C138.786 66.4429 134.414 62.0714 129.071 62.0714C125.671 62.0714 122.271 64.0143 120.814 66.9286H108.186C106.729 64.0143 103.329 62.0714 99.9286 62.0714V52.3571H143.643V110.643ZM114.5 96.0714C114.5 93.1571 116.443 91.2143 119.357 91.2143C122.271 91.2143 124.214 93.1571 124.214 96.0714C124.214 98.9857 122.271 100.929 119.357 100.929C116.443 100.929 114.5 98.9857 114.5 96.0714ZM99.9286 66.9286C102.843 66.9286 104.786 68.8714 104.786 71.7857C104.786 74.7 102.843 76.6429 99.9286 76.6429C97.0143 76.6429 95.0714 74.7 95.0714 71.7857C95.0714 68.8714 97.0143 66.9286 99.9286 66.9286ZM129.071 66.9286C131.986 66.9286 133.929 68.8714 133.929 71.7857C133.929 74.7 131.986 76.6429 129.071 76.6429C126.157 76.6429 124.214 74.7 124.214 71.7857C124.214 68.8714 126.157 66.9286 129.071 66.9286Z" fill="white"/>
</svg>
