<svg width="1097" height="163" viewBox="0 0 1097 163" fill="none" xmlns="http://www.w3.org/2000/svg">
<rect width="1097" height="163" fill="#F0F0F0"/>
<path d="M64.9062 53.9219L57.3945 51.2383V48.0859L67.6016 52.375V54.6367L64.9062 53.9219ZM57.3945 56.1719L64.918 53.4297L67.6016 52.7852V55.0352L57.3945 59.3242V56.1719ZM82.543 54.918H78.1953V52.1758H82.543C83.2148 52.1758 83.7617 52.0664 84.1836 51.8477C84.6055 51.6211 84.9141 51.3086 85.1094 50.9102C85.3047 50.5117 85.4023 50.0625 85.4023 49.5625C85.4023 49.0547 85.3047 48.582 85.1094 48.1445C84.9141 47.707 84.6055 47.3555 84.1836 47.0898C83.7617 46.8242 83.2148 46.6914 82.543 46.6914H79.4141V61H75.8984V43.9375H82.543C83.8789 43.9375 85.0234 44.1797 85.9766 44.6641C86.9375 45.1406 87.6719 45.8008 88.1797 46.6445C88.6875 47.4883 88.9414 48.4531 88.9414 49.5391C88.9414 50.6406 88.6875 51.5938 88.1797 52.3984C87.6719 53.2031 86.9375 53.8242 85.9766 54.2617C85.0234 54.6992 83.8789 54.918 82.543 54.918ZM94.5312 51.0859V61H91.1562V48.3203H94.332L94.5312 51.0859ZM98.3516 48.2383L98.293 51.3672C98.1289 51.3438 97.9297 51.3242 97.6953 51.3086C97.4688 51.2852 97.2617 51.2734 97.0742 51.2734C96.5977 51.2734 96.1836 51.3359 95.832 51.4609C95.4883 51.5781 95.1992 51.7539 94.9648 51.9883C94.7383 52.2227 94.5664 52.5078 94.4492 52.8438C94.3398 53.1797 94.2773 53.5625 94.2617 53.9922L93.582 53.7812C93.582 52.9609 93.6641 52.207 93.8281 51.5195C93.9922 50.8242 94.2305 50.2188 94.543 49.7031C94.8633 49.1875 95.2539 48.7891 95.7148 48.5078C96.1758 48.2266 96.7031 48.0859 97.2969 48.0859C97.4844 48.0859 97.6758 48.1016 97.8711 48.1328C98.0664 48.1562 98.2266 48.1914 98.3516 48.2383ZM99.0547 54.7891V54.543C99.0547 53.6133 99.1875 52.7578 99.4531 51.9766C99.7188 51.1875 100.105 50.5039 100.613 49.9258C101.121 49.3477 101.746 48.8984 102.488 48.5781C103.23 48.25 104.082 48.0859 105.043 48.0859C106.004 48.0859 106.859 48.25 107.609 48.5781C108.359 48.8984 108.988 49.3477 109.496 49.9258C110.012 50.5039 110.402 51.1875 110.668 51.9766C110.934 52.7578 111.066 53.6133 111.066 54.543V54.7891C111.066 55.7109 110.934 56.5664 110.668 57.3555C110.402 58.1367 110.012 58.8203 109.496 59.4062C108.988 59.9844 108.363 60.4336 107.621 60.7539C106.879 61.0742 106.027 61.2344 105.066 61.2344C104.105 61.2344 103.25 61.0742 102.5 60.7539C101.758 60.4336 101.129 59.9844 100.613 59.4062C100.105 58.8203 99.7188 58.1367 99.4531 57.3555C99.1875 56.5664 99.0547 55.7109 99.0547 54.7891ZM102.43 54.543V54.7891C102.43 55.3203 102.477 55.8164 102.57 56.2773C102.664 56.7383 102.812 57.1445 103.016 57.4961C103.227 57.8398 103.5 58.1094 103.836 58.3047C104.172 58.5 104.582 58.5977 105.066 58.5977C105.535 58.5977 105.938 58.5 106.273 58.3047C106.609 58.1094 106.879 57.8398 107.082 57.4961C107.285 57.1445 107.434 56.7383 107.527 56.2773C107.629 55.8164 107.68 55.3203 107.68 54.7891V54.543C107.68 54.0273 107.629 53.543 107.527 53.0898C107.434 52.6289 107.281 52.2227 107.07 51.8711C106.867 51.5117 106.598 51.2305 106.262 51.0273C105.926 50.8242 105.52 50.7227 105.043 50.7227C104.566 50.7227 104.16 50.8242 103.824 51.0273C103.496 51.2305 103.227 51.5117 103.016 51.8711C102.812 52.2227 102.664 52.6289 102.57 53.0898C102.477 53.543 102.43 54.0273 102.43 54.543ZM113.328 48.3203H116.715V61.7617C116.715 62.6992 116.543 63.4922 116.199 64.1406C115.855 64.7891 115.359 65.2812 114.711 65.6172C114.062 65.9531 113.277 66.1211 112.355 66.1211C112.066 66.1211 111.785 66.1055 111.512 66.0742C111.23 66.043 110.941 65.9922 110.645 65.9219L110.656 63.332C110.844 63.3633 111.027 63.3867 111.207 63.4023C111.379 63.4258 111.555 63.4375 111.734 63.4375C112.086 63.4375 112.379 63.3789 112.613 63.2617C112.848 63.1445 113.023 62.9609 113.141 62.7109C113.266 62.4688 113.328 62.1523 113.328 61.7617V48.3203ZM113.059 45.0156C113.059 44.5234 113.23 44.1172 113.574 43.7969C113.926 43.4766 114.387 43.3164 114.957 43.3164C115.535 43.3164 115.996 43.4766 116.34 43.7969C116.684 44.1172 116.855 44.5234 116.855 45.0156C116.855 45.5078 116.684 45.9141 116.34 46.2344C115.996 46.5547 115.535 46.7148 114.957 46.7148C114.387 46.7148 113.926 46.5547 113.574 46.2344C113.23 45.9141 113.059 45.5078 113.059 45.0156ZM125.234 61.2344C124.25 61.2344 123.367 61.0781 122.586 60.7656C121.805 60.4453 121.141 60.0039 120.594 59.4414C120.055 58.8789 119.641 58.2266 119.352 57.4844C119.062 56.7344 118.918 55.9375 118.918 55.0938V54.625C118.918 53.6641 119.055 52.7852 119.328 51.9883C119.602 51.1914 119.992 50.5 120.5 49.9141C121.016 49.3281 121.641 48.8789 122.375 48.5664C123.109 48.2461 123.938 48.0859 124.859 48.0859C125.758 48.0859 126.555 48.2344 127.25 48.5312C127.945 48.8281 128.527 49.25 128.996 49.7969C129.473 50.3438 129.832 51 130.074 51.7656C130.316 52.5234 130.438 53.3672 130.438 54.2969V55.7031H120.359V53.4531H127.121V53.1953C127.121 52.7266 127.035 52.3086 126.863 51.9414C126.699 51.5664 126.449 51.2695 126.113 51.0508C125.777 50.832 125.348 50.7227 124.824 50.7227C124.379 50.7227 123.996 50.8203 123.676 51.0156C123.355 51.2109 123.094 51.4844 122.891 51.8359C122.695 52.1875 122.547 52.6016 122.445 53.0781C122.352 53.5469 122.305 54.0625 122.305 54.625V55.0938C122.305 55.6016 122.375 56.0703 122.516 56.5C122.664 56.9297 122.871 57.3008 123.137 57.6133C123.41 57.9258 123.738 58.168 124.121 58.3398C124.512 58.5117 124.953 58.5977 125.445 58.5977C126.055 58.5977 126.621 58.4805 127.145 58.2461C127.676 58.0039 128.133 57.6406 128.516 57.1562L130.156 58.9375C129.891 59.3203 129.527 59.6875 129.066 60.0391C128.613 60.3906 128.066 60.6797 127.426 60.9062C126.785 61.125 126.055 61.2344 125.234 61.2344ZM137.598 58.5977C138.012 58.5977 138.379 58.5195 138.699 58.3633C139.02 58.1992 139.27 57.9727 139.449 57.6836C139.637 57.3867 139.734 57.0391 139.742 56.6406H142.918C142.91 57.5312 142.672 58.3242 142.203 59.0195C141.734 59.707 141.105 60.25 140.316 60.6484C139.527 61.0391 138.645 61.2344 137.668 61.2344C136.684 61.2344 135.824 61.0703 135.09 60.7422C134.363 60.4141 133.758 59.9609 133.273 59.3828C132.789 58.7969 132.426 58.1172 132.184 57.3438C131.941 56.5625 131.82 55.7266 131.82 54.8359V54.4961C131.82 53.5977 131.941 52.7617 132.184 51.9883C132.426 51.207 132.789 50.5273 133.273 49.9492C133.758 49.3633 134.363 48.9062 135.09 48.5781C135.816 48.25 136.668 48.0859 137.645 48.0859C138.684 48.0859 139.594 48.2852 140.375 48.6836C141.164 49.082 141.781 49.6523 142.227 50.3945C142.68 51.1289 142.91 52 142.918 53.0078H139.742C139.734 52.5859 139.645 52.2031 139.473 51.8594C139.309 51.5156 139.066 51.2422 138.746 51.0391C138.434 50.8281 138.047 50.7227 137.586 50.7227C137.094 50.7227 136.691 50.8281 136.379 51.0391C136.066 51.2422 135.824 51.5234 135.652 51.8828C135.48 52.2344 135.359 52.6367 135.289 53.0898C135.227 53.5352 135.195 54.0039 135.195 54.4961V54.8359C135.195 55.3281 135.227 55.8008 135.289 56.2539C135.352 56.707 135.469 57.1094 135.641 57.4609C135.82 57.8125 136.066 58.0898 136.379 58.293C136.691 58.4961 137.098 58.5977 137.598 58.5977ZM151.086 48.3203V50.7109H143.703V48.3203H151.086ZM145.531 45.1914H148.906V57.1797C148.906 57.5469 148.953 57.8281 149.047 58.0234C149.148 58.2188 149.297 58.3555 149.492 58.4336C149.688 58.5039 149.934 58.5391 150.23 58.5391C150.441 58.5391 150.629 58.5312 150.793 58.5156C150.965 58.4922 151.109 58.4688 151.227 58.4453L151.238 60.9297C150.949 61.0234 150.637 61.0977 150.301 61.1523C149.965 61.207 149.594 61.2344 149.188 61.2344C148.445 61.2344 147.797 61.1133 147.242 60.8711C146.695 60.6211 146.273 60.2227 145.977 59.6758C145.68 59.1289 145.531 58.4102 145.531 57.5195V45.1914ZM166.191 43.9375V61H162.688V43.9375H166.191ZM171.441 43.9375V46.6914H157.52V43.9375H171.441ZM176.797 48.3203V61H173.41V48.3203H176.797ZM173.199 45.0156C173.199 44.5234 173.371 44.1172 173.715 43.7969C174.059 43.4766 174.52 43.3164 175.098 43.3164C175.668 43.3164 176.125 43.4766 176.469 43.7969C176.82 44.1172 176.996 44.5234 176.996 45.0156C176.996 45.5078 176.82 45.9141 176.469 46.2344C176.125 46.5547 175.668 46.7148 175.098 46.7148C174.52 46.7148 174.059 46.5547 173.715 46.2344C173.371 45.9141 173.199 45.5078 173.199 45.0156ZM185.797 48.3203V50.7109H178.414V48.3203H185.797ZM180.242 45.1914H183.617V57.1797C183.617 57.5469 183.664 57.8281 183.758 58.0234C183.859 58.2188 184.008 58.3555 184.203 58.4336C184.398 58.5039 184.645 58.5391 184.941 58.5391C185.152 58.5391 185.34 58.5312 185.504 58.5156C185.676 58.4922 185.82 58.4688 185.938 58.4453L185.949 60.9297C185.66 61.0234 185.348 61.0977 185.012 61.1523C184.676 61.207 184.305 61.2344 183.898 61.2344C183.156 61.2344 182.508 61.1133 181.953 60.8711C181.406 60.6211 180.984 60.2227 180.688 59.6758C180.391 59.1289 180.242 58.4102 180.242 57.5195V45.1914ZM191.281 43V61H187.895V43H191.281ZM199.906 61.2344C198.922 61.2344 198.039 61.0781 197.258 60.7656C196.477 60.4453 195.812 60.0039 195.266 59.4414C194.727 58.8789 194.312 58.2266 194.023 57.4844C193.734 56.7344 193.59 55.9375 193.59 55.0938V54.625C193.59 53.6641 193.727 52.7852 194 51.9883C194.273 51.1914 194.664 50.5 195.172 49.9141C195.688 49.3281 196.312 48.8789 197.047 48.5664C197.781 48.2461 198.609 48.0859 199.531 48.0859C200.43 48.0859 201.227 48.2344 201.922 48.5312C202.617 48.8281 203.199 49.25 203.668 49.7969C204.145 50.3438 204.504 51 204.746 51.7656C204.988 52.5234 205.109 53.3672 205.109 54.2969V55.7031H195.031V53.4531H201.793V53.1953C201.793 52.7266 201.707 52.3086 201.535 51.9414C201.371 51.5664 201.121 51.2695 200.785 51.0508C200.449 50.832 200.02 50.7227 199.496 50.7227C199.051 50.7227 198.668 50.8203 198.348 51.0156C198.027 51.2109 197.766 51.4844 197.562 51.8359C197.367 52.1875 197.219 52.6016 197.117 53.0781C197.023 53.5469 196.977 54.0625 196.977 54.625V55.0938C196.977 55.6016 197.047 56.0703 197.188 56.5C197.336 56.9297 197.543 57.3008 197.809 57.6133C198.082 57.9258 198.41 58.168 198.793 58.3398C199.184 58.5117 199.625 58.5977 200.117 58.5977C200.727 58.5977 201.293 58.4805 201.816 58.2461C202.348 58.0039 202.805 57.6406 203.188 57.1562L204.828 58.9375C204.562 59.3203 204.199 59.6875 203.738 60.0391C203.285 60.3906 202.738 60.6797 202.098 60.9062C201.457 61.125 200.727 61.2344 199.906 61.2344Z" fill="#888888"/>
<path d="M77.1172 84.875H85.3438V107.164C85.3438 109.82 84.7891 112.07 83.6797 113.914C82.5703 115.742 81.0156 117.125 79.0156 118.062C77.0156 119 74.6641 119.469 71.9609 119.469C69.2891 119.469 66.9375 119 64.9062 118.062C62.8906 117.125 61.3125 115.742 60.1719 113.914C59.0469 112.07 58.4844 109.82 58.4844 107.164V84.875H66.7344V107.164C66.7344 108.57 66.9375 109.719 67.3438 110.609C67.75 111.484 68.3438 112.125 69.125 112.531C69.9062 112.938 70.8516 113.141 71.9609 113.141C73.0859 113.141 74.0312 112.938 74.7969 112.531C75.5625 112.125 76.1406 111.484 76.5312 110.609C76.9219 109.719 77.1172 108.57 77.1172 107.164V84.875ZM97.9062 99.0547V119H90.0078V93.6406H97.4141L97.9062 99.0547ZM96.9688 105.453L95.1172 105.5C95.1172 103.562 95.3516 101.836 95.8203 100.32C96.2891 98.7891 96.9531 97.4922 97.8125 96.4297C98.6719 95.3672 99.6953 94.5625 100.883 94.0156C102.086 93.4531 103.422 93.1719 104.891 93.1719C106.062 93.1719 107.133 93.3438 108.102 93.6875C109.086 94.0312 109.93 94.5859 110.633 95.3516C111.352 96.1172 111.898 97.1328 112.273 98.3984C112.664 99.6484 112.859 101.195 112.859 103.039V119H104.914V103.016C104.914 102 104.773 101.227 104.492 100.695C104.211 100.148 103.805 99.7734 103.273 99.5703C102.742 99.3672 102.094 99.2656 101.328 99.2656C100.516 99.2656 99.8281 99.4219 99.2656 99.7344C98.7031 100.047 98.25 100.484 97.9062 101.047C97.5781 101.594 97.3359 102.242 97.1797 102.992C97.0391 103.742 96.9688 104.562 96.9688 105.453ZM125.586 93.6406V119H117.664V93.6406H125.586ZM117.195 87.1016C117.195 85.9766 117.602 85.0547 118.414 84.3359C119.227 83.6172 120.281 83.2578 121.578 83.2578C122.875 83.2578 123.93 83.6172 124.742 84.3359C125.555 85.0547 125.961 85.9766 125.961 87.1016C125.961 88.2266 125.555 89.1484 124.742 89.8672C123.93 90.5859 122.875 90.9453 121.578 90.9453C120.281 90.9453 119.227 90.5859 118.414 89.8672C117.602 89.1484 117.195 88.2266 117.195 87.1016ZM143.82 93.6406V99.125H128.539V93.6406H143.82ZM131.75 87.3359H139.648V110.727C139.648 111.398 139.727 111.922 139.883 112.297C140.039 112.656 140.305 112.914 140.68 113.07C141.07 113.211 141.586 113.281 142.227 113.281C142.68 113.281 143.055 113.273 143.352 113.258C143.648 113.227 143.93 113.188 144.195 113.141V118.789C143.523 119.008 142.82 119.172 142.086 119.281C141.352 119.406 140.57 119.469 139.742 119.469C138.055 119.469 136.609 119.203 135.406 118.672C134.219 118.141 133.312 117.305 132.688 116.164C132.062 115.023 131.75 113.539 131.75 111.711V87.3359ZM174.406 84.875V119H166.18V84.875H174.406ZM184.672 84.875V91.2266H156.148V84.875H184.672ZM197.961 119.469C195.898 119.469 194.055 119.148 192.43 118.508C190.805 117.852 189.43 116.953 188.305 115.812C187.195 114.672 186.344 113.359 185.75 111.875C185.172 110.391 184.883 108.82 184.883 107.164V106.273C184.883 104.414 185.141 102.695 185.656 101.117C186.172 99.5234 186.938 98.1328 187.953 96.9453C188.969 95.7578 190.242 94.8359 191.773 94.1797C193.305 93.5078 195.086 93.1719 197.117 93.1719C198.914 93.1719 200.523 93.4609 201.945 94.0391C203.367 94.6172 204.57 95.4453 205.555 96.5234C206.555 97.6016 207.312 98.9062 207.828 100.438C208.359 101.969 208.625 103.688 208.625 105.594V108.805H187.906V103.859H200.914V103.25C200.93 102.406 200.781 101.688 200.469 101.094C200.172 100.5 199.734 100.047 199.156 99.7344C198.578 99.4219 197.875 99.2656 197.047 99.2656C196.188 99.2656 195.477 99.4531 194.914 99.8281C194.367 100.203 193.938 100.719 193.625 101.375C193.328 102.016 193.117 102.758 192.992 103.602C192.867 104.445 192.805 105.336 192.805 106.273V107.164C192.805 108.102 192.93 108.953 193.18 109.719C193.445 110.484 193.82 111.141 194.305 111.688C194.805 112.219 195.398 112.633 196.086 112.93C196.789 113.227 197.586 113.375 198.477 113.375C199.555 113.375 200.617 113.172 201.664 112.766C202.711 112.359 203.609 111.688 204.359 110.75L207.945 115.016C207.43 115.75 206.695 116.461 205.742 117.148C204.805 117.836 203.68 118.398 202.367 118.836C201.055 119.258 199.586 119.469 197.961 119.469ZM225.125 111.875C225.125 111.438 224.977 111.062 224.68 110.75C224.398 110.422 223.898 110.125 223.18 109.859C222.461 109.578 221.453 109.297 220.156 109.016C218.922 108.75 217.758 108.398 216.664 107.961C215.586 107.523 214.641 106.992 213.828 106.367C213.016 105.742 212.375 105 211.906 104.141C211.453 103.281 211.227 102.297 211.227 101.188C211.227 100.109 211.453 99.0938 211.906 98.1406C212.375 97.1719 213.055 96.3203 213.945 95.5859C214.852 94.8359 215.953 94.25 217.25 93.8281C218.547 93.3906 220.023 93.1719 221.68 93.1719C223.961 93.1719 225.93 93.5234 227.586 94.2266C229.242 94.9141 230.516 95.8828 231.406 97.1328C232.312 98.3672 232.766 99.7969 232.766 101.422H224.867C224.867 100.781 224.758 100.234 224.539 99.7812C224.336 99.3281 224 98.9844 223.531 98.75C223.062 98.5 222.438 98.375 221.656 98.375C221.109 98.375 220.609 98.4766 220.156 98.6797C219.719 98.8828 219.367 99.1641 219.102 99.5234C218.836 99.8828 218.703 100.305 218.703 100.789C218.703 101.133 218.781 101.445 218.938 101.727C219.109 101.992 219.367 102.242 219.711 102.477C220.055 102.695 220.492 102.898 221.023 103.086C221.555 103.258 222.195 103.414 222.945 103.555C224.648 103.867 226.242 104.312 227.727 104.891C229.211 105.469 230.414 106.289 231.336 107.352C232.273 108.414 232.742 109.844 232.742 111.641C232.742 112.766 232.484 113.805 231.969 114.758C231.453 115.695 230.711 116.523 229.742 117.242C228.773 117.945 227.609 118.492 226.25 118.883C224.891 119.273 223.359 119.469 221.656 119.469C219.234 119.469 217.188 119.039 215.516 118.18C213.844 117.305 212.578 116.211 211.719 114.898C210.875 113.57 210.453 112.227 210.453 110.867H217.812C217.844 111.648 218.031 112.289 218.375 112.789C218.734 113.289 219.211 113.656 219.805 113.891C220.398 114.125 221.086 114.242 221.867 114.242C222.586 114.242 223.18 114.141 223.648 113.938C224.133 113.734 224.5 113.461 224.75 113.117C225 112.758 225.125 112.344 225.125 111.875ZM249.805 93.6406V99.125H234.523V93.6406H249.805ZM237.734 87.3359H245.633V110.727C245.633 111.398 245.711 111.922 245.867 112.297C246.023 112.656 246.289 112.914 246.664 113.07C247.055 113.211 247.57 113.281 248.211 113.281C248.664 113.281 249.039 113.273 249.336 113.258C249.633 113.227 249.914 113.188 250.18 113.141V118.789C249.508 119.008 248.805 119.172 248.07 119.281C247.336 119.406 246.555 119.469 245.727 119.469C244.039 119.469 242.594 119.203 241.391 118.672C240.203 118.141 239.297 117.305 238.672 116.164C238.047 115.023 237.734 113.539 237.734 111.711V87.3359ZM261.289 93.6406V119H253.367V93.6406H261.289ZM252.898 87.1016C252.898 85.9766 253.305 85.0547 254.117 84.3359C254.93 83.6172 255.984 83.2578 257.281 83.2578C258.578 83.2578 259.633 83.6172 260.445 84.3359C261.258 85.0547 261.664 85.9766 261.664 87.1016C261.664 88.2266 261.258 89.1484 260.445 89.8672C259.633 90.5859 258.578 90.9453 257.281 90.9453C255.984 90.9453 254.93 90.5859 254.117 89.8672C253.305 89.1484 252.898 88.2266 252.898 87.1016ZM273.922 99.0547V119H266.023V93.6406H273.43L273.922 99.0547ZM272.984 105.453L271.133 105.5C271.133 103.562 271.367 101.836 271.836 100.32C272.305 98.7891 272.969 97.4922 273.828 96.4297C274.688 95.3672 275.711 94.5625 276.898 94.0156C278.102 93.4531 279.438 93.1719 280.906 93.1719C282.078 93.1719 283.148 93.3438 284.117 93.6875C285.102 94.0312 285.945 94.5859 286.648 95.3516C287.367 96.1172 287.914 97.1328 288.289 98.3984C288.68 99.6484 288.875 101.195 288.875 103.039V119H280.93V103.016C280.93 102 280.789 101.227 280.508 100.695C280.227 100.148 279.82 99.7734 279.289 99.5703C278.758 99.3672 278.109 99.2656 277.344 99.2656C276.531 99.2656 275.844 99.4219 275.281 99.7344C274.719 100.047 274.266 100.484 273.922 101.047C273.594 101.594 273.352 102.242 273.195 102.992C273.055 103.742 272.984 104.562 272.984 105.453ZM309.195 93.6406H316.367V118.016C316.367 120.359 315.828 122.344 314.75 123.969C313.672 125.609 312.164 126.852 310.227 127.695C308.305 128.555 306.055 128.984 303.477 128.984C302.336 128.984 301.172 128.836 299.984 128.539C298.797 128.258 297.688 127.836 296.656 127.273C295.625 126.711 294.758 126.016 294.055 125.188L297.359 120.547C298 121.266 298.805 121.875 299.773 122.375C300.742 122.891 301.883 123.148 303.195 123.148C304.336 123.148 305.289 122.945 306.055 122.539C306.836 122.133 307.43 121.539 307.836 120.758C308.242 119.992 308.445 119.062 308.445 117.969V99.6406L309.195 93.6406ZM292.344 106.625V106.133C292.344 104.211 292.578 102.461 293.047 100.883C293.531 99.2891 294.219 97.9219 295.109 96.7812C296.016 95.625 297.109 94.7344 298.391 94.1094C299.672 93.4844 301.117 93.1719 302.727 93.1719C304.461 93.1719 305.883 93.5078 306.992 94.1797C308.117 94.8359 309.016 95.7578 309.688 96.9453C310.375 98.1328 310.906 99.5234 311.281 101.117C311.672 102.695 312 104.398 312.266 106.227V106.812C312 108.531 311.633 110.156 311.164 111.688C310.711 113.203 310.117 114.547 309.383 115.719C308.648 116.891 307.727 117.812 306.617 118.484C305.523 119.141 304.211 119.469 302.68 119.469C301.086 119.469 299.648 119.148 298.367 118.508C297.102 117.867 296.016 116.969 295.109 115.812C294.219 114.656 293.531 113.297 293.047 111.734C292.578 110.172 292.344 108.469 292.344 106.625ZM300.242 106.133V106.625C300.242 107.578 300.328 108.461 300.5 109.273C300.688 110.086 300.969 110.805 301.344 111.43C301.719 112.039 302.18 112.516 302.727 112.859C303.289 113.203 303.945 113.375 304.695 113.375C305.836 113.375 306.758 113.133 307.461 112.648C308.164 112.164 308.672 111.477 308.984 110.586C309.297 109.695 309.43 108.648 309.383 107.445V105.594C309.414 104.562 309.344 103.656 309.172 102.875C309 102.078 308.727 101.414 308.352 100.883C307.992 100.352 307.508 99.9531 306.898 99.6875C306.305 99.4062 305.586 99.2656 304.742 99.2656C304.008 99.2656 303.359 99.4375 302.797 99.7812C302.234 100.125 301.766 100.609 301.391 101.234C301.016 101.844 300.727 102.57 300.523 103.414C300.336 104.242 300.242 105.148 300.242 106.133Z" fill="black"/>
</svg>
