<svg width="229" height="163" viewBox="0 0 229 163" fill="none" xmlns="http://www.w3.org/2000/svg">
<path d="M0 0H214C222.284 0 229 6.71573 229 15V148C229 156.284 222.284 163 214 163H0V0Z" fill="#3D2365"/>
<path d="M126.615 78.8847C129.81 78.8847 132.933 79.805 135.59 81.5293C138.246 83.2536 140.317 85.7044 141.54 88.5718C142.762 91.4391 143.082 94.5943 142.459 97.6383C141.835 100.682 140.297 103.478 138.038 105.673C135.779 107.868 132.9 109.362 129.767 109.968C126.633 110.573 123.385 110.262 120.434 109.075C117.482 107.887 114.959 105.876 113.184 103.295C111.409 100.714 110.462 97.6806 110.462 94.5769C110.462 90.4151 112.163 86.4237 115.193 83.4808C118.222 80.538 122.331 78.8847 126.615 78.8847ZM126.615 73.6539C122.355 73.6539 118.191 74.881 114.649 77.1801C111.107 79.4791 108.347 82.7469 106.716 86.57C105.086 90.3932 104.66 94.6001 105.491 98.6588C106.322 102.717 108.373 106.446 111.385 109.372C114.398 112.298 118.235 114.291 122.413 115.098C126.591 115.905 130.922 115.491 134.858 113.907C138.793 112.324 142.157 109.642 144.524 106.201C146.891 102.76 148.154 98.7151 148.154 94.5769C148.154 89.0278 145.885 83.706 141.845 79.7821C137.806 75.8583 132.328 73.6539 126.615 73.6539Z" fill="white"/>
<path d="M140.077 47.5H86.2308C84.8027 47.5 83.4331 48.0511 82.4233 49.0321C81.4135 50.013 80.8462 51.3435 80.8462 52.7307V105.038C80.8462 106.426 81.4135 107.756 82.4233 108.737C83.4331 109.718 84.8027 110.269 86.2308 110.269H97V105.038H86.2308V68.423H145.461V52.7307C145.461 51.3435 144.894 50.013 143.884 49.0321C142.874 48.0511 141.505 47.5 140.077 47.5ZM86.2308 63.1922V52.7307H140.077V63.1922H86.2308Z" fill="white"/>
<path d="M121.231 86.731V102.423L134.693 94.5771L121.231 86.731Z" fill="white"/>
</svg>
