<svg width="229" height="186" viewBox="0 0 229 186" fill="none" xmlns="http://www.w3.org/2000/svg">
<path d="M0 0H214C222.284 0 229 6.71573 229 15V171C229 179.284 222.284 186 214 186H0V0Z" fill="#3D2365"/>
<path d="M100.264 115.286H128.736V120.857H100.264V115.286ZM105.959 126.429H123.042V132H105.959V126.429ZM114.5 54C106.949 54 99.7071 56.9349 94.3675 62.1592C89.028 67.3834 86.0283 74.469 86.0283 81.8571C85.8357 85.9057 86.6284 89.9412 88.3411 93.6315C90.0537 97.3219 92.6374 100.562 95.8796 103.084C98.7268 105.675 100.264 107.151 100.264 109.714H105.959C105.959 104.589 102.798 101.719 99.7233 98.9614C97.0622 96.9676 94.9414 94.3658 93.5466 91.3838C92.1517 88.4019 91.5255 85.1308 91.7227 81.8571C91.7227 75.9466 94.1225 70.2781 98.3941 66.0988C102.666 61.9194 108.459 59.5714 114.5 59.5714C120.541 59.5714 126.335 61.9194 130.607 66.0988C134.878 70.2781 137.278 75.9466 137.278 81.8571C137.472 85.1333 136.841 88.4059 135.441 91.388C134.041 94.3701 131.915 96.9706 129.249 98.9614C126.202 101.747 123.042 104.533 123.042 109.714H128.736C128.736 107.151 130.245 105.675 133.121 103.056C136.361 100.538 138.943 97.3031 140.656 93.6176C142.369 89.9321 143.163 85.9014 142.972 81.8571C142.972 78.1989 142.236 74.5765 140.805 71.1967C139.374 67.8169 137.277 64.7459 134.633 62.1592C131.989 59.5724 128.85 57.5205 125.396 56.1205C121.942 54.7205 118.239 54 114.5 54Z" fill="white"/>
</svg>
