<svg width="1097" height="163" viewBox="0 0 1097 163" fill="none" xmlns="http://www.w3.org/2000/svg">
<rect width="1097" height="163" fill="#F0F0F0"/>
<path d="M64.9062 53.9219L57.3945 51.2383V48.0859L67.6016 52.375V54.6367L64.9062 53.9219ZM57.3945 56.1719L64.918 53.4297L67.6016 52.7852V55.0352L57.3945 59.3242V56.1719ZM82.543 54.918H78.1953V52.1758H82.543C83.2148 52.1758 83.7617 52.0664 84.1836 51.8477C84.6055 51.6211 84.9141 51.3086 85.1094 50.9102C85.3047 50.5117 85.4023 50.0625 85.4023 49.5625C85.4023 49.0547 85.3047 48.582 85.1094 48.1445C84.9141 47.707 84.6055 47.3555 84.1836 47.0898C83.7617 46.8242 83.2148 46.6914 82.543 46.6914H79.4141V61H75.8984V43.9375H82.543C83.8789 43.9375 85.0234 44.1797 85.9766 44.6641C86.9375 45.1406 87.6719 45.8008 88.1797 46.6445C88.6875 47.4883 88.9414 48.4531 88.9414 49.5391C88.9414 50.6406 88.6875 51.5938 88.1797 52.3984C87.6719 53.2031 86.9375 53.8242 85.9766 54.2617C85.0234 54.6992 83.8789 54.918 82.543 54.918ZM94.5312 51.0859V61H91.1562V48.3203H94.332L94.5312 51.0859ZM98.3516 48.2383L98.293 51.3672C98.1289 51.3438 97.9297 51.3242 97.6953 51.3086C97.4688 51.2852 97.2617 51.2734 97.0742 51.2734C96.5977 51.2734 96.1836 51.3359 95.832 51.4609C95.4883 51.5781 95.1992 51.7539 94.9648 51.9883C94.7383 52.2227 94.5664 52.5078 94.4492 52.8438C94.3398 53.1797 94.2773 53.5625 94.2617 53.9922L93.582 53.7812C93.582 52.9609 93.6641 52.207 93.8281 51.5195C93.9922 50.8242 94.2305 50.2188 94.543 49.7031C94.8633 49.1875 95.2539 48.7891 95.7148 48.5078C96.1758 48.2266 96.7031 48.0859 97.2969 48.0859C97.4844 48.0859 97.6758 48.1016 97.8711 48.1328C98.0664 48.1562 98.2266 48.1914 98.3516 48.2383ZM99.0547 54.7891V54.543C99.0547 53.6133 99.1875 52.7578 99.4531 51.9766C99.7188 51.1875 100.105 50.5039 100.613 49.9258C101.121 49.3477 101.746 48.8984 102.488 48.5781C103.23 48.25 104.082 48.0859 105.043 48.0859C106.004 48.0859 106.859 48.25 107.609 48.5781C108.359 48.8984 108.988 49.3477 109.496 49.9258C110.012 50.5039 110.402 51.1875 110.668 51.9766C110.934 52.7578 111.066 53.6133 111.066 54.543V54.7891C111.066 55.7109 110.934 56.5664 110.668 57.3555C110.402 58.1367 110.012 58.8203 109.496 59.4062C108.988 59.9844 108.363 60.4336 107.621 60.7539C106.879 61.0742 106.027 61.2344 105.066 61.2344C104.105 61.2344 103.25 61.0742 102.5 60.7539C101.758 60.4336 101.129 59.9844 100.613 59.4062C100.105 58.8203 99.7188 58.1367 99.4531 57.3555C99.1875 56.5664 99.0547 55.7109 99.0547 54.7891ZM102.43 54.543V54.7891C102.43 55.3203 102.477 55.8164 102.57 56.2773C102.664 56.7383 102.812 57.1445 103.016 57.4961C103.227 57.8398 103.5 58.1094 103.836 58.3047C104.172 58.5 104.582 58.5977 105.066 58.5977C105.535 58.5977 105.938 58.5 106.273 58.3047C106.609 58.1094 106.879 57.8398 107.082 57.4961C107.285 57.1445 107.434 56.7383 107.527 56.2773C107.629 55.8164 107.68 55.3203 107.68 54.7891V54.543C107.68 54.0273 107.629 53.543 107.527 53.0898C107.434 52.6289 107.281 52.2227 107.07 51.8711C106.867 51.5117 106.598 51.2305 106.262 51.0273C105.926 50.8242 105.52 50.7227 105.043 50.7227C104.566 50.7227 104.16 50.8242 103.824 51.0273C103.496 51.2305 103.227 51.5117 103.016 51.8711C102.812 52.2227 102.664 52.6289 102.57 53.0898C102.477 53.543 102.43 54.0273 102.43 54.543ZM113.328 48.3203H116.715V61.7617C116.715 62.6992 116.543 63.4922 116.199 64.1406C115.855 64.7891 115.359 65.2812 114.711 65.6172C114.062 65.9531 113.277 66.1211 112.355 66.1211C112.066 66.1211 111.785 66.1055 111.512 66.0742C111.23 66.043 110.941 65.9922 110.645 65.9219L110.656 63.332C110.844 63.3633 111.027 63.3867 111.207 63.4023C111.379 63.4258 111.555 63.4375 111.734 63.4375C112.086 63.4375 112.379 63.3789 112.613 63.2617C112.848 63.1445 113.023 62.9609 113.141 62.7109C113.266 62.4688 113.328 62.1523 113.328 61.7617V48.3203ZM113.059 45.0156C113.059 44.5234 113.23 44.1172 113.574 43.7969C113.926 43.4766 114.387 43.3164 114.957 43.3164C115.535 43.3164 115.996 43.4766 116.34 43.7969C116.684 44.1172 116.855 44.5234 116.855 45.0156C116.855 45.5078 116.684 45.9141 116.34 46.2344C115.996 46.5547 115.535 46.7148 114.957 46.7148C114.387 46.7148 113.926 46.5547 113.574 46.2344C113.23 45.9141 113.059 45.5078 113.059 45.0156ZM125.234 61.2344C124.25 61.2344 123.367 61.0781 122.586 60.7656C121.805 60.4453 121.141 60.0039 120.594 59.4414C120.055 58.8789 119.641 58.2266 119.352 57.4844C119.062 56.7344 118.918 55.9375 118.918 55.0938V54.625C118.918 53.6641 119.055 52.7852 119.328 51.9883C119.602 51.1914 119.992 50.5 120.5 49.9141C121.016 49.3281 121.641 48.8789 122.375 48.5664C123.109 48.2461 123.938 48.0859 124.859 48.0859C125.758 48.0859 126.555 48.2344 127.25 48.5312C127.945 48.8281 128.527 49.25 128.996 49.7969C129.473 50.3438 129.832 51 130.074 51.7656C130.316 52.5234 130.438 53.3672 130.438 54.2969V55.7031H120.359V53.4531H127.121V53.1953C127.121 52.7266 127.035 52.3086 126.863 51.9414C126.699 51.5664 126.449 51.2695 126.113 51.0508C125.777 50.832 125.348 50.7227 124.824 50.7227C124.379 50.7227 123.996 50.8203 123.676 51.0156C123.355 51.2109 123.094 51.4844 122.891 51.8359C122.695 52.1875 122.547 52.6016 122.445 53.0781C122.352 53.5469 122.305 54.0625 122.305 54.625V55.0938C122.305 55.6016 122.375 56.0703 122.516 56.5C122.664 56.9297 122.871 57.3008 123.137 57.6133C123.41 57.9258 123.738 58.168 124.121 58.3398C124.512 58.5117 124.953 58.5977 125.445 58.5977C126.055 58.5977 126.621 58.4805 127.145 58.2461C127.676 58.0039 128.133 57.6406 128.516 57.1562L130.156 58.9375C129.891 59.3203 129.527 59.6875 129.066 60.0391C128.613 60.3906 128.066 60.6797 127.426 60.9062C126.785 61.125 126.055 61.2344 125.234 61.2344ZM137.598 58.5977C138.012 58.5977 138.379 58.5195 138.699 58.3633C139.02 58.1992 139.27 57.9727 139.449 57.6836C139.637 57.3867 139.734 57.0391 139.742 56.6406H142.918C142.91 57.5312 142.672 58.3242 142.203 59.0195C141.734 59.707 141.105 60.25 140.316 60.6484C139.527 61.0391 138.645 61.2344 137.668 61.2344C136.684 61.2344 135.824 61.0703 135.09 60.7422C134.363 60.4141 133.758 59.9609 133.273 59.3828C132.789 58.7969 132.426 58.1172 132.184 57.3438C131.941 56.5625 131.82 55.7266 131.82 54.8359V54.4961C131.82 53.5977 131.941 52.7617 132.184 51.9883C132.426 51.207 132.789 50.5273 133.273 49.9492C133.758 49.3633 134.363 48.9062 135.09 48.5781C135.816 48.25 136.668 48.0859 137.645 48.0859C138.684 48.0859 139.594 48.2852 140.375 48.6836C141.164 49.082 141.781 49.6523 142.227 50.3945C142.68 51.1289 142.91 52 142.918 53.0078H139.742C139.734 52.5859 139.645 52.2031 139.473 51.8594C139.309 51.5156 139.066 51.2422 138.746 51.0391C138.434 50.8281 138.047 50.7227 137.586 50.7227C137.094 50.7227 136.691 50.8281 136.379 51.0391C136.066 51.2422 135.824 51.5234 135.652 51.8828C135.48 52.2344 135.359 52.6367 135.289 53.0898C135.227 53.5352 135.195 54.0039 135.195 54.4961V54.8359C135.195 55.3281 135.227 55.8008 135.289 56.2539C135.352 56.707 135.469 57.1094 135.641 57.4609C135.82 57.8125 136.066 58.0898 136.379 58.293C136.691 58.4961 137.098 58.5977 137.598 58.5977ZM151.086 48.3203V50.7109H143.703V48.3203H151.086ZM145.531 45.1914H148.906V57.1797C148.906 57.5469 148.953 57.8281 149.047 58.0234C149.148 58.2188 149.297 58.3555 149.492 58.4336C149.688 58.5039 149.934 58.5391 150.23 58.5391C150.441 58.5391 150.629 58.5312 150.793 58.5156C150.965 58.4922 151.109 58.4688 151.227 58.4453L151.238 60.9297C150.949 61.0234 150.637 61.0977 150.301 61.1523C149.965 61.207 149.594 61.2344 149.188 61.2344C148.445 61.2344 147.797 61.1133 147.242 60.8711C146.695 60.6211 146.273 60.2227 145.977 59.6758C145.68 59.1289 145.531 58.4102 145.531 57.5195V45.1914ZM166.191 43.9375V61H162.688V43.9375H166.191ZM171.441 43.9375V46.6914H157.52V43.9375H171.441ZM176.797 48.3203V61H173.41V48.3203H176.797ZM173.199 45.0156C173.199 44.5234 173.371 44.1172 173.715 43.7969C174.059 43.4766 174.52 43.3164 175.098 43.3164C175.668 43.3164 176.125 43.4766 176.469 43.7969C176.82 44.1172 176.996 44.5234 176.996 45.0156C176.996 45.5078 176.82 45.9141 176.469 46.2344C176.125 46.5547 175.668 46.7148 175.098 46.7148C174.52 46.7148 174.059 46.5547 173.715 46.2344C173.371 45.9141 173.199 45.5078 173.199 45.0156ZM185.797 48.3203V50.7109H178.414V48.3203H185.797ZM180.242 45.1914H183.617V57.1797C183.617 57.5469 183.664 57.8281 183.758 58.0234C183.859 58.2188 184.008 58.3555 184.203 58.4336C184.398 58.5039 184.645 58.5391 184.941 58.5391C185.152 58.5391 185.34 58.5312 185.504 58.5156C185.676 58.4922 185.82 58.4688 185.938 58.4453L185.949 60.9297C185.66 61.0234 185.348 61.0977 185.012 61.1523C184.676 61.207 184.305 61.2344 183.898 61.2344C183.156 61.2344 182.508 61.1133 181.953 60.8711C181.406 60.6211 180.984 60.2227 180.688 59.6758C180.391 59.1289 180.242 58.4102 180.242 57.5195V45.1914ZM191.281 43V61H187.895V43H191.281ZM199.906 61.2344C198.922 61.2344 198.039 61.0781 197.258 60.7656C196.477 60.4453 195.812 60.0039 195.266 59.4414C194.727 58.8789 194.312 58.2266 194.023 57.4844C193.734 56.7344 193.59 55.9375 193.59 55.0938V54.625C193.59 53.6641 193.727 52.7852 194 51.9883C194.273 51.1914 194.664 50.5 195.172 49.9141C195.688 49.3281 196.312 48.8789 197.047 48.5664C197.781 48.2461 198.609 48.0859 199.531 48.0859C200.43 48.0859 201.227 48.2344 201.922 48.5312C202.617 48.8281 203.199 49.25 203.668 49.7969C204.145 50.3438 204.504 51 204.746 51.7656C204.988 52.5234 205.109 53.3672 205.109 54.2969V55.7031H195.031V53.4531H201.793V53.1953C201.793 52.7266 201.707 52.3086 201.535 51.9414C201.371 51.5664 201.121 51.2695 200.785 51.0508C200.449 50.832 200.02 50.7227 199.496 50.7227C199.051 50.7227 198.668 50.8203 198.348 51.0156C198.027 51.2109 197.766 51.4844 197.562 51.8359C197.367 52.1875 197.219 52.6016 197.117 53.0781C197.023 53.5469 196.977 54.0625 196.977 54.625V55.0938C196.977 55.6016 197.047 56.0703 197.188 56.5C197.336 56.9297 197.543 57.3008 197.809 57.6133C198.082 57.9258 198.41 58.168 198.793 58.3398C199.184 58.5117 199.625 58.5977 200.117 58.5977C200.727 58.5977 201.293 58.4805 201.816 58.2461C202.348 58.0039 202.805 57.6406 203.188 57.1562L204.828 58.9375C204.562 59.3203 204.199 59.6875 203.738 60.0391C203.285 60.3906 202.738 60.6797 202.098 60.9062C201.457 61.125 200.727 61.2344 199.906 61.2344Z" fill="#888888"/>
<path d="M72.2188 107.422H63.7344V101.07H72.2188C73.375 101.07 74.3125 100.875 75.0312 100.484C75.75 100.094 76.2734 99.5547 76.6016 98.8672C76.9453 98.1641 77.1172 97.375 77.1172 96.5C77.1172 95.5625 76.9453 94.6953 76.6016 93.8984C76.2734 93.1016 75.75 92.4609 75.0312 91.9766C74.3125 91.4766 73.375 91.2266 72.2188 91.2266H66.8281V119H58.6016V84.875H72.2188C74.9531 84.875 77.3047 85.375 79.2734 86.375C81.2578 87.375 82.7812 88.75 83.8438 90.5C84.9062 92.2344 85.4375 94.2188 85.4375 96.4531C85.4375 98.6562 84.9062 100.578 83.8438 102.219C82.7812 103.859 81.2578 105.141 79.2734 106.062C77.3047 106.969 74.9531 107.422 72.2188 107.422ZM97.4609 99.9219V119H89.5625V93.6406H96.9453L97.4609 99.9219ZM104.961 93.4531L104.82 100.789C104.508 100.758 104.086 100.719 103.555 100.672C103.023 100.625 102.578 100.602 102.219 100.602C101.297 100.602 100.5 100.711 99.8281 100.93C99.1719 101.133 98.625 101.445 98.1875 101.867C97.7656 102.273 97.4531 102.789 97.25 103.414C97.0625 104.039 96.9766 104.766 96.9922 105.594L95.5625 104.656C95.5625 102.953 95.7266 101.406 96.0547 100.016C96.3984 98.6094 96.8828 97.3984 97.5078 96.3828C98.1328 95.3516 98.8906 94.5625 99.7812 94.0156C100.672 93.4531 101.672 93.1719 102.781 93.1719C103.172 93.1719 103.555 93.1953 103.93 93.2422C104.32 93.2891 104.664 93.3594 104.961 93.4531ZM105.852 106.578V106.086C105.852 104.227 106.117 102.516 106.648 100.953C107.18 99.375 107.961 98.0078 108.992 96.8516C110.023 95.6953 111.297 94.7969 112.812 94.1562C114.328 93.5 116.078 93.1719 118.062 93.1719C120.062 93.1719 121.82 93.5 123.336 94.1562C124.867 94.7969 126.148 95.6953 127.18 96.8516C128.211 98.0078 128.992 99.375 129.523 100.953C130.055 102.516 130.32 104.227 130.32 106.086V106.578C130.32 108.422 130.055 110.133 129.523 111.711C128.992 113.273 128.211 114.641 127.18 115.812C126.148 116.969 124.875 117.867 123.359 118.508C121.844 119.148 120.094 119.469 118.109 119.469C116.125 119.469 114.367 119.148 112.836 118.508C111.305 117.867 110.023 116.969 108.992 115.812C107.961 114.641 107.18 113.273 106.648 111.711C106.117 110.133 105.852 108.422 105.852 106.578ZM113.75 106.086V106.578C113.75 107.531 113.82 108.422 113.961 109.25C114.102 110.078 114.336 110.805 114.664 111.43C114.992 112.039 115.438 112.516 116 112.859C116.562 113.203 117.266 113.375 118.109 113.375C118.938 113.375 119.625 113.203 120.172 112.859C120.734 112.516 121.18 112.039 121.508 111.43C121.836 110.805 122.07 110.078 122.211 109.25C122.352 108.422 122.422 107.531 122.422 106.578V106.086C122.422 105.164 122.352 104.297 122.211 103.484C122.07 102.656 121.836 101.93 121.508 101.305C121.18 100.664 120.734 100.164 120.172 99.8047C119.609 99.4453 118.906 99.2656 118.062 99.2656C117.234 99.2656 116.539 99.4453 115.977 99.8047C115.43 100.164 114.992 100.664 114.664 101.305C114.336 101.93 114.102 102.656 113.961 103.484C113.82 104.297 113.75 105.164 113.75 106.086ZM141.805 99.0078V119H133.906V93.6406H141.312L141.805 99.0078ZM140.844 105.453L139.039 105.5C139.039 103.719 139.25 102.078 139.672 100.578C140.094 99.0781 140.719 97.7734 141.547 96.6641C142.375 95.5547 143.391 94.6953 144.594 94.0859C145.812 93.4766 147.219 93.1719 148.812 93.1719C149.922 93.1719 150.93 93.3438 151.836 93.6875C152.742 94.0156 153.523 94.5391 154.18 95.2578C154.836 95.9609 155.336 96.8828 155.68 98.0234C156.039 99.1484 156.219 100.5 156.219 102.078V119H148.32V103.086C148.32 102.008 148.195 101.195 147.945 100.648C147.711 100.102 147.367 99.7344 146.914 99.5469C146.461 99.3594 145.906 99.2656 145.25 99.2656C144.562 99.2656 143.945 99.4219 143.398 99.7344C142.852 100.047 142.383 100.484 141.992 101.047C141.617 101.594 141.328 102.242 141.125 102.992C140.938 103.742 140.844 104.562 140.844 105.453ZM155.328 105.453L153.125 105.5C153.125 103.719 153.32 102.078 153.711 100.578C154.117 99.0781 154.719 97.7734 155.516 96.6641C156.328 95.5547 157.336 94.6953 158.539 94.0859C159.742 93.4766 161.141 93.1719 162.734 93.1719C163.891 93.1719 164.953 93.3438 165.922 93.6875C166.891 94.0312 167.727 94.5859 168.43 95.3516C169.133 96.1172 169.68 97.1328 170.07 98.3984C170.461 99.6484 170.656 101.195 170.656 103.039V119H162.734V103.039C162.734 101.992 162.609 101.203 162.359 100.672C162.125 100.125 161.781 99.7578 161.328 99.5703C160.875 99.3672 160.336 99.2656 159.711 99.2656C158.961 99.2656 158.312 99.4219 157.766 99.7344C157.219 100.047 156.758 100.484 156.383 101.047C156.023 101.594 155.758 102.242 155.586 102.992C155.414 103.742 155.328 104.562 155.328 105.453ZM183.148 98.5156V128.75H175.25V93.6406H182.609L183.148 98.5156ZM198.711 106.016V106.508C198.711 108.352 198.5 110.062 198.078 111.641C197.656 113.219 197.031 114.594 196.203 115.766C195.375 116.938 194.344 117.852 193.109 118.508C191.891 119.148 190.477 119.469 188.867 119.469C187.352 119.469 186.047 119.133 184.953 118.461C183.859 117.789 182.945 116.859 182.211 115.672C181.477 114.484 180.883 113.125 180.43 111.594C179.977 110.062 179.617 108.445 179.352 106.742V106.109C179.617 104.281 179.977 102.586 180.43 101.023C180.883 99.4453 181.477 98.0703 182.211 96.8984C182.945 95.7266 183.852 94.8125 184.93 94.1562C186.023 93.5 187.328 93.1719 188.844 93.1719C190.453 93.1719 191.867 93.4766 193.086 94.0859C194.32 94.6953 195.352 95.5703 196.18 96.7109C197.023 97.8359 197.656 99.1875 198.078 100.766C198.5 102.344 198.711 104.094 198.711 106.016ZM190.812 106.508V106.016C190.812 105.031 190.742 104.133 190.602 103.32C190.461 102.492 190.234 101.773 189.922 101.164C189.625 100.555 189.227 100.086 188.727 99.7578C188.227 99.4297 187.609 99.2656 186.875 99.2656C186.031 99.2656 185.32 99.3984 184.742 99.6641C184.18 99.9141 183.727 100.305 183.383 100.836C183.055 101.352 182.82 102 182.68 102.781C182.555 103.547 182.5 104.445 182.516 105.477V107.398C182.484 108.586 182.602 109.633 182.867 110.539C183.133 111.43 183.594 112.125 184.25 112.625C184.906 113.125 185.797 113.375 186.922 113.375C187.672 113.375 188.297 113.203 188.797 112.859C189.297 112.5 189.695 112.008 189.992 111.383C190.289 110.742 190.5 110.008 190.625 109.18C190.75 108.352 190.812 107.461 190.812 106.508ZM215.586 93.6406V99.125H200.305V93.6406H215.586ZM203.516 87.3359H211.414V110.727C211.414 111.398 211.492 111.922 211.648 112.297C211.805 112.656 212.07 112.914 212.445 113.07C212.836 113.211 213.352 113.281 213.992 113.281C214.445 113.281 214.82 113.273 215.117 113.258C215.414 113.227 215.695 113.188 215.961 113.141V118.789C215.289 119.008 214.586 119.172 213.852 119.281C213.117 119.406 212.336 119.469 211.508 119.469C209.82 119.469 208.375 119.203 207.172 118.672C205.984 118.141 205.078 117.305 204.453 116.164C203.828 115.023 203.516 113.539 203.516 111.711V87.3359ZM254.539 112.672V119H236.352V112.672H254.539ZM239.281 84.875V119H231.055V84.875H239.281ZM252.195 98.4219V104.539H236.352V98.4219H252.195ZM254.609 84.875V91.2266H236.352V84.875H254.609ZM265.297 99.0547V119H257.398V93.6406H264.805L265.297 99.0547ZM264.359 105.453L262.508 105.5C262.508 103.562 262.742 101.836 263.211 100.32C263.68 98.7891 264.344 97.4922 265.203 96.4297C266.062 95.3672 267.086 94.5625 268.273 94.0156C269.477 93.4531 270.812 93.1719 272.281 93.1719C273.453 93.1719 274.523 93.3438 275.492 93.6875C276.477 94.0312 277.32 94.5859 278.023 95.3516C278.742 96.1172 279.289 97.1328 279.664 98.3984C280.055 99.6484 280.25 101.195 280.25 103.039V119H272.305V103.016C272.305 102 272.164 101.227 271.883 100.695C271.602 100.148 271.195 99.7734 270.664 99.5703C270.133 99.3672 269.484 99.2656 268.719 99.2656C267.906 99.2656 267.219 99.4219 266.656 99.7344C266.094 100.047 265.641 100.484 265.297 101.047C264.969 101.594 264.727 102.242 264.57 102.992C264.43 103.742 264.359 104.562 264.359 105.453ZM300.57 93.6406H307.742V118.016C307.742 120.359 307.203 122.344 306.125 123.969C305.047 125.609 303.539 126.852 301.602 127.695C299.68 128.555 297.43 128.984 294.852 128.984C293.711 128.984 292.547 128.836 291.359 128.539C290.172 128.258 289.062 127.836 288.031 127.273C287 126.711 286.133 126.016 285.43 125.188L288.734 120.547C289.375 121.266 290.18 121.875 291.148 122.375C292.117 122.891 293.258 123.148 294.57 123.148C295.711 123.148 296.664 122.945 297.43 122.539C298.211 122.133 298.805 121.539 299.211 120.758C299.617 119.992 299.82 119.062 299.82 117.969V99.6406L300.57 93.6406ZM283.719 106.625V106.133C283.719 104.211 283.953 102.461 284.422 100.883C284.906 99.2891 285.594 97.9219 286.484 96.7812C287.391 95.625 288.484 94.7344 289.766 94.1094C291.047 93.4844 292.492 93.1719 294.102 93.1719C295.836 93.1719 297.258 93.5078 298.367 94.1797C299.492 94.8359 300.391 95.7578 301.062 96.9453C301.75 98.1328 302.281 99.5234 302.656 101.117C303.047 102.695 303.375 104.398 303.641 106.227V106.812C303.375 108.531 303.008 110.156 302.539 111.688C302.086 113.203 301.492 114.547 300.758 115.719C300.023 116.891 299.102 117.812 297.992 118.484C296.898 119.141 295.586 119.469 294.055 119.469C292.461 119.469 291.023 119.148 289.742 118.508C288.477 117.867 287.391 116.969 286.484 115.812C285.594 114.656 284.906 113.297 284.422 111.734C283.953 110.172 283.719 108.469 283.719 106.625ZM291.617 106.133V106.625C291.617 107.578 291.703 108.461 291.875 109.273C292.062 110.086 292.344 110.805 292.719 111.43C293.094 112.039 293.555 112.516 294.102 112.859C294.664 113.203 295.32 113.375 296.07 113.375C297.211 113.375 298.133 113.133 298.836 112.648C299.539 112.164 300.047 111.477 300.359 110.586C300.672 109.695 300.805 108.648 300.758 107.445V105.594C300.789 104.562 300.719 103.656 300.547 102.875C300.375 102.078 300.102 101.414 299.727 100.883C299.367 100.352 298.883 99.9531 298.273 99.6875C297.68 99.4062 296.961 99.2656 296.117 99.2656C295.383 99.2656 294.734 99.4375 294.172 99.7812C293.609 100.125 293.141 100.609 292.766 101.234C292.391 101.844 292.102 102.57 291.898 103.414C291.711 104.242 291.617 105.148 291.617 106.133ZM320.633 93.6406V119H312.711V93.6406H320.633ZM312.242 87.1016C312.242 85.9766 312.648 85.0547 313.461 84.3359C314.273 83.6172 315.328 83.2578 316.625 83.2578C317.922 83.2578 318.977 83.6172 319.789 84.3359C320.602 85.0547 321.008 85.9766 321.008 87.1016C321.008 88.2266 320.602 89.1484 319.789 89.8672C318.977 90.5859 317.922 90.9453 316.625 90.9453C315.328 90.9453 314.273 90.5859 313.461 89.8672C312.648 89.1484 312.242 88.2266 312.242 87.1016ZM333.266 99.0547V119H325.367V93.6406H332.773L333.266 99.0547ZM332.328 105.453L330.477 105.5C330.477 103.562 330.711 101.836 331.18 100.32C331.648 98.7891 332.312 97.4922 333.172 96.4297C334.031 95.3672 335.055 94.5625 336.242 94.0156C337.445 93.4531 338.781 93.1719 340.25 93.1719C341.422 93.1719 342.492 93.3438 343.461 93.6875C344.445 94.0312 345.289 94.5859 345.992 95.3516C346.711 96.1172 347.258 97.1328 347.633 98.3984C348.023 99.6484 348.219 101.195 348.219 103.039V119H340.273V103.016C340.273 102 340.133 101.227 339.852 100.695C339.57 100.148 339.164 99.7734 338.633 99.5703C338.102 99.3672 337.453 99.2656 336.688 99.2656C335.875 99.2656 335.188 99.4219 334.625 99.7344C334.062 100.047 333.609 100.484 333.266 101.047C332.938 101.594 332.695 102.242 332.539 102.992C332.398 103.742 332.328 104.562 332.328 105.453ZM364.883 119.469C362.82 119.469 360.977 119.148 359.352 118.508C357.727 117.852 356.352 116.953 355.227 115.812C354.117 114.672 353.266 113.359 352.672 111.875C352.094 110.391 351.805 108.82 351.805 107.164V106.273C351.805 104.414 352.062 102.695 352.578 101.117C353.094 99.5234 353.859 98.1328 354.875 96.9453C355.891 95.7578 357.164 94.8359 358.695 94.1797C360.227 93.5078 362.008 93.1719 364.039 93.1719C365.836 93.1719 367.445 93.4609 368.867 94.0391C370.289 94.6172 371.492 95.4453 372.477 96.5234C373.477 97.6016 374.234 98.9062 374.75 100.438C375.281 101.969 375.547 103.688 375.547 105.594V108.805H354.828V103.859H367.836V103.25C367.852 102.406 367.703 101.688 367.391 101.094C367.094 100.5 366.656 100.047 366.078 99.7344C365.5 99.4219 364.797 99.2656 363.969 99.2656C363.109 99.2656 362.398 99.4531 361.836 99.8281C361.289 100.203 360.859 100.719 360.547 101.375C360.25 102.016 360.039 102.758 359.914 103.602C359.789 104.445 359.727 105.336 359.727 106.273V107.164C359.727 108.102 359.852 108.953 360.102 109.719C360.367 110.484 360.742 111.141 361.227 111.688C361.727 112.219 362.32 112.633 363.008 112.93C363.711 113.227 364.508 113.375 365.398 113.375C366.477 113.375 367.539 113.172 368.586 112.766C369.633 112.359 370.531 111.688 371.281 110.75L374.867 115.016C374.352 115.75 373.617 116.461 372.664 117.148C371.727 117.836 370.602 118.398 369.289 118.836C367.977 119.258 366.508 119.469 364.883 119.469ZM391.039 119.469C388.977 119.469 387.133 119.148 385.508 118.508C383.883 117.852 382.508 116.953 381.383 115.812C380.273 114.672 379.422 113.359 378.828 111.875C378.25 110.391 377.961 108.82 377.961 107.164V106.273C377.961 104.414 378.219 102.695 378.734 101.117C379.25 99.5234 380.016 98.1328 381.031 96.9453C382.047 95.7578 383.32 94.8359 384.852 94.1797C386.383 93.5078 388.164 93.1719 390.195 93.1719C391.992 93.1719 393.602 93.4609 395.023 94.0391C396.445 94.6172 397.648 95.4453 398.633 96.5234C399.633 97.6016 400.391 98.9062 400.906 100.438C401.438 101.969 401.703 103.688 401.703 105.594V108.805H380.984V103.859H393.992V103.25C394.008 102.406 393.859 101.688 393.547 101.094C393.25 100.5 392.812 100.047 392.234 99.7344C391.656 99.4219 390.953 99.2656 390.125 99.2656C389.266 99.2656 388.555 99.4531 387.992 99.8281C387.445 100.203 387.016 100.719 386.703 101.375C386.406 102.016 386.195 102.758 386.07 103.602C385.945 104.445 385.883 105.336 385.883 106.273V107.164C385.883 108.102 386.008 108.953 386.258 109.719C386.523 110.484 386.898 111.141 387.383 111.688C387.883 112.219 388.477 112.633 389.164 112.93C389.867 113.227 390.664 113.375 391.555 113.375C392.633 113.375 393.695 113.172 394.742 112.766C395.789 112.359 396.688 111.688 397.438 110.75L401.023 115.016C400.508 115.75 399.773 116.461 398.82 117.148C397.883 117.836 396.758 118.398 395.445 118.836C394.133 119.258 392.664 119.469 391.039 119.469ZM412.883 99.9219V119H404.984V93.6406H412.367L412.883 99.9219ZM420.383 93.4531L420.242 100.789C419.93 100.758 419.508 100.719 418.977 100.672C418.445 100.625 418 100.602 417.641 100.602C416.719 100.602 415.922 100.711 415.25 100.93C414.594 101.133 414.047 101.445 413.609 101.867C413.188 102.273 412.875 102.789 412.672 103.414C412.484 104.039 412.398 104.766 412.414 105.594L410.984 104.656C410.984 102.953 411.148 101.406 411.477 100.016C411.82 98.6094 412.305 97.3984 412.93 96.3828C413.555 95.3516 414.312 94.5625 415.203 94.0156C416.094 93.4531 417.094 93.1719 418.203 93.1719C418.594 93.1719 418.977 93.1953 419.352 93.2422C419.742 93.2891 420.086 93.3594 420.383 93.4531ZM431.445 93.6406V119H423.523V93.6406H431.445ZM423.055 87.1016C423.055 85.9766 423.461 85.0547 424.273 84.3359C425.086 83.6172 426.141 83.2578 427.438 83.2578C428.734 83.2578 429.789 83.6172 430.602 84.3359C431.414 85.0547 431.82 85.9766 431.82 87.1016C431.82 88.2266 431.414 89.1484 430.602 89.8672C429.789 90.5859 428.734 90.9453 427.438 90.9453C426.141 90.9453 425.086 90.5859 424.273 89.8672C423.461 89.1484 423.055 88.2266 423.055 87.1016ZM444.078 99.0547V119H436.18V93.6406H443.586L444.078 99.0547ZM443.141 105.453L441.289 105.5C441.289 103.562 441.523 101.836 441.992 100.32C442.461 98.7891 443.125 97.4922 443.984 96.4297C444.844 95.3672 445.867 94.5625 447.055 94.0156C448.258 93.4531 449.594 93.1719 451.062 93.1719C452.234 93.1719 453.305 93.3438 454.273 93.6875C455.258 94.0312 456.102 94.5859 456.805 95.3516C457.523 96.1172 458.07 97.1328 458.445 98.3984C458.836 99.6484 459.031 101.195 459.031 103.039V119H451.086V103.016C451.086 102 450.945 101.227 450.664 100.695C450.383 100.148 449.977 99.7734 449.445 99.5703C448.914 99.3672 448.266 99.2656 447.5 99.2656C446.688 99.2656 446 99.4219 445.438 99.7344C444.875 100.047 444.422 100.484 444.078 101.047C443.75 101.594 443.508 102.242 443.352 102.992C443.211 103.742 443.141 104.562 443.141 105.453ZM479.352 93.6406H486.523V118.016C486.523 120.359 485.984 122.344 484.906 123.969C483.828 125.609 482.32 126.852 480.383 127.695C478.461 128.555 476.211 128.984 473.633 128.984C472.492 128.984 471.328 128.836 470.141 128.539C468.953 128.258 467.844 127.836 466.812 127.273C465.781 126.711 464.914 126.016 464.211 125.188L467.516 120.547C468.156 121.266 468.961 121.875 469.93 122.375C470.898 122.891 472.039 123.148 473.352 123.148C474.492 123.148 475.445 122.945 476.211 122.539C476.992 122.133 477.586 121.539 477.992 120.758C478.398 119.992 478.602 119.062 478.602 117.969V99.6406L479.352 93.6406ZM462.5 106.625V106.133C462.5 104.211 462.734 102.461 463.203 100.883C463.688 99.2891 464.375 97.9219 465.266 96.7812C466.172 95.625 467.266 94.7344 468.547 94.1094C469.828 93.4844 471.273 93.1719 472.883 93.1719C474.617 93.1719 476.039 93.5078 477.148 94.1797C478.273 94.8359 479.172 95.7578 479.844 96.9453C480.531 98.1328 481.062 99.5234 481.438 101.117C481.828 102.695 482.156 104.398 482.422 106.227V106.812C482.156 108.531 481.789 110.156 481.32 111.688C480.867 113.203 480.273 114.547 479.539 115.719C478.805 116.891 477.883 117.812 476.773 118.484C475.68 119.141 474.367 119.469 472.836 119.469C471.242 119.469 469.805 119.148 468.523 118.508C467.258 117.867 466.172 116.969 465.266 115.812C464.375 114.656 463.688 113.297 463.203 111.734C462.734 110.172 462.5 108.469 462.5 106.625ZM470.398 106.133V106.625C470.398 107.578 470.484 108.461 470.656 109.273C470.844 110.086 471.125 110.805 471.5 111.43C471.875 112.039 472.336 112.516 472.883 112.859C473.445 113.203 474.102 113.375 474.852 113.375C475.992 113.375 476.914 113.133 477.617 112.648C478.32 112.164 478.828 111.477 479.141 110.586C479.453 109.695 479.586 108.648 479.539 107.445V105.594C479.57 104.562 479.5 103.656 479.328 102.875C479.156 102.078 478.883 101.414 478.508 100.883C478.148 100.352 477.664 99.9531 477.055 99.6875C476.461 99.4062 475.742 99.2656 474.898 99.2656C474.164 99.2656 473.516 99.4375 472.953 99.7812C472.391 100.125 471.922 100.609 471.547 101.234C471.172 101.844 470.883 102.57 470.68 103.414C470.492 104.242 470.398 105.148 470.398 106.133Z" fill="black"/>
</svg>
