<svg width="229" height="163" viewBox="0 0 229 163" fill="none" xmlns="http://www.w3.org/2000/svg">
<path d="M0 0H214C222.284 0 229 6.71573 229 15V148C229 156.284 222.284 163 214 163H0V0Z" fill="#3D2365"/>
<path d="M83.5833 64.1667C83.5833 66.0281 84.5099 67.7419 86.0934 69.2434C87.6746 70.7429 89.9407 72.0619 92.7121 73.1553C98.2575 75.343 105.927 76.6667 114.5 76.6667C123.073 76.6667 130.742 75.343 136.288 73.1553C139.059 72.0619 141.325 70.7429 142.907 69.2434C144.49 67.7419 145.417 66.0281 145.417 64.1667C145.417 62.3052 144.49 60.5914 142.907 59.0899C141.325 57.5904 139.059 56.2714 136.288 55.178C130.742 52.9903 123.073 51.6667 114.5 51.6667C105.927 51.6667 98.2575 52.9903 92.7121 55.178C89.9407 56.2714 87.6746 57.5904 86.0934 59.0899C84.5099 60.5914 83.5833 62.3052 83.5833 64.1667ZM87.625 64.1667C87.625 63.0283 88.3721 61.8878 89.8759 60.7921C91.3692 59.7041 93.52 58.7293 96.1071 57.9144C101.276 56.2864 108.067 55.3333 114.5 55.3333C120.932 55.3333 127.724 56.2864 132.893 57.9144C135.48 58.7293 137.631 59.7041 139.124 60.7921C140.628 61.8878 141.375 63.0283 141.375 64.1667C141.375 65.305 140.628 66.4455 139.124 67.5412C137.631 68.6292 135.48 69.604 132.893 70.4189C127.724 72.0469 120.932 73 114.5 73C108.067 73 101.276 72.0469 96.1071 70.4189C93.52 69.604 91.3692 68.6292 89.8759 67.5412C88.3721 66.4455 87.625 65.305 87.625 64.1667Z" fill="white" stroke="white"/>
<path d="M83.5833 74.8333C83.5833 76.6948 84.5099 78.4086 86.0934 79.9101C87.6746 81.4096 89.9407 82.7286 92.7121 83.822C98.2575 86.0097 105.927 87.3333 114.5 87.3333C123.073 87.3333 130.742 86.0097 136.288 83.822C139.059 82.7286 141.325 81.4096 142.907 79.9101C144.49 78.4086 145.417 76.6948 145.417 74.8333V64.1667C145.417 63.6576 145.185 63.1851 144.801 62.8479C144.418 62.5126 143.912 62.3333 143.396 62.3333C142.88 62.3333 142.373 62.5126 141.991 62.8479C141.606 63.1851 141.375 63.6576 141.375 64.1667V74.8333C141.375 75.9717 140.628 77.1122 139.124 78.2079C137.631 79.2959 135.48 80.2707 132.893 81.0856C127.724 82.7136 120.932 83.6667 114.5 83.6667C108.067 83.6667 101.276 82.7136 96.1071 81.0856C93.52 80.2707 91.3692 79.2959 89.8759 78.2079C88.3721 77.1122 87.625 75.9717 87.625 74.8333V64.1667C87.625 63.6576 87.3938 63.1851 87.0092 62.8479C86.6267 62.5126 86.1204 62.3333 85.6041 62.3333C85.0879 62.3333 84.5816 62.5126 84.1991 62.8479C83.8145 63.1851 83.5833 63.6576 83.5833 64.1667V74.8333Z" fill="white" stroke="white"/>
<path d="M83.5833 86.8333C83.5833 88.6948 84.5099 90.4086 86.0934 91.9101C87.6746 93.4095 89.9407 94.7286 92.7121 95.8219C98.2575 98.0097 105.927 99.3333 114.5 99.3333C123.073 99.3333 130.742 98.0097 136.288 95.8219C139.059 94.7286 141.325 93.4095 142.907 91.9101C144.49 90.4086 145.417 88.6948 145.417 86.8333V74.8333C145.417 74.3243 145.185 73.8517 144.801 73.5146C144.418 73.1792 143.912 73 143.396 73C142.88 73 142.373 73.1792 141.991 73.5146C141.606 73.8517 141.375 74.3243 141.375 74.8333V86.8333C141.375 87.9717 140.628 89.1122 139.124 90.2079C137.631 91.2958 135.48 92.2707 132.893 93.0856C127.724 94.7136 120.932 95.6667 114.5 95.6667C108.067 95.6667 101.276 94.7136 96.1071 93.0856C93.52 92.2707 91.3692 91.2958 89.8759 90.2079C88.3721 89.1122 87.625 87.9717 87.625 86.8333V74.8333C87.625 74.3243 87.3938 73.8517 87.0092 73.5146C86.6267 73.1792 86.1204 73 85.6041 73C85.0879 73 84.5816 73.1792 84.1991 73.5146C83.8145 73.8517 83.5833 74.3243 83.5833 74.8333V86.8333Z" fill="white" stroke="white"/>
<path d="M83.5833 98.8333C83.5833 100.695 84.5099 102.409 86.0934 103.91C87.6746 105.41 89.9407 106.729 92.7121 107.822C98.2575 110.01 105.927 111.333 114.5 111.333C123.073 111.333 130.742 110.01 136.288 107.822C139.059 106.729 141.325 105.41 142.907 103.91C144.49 102.409 145.417 100.695 145.417 98.8333V86.8333C145.417 86.3243 145.185 85.8517 144.801 85.5146C144.418 85.1792 143.912 85 143.396 85C142.88 85 142.373 85.1792 141.991 85.5146C141.606 85.8517 141.375 86.3243 141.375 86.8333V98.8333C141.375 99.9717 140.628 101.112 139.124 102.208C137.631 103.296 135.48 104.271 132.893 105.086C127.724 106.714 120.932 107.667 114.5 107.667C108.067 107.667 101.276 106.714 96.1071 105.086C93.52 104.271 91.3692 103.296 89.8759 102.208C88.3721 101.112 87.625 99.9717 87.625 98.8333V86.8333C87.625 86.3243 87.3938 85.8517 87.0092 85.5146C86.6267 85.1792 86.1204 85 85.6041 85C85.0879 85 84.5816 85.1792 84.1991 85.5146C83.8145 85.8517 83.5833 86.3243 83.5833 86.8333V98.8333Z" fill="white" stroke="white"/>
</svg>
