<svg width="1097" height="163" viewBox="0 0 1097 163" fill="none" xmlns="http://www.w3.org/2000/svg">
<rect width="1097" height="163" fill="#F0F0F0"/>
<path d="M64.9062 53.9219L57.3945 51.2383V48.0859L67.6016 52.375V54.6367L64.9062 53.9219ZM57.3945 56.1719L64.918 53.4297L67.6016 52.7852V55.0352L57.3945 59.3242V56.1719ZM82.543 54.918H78.1953V52.1758H82.543C83.2148 52.1758 83.7617 52.0664 84.1836 51.8477C84.6055 51.6211 84.9141 51.3086 85.1094 50.9102C85.3047 50.5117 85.4023 50.0625 85.4023 49.5625C85.4023 49.0547 85.3047 48.582 85.1094 48.1445C84.9141 47.707 84.6055 47.3555 84.1836 47.0898C83.7617 46.8242 83.2148 46.6914 82.543 46.6914H79.4141V61H75.8984V43.9375H82.543C83.8789 43.9375 85.0234 44.1797 85.9766 44.6641C86.9375 45.1406 87.6719 45.8008 88.1797 46.6445C88.6875 47.4883 88.9414 48.4531 88.9414 49.5391C88.9414 50.6406 88.6875 51.5938 88.1797 52.3984C87.6719 53.2031 86.9375 53.8242 85.9766 54.2617C85.0234 54.6992 83.8789 54.918 82.543 54.918ZM94.5312 51.0859V61H91.1562V48.3203H94.332L94.5312 51.0859ZM98.3516 48.2383L98.293 51.3672C98.1289 51.3438 97.9297 51.3242 97.6953 51.3086C97.4688 51.2852 97.2617 51.2734 97.0742 51.2734C96.5977 51.2734 96.1836 51.3359 95.832 51.4609C95.4883 51.5781 95.1992 51.7539 94.9648 51.9883C94.7383 52.2227 94.5664 52.5078 94.4492 52.8438C94.3398 53.1797 94.2773 53.5625 94.2617 53.9922L93.582 53.7812C93.582 52.9609 93.6641 52.207 93.8281 51.5195C93.9922 50.8242 94.2305 50.2188 94.543 49.7031C94.8633 49.1875 95.2539 48.7891 95.7148 48.5078C96.1758 48.2266 96.7031 48.0859 97.2969 48.0859C97.4844 48.0859 97.6758 48.1016 97.8711 48.1328C98.0664 48.1562 98.2266 48.1914 98.3516 48.2383ZM99.0547 54.7891V54.543C99.0547 53.6133 99.1875 52.7578 99.4531 51.9766C99.7188 51.1875 100.105 50.5039 100.613 49.9258C101.121 49.3477 101.746 48.8984 102.488 48.5781C103.23 48.25 104.082 48.0859 105.043 48.0859C106.004 48.0859 106.859 48.25 107.609 48.5781C108.359 48.8984 108.988 49.3477 109.496 49.9258C110.012 50.5039 110.402 51.1875 110.668 51.9766C110.934 52.7578 111.066 53.6133 111.066 54.543V54.7891C111.066 55.7109 110.934 56.5664 110.668 57.3555C110.402 58.1367 110.012 58.8203 109.496 59.4062C108.988 59.9844 108.363 60.4336 107.621 60.7539C106.879 61.0742 106.027 61.2344 105.066 61.2344C104.105 61.2344 103.25 61.0742 102.5 60.7539C101.758 60.4336 101.129 59.9844 100.613 59.4062C100.105 58.8203 99.7188 58.1367 99.4531 57.3555C99.1875 56.5664 99.0547 55.7109 99.0547 54.7891ZM102.43 54.543V54.7891C102.43 55.3203 102.477 55.8164 102.57 56.2773C102.664 56.7383 102.812 57.1445 103.016 57.4961C103.227 57.8398 103.5 58.1094 103.836 58.3047C104.172 58.5 104.582 58.5977 105.066 58.5977C105.535 58.5977 105.938 58.5 106.273 58.3047C106.609 58.1094 106.879 57.8398 107.082 57.4961C107.285 57.1445 107.434 56.7383 107.527 56.2773C107.629 55.8164 107.68 55.3203 107.68 54.7891V54.543C107.68 54.0273 107.629 53.543 107.527 53.0898C107.434 52.6289 107.281 52.2227 107.07 51.8711C106.867 51.5117 106.598 51.2305 106.262 51.0273C105.926 50.8242 105.52 50.7227 105.043 50.7227C104.566 50.7227 104.16 50.8242 103.824 51.0273C103.496 51.2305 103.227 51.5117 103.016 51.8711C102.812 52.2227 102.664 52.6289 102.57 53.0898C102.477 53.543 102.43 54.0273 102.43 54.543ZM113.328 48.3203H116.715V61.7617C116.715 62.6992 116.543 63.4922 116.199 64.1406C115.855 64.7891 115.359 65.2812 114.711 65.6172C114.062 65.9531 113.277 66.1211 112.355 66.1211C112.066 66.1211 111.785 66.1055 111.512 66.0742C111.23 66.043 110.941 65.9922 110.645 65.9219L110.656 63.332C110.844 63.3633 111.027 63.3867 111.207 63.4023C111.379 63.4258 111.555 63.4375 111.734 63.4375C112.086 63.4375 112.379 63.3789 112.613 63.2617C112.848 63.1445 113.023 62.9609 113.141 62.7109C113.266 62.4688 113.328 62.1523 113.328 61.7617V48.3203ZM113.059 45.0156C113.059 44.5234 113.23 44.1172 113.574 43.7969C113.926 43.4766 114.387 43.3164 114.957 43.3164C115.535 43.3164 115.996 43.4766 116.34 43.7969C116.684 44.1172 116.855 44.5234 116.855 45.0156C116.855 45.5078 116.684 45.9141 116.34 46.2344C115.996 46.5547 115.535 46.7148 114.957 46.7148C114.387 46.7148 113.926 46.5547 113.574 46.2344C113.23 45.9141 113.059 45.5078 113.059 45.0156ZM125.234 61.2344C124.25 61.2344 123.367 61.0781 122.586 60.7656C121.805 60.4453 121.141 60.0039 120.594 59.4414C120.055 58.8789 119.641 58.2266 119.352 57.4844C119.062 56.7344 118.918 55.9375 118.918 55.0938V54.625C118.918 53.6641 119.055 52.7852 119.328 51.9883C119.602 51.1914 119.992 50.5 120.5 49.9141C121.016 49.3281 121.641 48.8789 122.375 48.5664C123.109 48.2461 123.938 48.0859 124.859 48.0859C125.758 48.0859 126.555 48.2344 127.25 48.5312C127.945 48.8281 128.527 49.25 128.996 49.7969C129.473 50.3438 129.832 51 130.074 51.7656C130.316 52.5234 130.438 53.3672 130.438 54.2969V55.7031H120.359V53.4531H127.121V53.1953C127.121 52.7266 127.035 52.3086 126.863 51.9414C126.699 51.5664 126.449 51.2695 126.113 51.0508C125.777 50.832 125.348 50.7227 124.824 50.7227C124.379 50.7227 123.996 50.8203 123.676 51.0156C123.355 51.2109 123.094 51.4844 122.891 51.8359C122.695 52.1875 122.547 52.6016 122.445 53.0781C122.352 53.5469 122.305 54.0625 122.305 54.625V55.0938C122.305 55.6016 122.375 56.0703 122.516 56.5C122.664 56.9297 122.871 57.3008 123.137 57.6133C123.41 57.9258 123.738 58.168 124.121 58.3398C124.512 58.5117 124.953 58.5977 125.445 58.5977C126.055 58.5977 126.621 58.4805 127.145 58.2461C127.676 58.0039 128.133 57.6406 128.516 57.1562L130.156 58.9375C129.891 59.3203 129.527 59.6875 129.066 60.0391C128.613 60.3906 128.066 60.6797 127.426 60.9062C126.785 61.125 126.055 61.2344 125.234 61.2344ZM137.598 58.5977C138.012 58.5977 138.379 58.5195 138.699 58.3633C139.02 58.1992 139.27 57.9727 139.449 57.6836C139.637 57.3867 139.734 57.0391 139.742 56.6406H142.918C142.91 57.5312 142.672 58.3242 142.203 59.0195C141.734 59.707 141.105 60.25 140.316 60.6484C139.527 61.0391 138.645 61.2344 137.668 61.2344C136.684 61.2344 135.824 61.0703 135.09 60.7422C134.363 60.4141 133.758 59.9609 133.273 59.3828C132.789 58.7969 132.426 58.1172 132.184 57.3438C131.941 56.5625 131.82 55.7266 131.82 54.8359V54.4961C131.82 53.5977 131.941 52.7617 132.184 51.9883C132.426 51.207 132.789 50.5273 133.273 49.9492C133.758 49.3633 134.363 48.9062 135.09 48.5781C135.816 48.25 136.668 48.0859 137.645 48.0859C138.684 48.0859 139.594 48.2852 140.375 48.6836C141.164 49.082 141.781 49.6523 142.227 50.3945C142.68 51.1289 142.91 52 142.918 53.0078H139.742C139.734 52.5859 139.645 52.2031 139.473 51.8594C139.309 51.5156 139.066 51.2422 138.746 51.0391C138.434 50.8281 138.047 50.7227 137.586 50.7227C137.094 50.7227 136.691 50.8281 136.379 51.0391C136.066 51.2422 135.824 51.5234 135.652 51.8828C135.48 52.2344 135.359 52.6367 135.289 53.0898C135.227 53.5352 135.195 54.0039 135.195 54.4961V54.8359C135.195 55.3281 135.227 55.8008 135.289 56.2539C135.352 56.707 135.469 57.1094 135.641 57.4609C135.82 57.8125 136.066 58.0898 136.379 58.293C136.691 58.4961 137.098 58.5977 137.598 58.5977ZM151.086 48.3203V50.7109H143.703V48.3203H151.086ZM145.531 45.1914H148.906V57.1797C148.906 57.5469 148.953 57.8281 149.047 58.0234C149.148 58.2188 149.297 58.3555 149.492 58.4336C149.688 58.5039 149.934 58.5391 150.23 58.5391C150.441 58.5391 150.629 58.5312 150.793 58.5156C150.965 58.4922 151.109 58.4688 151.227 58.4453L151.238 60.9297C150.949 61.0234 150.637 61.0977 150.301 61.1523C149.965 61.207 149.594 61.2344 149.188 61.2344C148.445 61.2344 147.797 61.1133 147.242 60.8711C146.695 60.6211 146.273 60.2227 145.977 59.6758C145.68 59.1289 145.531 58.4102 145.531 57.5195V45.1914ZM166.191 43.9375V61H162.688V43.9375H166.191ZM171.441 43.9375V46.6914H157.52V43.9375H171.441ZM176.797 48.3203V61H173.41V48.3203H176.797ZM173.199 45.0156C173.199 44.5234 173.371 44.1172 173.715 43.7969C174.059 43.4766 174.52 43.3164 175.098 43.3164C175.668 43.3164 176.125 43.4766 176.469 43.7969C176.82 44.1172 176.996 44.5234 176.996 45.0156C176.996 45.5078 176.82 45.9141 176.469 46.2344C176.125 46.5547 175.668 46.7148 175.098 46.7148C174.52 46.7148 174.059 46.5547 173.715 46.2344C173.371 45.9141 173.199 45.5078 173.199 45.0156ZM185.797 48.3203V50.7109H178.414V48.3203H185.797ZM180.242 45.1914H183.617V57.1797C183.617 57.5469 183.664 57.8281 183.758 58.0234C183.859 58.2188 184.008 58.3555 184.203 58.4336C184.398 58.5039 184.645 58.5391 184.941 58.5391C185.152 58.5391 185.34 58.5312 185.504 58.5156C185.676 58.4922 185.82 58.4688 185.938 58.4453L185.949 60.9297C185.66 61.0234 185.348 61.0977 185.012 61.1523C184.676 61.207 184.305 61.2344 183.898 61.2344C183.156 61.2344 182.508 61.1133 181.953 60.8711C181.406 60.6211 180.984 60.2227 180.688 59.6758C180.391 59.1289 180.242 58.4102 180.242 57.5195V45.1914ZM191.281 43V61H187.895V43H191.281ZM199.906 61.2344C198.922 61.2344 198.039 61.0781 197.258 60.7656C196.477 60.4453 195.812 60.0039 195.266 59.4414C194.727 58.8789 194.312 58.2266 194.023 57.4844C193.734 56.7344 193.59 55.9375 193.59 55.0938V54.625C193.59 53.6641 193.727 52.7852 194 51.9883C194.273 51.1914 194.664 50.5 195.172 49.9141C195.688 49.3281 196.312 48.8789 197.047 48.5664C197.781 48.2461 198.609 48.0859 199.531 48.0859C200.43 48.0859 201.227 48.2344 201.922 48.5312C202.617 48.8281 203.199 49.25 203.668 49.7969C204.145 50.3438 204.504 51 204.746 51.7656C204.988 52.5234 205.109 53.3672 205.109 54.2969V55.7031H195.031V53.4531H201.793V53.1953C201.793 52.7266 201.707 52.3086 201.535 51.9414C201.371 51.5664 201.121 51.2695 200.785 51.0508C200.449 50.832 200.02 50.7227 199.496 50.7227C199.051 50.7227 198.668 50.8203 198.348 51.0156C198.027 51.2109 197.766 51.4844 197.562 51.8359C197.367 52.1875 197.219 52.6016 197.117 53.0781C197.023 53.5469 196.977 54.0625 196.977 54.625V55.0938C196.977 55.6016 197.047 56.0703 197.188 56.5C197.336 56.9297 197.543 57.3008 197.809 57.6133C198.082 57.9258 198.41 58.168 198.793 58.3398C199.184 58.5117 199.625 58.5977 200.117 58.5977C200.727 58.5977 201.293 58.4805 201.816 58.2461C202.348 58.0039 202.805 57.6406 203.188 57.1562L204.828 58.9375C204.562 59.3203 204.199 59.6875 203.738 60.0391C203.285 60.3906 202.738 60.6797 202.098 60.9062C201.457 61.125 200.727 61.2344 199.906 61.2344Z" fill="#888888"/>
<path d="M75.125 84.875V119H66.8984V84.875H75.125ZM85.3906 84.875V91.2266H56.8672V84.875H85.3906ZM98.6797 119.469C96.6172 119.469 94.7734 119.148 93.1484 118.508C91.5234 117.852 90.1484 116.953 89.0234 115.812C87.9141 114.672 87.0625 113.359 86.4688 111.875C85.8906 110.391 85.6016 108.82 85.6016 107.164V106.273C85.6016 104.414 85.8594 102.695 86.375 101.117C86.8906 99.5234 87.6562 98.1328 88.6719 96.9453C89.6875 95.7578 90.9609 94.8359 92.4922 94.1797C94.0234 93.5078 95.8047 93.1719 97.8359 93.1719C99.6328 93.1719 101.242 93.4609 102.664 94.0391C104.086 94.6172 105.289 95.4453 106.273 96.5234C107.273 97.6016 108.031 98.9062 108.547 100.438C109.078 101.969 109.344 103.688 109.344 105.594V108.805H88.625V103.859H101.633V103.25C101.648 102.406 101.5 101.688 101.188 101.094C100.891 100.5 100.453 100.047 99.875 99.7344C99.2969 99.4219 98.5938 99.2656 97.7656 99.2656C96.9062 99.2656 96.1953 99.4531 95.6328 99.8281C95.0859 100.203 94.6562 100.719 94.3438 101.375C94.0469 102.016 93.8359 102.758 93.7109 103.602C93.5859 104.445 93.5234 105.336 93.5234 106.273V107.164C93.5234 108.102 93.6484 108.953 93.8984 109.719C94.1641 110.484 94.5391 111.141 95.0234 111.688C95.5234 112.219 96.1172 112.633 96.8047 112.93C97.5078 113.227 98.3047 113.375 99.1953 113.375C100.273 113.375 101.336 113.172 102.383 112.766C103.43 112.359 104.328 111.688 105.078 110.75L108.664 115.016C108.148 115.75 107.414 116.461 106.461 117.148C105.523 117.836 104.398 118.398 103.086 118.836C101.773 119.258 100.305 119.469 98.6797 119.469ZM123.266 113.375C124 113.375 124.625 113.242 125.141 112.977C125.672 112.695 126.07 112.305 126.336 111.805C126.617 111.289 126.75 110.672 126.734 109.953H134.164C134.18 111.859 133.711 113.531 132.758 114.969C131.82 116.391 130.539 117.5 128.914 118.297C127.305 119.078 125.484 119.469 123.453 119.469C121.469 119.469 119.734 119.148 118.25 118.508C116.766 117.852 115.523 116.945 114.523 115.789C113.539 114.617 112.797 113.25 112.297 111.688C111.812 110.125 111.57 108.43 111.57 106.602V106.062C111.57 104.234 111.812 102.539 112.297 100.977C112.797 99.3984 113.539 98.0312 114.523 96.875C115.523 95.7031 116.758 94.7969 118.227 94.1562C119.711 93.5 121.438 93.1719 123.406 93.1719C125.516 93.1719 127.375 93.5703 128.984 94.3672C130.609 95.1641 131.883 96.3203 132.805 97.8359C133.727 99.3516 134.18 101.188 134.164 103.344H126.734C126.75 102.578 126.633 101.891 126.383 101.281C126.133 100.672 125.742 100.188 125.211 99.8281C124.695 99.4531 124.031 99.2656 123.219 99.2656C122.406 99.2656 121.75 99.4453 121.25 99.8047C120.75 100.164 120.367 100.664 120.102 101.305C119.852 101.93 119.68 102.648 119.586 103.461C119.508 104.273 119.469 105.141 119.469 106.062V106.602C119.469 107.539 119.508 108.422 119.586 109.25C119.68 110.062 119.859 110.781 120.125 111.406C120.391 112.016 120.773 112.5 121.273 112.859C121.773 113.203 122.438 113.375 123.266 113.375ZM145.273 83V119H137.375V83H145.273ZM144.336 105.453L142.484 105.5C142.484 103.719 142.703 102.078 143.141 100.578C143.578 99.0781 144.203 97.7734 145.016 96.6641C145.828 95.5547 146.805 94.6953 147.945 94.0859C149.086 93.4766 150.352 93.1719 151.742 93.1719C152.992 93.1719 154.133 93.3516 155.164 93.7109C156.211 94.0703 157.109 94.6484 157.859 95.4453C158.625 96.2422 159.211 97.2812 159.617 98.5625C160.039 99.8438 160.25 101.406 160.25 103.25V119H152.305V103.203C152.305 102.172 152.156 101.375 151.859 100.812C151.578 100.234 151.172 99.8359 150.641 99.6172C150.109 99.3828 149.461 99.2656 148.695 99.2656C147.773 99.2656 147.023 99.4219 146.445 99.7344C145.867 100.047 145.422 100.484 145.109 101.047C144.812 101.594 144.609 102.242 144.5 102.992C144.391 103.742 144.336 104.562 144.336 105.453ZM194.539 109.93C194.539 109.398 194.461 108.922 194.305 108.5C194.148 108.062 193.859 107.656 193.438 107.281C193.016 106.906 192.406 106.531 191.609 106.156C190.828 105.766 189.797 105.359 188.516 104.938C187.016 104.438 185.57 103.875 184.18 103.25C182.789 102.609 181.547 101.867 180.453 101.023C179.359 100.164 178.492 99.1641 177.852 98.0234C177.211 96.8672 176.891 95.5234 176.891 93.9922C176.891 92.5234 177.219 91.2031 177.875 90.0312C178.531 88.8438 179.445 87.8359 180.617 87.0078C181.805 86.1641 183.195 85.5234 184.789 85.0859C186.383 84.6328 188.125 84.4062 190.016 84.4062C192.516 84.4062 194.719 84.8438 196.625 85.7188C198.547 86.5781 200.047 87.8047 201.125 89.3984C202.219 90.9766 202.766 92.8438 202.766 95H194.586C194.586 94.1406 194.406 93.3828 194.047 92.7266C193.703 92.0703 193.18 91.5547 192.477 91.1797C191.773 90.8047 190.891 90.6172 189.828 90.6172C188.797 90.6172 187.93 90.7734 187.227 91.0859C186.523 91.3984 185.992 91.8203 185.633 92.3516C185.273 92.8672 185.094 93.4375 185.094 94.0625C185.094 94.5781 185.234 95.0469 185.516 95.4688C185.812 95.875 186.227 96.2578 186.758 96.6172C187.305 96.9766 187.961 97.3203 188.727 97.6484C189.508 97.9766 190.383 98.2969 191.352 98.6094C193.164 99.1875 194.773 99.8359 196.18 100.555C197.602 101.258 198.797 102.062 199.766 102.969C200.75 103.859 201.492 104.875 201.992 106.016C202.508 107.156 202.766 108.445 202.766 109.883C202.766 111.414 202.469 112.773 201.875 113.961C201.281 115.148 200.43 116.156 199.32 116.984C198.211 117.797 196.883 118.414 195.336 118.836C193.789 119.258 192.062 119.469 190.156 119.469C188.406 119.469 186.68 119.25 184.977 118.812C183.289 118.359 181.758 117.672 180.383 116.75C179.008 115.812 177.906 114.617 177.078 113.164C176.266 111.695 175.859 109.953 175.859 107.938H184.109C184.109 108.938 184.242 109.781 184.508 110.469C184.773 111.156 185.164 111.711 185.68 112.133C186.195 112.539 186.828 112.836 187.578 113.023C188.328 113.195 189.188 113.281 190.156 113.281C191.203 113.281 192.047 113.133 192.688 112.836C193.328 112.523 193.797 112.117 194.094 111.617C194.391 111.102 194.539 110.539 194.539 109.93ZM219.992 93.6406V99.125H204.711V93.6406H219.992ZM207.922 87.3359H215.82V110.727C215.82 111.398 215.898 111.922 216.055 112.297C216.211 112.656 216.477 112.914 216.852 113.07C217.242 113.211 217.758 113.281 218.398 113.281C218.852 113.281 219.227 113.273 219.523 113.258C219.82 113.227 220.102 113.188 220.367 113.141V118.789C219.695 119.008 218.992 119.172 218.258 119.281C217.523 119.406 216.742 119.469 215.914 119.469C214.227 119.469 212.781 119.203 211.578 118.672C210.391 118.141 209.484 117.305 208.859 116.164C208.234 115.023 207.922 113.539 207.922 111.711V87.3359ZM236.305 112.625V102.172C236.305 101.453 236.203 100.836 236 100.32C235.797 99.8047 235.477 99.4062 235.039 99.125C234.602 98.8281 234.016 98.6797 233.281 98.6797C232.688 98.6797 232.18 98.7812 231.758 98.9844C231.336 99.1875 231.016 99.4922 230.797 99.8984C230.578 100.305 230.469 100.82 230.469 101.445H222.57C222.57 100.273 222.828 99.1875 223.344 98.1875C223.875 97.1719 224.625 96.2891 225.594 95.5391C226.578 94.7891 227.75 94.2109 229.109 93.8047C230.484 93.3828 232.016 93.1719 233.703 93.1719C235.719 93.1719 237.516 93.5078 239.094 94.1797C240.688 94.8516 241.945 95.8594 242.867 97.2031C243.789 98.5312 244.25 100.203 244.25 102.219V112.602C244.25 114.258 244.344 115.516 244.531 116.375C244.719 117.219 244.984 117.961 245.328 118.602V119H237.406C237.031 118.219 236.75 117.266 236.562 116.141C236.391 115 236.305 113.828 236.305 112.625ZM237.266 103.508L237.312 107.727H233.82C233.086 107.727 232.461 107.828 231.945 108.031C231.445 108.234 231.039 108.516 230.727 108.875C230.43 109.219 230.211 109.609 230.07 110.047C229.945 110.484 229.883 110.945 229.883 111.43C229.883 111.898 229.992 112.32 230.211 112.695C230.445 113.055 230.758 113.336 231.148 113.539C231.539 113.742 231.977 113.844 232.461 113.844C233.336 113.844 234.078 113.68 234.688 113.352C235.312 113.008 235.789 112.594 236.117 112.109C236.445 111.625 236.609 111.172 236.609 110.75L238.344 113.984C238.031 114.609 237.672 115.242 237.266 115.883C236.875 116.523 236.383 117.117 235.789 117.664C235.211 118.195 234.5 118.633 233.656 118.977C232.812 119.305 231.789 119.469 230.586 119.469C229.023 119.469 227.586 119.148 226.273 118.508C224.977 117.867 223.938 116.977 223.156 115.836C222.375 114.68 221.984 113.352 221.984 111.852C221.984 110.539 222.219 109.367 222.688 108.336C223.172 107.305 223.898 106.43 224.867 105.711C225.836 104.992 227.07 104.445 228.57 104.07C230.07 103.695 231.836 103.508 233.867 103.508H237.266ZM259.344 113.375C260.078 113.375 260.703 113.242 261.219 112.977C261.75 112.695 262.148 112.305 262.414 111.805C262.695 111.289 262.828 110.672 262.812 109.953H270.242C270.258 111.859 269.789 113.531 268.836 114.969C267.898 116.391 266.617 117.5 264.992 118.297C263.383 119.078 261.562 119.469 259.531 119.469C257.547 119.469 255.812 119.148 254.328 118.508C252.844 117.852 251.602 116.945 250.602 115.789C249.617 114.617 248.875 113.25 248.375 111.688C247.891 110.125 247.648 108.43 247.648 106.602V106.062C247.648 104.234 247.891 102.539 248.375 100.977C248.875 99.3984 249.617 98.0312 250.602 96.875C251.602 95.7031 252.836 94.7969 254.305 94.1562C255.789 93.5 257.516 93.1719 259.484 93.1719C261.594 93.1719 263.453 93.5703 265.062 94.3672C266.688 95.1641 267.961 96.3203 268.883 97.8359C269.805 99.3516 270.258 101.188 270.242 103.344H262.812C262.828 102.578 262.711 101.891 262.461 101.281C262.211 100.672 261.82 100.188 261.289 99.8281C260.773 99.4531 260.109 99.2656 259.297 99.2656C258.484 99.2656 257.828 99.4453 257.328 99.8047C256.828 100.164 256.445 100.664 256.18 101.305C255.93 101.93 255.758 102.648 255.664 103.461C255.586 104.273 255.547 105.141 255.547 106.062V106.602C255.547 107.539 255.586 108.422 255.664 109.25C255.758 110.062 255.938 110.781 256.203 111.406C256.469 112.016 256.852 112.5 257.352 112.859C257.852 113.203 258.516 113.375 259.344 113.375ZM281.586 82.9766V119H273.688V82.9766H281.586ZM297.805 93.6406L286.789 106.555L281.023 112.32L277.578 107.305L282.383 101.047L288.336 93.6406H297.805ZM289.344 119L282.57 107.445L288.406 103.297L298.391 119H289.344ZM313.156 111.875C313.156 111.438 313.008 111.062 312.711 110.75C312.43 110.422 311.93 110.125 311.211 109.859C310.492 109.578 309.484 109.297 308.188 109.016C306.953 108.75 305.789 108.398 304.695 107.961C303.617 107.523 302.672 106.992 301.859 106.367C301.047 105.742 300.406 105 299.938 104.141C299.484 103.281 299.258 102.297 299.258 101.188C299.258 100.109 299.484 99.0938 299.938 98.1406C300.406 97.1719 301.086 96.3203 301.977 95.5859C302.883 94.8359 303.984 94.25 305.281 93.8281C306.578 93.3906 308.055 93.1719 309.711 93.1719C311.992 93.1719 313.961 93.5234 315.617 94.2266C317.273 94.9141 318.547 95.8828 319.438 97.1328C320.344 98.3672 320.797 99.7969 320.797 101.422H312.898C312.898 100.781 312.789 100.234 312.57 99.7812C312.367 99.3281 312.031 98.9844 311.562 98.75C311.094 98.5 310.469 98.375 309.688 98.375C309.141 98.375 308.641 98.4766 308.188 98.6797C307.75 98.8828 307.398 99.1641 307.133 99.5234C306.867 99.8828 306.734 100.305 306.734 100.789C306.734 101.133 306.812 101.445 306.969 101.727C307.141 101.992 307.398 102.242 307.742 102.477C308.086 102.695 308.523 102.898 309.055 103.086C309.586 103.258 310.227 103.414 310.977 103.555C312.68 103.867 314.273 104.312 315.758 104.891C317.242 105.469 318.445 106.289 319.367 107.352C320.305 108.414 320.773 109.844 320.773 111.641C320.773 112.766 320.516 113.805 320 114.758C319.484 115.695 318.742 116.523 317.773 117.242C316.805 117.945 315.641 118.492 314.281 118.883C312.922 119.273 311.391 119.469 309.688 119.469C307.266 119.469 305.219 119.039 303.547 118.18C301.875 117.305 300.609 116.211 299.75 114.898C298.906 113.57 298.484 112.227 298.484 110.867H305.844C305.875 111.648 306.062 112.289 306.406 112.789C306.766 113.289 307.242 113.656 307.836 113.891C308.43 114.125 309.117 114.242 309.898 114.242C310.617 114.242 311.211 114.141 311.68 113.938C312.164 113.734 312.531 113.461 312.781 113.117C313.031 112.758 313.156 112.344 313.156 111.875Z" fill="black"/>
</svg>
