<svg width="229" height="163" viewBox="0 0 229 163" fill="none" xmlns="http://www.w3.org/2000/svg">
<path d="M0 0H214C222.284 0 229 6.71573 229 15V148C229 156.284 222.284 163 214 163H0V0Z" fill="#3D2365"/>
<mask id="path-2-outside-1_3_87" maskUnits="userSpaceOnUse" x="78.5" y="43.5" width="72" height="76" fill="black">
<rect fill="white" x="78.5" y="43.5" width="72" height="76"/>
<path d="M123.784 110.795L124.17 117.033C124.203 117.55 123.824 118.005 123.298 118.082C121.412 118.359 119.483 118.5 117.564 118.5C115.647 118.5 113.718 118.359 111.831 118.082C111.304 118.005 110.925 117.55 110.957 117.033L111.288 111.677C107.257 110.891 103.485 109.371 100.051 107.148L96.3899 111.163C96.0369 111.55 95.4382 111.612 95.0101 111.305C91.9132 109.088 89.1852 106.436 86.9014 103.423C86.5853 103.006 86.6482 102.425 87.0468 102.081L91.1759 98.5235C88.8893 95.1861 87.3255 91.5191 86.5171 87.5987L81.0082 87.921C80.4831 87.9525 80.0097 87.5844 79.9292 87.0723C79.6447 85.2408 79.5 83.3658 79.5 81.4989C79.5 79.6323 79.6447 77.7573 79.9292 75.9255C80.0089 75.4134 80.4764 75.037 81.0082 75.0768L86.5184 75.3991C87.3268 71.48 88.8901 67.8127 91.1767 64.4753L87.0468 60.9166C86.649 60.5732 86.5853 59.9915 86.9008 59.5751C89.1821 56.565 91.91 53.9132 95.0095 51.6928C95.4382 51.3858 96.0369 51.448 96.3893 51.8344L100.052 55.8498C103.506 53.619 107.425 52.0541 111.485 51.2839L111.042 45.9743C110.998 45.4495 111.38 44.9818 111.916 44.9043C115.641 44.3652 119.487 44.3652 123.212 44.9043C123.748 44.9818 124.129 45.4496 124.086 45.9743L123.566 52.1893C123.521 52.7401 123.018 53.1503 122.458 53.105C121.891 53.0601 121.469 52.5776 121.515 52.0273L121.956 46.7572C119.045 46.4128 116.082 46.4128 113.171 46.7572L113.612 52.0268C113.655 52.546 113.281 53.0109 112.752 53.0949C108.364 53.7915 104.12 55.4843 100.478 57.9899C100.05 58.2849 99.4616 58.2181 99.1147 57.8373L95.4819 53.8537C93.1043 55.6511 90.971 57.7247 89.1239 60.034L93.2215 63.565C93.614 63.9035 93.6817 64.4749 93.3789 64.8912C90.807 68.4236 89.1247 72.3693 88.3784 76.6188C88.2894 77.1218 87.8212 77.4795 87.3029 77.4485L81.8357 77.1288C81.6508 78.5723 81.5578 80.0384 81.5578 81.499C81.5578 82.9599 81.6508 84.4259 81.8357 85.8692L87.3009 85.5495C87.8194 85.5157 88.2882 85.8767 88.3765 86.3793C89.1233 90.6301 90.8064 94.5761 93.3783 98.1078C93.6811 98.5242 93.6134 99.0954 93.2209 99.434L89.1247 102.964C90.9733 105.276 93.1064 107.349 95.4821 109.144L99.1148 105.161C99.4617 104.779 100.05 104.713 100.478 105.008C104.113 107.508 108.172 109.143 112.543 109.869C113.061 109.955 113.428 110.406 113.397 110.915L113.069 116.229C116.044 116.589 119.09 116.589 122.059 116.229L121.731 110.915C121.696 110.363 122.128 109.89 122.696 109.857C123.26 109.827 123.75 110.244 123.784 110.795ZM145.867 67.5195C147.516 67.5195 148.857 68.8234 148.857 70.4259C148.857 72.0285 147.516 73.3323 145.867 73.3323C145.489 73.3323 145.129 73.2564 144.795 73.131L141.998 75.947C141.804 76.142 141.537 76.2524 141.258 76.2524H126.966C126.398 76.2524 125.937 75.8048 125.937 75.2524C125.937 74.7 126.398 74.2524 126.966 74.2524H140.821L143.252 71.8052C143.021 71.3928 142.877 70.9277 142.877 70.4261C142.878 68.8232 144.219 67.5195 145.867 67.5195ZM144.935 70.4259C144.935 70.9256 145.353 71.3321 145.867 71.3321C146.382 71.3321 146.799 70.9256 146.799 70.4259C146.799 69.9263 146.382 69.5197 145.867 69.5197C145.353 69.5196 144.935 69.9261 144.935 70.4259ZM134.695 64.8892L138.508 59.5583C138.123 59.0691 137.885 58.4651 137.885 57.8029C137.885 56.2003 139.227 54.8965 140.875 54.8965C142.523 54.8965 143.865 56.2003 143.865 57.8029C143.865 59.4054 142.523 60.7092 140.875 60.7092C140.657 60.7092 140.445 60.6835 140.24 60.6403L136.077 66.4604C135.885 66.729 135.57 66.8895 135.233 66.8895H123.917C123.349 66.8895 122.888 66.4419 122.888 65.8895C122.888 65.3371 123.349 64.8895 123.917 64.8895H134.695V64.8892ZM139.943 57.8029C139.943 58.3025 140.36 58.7091 140.875 58.7091C141.389 58.7091 141.807 58.3025 141.807 57.8029C141.807 57.3032 141.389 56.8967 140.875 56.8967C140.36 56.8965 139.943 57.3031 139.943 57.8029ZM143.617 105.196C143.617 106.798 142.275 108.102 140.627 108.102C138.979 108.102 137.637 106.798 137.637 105.196C137.637 104.412 137.961 103.703 138.482 103.179L134.695 97.8852H123.917C123.349 97.8852 122.888 97.4376 122.888 96.8852C122.888 96.3328 123.349 95.8852 123.917 95.8852H135.233C135.57 95.8852 135.885 96.0456 136.077 96.3143L140.369 102.315C140.456 102.307 140.539 102.289 140.627 102.289C142.275 102.289 143.617 103.593 143.617 105.196ZM141.559 105.196C141.559 104.696 141.141 104.289 140.627 104.289C140.113 104.289 139.695 104.696 139.695 105.196C139.695 105.695 140.113 106.102 140.627 106.102C141.141 106.102 141.559 105.695 141.559 105.196ZM148.609 92.8506C148.609 94.4532 147.268 95.757 145.619 95.757C143.971 95.757 142.63 94.4532 142.63 92.8506C142.63 92.2267 142.837 91.6518 143.183 91.1777L140.821 88.8004H126.966C126.398 88.8004 125.937 88.3528 125.937 87.8004C125.937 87.248 126.398 86.8004 126.966 86.8004H141.258C141.537 86.8004 141.804 86.9109 141.998 87.1058L144.909 90.0363C145.138 89.9817 145.373 89.9444 145.619 89.9444C147.268 89.9443 148.609 91.2479 148.609 92.8506ZM146.552 92.8506C146.552 92.351 146.134 91.9444 145.62 91.9444C145.105 91.9444 144.687 92.351 144.687 92.8506C144.687 93.3503 145.105 93.7569 145.62 93.7569C146.134 93.7569 146.552 93.3503 146.552 92.8506ZM149.5 81.5261C149.5 83.1286 148.158 84.4324 146.51 84.4324C145.225 84.4324 144.135 83.6352 143.714 82.5258H121.163V100.204C121.163 103.826 118.132 106.773 114.405 106.773C111.676 106.773 109.274 105.218 108.211 102.835C108.168 102.836 108.126 102.837 108.083 102.837C104.357 102.837 101.325 99.8896 101.325 96.2674C101.325 96.0939 101.333 95.9203 101.347 95.7475C99.7421 95.4353 98.2224 94.6326 96.9806 93.4249C95.3866 91.8756 94.5092 89.8161 94.5092 87.6253C94.5092 85.4345 95.3866 83.3749 96.9806 81.826C97.1 81.7098 97.2341 81.6079 97.3614 81.4992C97.2341 81.3903 97.1 81.2884 96.9806 81.1724C95.3866 79.6232 94.5092 77.5636 94.5092 75.3731C94.5092 73.1823 95.3866 71.1227 96.9806 69.5735C98.2224 68.3658 99.7421 67.563 101.347 67.2509C101.333 67.078 101.325 66.9046 101.325 66.731C101.325 63.1085 104.357 60.1615 108.083 60.1615C108.126 60.1615 108.168 60.1618 108.211 60.1628C109.274 57.7799 111.676 56.2252 114.405 56.2252C118.132 56.2252 121.163 59.1721 121.163 62.7944V80.5259H143.714C144.136 79.4168 145.225 78.62 146.51 78.62C148.159 78.6198 149.5 79.9235 149.5 81.5261ZM98.4355 79.7581C98.721 80.0356 99.0452 80.2792 99.3888 80.499H119.106V62.7941C119.106 60.2745 116.997 58.225 114.405 58.225C112.677 58.225 111.139 59.1203 110.318 60.5297C111.15 60.813 111.923 61.2544 112.592 61.8364C112.599 61.8432 112.602 61.8529 112.61 61.8598C112.993 61.6858 113.416 61.5815 113.866 61.5815C115.515 61.5815 116.856 62.8853 116.856 64.4874C116.856 66.09 115.515 67.3938 113.866 67.3938C112.218 67.3938 110.876 66.09 110.876 64.4874C110.876 64.0541 110.981 63.6465 111.157 63.2768C110.304 62.5582 109.216 62.1612 108.083 62.1612C105.491 62.1612 103.383 64.2111 103.383 66.7307C103.383 66.8749 103.397 67.0183 103.411 67.1615C104.629 67.284 105.795 67.6579 106.846 68.27C107.307 67.9875 107.848 67.8176 108.432 67.8176C110.08 67.8176 111.422 69.1214 111.422 70.7239C111.422 72.3262 110.08 73.6299 108.432 73.6299C106.783 73.6299 105.442 72.3261 105.442 70.7239C105.442 70.43 105.5 70.1516 105.584 69.8839C104.658 69.388 103.628 69.1172 102.554 69.1139C101.06 69.1935 99.5979 69.857 98.4355 70.9873C97.2306 72.1588 96.5669 73.7162 96.5669 75.3728C96.5669 77.0293 97.2307 78.5866 98.4355 79.7581ZM107.499 70.7241C107.499 71.2237 107.917 71.63 108.432 71.63C108.946 71.63 109.364 71.2237 109.364 70.7241C109.364 70.2244 108.946 69.8179 108.432 69.8179C107.917 69.8177 107.499 70.2243 107.499 70.7241ZM113.866 65.3938C114.381 65.3938 114.798 64.9872 114.798 64.4876C114.798 63.9879 114.38 63.5816 113.866 63.5816C113.352 63.5816 112.934 63.9879 112.934 64.4876C112.934 64.9872 113.352 65.3938 113.866 65.3938ZM119.106 100.204V82.499H99.3706C99.0323 82.7166 98.7181 82.9651 98.4356 83.2399C97.2307 84.4112 96.567 85.9685 96.567 87.6251C96.567 89.2817 97.2307 90.8391 98.4356 92.0106C99.598 93.1409 101.06 93.8044 102.554 93.884C103.611 93.8807 104.627 93.62 105.542 93.1388C105.483 92.9112 105.442 92.6768 105.442 92.4315C105.442 90.8289 106.784 89.5251 108.432 89.5251C110.08 89.5251 111.422 90.8289 111.422 92.4315C111.422 94.0341 110.08 95.3379 108.432 95.3379C107.791 95.3379 107.199 95.1364 106.712 94.8008C105.696 95.3682 104.578 95.7192 103.411 95.8365C103.397 95.9797 103.383 96.1231 103.383 96.2674C103.383 98.787 105.492 100.836 108.084 100.836C109.193 100.836 110.257 100.455 111.101 99.7652C110.958 99.4261 110.877 99.0564 110.877 98.6677C110.877 97.0652 112.218 95.7614 113.867 95.7614C115.515 95.7614 116.856 97.0652 116.856 98.6677C116.856 100.27 115.515 101.574 113.867 101.574C113.371 101.574 112.91 101.445 112.497 101.236C111.85 101.779 111.113 102.198 110.318 102.468C111.139 103.878 112.678 104.773 114.406 104.773C116.997 104.773 119.106 102.724 119.106 100.204ZM113.866 99.5741C114.381 99.5741 114.798 99.1675 114.798 98.6679C114.798 98.1682 114.38 97.7617 113.866 97.7617C113.352 97.7617 112.934 98.1682 112.934 98.6679C112.934 99.1675 113.352 99.5741 113.866 99.5741ZM108.432 93.3379C108.946 93.3379 109.364 92.9313 109.364 92.4316C109.364 91.932 108.946 91.5254 108.432 91.5254C107.917 91.5254 107.499 91.932 107.499 92.4316C107.499 92.5993 107.55 92.7544 107.632 92.8892C107.649 92.9087 107.668 92.9252 107.684 92.9463C107.7 92.9687 107.711 92.9933 107.726 93.0166C107.897 93.2114 108.148 93.3379 108.432 93.3379ZM147.443 81.5261C147.443 81.0264 147.025 80.6198 146.51 80.6198C145.996 80.6198 145.578 81.0264 145.578 81.5261C145.578 82.0257 145.996 82.4323 146.51 82.4323C147.025 82.4323 147.443 82.0257 147.443 81.5261Z"/>
</mask>
<path d="M123.784 110.795L124.17 117.033C124.203 117.55 123.824 118.005 123.298 118.082C121.412 118.359 119.483 118.5 117.564 118.5C115.647 118.5 113.718 118.359 111.831 118.082C111.304 118.005 110.925 117.55 110.957 117.033L111.288 111.677C107.257 110.891 103.485 109.371 100.051 107.148L96.3899 111.163C96.0369 111.55 95.4382 111.612 95.0101 111.305C91.9132 109.088 89.1852 106.436 86.9014 103.423C86.5853 103.006 86.6482 102.425 87.0468 102.081L91.1759 98.5235C88.8893 95.1861 87.3255 91.5191 86.5171 87.5987L81.0082 87.921C80.4831 87.9525 80.0097 87.5844 79.9292 87.0723C79.6447 85.2408 79.5 83.3658 79.5 81.4989C79.5 79.6323 79.6447 77.7573 79.9292 75.9255C80.0089 75.4134 80.4764 75.037 81.0082 75.0768L86.5184 75.3991C87.3268 71.48 88.8901 67.8127 91.1767 64.4753L87.0468 60.9166C86.649 60.5732 86.5853 59.9915 86.9008 59.5751C89.1821 56.565 91.91 53.9132 95.0095 51.6928C95.4382 51.3858 96.0369 51.448 96.3893 51.8344L100.052 55.8498C103.506 53.619 107.425 52.0541 111.485 51.2839L111.042 45.9743C110.998 45.4495 111.38 44.9818 111.916 44.9043C115.641 44.3652 119.487 44.3652 123.212 44.9043C123.748 44.9818 124.129 45.4496 124.086 45.9743L123.566 52.1893C123.521 52.7401 123.018 53.1503 122.458 53.105C121.891 53.0601 121.469 52.5776 121.515 52.0273L121.956 46.7572C119.045 46.4128 116.082 46.4128 113.171 46.7572L113.612 52.0268C113.655 52.546 113.281 53.0109 112.752 53.0949C108.364 53.7915 104.12 55.4843 100.478 57.9899C100.05 58.2849 99.4616 58.2181 99.1147 57.8373L95.4819 53.8537C93.1043 55.6511 90.971 57.7247 89.1239 60.034L93.2215 63.565C93.614 63.9035 93.6817 64.4749 93.3789 64.8912C90.807 68.4236 89.1247 72.3693 88.3784 76.6188C88.2894 77.1218 87.8212 77.4795 87.3029 77.4485L81.8357 77.1288C81.6508 78.5723 81.5578 80.0384 81.5578 81.499C81.5578 82.9599 81.6508 84.4259 81.8357 85.8692L87.3009 85.5495C87.8194 85.5157 88.2882 85.8767 88.3765 86.3793C89.1233 90.6301 90.8064 94.5761 93.3783 98.1078C93.6811 98.5242 93.6134 99.0954 93.2209 99.434L89.1247 102.964C90.9733 105.276 93.1064 107.349 95.4821 109.144L99.1148 105.161C99.4617 104.779 100.05 104.713 100.478 105.008C104.113 107.508 108.172 109.143 112.543 109.869C113.061 109.955 113.428 110.406 113.397 110.915L113.069 116.229C116.044 116.589 119.09 116.589 122.059 116.229L121.731 110.915C121.696 110.363 122.128 109.89 122.696 109.857C123.26 109.827 123.75 110.244 123.784 110.795ZM145.867 67.5195C147.516 67.5195 148.857 68.8234 148.857 70.4259C148.857 72.0285 147.516 73.3323 145.867 73.3323C145.489 73.3323 145.129 73.2564 144.795 73.131L141.998 75.947C141.804 76.142 141.537 76.2524 141.258 76.2524H126.966C126.398 76.2524 125.937 75.8048 125.937 75.2524C125.937 74.7 126.398 74.2524 126.966 74.2524H140.821L143.252 71.8052C143.021 71.3928 142.877 70.9277 142.877 70.4261C142.878 68.8232 144.219 67.5195 145.867 67.5195ZM144.935 70.4259C144.935 70.9256 145.353 71.3321 145.867 71.3321C146.382 71.3321 146.799 70.9256 146.799 70.4259C146.799 69.9263 146.382 69.5197 145.867 69.5197C145.353 69.5196 144.935 69.9261 144.935 70.4259ZM134.695 64.8892L138.508 59.5583C138.123 59.0691 137.885 58.4651 137.885 57.8029C137.885 56.2003 139.227 54.8965 140.875 54.8965C142.523 54.8965 143.865 56.2003 143.865 57.8029C143.865 59.4054 142.523 60.7092 140.875 60.7092C140.657 60.7092 140.445 60.6835 140.24 60.6403L136.077 66.4604C135.885 66.729 135.57 66.8895 135.233 66.8895H123.917C123.349 66.8895 122.888 66.4419 122.888 65.8895C122.888 65.3371 123.349 64.8895 123.917 64.8895H134.695V64.8892ZM139.943 57.8029C139.943 58.3025 140.36 58.7091 140.875 58.7091C141.389 58.7091 141.807 58.3025 141.807 57.8029C141.807 57.3032 141.389 56.8967 140.875 56.8967C140.36 56.8965 139.943 57.3031 139.943 57.8029ZM143.617 105.196C143.617 106.798 142.275 108.102 140.627 108.102C138.979 108.102 137.637 106.798 137.637 105.196C137.637 104.412 137.961 103.703 138.482 103.179L134.695 97.8852H123.917C123.349 97.8852 122.888 97.4376 122.888 96.8852C122.888 96.3328 123.349 95.8852 123.917 95.8852H135.233C135.57 95.8852 135.885 96.0456 136.077 96.3143L140.369 102.315C140.456 102.307 140.539 102.289 140.627 102.289C142.275 102.289 143.617 103.593 143.617 105.196ZM141.559 105.196C141.559 104.696 141.141 104.289 140.627 104.289C140.113 104.289 139.695 104.696 139.695 105.196C139.695 105.695 140.113 106.102 140.627 106.102C141.141 106.102 141.559 105.695 141.559 105.196ZM148.609 92.8506C148.609 94.4532 147.268 95.757 145.619 95.757C143.971 95.757 142.63 94.4532 142.63 92.8506C142.63 92.2267 142.837 91.6518 143.183 91.1777L140.821 88.8004H126.966C126.398 88.8004 125.937 88.3528 125.937 87.8004C125.937 87.248 126.398 86.8004 126.966 86.8004H141.258C141.537 86.8004 141.804 86.9109 141.998 87.1058L144.909 90.0363C145.138 89.9817 145.373 89.9444 145.619 89.9444C147.268 89.9443 148.609 91.2479 148.609 92.8506ZM146.552 92.8506C146.552 92.351 146.134 91.9444 145.62 91.9444C145.105 91.9444 144.687 92.351 144.687 92.8506C144.687 93.3503 145.105 93.7569 145.62 93.7569C146.134 93.7569 146.552 93.3503 146.552 92.8506ZM149.5 81.5261C149.5 83.1286 148.158 84.4324 146.51 84.4324C145.225 84.4324 144.135 83.6352 143.714 82.5258H121.163V100.204C121.163 103.826 118.132 106.773 114.405 106.773C111.676 106.773 109.274 105.218 108.211 102.835C108.168 102.836 108.126 102.837 108.083 102.837C104.357 102.837 101.325 99.8896 101.325 96.2674C101.325 96.0939 101.333 95.9203 101.347 95.7475C99.7421 95.4353 98.2224 94.6326 96.9806 93.4249C95.3866 91.8756 94.5092 89.8161 94.5092 87.6253C94.5092 85.4345 95.3866 83.3749 96.9806 81.826C97.1 81.7098 97.2341 81.6079 97.3614 81.4992C97.2341 81.3903 97.1 81.2884 96.9806 81.1724C95.3866 79.6232 94.5092 77.5636 94.5092 75.3731C94.5092 73.1823 95.3866 71.1227 96.9806 69.5735C98.2224 68.3658 99.7421 67.563 101.347 67.2509C101.333 67.078 101.325 66.9046 101.325 66.731C101.325 63.1085 104.357 60.1615 108.083 60.1615C108.126 60.1615 108.168 60.1618 108.211 60.1628C109.274 57.7799 111.676 56.2252 114.405 56.2252C118.132 56.2252 121.163 59.1721 121.163 62.7944V80.5259H143.714C144.136 79.4168 145.225 78.62 146.51 78.62C148.159 78.6198 149.5 79.9235 149.5 81.5261ZM98.4355 79.7581C98.721 80.0356 99.0452 80.2792 99.3888 80.499H119.106V62.7941C119.106 60.2745 116.997 58.225 114.405 58.225C112.677 58.225 111.139 59.1203 110.318 60.5297C111.15 60.813 111.923 61.2544 112.592 61.8364C112.599 61.8432 112.602 61.8529 112.61 61.8598C112.993 61.6858 113.416 61.5815 113.866 61.5815C115.515 61.5815 116.856 62.8853 116.856 64.4874C116.856 66.09 115.515 67.3938 113.866 67.3938C112.218 67.3938 110.876 66.09 110.876 64.4874C110.876 64.0541 110.981 63.6465 111.157 63.2768C110.304 62.5582 109.216 62.1612 108.083 62.1612C105.491 62.1612 103.383 64.2111 103.383 66.7307C103.383 66.8749 103.397 67.0183 103.411 67.1615C104.629 67.284 105.795 67.6579 106.846 68.27C107.307 67.9875 107.848 67.8176 108.432 67.8176C110.08 67.8176 111.422 69.1214 111.422 70.7239C111.422 72.3262 110.08 73.6299 108.432 73.6299C106.783 73.6299 105.442 72.3261 105.442 70.7239C105.442 70.43 105.5 70.1516 105.584 69.8839C104.658 69.388 103.628 69.1172 102.554 69.1139C101.06 69.1935 99.5979 69.857 98.4355 70.9873C97.2306 72.1588 96.5669 73.7162 96.5669 75.3728C96.5669 77.0293 97.2307 78.5866 98.4355 79.7581ZM107.499 70.7241C107.499 71.2237 107.917 71.63 108.432 71.63C108.946 71.63 109.364 71.2237 109.364 70.7241C109.364 70.2244 108.946 69.8179 108.432 69.8179C107.917 69.8177 107.499 70.2243 107.499 70.7241ZM113.866 65.3938C114.381 65.3938 114.798 64.9872 114.798 64.4876C114.798 63.9879 114.38 63.5816 113.866 63.5816C113.352 63.5816 112.934 63.9879 112.934 64.4876C112.934 64.9872 113.352 65.3938 113.866 65.3938ZM119.106 100.204V82.499H99.3706C99.0323 82.7166 98.7181 82.9651 98.4356 83.2399C97.2307 84.4112 96.567 85.9685 96.567 87.6251C96.567 89.2817 97.2307 90.8391 98.4356 92.0106C99.598 93.1409 101.06 93.8044 102.554 93.884C103.611 93.8807 104.627 93.62 105.542 93.1388C105.483 92.9112 105.442 92.6768 105.442 92.4315C105.442 90.8289 106.784 89.5251 108.432 89.5251C110.08 89.5251 111.422 90.8289 111.422 92.4315C111.422 94.0341 110.08 95.3379 108.432 95.3379C107.791 95.3379 107.199 95.1364 106.712 94.8008C105.696 95.3682 104.578 95.7192 103.411 95.8365C103.397 95.9797 103.383 96.1231 103.383 96.2674C103.383 98.787 105.492 100.836 108.084 100.836C109.193 100.836 110.257 100.455 111.101 99.7652C110.958 99.4261 110.877 99.0564 110.877 98.6677C110.877 97.0652 112.218 95.7614 113.867 95.7614C115.515 95.7614 116.856 97.0652 116.856 98.6677C116.856 100.27 115.515 101.574 113.867 101.574C113.371 101.574 112.91 101.445 112.497 101.236C111.85 101.779 111.113 102.198 110.318 102.468C111.139 103.878 112.678 104.773 114.406 104.773C116.997 104.773 119.106 102.724 119.106 100.204ZM113.866 99.5741C114.381 99.5741 114.798 99.1675 114.798 98.6679C114.798 98.1682 114.38 97.7617 113.866 97.7617C113.352 97.7617 112.934 98.1682 112.934 98.6679C112.934 99.1675 113.352 99.5741 113.866 99.5741ZM108.432 93.3379C108.946 93.3379 109.364 92.9313 109.364 92.4316C109.364 91.932 108.946 91.5254 108.432 91.5254C107.917 91.5254 107.499 91.932 107.499 92.4316C107.499 92.5993 107.55 92.7544 107.632 92.8892C107.649 92.9087 107.668 92.9252 107.684 92.9463C107.7 92.9687 107.711 92.9933 107.726 93.0166C107.897 93.2114 108.148 93.3379 108.432 93.3379ZM147.443 81.5261C147.443 81.0264 147.025 80.6198 146.51 80.6198C145.996 80.6198 145.578 81.0264 145.578 81.5261C145.578 82.0257 145.996 82.4323 146.51 82.4323C147.025 82.4323 147.443 82.0257 147.443 81.5261Z" fill="white"/>
<path d="M123.784 110.795L124.17 117.033C124.203 117.55 123.824 118.005 123.298 118.082C121.412 118.359 119.483 118.5 117.564 118.5C115.647 118.5 113.718 118.359 111.831 118.082C111.304 118.005 110.925 117.55 110.957 117.033L111.288 111.677C107.257 110.891 103.485 109.371 100.051 107.148L96.3899 111.163C96.0369 111.55 95.4382 111.612 95.0101 111.305C91.9132 109.088 89.1852 106.436 86.9014 103.423C86.5853 103.006 86.6482 102.425 87.0468 102.081L91.1759 98.5235C88.8893 95.1861 87.3255 91.5191 86.5171 87.5987L81.0082 87.921C80.4831 87.9525 80.0097 87.5844 79.9292 87.0723C79.6447 85.2408 79.5 83.3658 79.5 81.4989C79.5 79.6323 79.6447 77.7573 79.9292 75.9255C80.0089 75.4134 80.4764 75.037 81.0082 75.0768L86.5184 75.3991C87.3268 71.48 88.8901 67.8127 91.1767 64.4753L87.0468 60.9166C86.649 60.5732 86.5853 59.9915 86.9008 59.5751C89.1821 56.565 91.91 53.9132 95.0095 51.6928C95.4382 51.3858 96.0369 51.448 96.3893 51.8344L100.052 55.8498C103.506 53.619 107.425 52.0541 111.485 51.2839L111.042 45.9743C110.998 45.4495 111.38 44.9818 111.916 44.9043C115.641 44.3652 119.487 44.3652 123.212 44.9043C123.748 44.9818 124.129 45.4496 124.086 45.9743L123.566 52.1893C123.521 52.7401 123.018 53.1503 122.458 53.105C121.891 53.0601 121.469 52.5776 121.515 52.0273L121.956 46.7572C119.045 46.4128 116.082 46.4128 113.171 46.7572L113.612 52.0268C113.655 52.546 113.281 53.0109 112.752 53.0949C108.364 53.7915 104.12 55.4843 100.478 57.9899C100.05 58.2849 99.4616 58.2181 99.1147 57.8373L95.4819 53.8537C93.1043 55.6511 90.971 57.7247 89.1239 60.034L93.2215 63.565C93.614 63.9035 93.6817 64.4749 93.3789 64.8912C90.807 68.4236 89.1247 72.3693 88.3784 76.6188C88.2894 77.1218 87.8212 77.4795 87.3029 77.4485L81.8357 77.1288C81.6508 78.5723 81.5578 80.0384 81.5578 81.499C81.5578 82.9599 81.6508 84.4259 81.8357 85.8692L87.3009 85.5495C87.8194 85.5157 88.2882 85.8767 88.3765 86.3793C89.1233 90.6301 90.8064 94.5761 93.3783 98.1078C93.6811 98.5242 93.6134 99.0954 93.2209 99.434L89.1247 102.964C90.9733 105.276 93.1064 107.349 95.4821 109.144L99.1148 105.161C99.4617 104.779 100.05 104.713 100.478 105.008C104.113 107.508 108.172 109.143 112.543 109.869C113.061 109.955 113.428 110.406 113.397 110.915L113.069 116.229C116.044 116.589 119.09 116.589 122.059 116.229L121.731 110.915C121.696 110.363 122.128 109.89 122.696 109.857C123.26 109.827 123.75 110.244 123.784 110.795ZM145.867 67.5195C147.516 67.5195 148.857 68.8234 148.857 70.4259C148.857 72.0285 147.516 73.3323 145.867 73.3323C145.489 73.3323 145.129 73.2564 144.795 73.131L141.998 75.947C141.804 76.142 141.537 76.2524 141.258 76.2524H126.966C126.398 76.2524 125.937 75.8048 125.937 75.2524C125.937 74.7 126.398 74.2524 126.966 74.2524H140.821L143.252 71.8052C143.021 71.3928 142.877 70.9277 142.877 70.4261C142.878 68.8232 144.219 67.5195 145.867 67.5195ZM144.935 70.4259C144.935 70.9256 145.353 71.3321 145.867 71.3321C146.382 71.3321 146.799 70.9256 146.799 70.4259C146.799 69.9263 146.382 69.5197 145.867 69.5197C145.353 69.5196 144.935 69.9261 144.935 70.4259ZM134.695 64.8892L138.508 59.5583C138.123 59.0691 137.885 58.4651 137.885 57.8029C137.885 56.2003 139.227 54.8965 140.875 54.8965C142.523 54.8965 143.865 56.2003 143.865 57.8029C143.865 59.4054 142.523 60.7092 140.875 60.7092C140.657 60.7092 140.445 60.6835 140.24 60.6403L136.077 66.4604C135.885 66.729 135.57 66.8895 135.233 66.8895H123.917C123.349 66.8895 122.888 66.4419 122.888 65.8895C122.888 65.3371 123.349 64.8895 123.917 64.8895H134.695V64.8892ZM139.943 57.8029C139.943 58.3025 140.36 58.7091 140.875 58.7091C141.389 58.7091 141.807 58.3025 141.807 57.8029C141.807 57.3032 141.389 56.8967 140.875 56.8967C140.36 56.8965 139.943 57.3031 139.943 57.8029ZM143.617 105.196C143.617 106.798 142.275 108.102 140.627 108.102C138.979 108.102 137.637 106.798 137.637 105.196C137.637 104.412 137.961 103.703 138.482 103.179L134.695 97.8852H123.917C123.349 97.8852 122.888 97.4376 122.888 96.8852C122.888 96.3328 123.349 95.8852 123.917 95.8852H135.233C135.57 95.8852 135.885 96.0456 136.077 96.3143L140.369 102.315C140.456 102.307 140.539 102.289 140.627 102.289C142.275 102.289 143.617 103.593 143.617 105.196ZM141.559 105.196C141.559 104.696 141.141 104.289 140.627 104.289C140.113 104.289 139.695 104.696 139.695 105.196C139.695 105.695 140.113 106.102 140.627 106.102C141.141 106.102 141.559 105.695 141.559 105.196ZM148.609 92.8506C148.609 94.4532 147.268 95.757 145.619 95.757C143.971 95.757 142.63 94.4532 142.63 92.8506C142.63 92.2267 142.837 91.6518 143.183 91.1777L140.821 88.8004H126.966C126.398 88.8004 125.937 88.3528 125.937 87.8004C125.937 87.248 126.398 86.8004 126.966 86.8004H141.258C141.537 86.8004 141.804 86.9109 141.998 87.1058L144.909 90.0363C145.138 89.9817 145.373 89.9444 145.619 89.9444C147.268 89.9443 148.609 91.2479 148.609 92.8506ZM146.552 92.8506C146.552 92.351 146.134 91.9444 145.62 91.9444C145.105 91.9444 144.687 92.351 144.687 92.8506C144.687 93.3503 145.105 93.7569 145.62 93.7569C146.134 93.7569 146.552 93.3503 146.552 92.8506ZM149.5 81.5261C149.5 83.1286 148.158 84.4324 146.51 84.4324C145.225 84.4324 144.135 83.6352 143.714 82.5258H121.163V100.204C121.163 103.826 118.132 106.773 114.405 106.773C111.676 106.773 109.274 105.218 108.211 102.835C108.168 102.836 108.126 102.837 108.083 102.837C104.357 102.837 101.325 99.8896 101.325 96.2674C101.325 96.0939 101.333 95.9203 101.347 95.7475C99.7421 95.4353 98.2224 94.6326 96.9806 93.4249C95.3866 91.8756 94.5092 89.8161 94.5092 87.6253C94.5092 85.4345 95.3866 83.3749 96.9806 81.826C97.1 81.7098 97.2341 81.6079 97.3614 81.4992C97.2341 81.3903 97.1 81.2884 96.9806 81.1724C95.3866 79.6232 94.5092 77.5636 94.5092 75.3731C94.5092 73.1823 95.3866 71.1227 96.9806 69.5735C98.2224 68.3658 99.7421 67.563 101.347 67.2509C101.333 67.078 101.325 66.9046 101.325 66.731C101.325 63.1085 104.357 60.1615 108.083 60.1615C108.126 60.1615 108.168 60.1618 108.211 60.1628C109.274 57.7799 111.676 56.2252 114.405 56.2252C118.132 56.2252 121.163 59.1721 121.163 62.7944V80.5259H143.714C144.136 79.4168 145.225 78.62 146.51 78.62C148.159 78.6198 149.5 79.9235 149.5 81.5261ZM98.4355 79.7581C98.721 80.0356 99.0452 80.2792 99.3888 80.499H119.106V62.7941C119.106 60.2745 116.997 58.225 114.405 58.225C112.677 58.225 111.139 59.1203 110.318 60.5297C111.15 60.813 111.923 61.2544 112.592 61.8364C112.599 61.8432 112.602 61.8529 112.61 61.8598C112.993 61.6858 113.416 61.5815 113.866 61.5815C115.515 61.5815 116.856 62.8853 116.856 64.4874C116.856 66.09 115.515 67.3938 113.866 67.3938C112.218 67.3938 110.876 66.09 110.876 64.4874C110.876 64.0541 110.981 63.6465 111.157 63.2768C110.304 62.5582 109.216 62.1612 108.083 62.1612C105.491 62.1612 103.383 64.2111 103.383 66.7307C103.383 66.8749 103.397 67.0183 103.411 67.1615C104.629 67.284 105.795 67.6579 106.846 68.27C107.307 67.9875 107.848 67.8176 108.432 67.8176C110.08 67.8176 111.422 69.1214 111.422 70.7239C111.422 72.3262 110.08 73.6299 108.432 73.6299C106.783 73.6299 105.442 72.3261 105.442 70.7239C105.442 70.43 105.5 70.1516 105.584 69.8839C104.658 69.388 103.628 69.1172 102.554 69.1139C101.06 69.1935 99.5979 69.857 98.4355 70.9873C97.2306 72.1588 96.5669 73.7162 96.5669 75.3728C96.5669 77.0293 97.2307 78.5866 98.4355 79.7581ZM107.499 70.7241C107.499 71.2237 107.917 71.63 108.432 71.63C108.946 71.63 109.364 71.2237 109.364 70.7241C109.364 70.2244 108.946 69.8179 108.432 69.8179C107.917 69.8177 107.499 70.2243 107.499 70.7241ZM113.866 65.3938C114.381 65.3938 114.798 64.9872 114.798 64.4876C114.798 63.9879 114.38 63.5816 113.866 63.5816C113.352 63.5816 112.934 63.9879 112.934 64.4876C112.934 64.9872 113.352 65.3938 113.866 65.3938ZM119.106 100.204V82.499H99.3706C99.0323 82.7166 98.7181 82.9651 98.4356 83.2399C97.2307 84.4112 96.567 85.9685 96.567 87.6251C96.567 89.2817 97.2307 90.8391 98.4356 92.0106C99.598 93.1409 101.06 93.8044 102.554 93.884C103.611 93.8807 104.627 93.62 105.542 93.1388C105.483 92.9112 105.442 92.6768 105.442 92.4315C105.442 90.8289 106.784 89.5251 108.432 89.5251C110.08 89.5251 111.422 90.8289 111.422 92.4315C111.422 94.0341 110.08 95.3379 108.432 95.3379C107.791 95.3379 107.199 95.1364 106.712 94.8008C105.696 95.3682 104.578 95.7192 103.411 95.8365C103.397 95.9797 103.383 96.1231 103.383 96.2674C103.383 98.787 105.492 100.836 108.084 100.836C109.193 100.836 110.257 100.455 111.101 99.7652C110.958 99.4261 110.877 99.0564 110.877 98.6677C110.877 97.0652 112.218 95.7614 113.867 95.7614C115.515 95.7614 116.856 97.0652 116.856 98.6677C116.856 100.27 115.515 101.574 113.867 101.574C113.371 101.574 112.91 101.445 112.497 101.236C111.85 101.779 111.113 102.198 110.318 102.468C111.139 103.878 112.678 104.773 114.406 104.773C116.997 104.773 119.106 102.724 119.106 100.204ZM113.866 99.5741C114.381 99.5741 114.798 99.1675 114.798 98.6679C114.798 98.1682 114.38 97.7617 113.866 97.7617C113.352 97.7617 112.934 98.1682 112.934 98.6679C112.934 99.1675 113.352 99.5741 113.866 99.5741ZM108.432 93.3379C108.946 93.3379 109.364 92.9313 109.364 92.4316C109.364 91.932 108.946 91.5254 108.432 91.5254C107.917 91.5254 107.499 91.932 107.499 92.4316C107.499 92.5993 107.55 92.7544 107.632 92.8892C107.649 92.9087 107.668 92.9252 107.684 92.9463C107.7 92.9687 107.711 92.9933 107.726 93.0166C107.897 93.2114 108.148 93.3379 108.432 93.3379ZM147.443 81.5261C147.443 81.0264 147.025 80.6198 146.51 80.6198C145.996 80.6198 145.578 81.0264 145.578 81.5261C145.578 82.0257 145.996 82.4323 146.51 82.4323C147.025 82.4323 147.443 82.0257 147.443 81.5261Z" stroke="white" mask="url(#path-2-outside-1_3_87)"/>
</svg>
