<svg width="1097" height="163" viewBox="0 0 1097 163" fill="none" xmlns="http://www.w3.org/2000/svg">
<rect width="1097" height="163" fill="#F0F0F0"/>
<path d="M64.9062 53.9219L57.3945 51.2383V48.0859L67.6016 52.375V54.6367L64.9062 53.9219ZM57.3945 56.1719L64.918 53.4297L67.6016 52.7852V55.0352L57.3945 59.3242V56.1719ZM82.543 54.918H78.1953V52.1758H82.543C83.2148 52.1758 83.7617 52.0664 84.1836 51.8477C84.6055 51.6211 84.9141 51.3086 85.1094 50.9102C85.3047 50.5117 85.4023 50.0625 85.4023 49.5625C85.4023 49.0547 85.3047 48.582 85.1094 48.1445C84.9141 47.707 84.6055 47.3555 84.1836 47.0898C83.7617 46.8242 83.2148 46.6914 82.543 46.6914H79.4141V61H75.8984V43.9375H82.543C83.8789 43.9375 85.0234 44.1797 85.9766 44.6641C86.9375 45.1406 87.6719 45.8008 88.1797 46.6445C88.6875 47.4883 88.9414 48.4531 88.9414 49.5391C88.9414 50.6406 88.6875 51.5938 88.1797 52.3984C87.6719 53.2031 86.9375 53.8242 85.9766 54.2617C85.0234 54.6992 83.8789 54.918 82.543 54.918ZM94.5312 51.0859V61H91.1562V48.3203H94.332L94.5312 51.0859ZM98.3516 48.2383L98.293 51.3672C98.1289 51.3438 97.9297 51.3242 97.6953 51.3086C97.4688 51.2852 97.2617 51.2734 97.0742 51.2734C96.5977 51.2734 96.1836 51.3359 95.832 51.4609C95.4883 51.5781 95.1992 51.7539 94.9648 51.9883C94.7383 52.2227 94.5664 52.5078 94.4492 52.8438C94.3398 53.1797 94.2773 53.5625 94.2617 53.9922L93.582 53.7812C93.582 52.9609 93.6641 52.207 93.8281 51.5195C93.9922 50.8242 94.2305 50.2188 94.543 49.7031C94.8633 49.1875 95.2539 48.7891 95.7148 48.5078C96.1758 48.2266 96.7031 48.0859 97.2969 48.0859C97.4844 48.0859 97.6758 48.1016 97.8711 48.1328C98.0664 48.1562 98.2266 48.1914 98.3516 48.2383ZM99.0547 54.7891V54.543C99.0547 53.6133 99.1875 52.7578 99.4531 51.9766C99.7188 51.1875 100.105 50.5039 100.613 49.9258C101.121 49.3477 101.746 48.8984 102.488 48.5781C103.23 48.25 104.082 48.0859 105.043 48.0859C106.004 48.0859 106.859 48.25 107.609 48.5781C108.359 48.8984 108.988 49.3477 109.496 49.9258C110.012 50.5039 110.402 51.1875 110.668 51.9766C110.934 52.7578 111.066 53.6133 111.066 54.543V54.7891C111.066 55.7109 110.934 56.5664 110.668 57.3555C110.402 58.1367 110.012 58.8203 109.496 59.4062C108.988 59.9844 108.363 60.4336 107.621 60.7539C106.879 61.0742 106.027 61.2344 105.066 61.2344C104.105 61.2344 103.25 61.0742 102.5 60.7539C101.758 60.4336 101.129 59.9844 100.613 59.4062C100.105 58.8203 99.7188 58.1367 99.4531 57.3555C99.1875 56.5664 99.0547 55.7109 99.0547 54.7891ZM102.43 54.543V54.7891C102.43 55.3203 102.477 55.8164 102.57 56.2773C102.664 56.7383 102.812 57.1445 103.016 57.4961C103.227 57.8398 103.5 58.1094 103.836 58.3047C104.172 58.5 104.582 58.5977 105.066 58.5977C105.535 58.5977 105.938 58.5 106.273 58.3047C106.609 58.1094 106.879 57.8398 107.082 57.4961C107.285 57.1445 107.434 56.7383 107.527 56.2773C107.629 55.8164 107.68 55.3203 107.68 54.7891V54.543C107.68 54.0273 107.629 53.543 107.527 53.0898C107.434 52.6289 107.281 52.2227 107.07 51.8711C106.867 51.5117 106.598 51.2305 106.262 51.0273C105.926 50.8242 105.52 50.7227 105.043 50.7227C104.566 50.7227 104.16 50.8242 103.824 51.0273C103.496 51.2305 103.227 51.5117 103.016 51.8711C102.812 52.2227 102.664 52.6289 102.57 53.0898C102.477 53.543 102.43 54.0273 102.43 54.543ZM113.328 48.3203H116.715V61.7617C116.715 62.6992 116.543 63.4922 116.199 64.1406C115.855 64.7891 115.359 65.2812 114.711 65.6172C114.062 65.9531 113.277 66.1211 112.355 66.1211C112.066 66.1211 111.785 66.1055 111.512 66.0742C111.23 66.043 110.941 65.9922 110.645 65.9219L110.656 63.332C110.844 63.3633 111.027 63.3867 111.207 63.4023C111.379 63.4258 111.555 63.4375 111.734 63.4375C112.086 63.4375 112.379 63.3789 112.613 63.2617C112.848 63.1445 113.023 62.9609 113.141 62.7109C113.266 62.4688 113.328 62.1523 113.328 61.7617V48.3203ZM113.059 45.0156C113.059 44.5234 113.23 44.1172 113.574 43.7969C113.926 43.4766 114.387 43.3164 114.957 43.3164C115.535 43.3164 115.996 43.4766 116.34 43.7969C116.684 44.1172 116.855 44.5234 116.855 45.0156C116.855 45.5078 116.684 45.9141 116.34 46.2344C115.996 46.5547 115.535 46.7148 114.957 46.7148C114.387 46.7148 113.926 46.5547 113.574 46.2344C113.23 45.9141 113.059 45.5078 113.059 45.0156ZM125.234 61.2344C124.25 61.2344 123.367 61.0781 122.586 60.7656C121.805 60.4453 121.141 60.0039 120.594 59.4414C120.055 58.8789 119.641 58.2266 119.352 57.4844C119.062 56.7344 118.918 55.9375 118.918 55.0938V54.625C118.918 53.6641 119.055 52.7852 119.328 51.9883C119.602 51.1914 119.992 50.5 120.5 49.9141C121.016 49.3281 121.641 48.8789 122.375 48.5664C123.109 48.2461 123.938 48.0859 124.859 48.0859C125.758 48.0859 126.555 48.2344 127.25 48.5312C127.945 48.8281 128.527 49.25 128.996 49.7969C129.473 50.3438 129.832 51 130.074 51.7656C130.316 52.5234 130.438 53.3672 130.438 54.2969V55.7031H120.359V53.4531H127.121V53.1953C127.121 52.7266 127.035 52.3086 126.863 51.9414C126.699 51.5664 126.449 51.2695 126.113 51.0508C125.777 50.832 125.348 50.7227 124.824 50.7227C124.379 50.7227 123.996 50.8203 123.676 51.0156C123.355 51.2109 123.094 51.4844 122.891 51.8359C122.695 52.1875 122.547 52.6016 122.445 53.0781C122.352 53.5469 122.305 54.0625 122.305 54.625V55.0938C122.305 55.6016 122.375 56.0703 122.516 56.5C122.664 56.9297 122.871 57.3008 123.137 57.6133C123.41 57.9258 123.738 58.168 124.121 58.3398C124.512 58.5117 124.953 58.5977 125.445 58.5977C126.055 58.5977 126.621 58.4805 127.145 58.2461C127.676 58.0039 128.133 57.6406 128.516 57.1562L130.156 58.9375C129.891 59.3203 129.527 59.6875 129.066 60.0391C128.613 60.3906 128.066 60.6797 127.426 60.9062C126.785 61.125 126.055 61.2344 125.234 61.2344ZM137.598 58.5977C138.012 58.5977 138.379 58.5195 138.699 58.3633C139.02 58.1992 139.27 57.9727 139.449 57.6836C139.637 57.3867 139.734 57.0391 139.742 56.6406H142.918C142.91 57.5312 142.672 58.3242 142.203 59.0195C141.734 59.707 141.105 60.25 140.316 60.6484C139.527 61.0391 138.645 61.2344 137.668 61.2344C136.684 61.2344 135.824 61.0703 135.09 60.7422C134.363 60.4141 133.758 59.9609 133.273 59.3828C132.789 58.7969 132.426 58.1172 132.184 57.3438C131.941 56.5625 131.82 55.7266 131.82 54.8359V54.4961C131.82 53.5977 131.941 52.7617 132.184 51.9883C132.426 51.207 132.789 50.5273 133.273 49.9492C133.758 49.3633 134.363 48.9062 135.09 48.5781C135.816 48.25 136.668 48.0859 137.645 48.0859C138.684 48.0859 139.594 48.2852 140.375 48.6836C141.164 49.082 141.781 49.6523 142.227 50.3945C142.68 51.1289 142.91 52 142.918 53.0078H139.742C139.734 52.5859 139.645 52.2031 139.473 51.8594C139.309 51.5156 139.066 51.2422 138.746 51.0391C138.434 50.8281 138.047 50.7227 137.586 50.7227C137.094 50.7227 136.691 50.8281 136.379 51.0391C136.066 51.2422 135.824 51.5234 135.652 51.8828C135.48 52.2344 135.359 52.6367 135.289 53.0898C135.227 53.5352 135.195 54.0039 135.195 54.4961V54.8359C135.195 55.3281 135.227 55.8008 135.289 56.2539C135.352 56.707 135.469 57.1094 135.641 57.4609C135.82 57.8125 136.066 58.0898 136.379 58.293C136.691 58.4961 137.098 58.5977 137.598 58.5977ZM151.086 48.3203V50.7109H143.703V48.3203H151.086ZM145.531 45.1914H148.906V57.1797C148.906 57.5469 148.953 57.8281 149.047 58.0234C149.148 58.2188 149.297 58.3555 149.492 58.4336C149.688 58.5039 149.934 58.5391 150.23 58.5391C150.441 58.5391 150.629 58.5312 150.793 58.5156C150.965 58.4922 151.109 58.4688 151.227 58.4453L151.238 60.9297C150.949 61.0234 150.637 61.0977 150.301 61.1523C149.965 61.207 149.594 61.2344 149.188 61.2344C148.445 61.2344 147.797 61.1133 147.242 60.8711C146.695 60.6211 146.273 60.2227 145.977 59.6758C145.68 59.1289 145.531 58.4102 145.531 57.5195V45.1914ZM166.191 43.9375V61H162.688V43.9375H166.191ZM171.441 43.9375V46.6914H157.52V43.9375H171.441ZM176.797 48.3203V61H173.41V48.3203H176.797ZM173.199 45.0156C173.199 44.5234 173.371 44.1172 173.715 43.7969C174.059 43.4766 174.52 43.3164 175.098 43.3164C175.668 43.3164 176.125 43.4766 176.469 43.7969C176.82 44.1172 176.996 44.5234 176.996 45.0156C176.996 45.5078 176.82 45.9141 176.469 46.2344C176.125 46.5547 175.668 46.7148 175.098 46.7148C174.52 46.7148 174.059 46.5547 173.715 46.2344C173.371 45.9141 173.199 45.5078 173.199 45.0156ZM185.797 48.3203V50.7109H178.414V48.3203H185.797ZM180.242 45.1914H183.617V57.1797C183.617 57.5469 183.664 57.8281 183.758 58.0234C183.859 58.2188 184.008 58.3555 184.203 58.4336C184.398 58.5039 184.645 58.5391 184.941 58.5391C185.152 58.5391 185.34 58.5312 185.504 58.5156C185.676 58.4922 185.82 58.4688 185.938 58.4453L185.949 60.9297C185.66 61.0234 185.348 61.0977 185.012 61.1523C184.676 61.207 184.305 61.2344 183.898 61.2344C183.156 61.2344 182.508 61.1133 181.953 60.8711C181.406 60.6211 180.984 60.2227 180.688 59.6758C180.391 59.1289 180.242 58.4102 180.242 57.5195V45.1914ZM191.281 43V61H187.895V43H191.281ZM199.906 61.2344C198.922 61.2344 198.039 61.0781 197.258 60.7656C196.477 60.4453 195.812 60.0039 195.266 59.4414C194.727 58.8789 194.312 58.2266 194.023 57.4844C193.734 56.7344 193.59 55.9375 193.59 55.0938V54.625C193.59 53.6641 193.727 52.7852 194 51.9883C194.273 51.1914 194.664 50.5 195.172 49.9141C195.688 49.3281 196.312 48.8789 197.047 48.5664C197.781 48.2461 198.609 48.0859 199.531 48.0859C200.43 48.0859 201.227 48.2344 201.922 48.5312C202.617 48.8281 203.199 49.25 203.668 49.7969C204.145 50.3438 204.504 51 204.746 51.7656C204.988 52.5234 205.109 53.3672 205.109 54.2969V55.7031H195.031V53.4531H201.793V53.1953C201.793 52.7266 201.707 52.3086 201.535 51.9414C201.371 51.5664 201.121 51.2695 200.785 51.0508C200.449 50.832 200.02 50.7227 199.496 50.7227C199.051 50.7227 198.668 50.8203 198.348 51.0156C198.027 51.2109 197.766 51.4844 197.562 51.8359C197.367 52.1875 197.219 52.6016 197.117 53.0781C197.023 53.5469 196.977 54.0625 196.977 54.625V55.0938C196.977 55.6016 197.047 56.0703 197.188 56.5C197.336 56.9297 197.543 57.3008 197.809 57.6133C198.082 57.9258 198.41 58.168 198.793 58.3398C199.184 58.5117 199.625 58.5977 200.117 58.5977C200.727 58.5977 201.293 58.4805 201.816 58.2461C202.348 58.0039 202.805 57.6406 203.188 57.1562L204.828 58.9375C204.562 59.3203 204.199 59.6875 203.738 60.0391C203.285 60.3906 202.738 60.6797 202.098 60.9062C201.457 61.125 200.727 61.2344 199.906 61.2344Z" fill="#888888"/>
<path d="M67.3438 84.875V119H59.1406V84.875H67.3438ZM80.7266 99.0078V119H72.8281V93.6406H80.2344L80.7266 99.0078ZM79.7656 105.453L77.9609 105.5C77.9609 103.719 78.1719 102.078 78.5938 100.578C79.0156 99.0781 79.6406 97.7734 80.4688 96.6641C81.2969 95.5547 82.3125 94.6953 83.5156 94.0859C84.7344 93.4766 86.1406 93.1719 87.7344 93.1719C88.8438 93.1719 89.8516 93.3438 90.7578 93.6875C91.6641 94.0156 92.4453 94.5391 93.1016 95.2578C93.7578 95.9609 94.2578 96.8828 94.6016 98.0234C94.9609 99.1484 95.1406 100.5 95.1406 102.078V119H87.2422V103.086C87.2422 102.008 87.1172 101.195 86.8672 100.648C86.6328 100.102 86.2891 99.7344 85.8359 99.5469C85.3828 99.3594 84.8281 99.2656 84.1719 99.2656C83.4844 99.2656 82.8672 99.4219 82.3203 99.7344C81.7734 100.047 81.3047 100.484 80.9141 101.047C80.5391 101.594 80.25 102.242 80.0469 102.992C79.8594 103.742 79.7656 104.562 79.7656 105.453ZM94.25 105.453L92.0469 105.5C92.0469 103.719 92.2422 102.078 92.6328 100.578C93.0391 99.0781 93.6406 97.7734 94.4375 96.6641C95.25 95.5547 96.2578 94.6953 97.4609 94.0859C98.6641 93.4766 100.062 93.1719 101.656 93.1719C102.812 93.1719 103.875 93.3438 104.844 93.6875C105.812 94.0312 106.648 94.5859 107.352 95.3516C108.055 96.1172 108.602 97.1328 108.992 98.3984C109.383 99.6484 109.578 101.195 109.578 103.039V119H101.656V103.039C101.656 101.992 101.531 101.203 101.281 100.672C101.047 100.125 100.703 99.7578 100.25 99.5703C99.7969 99.3672 99.2578 99.2656 98.6328 99.2656C97.8828 99.2656 97.2344 99.4219 96.6875 99.7344C96.1406 100.047 95.6797 100.484 95.3047 101.047C94.9453 101.594 94.6797 102.242 94.5078 102.992C94.3359 103.742 94.25 104.562 94.25 105.453ZM122.07 98.5156V128.75H114.172V93.6406H121.531L122.07 98.5156ZM137.633 106.016V106.508C137.633 108.352 137.422 110.062 137 111.641C136.578 113.219 135.953 114.594 135.125 115.766C134.297 116.938 133.266 117.852 132.031 118.508C130.812 119.148 129.398 119.469 127.789 119.469C126.273 119.469 124.969 119.133 123.875 118.461C122.781 117.789 121.867 116.859 121.133 115.672C120.398 114.484 119.805 113.125 119.352 111.594C118.898 110.062 118.539 108.445 118.273 106.742V106.109C118.539 104.281 118.898 102.586 119.352 101.023C119.805 99.4453 120.398 98.0703 121.133 96.8984C121.867 95.7266 122.773 94.8125 123.852 94.1562C124.945 93.5 126.25 93.1719 127.766 93.1719C129.375 93.1719 130.789 93.4766 132.008 94.0859C133.242 94.6953 134.273 95.5703 135.102 96.7109C135.945 97.8359 136.578 99.1875 137 100.766C137.422 102.344 137.633 104.094 137.633 106.016ZM129.734 106.508V106.016C129.734 105.031 129.664 104.133 129.523 103.32C129.383 102.492 129.156 101.773 128.844 101.164C128.547 100.555 128.148 100.086 127.648 99.7578C127.148 99.4297 126.531 99.2656 125.797 99.2656C124.953 99.2656 124.242 99.3984 123.664 99.6641C123.102 99.9141 122.648 100.305 122.305 100.836C121.977 101.352 121.742 102 121.602 102.781C121.477 103.547 121.422 104.445 121.438 105.477V107.398C121.406 108.586 121.523 109.633 121.789 110.539C122.055 111.43 122.516 112.125 123.172 112.625C123.828 113.125 124.719 113.375 125.844 113.375C126.594 113.375 127.219 113.203 127.719 112.859C128.219 112.5 128.617 112.008 128.914 111.383C129.211 110.742 129.422 110.008 129.547 109.18C129.672 108.352 129.734 107.461 129.734 106.508ZM149.492 83V119H141.57V83H149.492ZM166.648 119.469C164.586 119.469 162.742 119.148 161.117 118.508C159.492 117.852 158.117 116.953 156.992 115.812C155.883 114.672 155.031 113.359 154.438 111.875C153.859 110.391 153.57 108.82 153.57 107.164V106.273C153.57 104.414 153.828 102.695 154.344 101.117C154.859 99.5234 155.625 98.1328 156.641 96.9453C157.656 95.7578 158.93 94.8359 160.461 94.1797C161.992 93.5078 163.773 93.1719 165.805 93.1719C167.602 93.1719 169.211 93.4609 170.633 94.0391C172.055 94.6172 173.258 95.4453 174.242 96.5234C175.242 97.6016 176 98.9062 176.516 100.438C177.047 101.969 177.312 103.688 177.312 105.594V108.805H156.594V103.859H169.602V103.25C169.617 102.406 169.469 101.688 169.156 101.094C168.859 100.5 168.422 100.047 167.844 99.7344C167.266 99.4219 166.562 99.2656 165.734 99.2656C164.875 99.2656 164.164 99.4531 163.602 99.8281C163.055 100.203 162.625 100.719 162.312 101.375C162.016 102.016 161.805 102.758 161.68 103.602C161.555 104.445 161.492 105.336 161.492 106.273V107.164C161.492 108.102 161.617 108.953 161.867 109.719C162.133 110.484 162.508 111.141 162.992 111.688C163.492 112.219 164.086 112.633 164.773 112.93C165.477 113.227 166.273 113.375 167.164 113.375C168.242 113.375 169.305 113.172 170.352 112.766C171.398 112.359 172.297 111.688 173.047 110.75L176.633 115.016C176.117 115.75 175.383 116.461 174.43 117.148C173.492 117.836 172.367 118.398 171.055 118.836C169.742 119.258 168.273 119.469 166.648 119.469ZM188.492 99.0078V119H180.594V93.6406H188L188.492 99.0078ZM187.531 105.453L185.727 105.5C185.727 103.719 185.938 102.078 186.359 100.578C186.781 99.0781 187.406 97.7734 188.234 96.6641C189.062 95.5547 190.078 94.6953 191.281 94.0859C192.5 93.4766 193.906 93.1719 195.5 93.1719C196.609 93.1719 197.617 93.3438 198.523 93.6875C199.43 94.0156 200.211 94.5391 200.867 95.2578C201.523 95.9609 202.023 96.8828 202.367 98.0234C202.727 99.1484 202.906 100.5 202.906 102.078V119H195.008V103.086C195.008 102.008 194.883 101.195 194.633 100.648C194.398 100.102 194.055 99.7344 193.602 99.5469C193.148 99.3594 192.594 99.2656 191.938 99.2656C191.25 99.2656 190.633 99.4219 190.086 99.7344C189.539 100.047 189.07 100.484 188.68 101.047C188.305 101.594 188.016 102.242 187.812 102.992C187.625 103.742 187.531 104.562 187.531 105.453ZM202.016 105.453L199.812 105.5C199.812 103.719 200.008 102.078 200.398 100.578C200.805 99.0781 201.406 97.7734 202.203 96.6641C203.016 95.5547 204.023 94.6953 205.227 94.0859C206.43 93.4766 207.828 93.1719 209.422 93.1719C210.578 93.1719 211.641 93.3438 212.609 93.6875C213.578 94.0312 214.414 94.5859 215.117 95.3516C215.82 96.1172 216.367 97.1328 216.758 98.3984C217.148 99.6484 217.344 101.195 217.344 103.039V119H209.422V103.039C209.422 101.992 209.297 101.203 209.047 100.672C208.812 100.125 208.469 99.7578 208.016 99.5703C207.562 99.3672 207.023 99.2656 206.398 99.2656C205.648 99.2656 205 99.4219 204.453 99.7344C203.906 100.047 203.445 100.484 203.07 101.047C202.711 101.594 202.445 102.242 202.273 102.992C202.102 103.742 202.016 104.562 202.016 105.453ZM234.148 119.469C232.086 119.469 230.242 119.148 228.617 118.508C226.992 117.852 225.617 116.953 224.492 115.812C223.383 114.672 222.531 113.359 221.938 111.875C221.359 110.391 221.07 108.82 221.07 107.164V106.273C221.07 104.414 221.328 102.695 221.844 101.117C222.359 99.5234 223.125 98.1328 224.141 96.9453C225.156 95.7578 226.43 94.8359 227.961 94.1797C229.492 93.5078 231.273 93.1719 233.305 93.1719C235.102 93.1719 236.711 93.4609 238.133 94.0391C239.555 94.6172 240.758 95.4453 241.742 96.5234C242.742 97.6016 243.5 98.9062 244.016 100.438C244.547 101.969 244.812 103.688 244.812 105.594V108.805H224.094V103.859H237.102V103.25C237.117 102.406 236.969 101.688 236.656 101.094C236.359 100.5 235.922 100.047 235.344 99.7344C234.766 99.4219 234.062 99.2656 233.234 99.2656C232.375 99.2656 231.664 99.4531 231.102 99.8281C230.555 100.203 230.125 100.719 229.812 101.375C229.516 102.016 229.305 102.758 229.18 103.602C229.055 104.445 228.992 105.336 228.992 106.273V107.164C228.992 108.102 229.117 108.953 229.367 109.719C229.633 110.484 230.008 111.141 230.492 111.688C230.992 112.219 231.586 112.633 232.273 112.93C232.977 113.227 233.773 113.375 234.664 113.375C235.742 113.375 236.805 113.172 237.852 112.766C238.898 112.359 239.797 111.688 240.547 110.75L244.133 115.016C243.617 115.75 242.883 116.461 241.93 117.148C240.992 117.836 239.867 118.398 238.555 118.836C237.242 119.258 235.773 119.469 234.148 119.469ZM255.781 99.0547V119H247.883V93.6406H255.289L255.781 99.0547ZM254.844 105.453L252.992 105.5C252.992 103.562 253.227 101.836 253.695 100.32C254.164 98.7891 254.828 97.4922 255.688 96.4297C256.547 95.3672 257.57 94.5625 258.758 94.0156C259.961 93.4531 261.297 93.1719 262.766 93.1719C263.938 93.1719 265.008 93.3438 265.977 93.6875C266.961 94.0312 267.805 94.5859 268.508 95.3516C269.227 96.1172 269.773 97.1328 270.148 98.3984C270.539 99.6484 270.734 101.195 270.734 103.039V119H262.789V103.016C262.789 102 262.648 101.227 262.367 100.695C262.086 100.148 261.68 99.7734 261.148 99.5703C260.617 99.3672 259.969 99.2656 259.203 99.2656C258.391 99.2656 257.703 99.4219 257.141 99.7344C256.578 100.047 256.125 100.484 255.781 101.047C255.453 101.594 255.211 102.242 255.055 102.992C254.914 103.742 254.844 104.562 254.844 105.453ZM288.477 93.6406V99.125H273.195V93.6406H288.477ZM276.406 87.3359H284.305V110.727C284.305 111.398 284.383 111.922 284.539 112.297C284.695 112.656 284.961 112.914 285.336 113.07C285.727 113.211 286.242 113.281 286.883 113.281C287.336 113.281 287.711 113.273 288.008 113.258C288.305 113.227 288.586 113.188 288.852 113.141V118.789C288.18 119.008 287.477 119.172 286.742 119.281C286.008 119.406 285.227 119.469 284.398 119.469C282.711 119.469 281.266 119.203 280.062 118.672C278.875 118.141 277.969 117.305 277.344 116.164C276.719 115.023 276.406 113.539 276.406 111.711V87.3359ZM304.789 112.625V102.172C304.789 101.453 304.688 100.836 304.484 100.32C304.281 99.8047 303.961 99.4062 303.523 99.125C303.086 98.8281 302.5 98.6797 301.766 98.6797C301.172 98.6797 300.664 98.7812 300.242 98.9844C299.82 99.1875 299.5 99.4922 299.281 99.8984C299.062 100.305 298.953 100.82 298.953 101.445H291.055C291.055 100.273 291.312 99.1875 291.828 98.1875C292.359 97.1719 293.109 96.2891 294.078 95.5391C295.062 94.7891 296.234 94.2109 297.594 93.8047C298.969 93.3828 300.5 93.1719 302.188 93.1719C304.203 93.1719 306 93.5078 307.578 94.1797C309.172 94.8516 310.43 95.8594 311.352 97.2031C312.273 98.5312 312.734 100.203 312.734 102.219V112.602C312.734 114.258 312.828 115.516 313.016 116.375C313.203 117.219 313.469 117.961 313.812 118.602V119H305.891C305.516 118.219 305.234 117.266 305.047 116.141C304.875 115 304.789 113.828 304.789 112.625ZM305.75 103.508L305.797 107.727H302.305C301.57 107.727 300.945 107.828 300.43 108.031C299.93 108.234 299.523 108.516 299.211 108.875C298.914 109.219 298.695 109.609 298.555 110.047C298.43 110.484 298.367 110.945 298.367 111.43C298.367 111.898 298.477 112.32 298.695 112.695C298.93 113.055 299.242 113.336 299.633 113.539C300.023 113.742 300.461 113.844 300.945 113.844C301.82 113.844 302.562 113.68 303.172 113.352C303.797 113.008 304.273 112.594 304.602 112.109C304.93 111.625 305.094 111.172 305.094 110.75L306.828 113.984C306.516 114.609 306.156 115.242 305.75 115.883C305.359 116.523 304.867 117.117 304.273 117.664C303.695 118.195 302.984 118.633 302.141 118.977C301.297 119.305 300.273 119.469 299.07 119.469C297.508 119.469 296.07 119.148 294.758 118.508C293.461 117.867 292.422 116.977 291.641 115.836C290.859 114.68 290.469 113.352 290.469 111.852C290.469 110.539 290.703 109.367 291.172 108.336C291.656 107.305 292.383 106.43 293.352 105.711C294.32 104.992 295.555 104.445 297.055 104.07C298.555 103.695 300.32 103.508 302.352 103.508H305.75ZM330.477 93.6406V99.125H315.195V93.6406H330.477ZM318.406 87.3359H326.305V110.727C326.305 111.398 326.383 111.922 326.539 112.297C326.695 112.656 326.961 112.914 327.336 113.07C327.727 113.211 328.242 113.281 328.883 113.281C329.336 113.281 329.711 113.273 330.008 113.258C330.305 113.227 330.586 113.188 330.852 113.141V118.789C330.18 119.008 329.477 119.172 328.742 119.281C328.008 119.406 327.227 119.469 326.398 119.469C324.711 119.469 323.266 119.203 322.062 118.672C320.875 118.141 319.969 117.305 319.344 116.164C318.719 115.023 318.406 113.539 318.406 111.711V87.3359ZM341.961 93.6406V119H334.039V93.6406H341.961ZM333.57 87.1016C333.57 85.9766 333.977 85.0547 334.789 84.3359C335.602 83.6172 336.656 83.2578 337.953 83.2578C339.25 83.2578 340.305 83.6172 341.117 84.3359C341.93 85.0547 342.336 85.9766 342.336 87.1016C342.336 88.2266 341.93 89.1484 341.117 89.8672C340.305 90.5859 339.25 90.9453 337.953 90.9453C336.656 90.9453 335.602 90.5859 334.789 89.8672C333.977 89.1484 333.57 88.2266 333.57 87.1016ZM345.852 106.578V106.086C345.852 104.227 346.117 102.516 346.648 100.953C347.18 99.375 347.961 98.0078 348.992 96.8516C350.023 95.6953 351.297 94.7969 352.812 94.1562C354.328 93.5 356.078 93.1719 358.062 93.1719C360.062 93.1719 361.82 93.5 363.336 94.1562C364.867 94.7969 366.148 95.6953 367.18 96.8516C368.211 98.0078 368.992 99.375 369.523 100.953C370.055 102.516 370.32 104.227 370.32 106.086V106.578C370.32 108.422 370.055 110.133 369.523 111.711C368.992 113.273 368.211 114.641 367.18 115.812C366.148 116.969 364.875 117.867 363.359 118.508C361.844 119.148 360.094 119.469 358.109 119.469C356.125 119.469 354.367 119.148 352.836 118.508C351.305 117.867 350.023 116.969 348.992 115.812C347.961 114.641 347.18 113.273 346.648 111.711C346.117 110.133 345.852 108.422 345.852 106.578ZM353.75 106.086V106.578C353.75 107.531 353.82 108.422 353.961 109.25C354.102 110.078 354.336 110.805 354.664 111.43C354.992 112.039 355.438 112.516 356 112.859C356.562 113.203 357.266 113.375 358.109 113.375C358.938 113.375 359.625 113.203 360.172 112.859C360.734 112.516 361.18 112.039 361.508 111.43C361.836 110.805 362.07 110.078 362.211 109.25C362.352 108.422 362.422 107.531 362.422 106.578V106.086C362.422 105.164 362.352 104.297 362.211 103.484C362.07 102.656 361.836 101.93 361.508 101.305C361.18 100.664 360.734 100.164 360.172 99.8047C359.609 99.4453 358.906 99.2656 358.062 99.2656C357.234 99.2656 356.539 99.4453 355.977 99.8047C355.43 100.164 354.992 100.664 354.664 101.305C354.336 101.93 354.102 102.656 353.961 103.484C353.82 104.297 353.75 105.164 353.75 106.086ZM381.594 99.0547V119H373.695V93.6406H381.102L381.594 99.0547ZM380.656 105.453L378.805 105.5C378.805 103.562 379.039 101.836 379.508 100.32C379.977 98.7891 380.641 97.4922 381.5 96.4297C382.359 95.3672 383.383 94.5625 384.57 94.0156C385.773 93.4531 387.109 93.1719 388.578 93.1719C389.75 93.1719 390.82 93.3438 391.789 93.6875C392.773 94.0312 393.617 94.5859 394.32 95.3516C395.039 96.1172 395.586 97.1328 395.961 98.3984C396.352 99.6484 396.547 101.195 396.547 103.039V119H388.602V103.016C388.602 102 388.461 101.227 388.18 100.695C387.898 100.148 387.492 99.7734 386.961 99.5703C386.43 99.3672 385.781 99.2656 385.016 99.2656C384.203 99.2656 383.516 99.4219 382.953 99.7344C382.391 100.047 381.938 100.484 381.594 101.047C381.266 101.594 381.023 102.242 380.867 102.992C380.727 103.742 380.656 104.562 380.656 105.453Z" fill="black"/>
</svg>
