<svg width="1097" height="163" viewBox="0 0 1097 163" fill="none" xmlns="http://www.w3.org/2000/svg">
<rect width="1097" height="163" fill="#F0F0F0"/>
<path d="M64.9062 53.9219L57.3945 51.2383V48.0859L67.6016 52.375V54.6367L64.9062 53.9219ZM57.3945 56.1719L64.918 53.4297L67.6016 52.7852V55.0352L57.3945 59.3242V56.1719ZM82.543 54.918H78.1953V52.1758H82.543C83.2148 52.1758 83.7617 52.0664 84.1836 51.8477C84.6055 51.6211 84.9141 51.3086 85.1094 50.9102C85.3047 50.5117 85.4023 50.0625 85.4023 49.5625C85.4023 49.0547 85.3047 48.582 85.1094 48.1445C84.9141 47.707 84.6055 47.3555 84.1836 47.0898C83.7617 46.8242 83.2148 46.6914 82.543 46.6914H79.4141V61H75.8984V43.9375H82.543C83.8789 43.9375 85.0234 44.1797 85.9766 44.6641C86.9375 45.1406 87.6719 45.8008 88.1797 46.6445C88.6875 47.4883 88.9414 48.4531 88.9414 49.5391C88.9414 50.6406 88.6875 51.5938 88.1797 52.3984C87.6719 53.2031 86.9375 53.8242 85.9766 54.2617C85.0234 54.6992 83.8789 54.918 82.543 54.918ZM94.5312 51.0859V61H91.1562V48.3203H94.332L94.5312 51.0859ZM98.3516 48.2383L98.293 51.3672C98.1289 51.3438 97.9297 51.3242 97.6953 51.3086C97.4688 51.2852 97.2617 51.2734 97.0742 51.2734C96.5977 51.2734 96.1836 51.3359 95.832 51.4609C95.4883 51.5781 95.1992 51.7539 94.9648 51.9883C94.7383 52.2227 94.5664 52.5078 94.4492 52.8438C94.3398 53.1797 94.2773 53.5625 94.2617 53.9922L93.582 53.7812C93.582 52.9609 93.6641 52.207 93.8281 51.5195C93.9922 50.8242 94.2305 50.2188 94.543 49.7031C94.8633 49.1875 95.2539 48.7891 95.7148 48.5078C96.1758 48.2266 96.7031 48.0859 97.2969 48.0859C97.4844 48.0859 97.6758 48.1016 97.8711 48.1328C98.0664 48.1562 98.2266 48.1914 98.3516 48.2383ZM99.0547 54.7891V54.543C99.0547 53.6133 99.1875 52.7578 99.4531 51.9766C99.7188 51.1875 100.105 50.5039 100.613 49.9258C101.121 49.3477 101.746 48.8984 102.488 48.5781C103.23 48.25 104.082 48.0859 105.043 48.0859C106.004 48.0859 106.859 48.25 107.609 48.5781C108.359 48.8984 108.988 49.3477 109.496 49.9258C110.012 50.5039 110.402 51.1875 110.668 51.9766C110.934 52.7578 111.066 53.6133 111.066 54.543V54.7891C111.066 55.7109 110.934 56.5664 110.668 57.3555C110.402 58.1367 110.012 58.8203 109.496 59.4062C108.988 59.9844 108.363 60.4336 107.621 60.7539C106.879 61.0742 106.027 61.2344 105.066 61.2344C104.105 61.2344 103.25 61.0742 102.5 60.7539C101.758 60.4336 101.129 59.9844 100.613 59.4062C100.105 58.8203 99.7188 58.1367 99.4531 57.3555C99.1875 56.5664 99.0547 55.7109 99.0547 54.7891ZM102.43 54.543V54.7891C102.43 55.3203 102.477 55.8164 102.57 56.2773C102.664 56.7383 102.812 57.1445 103.016 57.4961C103.227 57.8398 103.5 58.1094 103.836 58.3047C104.172 58.5 104.582 58.5977 105.066 58.5977C105.535 58.5977 105.938 58.5 106.273 58.3047C106.609 58.1094 106.879 57.8398 107.082 57.4961C107.285 57.1445 107.434 56.7383 107.527 56.2773C107.629 55.8164 107.68 55.3203 107.68 54.7891V54.543C107.68 54.0273 107.629 53.543 107.527 53.0898C107.434 52.6289 107.281 52.2227 107.07 51.8711C106.867 51.5117 106.598 51.2305 106.262 51.0273C105.926 50.8242 105.52 50.7227 105.043 50.7227C104.566 50.7227 104.16 50.8242 103.824 51.0273C103.496 51.2305 103.227 51.5117 103.016 51.8711C102.812 52.2227 102.664 52.6289 102.57 53.0898C102.477 53.543 102.43 54.0273 102.43 54.543ZM113.328 48.3203H116.715V61.7617C116.715 62.6992 116.543 63.4922 116.199 64.1406C115.855 64.7891 115.359 65.2812 114.711 65.6172C114.062 65.9531 113.277 66.1211 112.355 66.1211C112.066 66.1211 111.785 66.1055 111.512 66.0742C111.23 66.043 110.941 65.9922 110.645 65.9219L110.656 63.332C110.844 63.3633 111.027 63.3867 111.207 63.4023C111.379 63.4258 111.555 63.4375 111.734 63.4375C112.086 63.4375 112.379 63.3789 112.613 63.2617C112.848 63.1445 113.023 62.9609 113.141 62.7109C113.266 62.4688 113.328 62.1523 113.328 61.7617V48.3203ZM113.059 45.0156C113.059 44.5234 113.23 44.1172 113.574 43.7969C113.926 43.4766 114.387 43.3164 114.957 43.3164C115.535 43.3164 115.996 43.4766 116.34 43.7969C116.684 44.1172 116.855 44.5234 116.855 45.0156C116.855 45.5078 116.684 45.9141 116.34 46.2344C115.996 46.5547 115.535 46.7148 114.957 46.7148C114.387 46.7148 113.926 46.5547 113.574 46.2344C113.23 45.9141 113.059 45.5078 113.059 45.0156ZM125.234 61.2344C124.25 61.2344 123.367 61.0781 122.586 60.7656C121.805 60.4453 121.141 60.0039 120.594 59.4414C120.055 58.8789 119.641 58.2266 119.352 57.4844C119.062 56.7344 118.918 55.9375 118.918 55.0938V54.625C118.918 53.6641 119.055 52.7852 119.328 51.9883C119.602 51.1914 119.992 50.5 120.5 49.9141C121.016 49.3281 121.641 48.8789 122.375 48.5664C123.109 48.2461 123.938 48.0859 124.859 48.0859C125.758 48.0859 126.555 48.2344 127.25 48.5312C127.945 48.8281 128.527 49.25 128.996 49.7969C129.473 50.3438 129.832 51 130.074 51.7656C130.316 52.5234 130.438 53.3672 130.438 54.2969V55.7031H120.359V53.4531H127.121V53.1953C127.121 52.7266 127.035 52.3086 126.863 51.9414C126.699 51.5664 126.449 51.2695 126.113 51.0508C125.777 50.832 125.348 50.7227 124.824 50.7227C124.379 50.7227 123.996 50.8203 123.676 51.0156C123.355 51.2109 123.094 51.4844 122.891 51.8359C122.695 52.1875 122.547 52.6016 122.445 53.0781C122.352 53.5469 122.305 54.0625 122.305 54.625V55.0938C122.305 55.6016 122.375 56.0703 122.516 56.5C122.664 56.9297 122.871 57.3008 123.137 57.6133C123.41 57.9258 123.738 58.168 124.121 58.3398C124.512 58.5117 124.953 58.5977 125.445 58.5977C126.055 58.5977 126.621 58.4805 127.145 58.2461C127.676 58.0039 128.133 57.6406 128.516 57.1562L130.156 58.9375C129.891 59.3203 129.527 59.6875 129.066 60.0391C128.613 60.3906 128.066 60.6797 127.426 60.9062C126.785 61.125 126.055 61.2344 125.234 61.2344ZM137.598 58.5977C138.012 58.5977 138.379 58.5195 138.699 58.3633C139.02 58.1992 139.27 57.9727 139.449 57.6836C139.637 57.3867 139.734 57.0391 139.742 56.6406H142.918C142.91 57.5312 142.672 58.3242 142.203 59.0195C141.734 59.707 141.105 60.25 140.316 60.6484C139.527 61.0391 138.645 61.2344 137.668 61.2344C136.684 61.2344 135.824 61.0703 135.09 60.7422C134.363 60.4141 133.758 59.9609 133.273 59.3828C132.789 58.7969 132.426 58.1172 132.184 57.3438C131.941 56.5625 131.82 55.7266 131.82 54.8359V54.4961C131.82 53.5977 131.941 52.7617 132.184 51.9883C132.426 51.207 132.789 50.5273 133.273 49.9492C133.758 49.3633 134.363 48.9062 135.09 48.5781C135.816 48.25 136.668 48.0859 137.645 48.0859C138.684 48.0859 139.594 48.2852 140.375 48.6836C141.164 49.082 141.781 49.6523 142.227 50.3945C142.68 51.1289 142.91 52 142.918 53.0078H139.742C139.734 52.5859 139.645 52.2031 139.473 51.8594C139.309 51.5156 139.066 51.2422 138.746 51.0391C138.434 50.8281 138.047 50.7227 137.586 50.7227C137.094 50.7227 136.691 50.8281 136.379 51.0391C136.066 51.2422 135.824 51.5234 135.652 51.8828C135.48 52.2344 135.359 52.6367 135.289 53.0898C135.227 53.5352 135.195 54.0039 135.195 54.4961V54.8359C135.195 55.3281 135.227 55.8008 135.289 56.2539C135.352 56.707 135.469 57.1094 135.641 57.4609C135.82 57.8125 136.066 58.0898 136.379 58.293C136.691 58.4961 137.098 58.5977 137.598 58.5977ZM151.086 48.3203V50.7109H143.703V48.3203H151.086ZM145.531 45.1914H148.906V57.1797C148.906 57.5469 148.953 57.8281 149.047 58.0234C149.148 58.2188 149.297 58.3555 149.492 58.4336C149.688 58.5039 149.934 58.5391 150.23 58.5391C150.441 58.5391 150.629 58.5312 150.793 58.5156C150.965 58.4922 151.109 58.4688 151.227 58.4453L151.238 60.9297C150.949 61.0234 150.637 61.0977 150.301 61.1523C149.965 61.207 149.594 61.2344 149.188 61.2344C148.445 61.2344 147.797 61.1133 147.242 60.8711C146.695 60.6211 146.273 60.2227 145.977 59.6758C145.68 59.1289 145.531 58.4102 145.531 57.5195V45.1914ZM166.191 43.9375V61H162.688V43.9375H166.191ZM171.441 43.9375V46.6914H157.52V43.9375H171.441ZM176.797 48.3203V61H173.41V48.3203H176.797ZM173.199 45.0156C173.199 44.5234 173.371 44.1172 173.715 43.7969C174.059 43.4766 174.52 43.3164 175.098 43.3164C175.668 43.3164 176.125 43.4766 176.469 43.7969C176.82 44.1172 176.996 44.5234 176.996 45.0156C176.996 45.5078 176.82 45.9141 176.469 46.2344C176.125 46.5547 175.668 46.7148 175.098 46.7148C174.52 46.7148 174.059 46.5547 173.715 46.2344C173.371 45.9141 173.199 45.5078 173.199 45.0156ZM185.797 48.3203V50.7109H178.414V48.3203H185.797ZM180.242 45.1914H183.617V57.1797C183.617 57.5469 183.664 57.8281 183.758 58.0234C183.859 58.2188 184.008 58.3555 184.203 58.4336C184.398 58.5039 184.645 58.5391 184.941 58.5391C185.152 58.5391 185.34 58.5312 185.504 58.5156C185.676 58.4922 185.82 58.4688 185.938 58.4453L185.949 60.9297C185.66 61.0234 185.348 61.0977 185.012 61.1523C184.676 61.207 184.305 61.2344 183.898 61.2344C183.156 61.2344 182.508 61.1133 181.953 60.8711C181.406 60.6211 180.984 60.2227 180.688 59.6758C180.391 59.1289 180.242 58.4102 180.242 57.5195V45.1914ZM191.281 43V61H187.895V43H191.281ZM199.906 61.2344C198.922 61.2344 198.039 61.0781 197.258 60.7656C196.477 60.4453 195.812 60.0039 195.266 59.4414C194.727 58.8789 194.312 58.2266 194.023 57.4844C193.734 56.7344 193.59 55.9375 193.59 55.0938V54.625C193.59 53.6641 193.727 52.7852 194 51.9883C194.273 51.1914 194.664 50.5 195.172 49.9141C195.688 49.3281 196.312 48.8789 197.047 48.5664C197.781 48.2461 198.609 48.0859 199.531 48.0859C200.43 48.0859 201.227 48.2344 201.922 48.5312C202.617 48.8281 203.199 49.25 203.668 49.7969C204.145 50.3438 204.504 51 204.746 51.7656C204.988 52.5234 205.109 53.3672 205.109 54.2969V55.7031H195.031V53.4531H201.793V53.1953C201.793 52.7266 201.707 52.3086 201.535 51.9414C201.371 51.5664 201.121 51.2695 200.785 51.0508C200.449 50.832 200.02 50.7227 199.496 50.7227C199.051 50.7227 198.668 50.8203 198.348 51.0156C198.027 51.2109 197.766 51.4844 197.562 51.8359C197.367 52.1875 197.219 52.6016 197.117 53.0781C197.023 53.5469 196.977 54.0625 196.977 54.625V55.0938C196.977 55.6016 197.047 56.0703 197.188 56.5C197.336 56.9297 197.543 57.3008 197.809 57.6133C198.082 57.9258 198.41 58.168 198.793 58.3398C199.184 58.5117 199.625 58.5977 200.117 58.5977C200.727 58.5977 201.293 58.4805 201.816 58.2461C202.348 58.0039 202.805 57.6406 203.188 57.1562L204.828 58.9375C204.562 59.3203 204.199 59.6875 203.738 60.0391C203.285 60.3906 202.738 60.6797 202.098 60.9062C201.457 61.125 200.727 61.2344 199.906 61.2344Z" fill="#888888"/>
<path d="M81.5938 98.4219V104.75H64.0859V98.4219H81.5938ZM66.8281 84.875V119H58.6016V84.875H66.8281ZM87.125 84.875V119H78.9219V84.875H87.125ZM90.9922 106.578V106.086C90.9922 104.227 91.2578 102.516 91.7891 100.953C92.3203 99.375 93.1016 98.0078 94.1328 96.8516C95.1641 95.6953 96.4375 94.7969 97.9531 94.1562C99.4688 93.5 101.219 93.1719 103.203 93.1719C105.203 93.1719 106.961 93.5 108.477 94.1562C110.008 94.7969 111.289 95.6953 112.32 96.8516C113.352 98.0078 114.133 99.375 114.664 100.953C115.195 102.516 115.461 104.227 115.461 106.086V106.578C115.461 108.422 115.195 110.133 114.664 111.711C114.133 113.273 113.352 114.641 112.32 115.812C111.289 116.969 110.016 117.867 108.5 118.508C106.984 119.148 105.234 119.469 103.25 119.469C101.266 119.469 99.5078 119.148 97.9766 118.508C96.4453 117.867 95.1641 116.969 94.1328 115.812C93.1016 114.641 92.3203 113.273 91.7891 111.711C91.2578 110.133 90.9922 108.422 90.9922 106.578ZM98.8906 106.086V106.578C98.8906 107.531 98.9609 108.422 99.1016 109.25C99.2422 110.078 99.4766 110.805 99.8047 111.43C100.133 112.039 100.578 112.516 101.141 112.859C101.703 113.203 102.406 113.375 103.25 113.375C104.078 113.375 104.766 113.203 105.312 112.859C105.875 112.516 106.32 112.039 106.648 111.43C106.977 110.805 107.211 110.078 107.352 109.25C107.492 108.422 107.562 107.531 107.562 106.578V106.086C107.562 105.164 107.492 104.297 107.352 103.484C107.211 102.656 106.977 101.93 106.648 101.305C106.32 100.664 105.875 100.164 105.312 99.8047C104.75 99.4453 104.047 99.2656 103.203 99.2656C102.375 99.2656 101.68 99.4453 101.117 99.8047C100.57 100.164 100.133 100.664 99.8047 101.305C99.4766 101.93 99.2422 102.656 99.1016 103.484C98.9609 104.297 98.8906 105.164 98.8906 106.086ZM126.688 111.453L131.375 93.6406H136.32L134.562 102.57L129.922 119H125.961L126.688 111.453ZM124.836 93.6406L127.742 111.312L128.07 119H123.266L117.266 93.6406H124.836ZM140.492 110.938L143.422 93.6406H150.992L145.039 119H140.234L140.492 110.938ZM136.883 93.6406L141.617 111.406L142.344 119H138.336L133.789 102.617L132.102 93.6406H136.883ZM181.297 84.875V119H173.07V84.875H181.297ZM191.562 84.875V91.2266H163.039V84.875H191.562ZM188.773 106.578V106.086C188.773 104.227 189.039 102.516 189.57 100.953C190.102 99.375 190.883 98.0078 191.914 96.8516C192.945 95.6953 194.219 94.7969 195.734 94.1562C197.25 93.5 199 93.1719 200.984 93.1719C202.984 93.1719 204.742 93.5 206.258 94.1562C207.789 94.7969 209.07 95.6953 210.102 96.8516C211.133 98.0078 211.914 99.375 212.445 100.953C212.977 102.516 213.242 104.227 213.242 106.086V106.578C213.242 108.422 212.977 110.133 212.445 111.711C211.914 113.273 211.133 114.641 210.102 115.812C209.07 116.969 207.797 117.867 206.281 118.508C204.766 119.148 203.016 119.469 201.031 119.469C199.047 119.469 197.289 119.148 195.758 118.508C194.227 117.867 192.945 116.969 191.914 115.812C190.883 114.641 190.102 113.273 189.57 111.711C189.039 110.133 188.773 108.422 188.773 106.578ZM196.672 106.086V106.578C196.672 107.531 196.742 108.422 196.883 109.25C197.023 110.078 197.258 110.805 197.586 111.43C197.914 112.039 198.359 112.516 198.922 112.859C199.484 113.203 200.188 113.375 201.031 113.375C201.859 113.375 202.547 113.203 203.094 112.859C203.656 112.516 204.102 112.039 204.43 111.43C204.758 110.805 204.992 110.078 205.133 109.25C205.273 108.422 205.344 107.531 205.344 106.578V106.086C205.344 105.164 205.273 104.297 205.133 103.484C204.992 102.656 204.758 101.93 204.43 101.305C204.102 100.664 203.656 100.164 203.094 99.8047C202.531 99.4453 201.828 99.2656 200.984 99.2656C200.156 99.2656 199.461 99.4453 198.898 99.8047C198.352 100.164 197.914 100.664 197.586 101.305C197.258 101.93 197.023 102.656 196.883 103.484C196.742 104.297 196.672 105.164 196.672 106.086ZM229.086 84.875H242.516C245.141 84.875 247.422 85.2656 249.359 86.0469C251.297 86.8281 252.789 87.9844 253.836 89.5156C254.898 91.0469 255.43 92.9375 255.43 95.1875C255.43 97.1406 255.125 98.7734 254.516 100.086C253.906 101.398 253.055 102.484 251.961 103.344C250.883 104.188 249.625 104.883 248.188 105.43L245.492 106.953H234.219L234.172 100.602H242.516C243.562 100.602 244.43 100.414 245.117 100.039C245.805 99.6641 246.32 99.1328 246.664 98.4453C247.023 97.7422 247.203 96.9062 247.203 95.9375C247.203 94.9531 247.023 94.1094 246.664 93.4062C246.305 92.7031 245.773 92.1641 245.07 91.7891C244.383 91.4141 243.531 91.2266 242.516 91.2266H237.312V119H229.086V84.875ZM247.766 119L240.219 103.906L248.938 103.859L256.578 118.648V119H247.766ZM274.836 112.836V93.6406H282.758V119H275.352L274.836 112.836ZM275.586 107.68L277.648 107.633C277.648 109.336 277.445 110.914 277.039 112.367C276.633 113.805 276.031 115.055 275.234 116.117C274.453 117.18 273.484 118.008 272.328 118.602C271.188 119.18 269.867 119.469 268.367 119.469C267.117 119.469 265.969 119.297 264.922 118.953C263.891 118.594 263 118.039 262.25 117.289C261.5 116.523 260.914 115.547 260.492 114.359C260.086 113.156 259.883 111.719 259.883 110.047V93.6406H267.781V110.094C267.781 110.656 267.852 111.141 267.992 111.547C268.133 111.953 268.336 112.297 268.602 112.578C268.867 112.844 269.195 113.047 269.586 113.188C269.992 113.312 270.453 113.375 270.969 113.375C272.156 113.375 273.086 113.125 273.758 112.625C274.43 112.125 274.898 111.445 275.164 110.586C275.445 109.727 275.586 108.758 275.586 107.68ZM294.875 99.0547V119H286.977V93.6406H294.383L294.875 99.0547ZM293.938 105.453L292.086 105.5C292.086 103.562 292.32 101.836 292.789 100.32C293.258 98.7891 293.922 97.4922 294.781 96.4297C295.641 95.3672 296.664 94.5625 297.852 94.0156C299.055 93.4531 300.391 93.1719 301.859 93.1719C303.031 93.1719 304.102 93.3438 305.07 93.6875C306.055 94.0312 306.898 94.5859 307.602 95.3516C308.32 96.1172 308.867 97.1328 309.242 98.3984C309.633 99.6484 309.828 101.195 309.828 103.039V119H301.883V103.016C301.883 102 301.742 101.227 301.461 100.695C301.18 100.148 300.773 99.7734 300.242 99.5703C299.711 99.3672 299.062 99.2656 298.297 99.2656C297.484 99.2656 296.797 99.4219 296.234 99.7344C295.672 100.047 295.219 100.484 294.875 101.047C294.547 101.594 294.305 102.242 294.148 102.992C294.008 103.742 293.938 104.562 293.938 105.453ZM326.773 108.195H320.047C320.047 106.82 320.141 105.609 320.328 104.562C320.531 103.5 320.875 102.547 321.359 101.703C321.844 100.859 322.5 100.078 323.328 99.3594C324.062 98.75 324.695 98.1641 325.227 97.6016C325.758 97.0391 326.164 96.4688 326.445 95.8906C326.727 95.3125 326.867 94.6953 326.867 94.0391C326.867 93.2266 326.75 92.5625 326.516 92.0469C326.297 91.5312 325.961 91.1484 325.508 90.8984C325.07 90.6328 324.516 90.5 323.844 90.5C323.297 90.5 322.781 90.6328 322.297 90.8984C321.828 91.1641 321.445 91.5781 321.148 92.1406C320.852 92.6875 320.688 93.4141 320.656 94.3203H312.711C312.758 91.9922 313.273 90.1016 314.258 88.6484C315.258 87.1797 316.586 86.1094 318.242 85.4375C319.914 84.75 321.781 84.4062 323.844 84.4062C326.125 84.4062 328.086 84.7578 329.727 85.4609C331.367 86.1641 332.625 87.2109 333.5 88.6016C334.375 89.9766 334.812 91.6719 334.812 93.6875C334.812 95.0312 334.555 96.2031 334.039 97.2031C333.539 98.1875 332.859 99.1094 332 99.9688C331.156 100.812 330.211 101.719 329.164 102.688C328.258 103.484 327.641 104.297 327.312 105.125C326.984 105.938 326.805 106.961 326.773 108.195ZM319.086 115.32C319.086 114.195 319.492 113.258 320.305 112.508C321.117 111.742 322.172 111.359 323.469 111.359C324.766 111.359 325.82 111.742 326.633 112.508C327.445 113.258 327.852 114.195 327.852 115.32C327.852 116.445 327.445 117.391 326.633 118.156C325.82 118.906 324.766 119.281 323.469 119.281C322.172 119.281 321.117 118.906 320.305 118.156C319.492 117.391 319.086 116.445 319.086 115.32Z" fill="black"/>
</svg>
