<svg width="229" height="163" viewBox="0 0 229 163" fill="none" xmlns="http://www.w3.org/2000/svg">
<path d="M0 0H214C222.284 0 229 6.71573 229 15V148C229 156.284 222.284 163 214 163H0V0Z" fill="#3D2365"/>
<path d="M114.5 111.917C110.506 111.917 106.55 111.13 102.86 109.601C99.1697 108.073 95.8166 105.832 92.9921 103.008C87.2879 97.3036 84.0833 89.567 84.0833 81.5C84.0833 73.433 87.2879 65.6964 92.9921 59.9922C98.6964 54.2879 106.433 51.0833 114.5 51.0833C131.229 51.0833 144.917 63.25 144.917 78.4583C144.917 83.2985 142.994 87.9405 139.571 91.363C136.149 94.7856 131.507 96.7083 126.667 96.7083H121.192C120.279 96.7083 119.671 97.3167 119.671 98.2292C119.671 98.5333 119.975 98.8375 119.975 99.1417C121.192 100.662 121.8 102.487 121.8 104.312C122.104 108.571 118.758 111.917 114.5 111.917ZM114.5 57.1667C108.046 57.1667 101.857 59.7303 97.2937 64.2937C92.7303 68.8571 90.1666 75.0464 90.1666 81.5C90.1666 87.9536 92.7303 94.1429 97.2937 98.7063C101.857 103.27 108.046 105.833 114.5 105.833C115.412 105.833 116.021 105.225 116.021 104.312C116.021 103.704 115.717 103.4 115.717 103.096C114.5 101.575 113.892 100.054 113.892 98.2292C113.892 93.9708 117.237 90.625 121.496 90.625H126.667C129.893 90.625 132.988 89.3432 135.27 87.0615C137.551 84.7798 138.833 81.6851 138.833 78.4583C138.833 66.5958 127.883 57.1667 114.5 57.1667ZM97.7708 75.4167C100.204 75.4167 102.333 77.5458 102.333 79.9792C102.333 82.4125 100.204 84.5417 97.7708 84.5417C95.3375 84.5417 93.2083 82.4125 93.2083 79.9792C93.2083 77.5458 95.3375 75.4167 97.7708 75.4167ZM106.896 63.25C109.329 63.25 111.458 65.3792 111.458 67.8125C111.458 70.2458 109.329 72.375 106.896 72.375C104.462 72.375 102.333 70.2458 102.333 67.8125C102.333 65.3792 104.462 63.25 106.896 63.25ZM122.104 63.25C124.537 63.25 126.667 65.3792 126.667 67.8125C126.667 70.2458 124.537 72.375 122.104 72.375C119.671 72.375 117.542 70.2458 117.542 67.8125C117.542 65.3792 119.671 63.25 122.104 63.25ZM131.229 75.4167C133.662 75.4167 135.792 77.5458 135.792 79.9792C135.792 82.4125 133.662 84.5417 131.229 84.5417C128.796 84.5417 126.667 82.4125 126.667 79.9792C126.667 77.5458 128.796 75.4167 131.229 75.4167Z" fill="white"/>
</svg>
