<svg width="1363" height="186" viewBox="0 0 1363 186" fill="none" xmlns="http://www.w3.org/2000/svg">
<path d="M0 15C0 6.71573 6.71573 0 15 0H37V186H15C6.71573 186 0 179.284 0 171V15Z" fill="#424242"/>
<rect width="1097" height="186" transform="translate(37)" fill="#F0F0F0"/>
<path d="M101.906 65.4219L94.3945 62.7383V59.5859L104.602 63.875V66.1367L101.906 65.4219ZM94.3945 67.6719L101.918 64.9297L104.602 64.2852V66.5352L94.3945 70.8242V67.6719ZM119.543 66.418H115.195V63.6758H119.543C120.215 63.6758 120.762 63.5664 121.184 63.3477C121.605 63.1211 121.914 62.8086 122.109 62.4102C122.305 62.0117 122.402 61.5625 122.402 61.0625C122.402 60.5547 122.305 60.082 122.109 59.6445C121.914 59.207 121.605 58.8555 121.184 58.5898C120.762 58.3242 120.215 58.1914 119.543 58.1914H116.414V72.5H112.898V55.4375H119.543C120.879 55.4375 122.023 55.6797 122.977 56.1641C123.938 56.6406 124.672 57.3008 125.18 58.1445C125.688 58.9883 125.941 59.9531 125.941 61.0391C125.941 62.1406 125.688 63.0938 125.18 63.8984C124.672 64.7031 123.938 65.3242 122.977 65.7617C122.023 66.1992 120.879 66.418 119.543 66.418ZM131.531 62.5859V72.5H128.156V59.8203H131.332L131.531 62.5859ZM135.352 59.7383L135.293 62.8672C135.129 62.8438 134.93 62.8242 134.695 62.8086C134.469 62.7852 134.262 62.7734 134.074 62.7734C133.598 62.7734 133.184 62.8359 132.832 62.9609C132.488 63.0781 132.199 63.2539 131.965 63.4883C131.738 63.7227 131.566 64.0078 131.449 64.3438C131.34 64.6797 131.277 65.0625 131.262 65.4922L130.582 65.2812C130.582 64.4609 130.664 63.707 130.828 63.0195C130.992 62.3242 131.23 61.7188 131.543 61.2031C131.863 60.6875 132.254 60.2891 132.715 60.0078C133.176 59.7266 133.703 59.5859 134.297 59.5859C134.484 59.5859 134.676 59.6016 134.871 59.6328C135.066 59.6562 135.227 59.6914 135.352 59.7383ZM136.055 66.2891V66.043C136.055 65.1133 136.188 64.2578 136.453 63.4766C136.719 62.6875 137.105 62.0039 137.613 61.4258C138.121 60.8477 138.746 60.3984 139.488 60.0781C140.23 59.75 141.082 59.5859 142.043 59.5859C143.004 59.5859 143.859 59.75 144.609 60.0781C145.359 60.3984 145.988 60.8477 146.496 61.4258C147.012 62.0039 147.402 62.6875 147.668 63.4766C147.934 64.2578 148.066 65.1133 148.066 66.043V66.2891C148.066 67.2109 147.934 68.0664 147.668 68.8555C147.402 69.6367 147.012 70.3203 146.496 70.9062C145.988 71.4844 145.363 71.9336 144.621 72.2539C143.879 72.5742 143.027 72.7344 142.066 72.7344C141.105 72.7344 140.25 72.5742 139.5 72.2539C138.758 71.9336 138.129 71.4844 137.613 70.9062C137.105 70.3203 136.719 69.6367 136.453 68.8555C136.188 68.0664 136.055 67.2109 136.055 66.2891ZM139.43 66.043V66.2891C139.43 66.8203 139.477 67.3164 139.57 67.7773C139.664 68.2383 139.812 68.6445 140.016 68.9961C140.227 69.3398 140.5 69.6094 140.836 69.8047C141.172 70 141.582 70.0977 142.066 70.0977C142.535 70.0977 142.938 70 143.273 69.8047C143.609 69.6094 143.879 69.3398 144.082 68.9961C144.285 68.6445 144.434 68.2383 144.527 67.7773C144.629 67.3164 144.68 66.8203 144.68 66.2891V66.043C144.68 65.5273 144.629 65.043 144.527 64.5898C144.434 64.1289 144.281 63.7227 144.07 63.3711C143.867 63.0117 143.598 62.7305 143.262 62.5273C142.926 62.3242 142.52 62.2227 142.043 62.2227C141.566 62.2227 141.16 62.3242 140.824 62.5273C140.496 62.7305 140.227 63.0117 140.016 63.3711C139.812 63.7227 139.664 64.1289 139.57 64.5898C139.477 65.043 139.43 65.5273 139.43 66.043ZM150.328 59.8203H153.715V73.2617C153.715 74.1992 153.543 74.9922 153.199 75.6406C152.855 76.2891 152.359 76.7812 151.711 77.1172C151.062 77.4531 150.277 77.6211 149.355 77.6211C149.066 77.6211 148.785 77.6055 148.512 77.5742C148.23 77.543 147.941 77.4922 147.645 77.4219L147.656 74.832C147.844 74.8633 148.027 74.8867 148.207 74.9023C148.379 74.9258 148.555 74.9375 148.734 74.9375C149.086 74.9375 149.379 74.8789 149.613 74.7617C149.848 74.6445 150.023 74.4609 150.141 74.2109C150.266 73.9688 150.328 73.6523 150.328 73.2617V59.8203ZM150.059 56.5156C150.059 56.0234 150.23 55.6172 150.574 55.2969C150.926 54.9766 151.387 54.8164 151.957 54.8164C152.535 54.8164 152.996 54.9766 153.34 55.2969C153.684 55.6172 153.855 56.0234 153.855 56.5156C153.855 57.0078 153.684 57.4141 153.34 57.7344C152.996 58.0547 152.535 58.2148 151.957 58.2148C151.387 58.2148 150.926 58.0547 150.574 57.7344C150.23 57.4141 150.059 57.0078 150.059 56.5156ZM162.234 72.7344C161.25 72.7344 160.367 72.5781 159.586 72.2656C158.805 71.9453 158.141 71.5039 157.594 70.9414C157.055 70.3789 156.641 69.7266 156.352 68.9844C156.062 68.2344 155.918 67.4375 155.918 66.5938V66.125C155.918 65.1641 156.055 64.2852 156.328 63.4883C156.602 62.6914 156.992 62 157.5 61.4141C158.016 60.8281 158.641 60.3789 159.375 60.0664C160.109 59.7461 160.938 59.5859 161.859 59.5859C162.758 59.5859 163.555 59.7344 164.25 60.0312C164.945 60.3281 165.527 60.75 165.996 61.2969C166.473 61.8438 166.832 62.5 167.074 63.2656C167.316 64.0234 167.438 64.8672 167.438 65.7969V67.2031H157.359V64.9531H164.121V64.6953C164.121 64.2266 164.035 63.8086 163.863 63.4414C163.699 63.0664 163.449 62.7695 163.113 62.5508C162.777 62.332 162.348 62.2227 161.824 62.2227C161.379 62.2227 160.996 62.3203 160.676 62.5156C160.355 62.7109 160.094 62.9844 159.891 63.3359C159.695 63.6875 159.547 64.1016 159.445 64.5781C159.352 65.0469 159.305 65.5625 159.305 66.125V66.5938C159.305 67.1016 159.375 67.5703 159.516 68C159.664 68.4297 159.871 68.8008 160.137 69.1133C160.41 69.4258 160.738 69.668 161.121 69.8398C161.512 70.0117 161.953 70.0977 162.445 70.0977C163.055 70.0977 163.621 69.9805 164.145 69.7461C164.676 69.5039 165.133 69.1406 165.516 68.6562L167.156 70.4375C166.891 70.8203 166.527 71.1875 166.066 71.5391C165.613 71.8906 165.066 72.1797 164.426 72.4062C163.785 72.625 163.055 72.7344 162.234 72.7344ZM174.598 70.0977C175.012 70.0977 175.379 70.0195 175.699 69.8633C176.02 69.6992 176.27 69.4727 176.449 69.1836C176.637 68.8867 176.734 68.5391 176.742 68.1406H179.918C179.91 69.0312 179.672 69.8242 179.203 70.5195C178.734 71.207 178.105 71.75 177.316 72.1484C176.527 72.5391 175.645 72.7344 174.668 72.7344C173.684 72.7344 172.824 72.5703 172.09 72.2422C171.363 71.9141 170.758 71.4609 170.273 70.8828C169.789 70.2969 169.426 69.6172 169.184 68.8438C168.941 68.0625 168.82 67.2266 168.82 66.3359V65.9961C168.82 65.0977 168.941 64.2617 169.184 63.4883C169.426 62.707 169.789 62.0273 170.273 61.4492C170.758 60.8633 171.363 60.4062 172.09 60.0781C172.816 59.75 173.668 59.5859 174.645 59.5859C175.684 59.5859 176.594 59.7852 177.375 60.1836C178.164 60.582 178.781 61.1523 179.227 61.8945C179.68 62.6289 179.91 63.5 179.918 64.5078H176.742C176.734 64.0859 176.645 63.7031 176.473 63.3594C176.309 63.0156 176.066 62.7422 175.746 62.5391C175.434 62.3281 175.047 62.2227 174.586 62.2227C174.094 62.2227 173.691 62.3281 173.379 62.5391C173.066 62.7422 172.824 63.0234 172.652 63.3828C172.48 63.7344 172.359 64.1367 172.289 64.5898C172.227 65.0352 172.195 65.5039 172.195 65.9961V66.3359C172.195 66.8281 172.227 67.3008 172.289 67.7539C172.352 68.207 172.469 68.6094 172.641 68.9609C172.82 69.3125 173.066 69.5898 173.379 69.793C173.691 69.9961 174.098 70.0977 174.598 70.0977ZM188.086 59.8203V62.2109H180.703V59.8203H188.086ZM182.531 56.6914H185.906V68.6797C185.906 69.0469 185.953 69.3281 186.047 69.5234C186.148 69.7188 186.297 69.8555 186.492 69.9336C186.688 70.0039 186.934 70.0391 187.23 70.0391C187.441 70.0391 187.629 70.0312 187.793 70.0156C187.965 69.9922 188.109 69.9688 188.227 69.9453L188.238 72.4297C187.949 72.5234 187.637 72.5977 187.301 72.6523C186.965 72.707 186.594 72.7344 186.188 72.7344C185.445 72.7344 184.797 72.6133 184.242 72.3711C183.695 72.1211 183.273 71.7227 182.977 71.1758C182.68 70.6289 182.531 69.9102 182.531 69.0195V56.6914ZM203.191 55.4375V72.5H199.688V55.4375H203.191ZM208.441 55.4375V58.1914H194.52V55.4375H208.441ZM213.797 59.8203V72.5H210.41V59.8203H213.797ZM210.199 56.5156C210.199 56.0234 210.371 55.6172 210.715 55.2969C211.059 54.9766 211.52 54.8164 212.098 54.8164C212.668 54.8164 213.125 54.9766 213.469 55.2969C213.82 55.6172 213.996 56.0234 213.996 56.5156C213.996 57.0078 213.82 57.4141 213.469 57.7344C213.125 58.0547 212.668 58.2148 212.098 58.2148C211.52 58.2148 211.059 58.0547 210.715 57.7344C210.371 57.4141 210.199 57.0078 210.199 56.5156ZM222.797 59.8203V62.2109H215.414V59.8203H222.797ZM217.242 56.6914H220.617V68.6797C220.617 69.0469 220.664 69.3281 220.758 69.5234C220.859 69.7188 221.008 69.8555 221.203 69.9336C221.398 70.0039 221.645 70.0391 221.941 70.0391C222.152 70.0391 222.34 70.0312 222.504 70.0156C222.676 69.9922 222.82 69.9688 222.938 69.9453L222.949 72.4297C222.66 72.5234 222.348 72.5977 222.012 72.6523C221.676 72.707 221.305 72.7344 220.898 72.7344C220.156 72.7344 219.508 72.6133 218.953 72.3711C218.406 72.1211 217.984 71.7227 217.688 71.1758C217.391 70.6289 217.242 69.9102 217.242 69.0195V56.6914ZM228.281 54.5V72.5H224.895V54.5H228.281ZM236.906 72.7344C235.922 72.7344 235.039 72.5781 234.258 72.2656C233.477 71.9453 232.812 71.5039 232.266 70.9414C231.727 70.3789 231.312 69.7266 231.023 68.9844C230.734 68.2344 230.59 67.4375 230.59 66.5938V66.125C230.59 65.1641 230.727 64.2852 231 63.4883C231.273 62.6914 231.664 62 232.172 61.4141C232.688 60.8281 233.312 60.3789 234.047 60.0664C234.781 59.7461 235.609 59.5859 236.531 59.5859C237.43 59.5859 238.227 59.7344 238.922 60.0312C239.617 60.3281 240.199 60.75 240.668 61.2969C241.145 61.8438 241.504 62.5 241.746 63.2656C241.988 64.0234 242.109 64.8672 242.109 65.7969V67.2031H232.031V64.9531H238.793V64.6953C238.793 64.2266 238.707 63.8086 238.535 63.4414C238.371 63.0664 238.121 62.7695 237.785 62.5508C237.449 62.332 237.02 62.2227 236.496 62.2227C236.051 62.2227 235.668 62.3203 235.348 62.5156C235.027 62.7109 234.766 62.9844 234.562 63.3359C234.367 63.6875 234.219 64.1016 234.117 64.5781C234.023 65.0469 233.977 65.5625 233.977 66.125V66.5938C233.977 67.1016 234.047 67.5703 234.188 68C234.336 68.4297 234.543 68.8008 234.809 69.1133C235.082 69.4258 235.41 69.668 235.793 69.8398C236.184 70.0117 236.625 70.0977 237.117 70.0977C237.727 70.0977 238.293 69.9805 238.816 69.7461C239.348 69.5039 239.805 69.1406 240.188 68.6562L241.828 70.4375C241.562 70.8203 241.199 71.1875 240.738 71.5391C240.285 71.8906 239.738 72.1797 239.098 72.4062C238.457 72.625 237.727 72.7344 236.906 72.7344Z" fill="#888888"/>
<path d="M109.219 118.922H100.734V112.57H109.219C110.375 112.57 111.312 112.375 112.031 111.984C112.75 111.594 113.273 111.055 113.602 110.367C113.945 109.664 114.117 108.875 114.117 108C114.117 107.062 113.945 106.195 113.602 105.398C113.273 104.602 112.75 103.961 112.031 103.477C111.312 102.977 110.375 102.727 109.219 102.727H103.828V130.5H95.6016V96.375H109.219C111.953 96.375 114.305 96.875 116.273 97.875C118.258 98.875 119.781 100.25 120.844 102C121.906 103.734 122.438 105.719 122.438 107.953C122.438 110.156 121.906 112.078 120.844 113.719C119.781 115.359 118.258 116.641 116.273 117.562C114.305 118.469 111.953 118.922 109.219 118.922ZM134.461 111.422V130.5H126.562V105.141H133.945L134.461 111.422ZM141.961 104.953L141.82 112.289C141.508 112.258 141.086 112.219 140.555 112.172C140.023 112.125 139.578 112.102 139.219 112.102C138.297 112.102 137.5 112.211 136.828 112.43C136.172 112.633 135.625 112.945 135.188 113.367C134.766 113.773 134.453 114.289 134.25 114.914C134.062 115.539 133.977 116.266 133.992 117.094L132.562 116.156C132.562 114.453 132.727 112.906 133.055 111.516C133.398 110.109 133.883 108.898 134.508 107.883C135.133 106.852 135.891 106.062 136.781 105.516C137.672 104.953 138.672 104.672 139.781 104.672C140.172 104.672 140.555 104.695 140.93 104.742C141.32 104.789 141.664 104.859 141.961 104.953ZM142.852 118.078V117.586C142.852 115.727 143.117 114.016 143.648 112.453C144.18 110.875 144.961 109.508 145.992 108.352C147.023 107.195 148.297 106.297 149.812 105.656C151.328 105 153.078 104.672 155.062 104.672C157.062 104.672 158.82 105 160.336 105.656C161.867 106.297 163.148 107.195 164.18 108.352C165.211 109.508 165.992 110.875 166.523 112.453C167.055 114.016 167.32 115.727 167.32 117.586V118.078C167.32 119.922 167.055 121.633 166.523 123.211C165.992 124.773 165.211 126.141 164.18 127.312C163.148 128.469 161.875 129.367 160.359 130.008C158.844 130.648 157.094 130.969 155.109 130.969C153.125 130.969 151.367 130.648 149.836 130.008C148.305 129.367 147.023 128.469 145.992 127.312C144.961 126.141 144.18 124.773 143.648 123.211C143.117 121.633 142.852 119.922 142.852 118.078ZM150.75 117.586V118.078C150.75 119.031 150.82 119.922 150.961 120.75C151.102 121.578 151.336 122.305 151.664 122.93C151.992 123.539 152.438 124.016 153 124.359C153.562 124.703 154.266 124.875 155.109 124.875C155.938 124.875 156.625 124.703 157.172 124.359C157.734 124.016 158.18 123.539 158.508 122.93C158.836 122.305 159.07 121.578 159.211 120.75C159.352 119.922 159.422 119.031 159.422 118.078V117.586C159.422 116.664 159.352 115.797 159.211 114.984C159.07 114.156 158.836 113.43 158.508 112.805C158.18 112.164 157.734 111.664 157.172 111.305C156.609 110.945 155.906 110.766 155.062 110.766C154.234 110.766 153.539 110.945 152.977 111.305C152.43 111.664 151.992 112.164 151.664 112.805C151.336 113.43 151.102 114.156 150.961 114.984C150.82 115.797 150.75 116.664 150.75 117.586ZM171.422 105.141H179.344V131.32C179.344 133.352 178.953 135.062 178.172 136.453C177.391 137.859 176.273 138.922 174.82 139.641C173.367 140.375 171.633 140.742 169.617 140.742C168.945 140.742 168.328 140.711 167.766 140.648C167.188 140.602 166.555 140.5 165.867 140.344V134.367C166.273 134.43 166.648 134.477 166.992 134.508C167.336 134.555 167.711 134.578 168.117 134.578C168.836 134.578 169.438 134.461 169.922 134.227C170.406 133.992 170.773 133.633 171.023 133.148C171.289 132.664 171.422 132.055 171.422 131.32V105.141ZM170.836 98.6016C170.836 97.4766 171.242 96.5547 172.055 95.8359C172.867 95.1172 173.922 94.7578 175.219 94.7578C176.516 94.7578 177.57 95.1172 178.383 95.8359C179.195 96.5547 179.602 97.4766 179.602 98.6016C179.602 99.7266 179.195 100.648 178.383 101.367C177.57 102.086 176.516 102.445 175.219 102.445C173.922 102.445 172.867 102.086 172.055 101.367C171.242 100.648 170.836 99.7266 170.836 98.6016ZM196.102 130.969C194.039 130.969 192.195 130.648 190.57 130.008C188.945 129.352 187.57 128.453 186.445 127.312C185.336 126.172 184.484 124.859 183.891 123.375C183.312 121.891 183.023 120.32 183.023 118.664V117.773C183.023 115.914 183.281 114.195 183.797 112.617C184.312 111.023 185.078 109.633 186.094 108.445C187.109 107.258 188.383 106.336 189.914 105.68C191.445 105.008 193.227 104.672 195.258 104.672C197.055 104.672 198.664 104.961 200.086 105.539C201.508 106.117 202.711 106.945 203.695 108.023C204.695 109.102 205.453 110.406 205.969 111.938C206.5 113.469 206.766 115.188 206.766 117.094V120.305H186.047V115.359H199.055V114.75C199.07 113.906 198.922 113.188 198.609 112.594C198.312 112 197.875 111.547 197.297 111.234C196.719 110.922 196.016 110.766 195.188 110.766C194.328 110.766 193.617 110.953 193.055 111.328C192.508 111.703 192.078 112.219 191.766 112.875C191.469 113.516 191.258 114.258 191.133 115.102C191.008 115.945 190.945 116.836 190.945 117.773V118.664C190.945 119.602 191.07 120.453 191.32 121.219C191.586 121.984 191.961 122.641 192.445 123.188C192.945 123.719 193.539 124.133 194.227 124.43C194.93 124.727 195.727 124.875 196.617 124.875C197.695 124.875 198.758 124.672 199.805 124.266C200.852 123.859 201.75 123.188 202.5 122.25L206.086 126.516C205.57 127.25 204.836 127.961 203.883 128.648C202.945 129.336 201.82 129.898 200.508 130.336C199.195 130.758 197.727 130.969 196.102 130.969ZM220.688 124.875C221.422 124.875 222.047 124.742 222.562 124.477C223.094 124.195 223.492 123.805 223.758 123.305C224.039 122.789 224.172 122.172 224.156 121.453H231.586C231.602 123.359 231.133 125.031 230.18 126.469C229.242 127.891 227.961 129 226.336 129.797C224.727 130.578 222.906 130.969 220.875 130.969C218.891 130.969 217.156 130.648 215.672 130.008C214.188 129.352 212.945 128.445 211.945 127.289C210.961 126.117 210.219 124.75 209.719 123.188C209.234 121.625 208.992 119.93 208.992 118.102V117.562C208.992 115.734 209.234 114.039 209.719 112.477C210.219 110.898 210.961 109.531 211.945 108.375C212.945 107.203 214.18 106.297 215.648 105.656C217.133 105 218.859 104.672 220.828 104.672C222.938 104.672 224.797 105.07 226.406 105.867C228.031 106.664 229.305 107.82 230.227 109.336C231.148 110.852 231.602 112.688 231.586 114.844H224.156C224.172 114.078 224.055 113.391 223.805 112.781C223.555 112.172 223.164 111.688 222.633 111.328C222.117 110.953 221.453 110.766 220.641 110.766C219.828 110.766 219.172 110.945 218.672 111.305C218.172 111.664 217.789 112.164 217.523 112.805C217.273 113.43 217.102 114.148 217.008 114.961C216.93 115.773 216.891 116.641 216.891 117.562V118.102C216.891 119.039 216.93 119.922 217.008 120.75C217.102 121.562 217.281 122.281 217.547 122.906C217.812 123.516 218.195 124 218.695 124.359C219.195 124.703 219.859 124.875 220.688 124.875ZM248.32 105.141V110.625H233.039V105.141H248.32ZM236.25 98.8359H244.148V122.227C244.148 122.898 244.227 123.422 244.383 123.797C244.539 124.156 244.805 124.414 245.18 124.57C245.57 124.711 246.086 124.781 246.727 124.781C247.18 124.781 247.555 124.773 247.852 124.758C248.148 124.727 248.43 124.688 248.695 124.641V130.289C248.023 130.508 247.32 130.672 246.586 130.781C245.852 130.906 245.07 130.969 244.242 130.969C242.555 130.969 241.109 130.703 239.906 130.172C238.719 129.641 237.812 128.805 237.188 127.664C236.562 126.523 236.25 125.039 236.25 123.211V98.8359ZM277.406 118.922H268.922V112.57H277.406C278.562 112.57 279.5 112.375 280.219 111.984C280.938 111.594 281.461 111.055 281.789 110.367C282.133 109.664 282.305 108.875 282.305 108C282.305 107.062 282.133 106.195 281.789 105.398C281.461 104.602 280.938 103.961 280.219 103.477C279.5 102.977 278.562 102.727 277.406 102.727H272.016V130.5H263.789V96.375H277.406C280.141 96.375 282.492 96.875 284.461 97.875C286.445 98.875 287.969 100.25 289.031 102C290.094 103.734 290.625 105.719 290.625 107.953C290.625 110.156 290.094 112.078 289.031 113.719C287.969 115.359 286.445 116.641 284.461 117.562C282.492 118.469 280.141 118.922 277.406 118.922ZM302.414 94.5V130.5H294.516V94.5H302.414ZM301.477 116.953L299.625 117C299.625 115.219 299.844 113.578 300.281 112.078C300.719 110.578 301.344 109.273 302.156 108.164C302.969 107.055 303.945 106.195 305.086 105.586C306.227 104.977 307.492 104.672 308.883 104.672C310.133 104.672 311.273 104.852 312.305 105.211C313.352 105.57 314.25 106.148 315 106.945C315.766 107.742 316.352 108.781 316.758 110.062C317.18 111.344 317.391 112.906 317.391 114.75V130.5H309.445V114.703C309.445 113.672 309.297 112.875 309 112.312C308.719 111.734 308.312 111.336 307.781 111.117C307.25 110.883 306.602 110.766 305.836 110.766C304.914 110.766 304.164 110.922 303.586 111.234C303.008 111.547 302.562 111.984 302.25 112.547C301.953 113.094 301.75 113.742 301.641 114.492C301.531 115.242 301.477 116.062 301.477 116.953ZM330.117 105.141V130.5H322.195V105.141H330.117ZM321.727 98.6016C321.727 97.4766 322.133 96.5547 322.945 95.8359C323.758 95.1172 324.812 94.7578 326.109 94.7578C327.406 94.7578 328.461 95.1172 329.273 95.8359C330.086 96.5547 330.492 97.4766 330.492 98.6016C330.492 99.7266 330.086 100.648 329.273 101.367C328.461 102.086 327.406 102.445 326.109 102.445C324.812 102.445 323.758 102.086 322.945 101.367C322.133 100.648 321.727 99.7266 321.727 98.6016ZM343.336 94.5V130.5H335.414V94.5H343.336ZM347.227 118.078V117.586C347.227 115.727 347.492 114.016 348.023 112.453C348.555 110.875 349.336 109.508 350.367 108.352C351.398 107.195 352.672 106.297 354.188 105.656C355.703 105 357.453 104.672 359.438 104.672C361.438 104.672 363.195 105 364.711 105.656C366.242 106.297 367.523 107.195 368.555 108.352C369.586 109.508 370.367 110.875 370.898 112.453C371.43 114.016 371.695 115.727 371.695 117.586V118.078C371.695 119.922 371.43 121.633 370.898 123.211C370.367 124.773 369.586 126.141 368.555 127.312C367.523 128.469 366.25 129.367 364.734 130.008C363.219 130.648 361.469 130.969 359.484 130.969C357.5 130.969 355.742 130.648 354.211 130.008C352.68 129.367 351.398 128.469 350.367 127.312C349.336 126.141 348.555 124.773 348.023 123.211C347.492 121.633 347.227 119.922 347.227 118.078ZM355.125 117.586V118.078C355.125 119.031 355.195 119.922 355.336 120.75C355.477 121.578 355.711 122.305 356.039 122.93C356.367 123.539 356.812 124.016 357.375 124.359C357.938 124.703 358.641 124.875 359.484 124.875C360.312 124.875 361 124.703 361.547 124.359C362.109 124.016 362.555 123.539 362.883 122.93C363.211 122.305 363.445 121.578 363.586 120.75C363.727 119.922 363.797 119.031 363.797 118.078V117.586C363.797 116.664 363.727 115.797 363.586 114.984C363.445 114.156 363.211 113.43 362.883 112.805C362.555 112.164 362.109 111.664 361.547 111.305C360.984 110.945 360.281 110.766 359.438 110.766C358.609 110.766 357.914 110.945 357.352 111.305C356.805 111.664 356.367 112.164 356.039 112.805C355.711 113.43 355.477 114.156 355.336 114.984C355.195 115.797 355.125 116.664 355.125 117.586ZM388.5 123.375C388.5 122.938 388.352 122.562 388.055 122.25C387.773 121.922 387.273 121.625 386.555 121.359C385.836 121.078 384.828 120.797 383.531 120.516C382.297 120.25 381.133 119.898 380.039 119.461C378.961 119.023 378.016 118.492 377.203 117.867C376.391 117.242 375.75 116.5 375.281 115.641C374.828 114.781 374.602 113.797 374.602 112.688C374.602 111.609 374.828 110.594 375.281 109.641C375.75 108.672 376.43 107.82 377.32 107.086C378.227 106.336 379.328 105.75 380.625 105.328C381.922 104.891 383.398 104.672 385.055 104.672C387.336 104.672 389.305 105.023 390.961 105.727C392.617 106.414 393.891 107.383 394.781 108.633C395.688 109.867 396.141 111.297 396.141 112.922H388.242C388.242 112.281 388.133 111.734 387.914 111.281C387.711 110.828 387.375 110.484 386.906 110.25C386.438 110 385.812 109.875 385.031 109.875C384.484 109.875 383.984 109.977 383.531 110.18C383.094 110.383 382.742 110.664 382.477 111.023C382.211 111.383 382.078 111.805 382.078 112.289C382.078 112.633 382.156 112.945 382.312 113.227C382.484 113.492 382.742 113.742 383.086 113.977C383.43 114.195 383.867 114.398 384.398 114.586C384.93 114.758 385.57 114.914 386.32 115.055C388.023 115.367 389.617 115.812 391.102 116.391C392.586 116.969 393.789 117.789 394.711 118.852C395.648 119.914 396.117 121.344 396.117 123.141C396.117 124.266 395.859 125.305 395.344 126.258C394.828 127.195 394.086 128.023 393.117 128.742C392.148 129.445 390.984 129.992 389.625 130.383C388.266 130.773 386.734 130.969 385.031 130.969C382.609 130.969 380.562 130.539 378.891 129.68C377.219 128.805 375.953 127.711 375.094 126.398C374.25 125.07 373.828 123.727 373.828 122.367H381.188C381.219 123.148 381.406 123.789 381.75 124.289C382.109 124.789 382.586 125.156 383.18 125.391C383.773 125.625 384.461 125.742 385.242 125.742C385.961 125.742 386.555 125.641 387.023 125.438C387.508 125.234 387.875 124.961 388.125 124.617C388.375 124.258 388.5 123.844 388.5 123.375ZM398.836 118.078V117.586C398.836 115.727 399.102 114.016 399.633 112.453C400.164 110.875 400.945 109.508 401.977 108.352C403.008 107.195 404.281 106.297 405.797 105.656C407.312 105 409.062 104.672 411.047 104.672C413.047 104.672 414.805 105 416.32 105.656C417.852 106.297 419.133 107.195 420.164 108.352C421.195 109.508 421.977 110.875 422.508 112.453C423.039 114.016 423.305 115.727 423.305 117.586V118.078C423.305 119.922 423.039 121.633 422.508 123.211C421.977 124.773 421.195 126.141 420.164 127.312C419.133 128.469 417.859 129.367 416.344 130.008C414.828 130.648 413.078 130.969 411.094 130.969C409.109 130.969 407.352 130.648 405.82 130.008C404.289 129.367 403.008 128.469 401.977 127.312C400.945 126.141 400.164 124.773 399.633 123.211C399.102 121.633 398.836 119.922 398.836 118.078ZM406.734 117.586V118.078C406.734 119.031 406.805 119.922 406.945 120.75C407.086 121.578 407.32 122.305 407.648 122.93C407.977 123.539 408.422 124.016 408.984 124.359C409.547 124.703 410.25 124.875 411.094 124.875C411.922 124.875 412.609 124.703 413.156 124.359C413.719 124.016 414.164 123.539 414.492 122.93C414.82 122.305 415.055 121.578 415.195 120.75C415.336 119.922 415.406 119.031 415.406 118.078V117.586C415.406 116.664 415.336 115.797 415.195 114.984C415.055 114.156 414.82 113.43 414.492 112.805C414.164 112.164 413.719 111.664 413.156 111.305C412.594 110.945 411.891 110.766 411.047 110.766C410.219 110.766 409.523 110.945 408.961 111.305C408.414 111.664 407.977 112.164 407.648 112.805C407.32 113.43 407.086 114.156 406.945 114.984C406.805 115.797 406.734 116.664 406.734 117.586ZM434.789 110.016V140.25H426.891V105.141H434.25L434.789 110.016ZM450.352 117.516V118.008C450.352 119.852 450.141 121.562 449.719 123.141C449.297 124.719 448.672 126.094 447.844 127.266C447.016 128.438 445.984 129.352 444.75 130.008C443.531 130.648 442.117 130.969 440.508 130.969C438.992 130.969 437.688 130.633 436.594 129.961C435.5 129.289 434.586 128.359 433.852 127.172C433.117 125.984 432.523 124.625 432.07 123.094C431.617 121.562 431.258 119.945 430.992 118.242V117.609C431.258 115.781 431.617 114.086 432.07 112.523C432.523 110.945 433.117 109.57 433.852 108.398C434.586 107.227 435.492 106.312 436.57 105.656C437.664 105 438.969 104.672 440.484 104.672C442.094 104.672 443.508 104.977 444.727 105.586C445.961 106.195 446.992 107.07 447.82 108.211C448.664 109.336 449.297 110.688 449.719 112.266C450.141 113.844 450.352 115.594 450.352 117.516ZM442.453 118.008V117.516C442.453 116.531 442.383 115.633 442.242 114.82C442.102 113.992 441.875 113.273 441.562 112.664C441.266 112.055 440.867 111.586 440.367 111.258C439.867 110.93 439.25 110.766 438.516 110.766C437.672 110.766 436.961 110.898 436.383 111.164C435.82 111.414 435.367 111.805 435.023 112.336C434.695 112.852 434.461 113.5 434.32 114.281C434.195 115.047 434.141 115.945 434.156 116.977V118.898C434.125 120.086 434.242 121.133 434.508 122.039C434.773 122.93 435.234 123.625 435.891 124.125C436.547 124.625 437.438 124.875 438.562 124.875C439.312 124.875 439.938 124.703 440.438 124.359C440.938 124 441.336 123.508 441.633 122.883C441.93 122.242 442.141 121.508 442.266 120.68C442.391 119.852 442.453 118.961 442.453 118.008ZM461.602 94.5V130.5H453.703V94.5H461.602ZM460.664 116.953L458.812 117C458.812 115.219 459.031 113.578 459.469 112.078C459.906 110.578 460.531 109.273 461.344 108.164C462.156 107.055 463.133 106.195 464.273 105.586C465.414 104.977 466.68 104.672 468.07 104.672C469.32 104.672 470.461 104.852 471.492 105.211C472.539 105.57 473.438 106.148 474.188 106.945C474.953 107.742 475.539 108.781 475.945 110.062C476.367 111.344 476.578 112.906 476.578 114.75V130.5H468.633V114.703C468.633 113.672 468.484 112.875 468.188 112.312C467.906 111.734 467.5 111.336 466.969 111.117C466.438 110.883 465.789 110.766 465.023 110.766C464.102 110.766 463.352 110.922 462.773 111.234C462.195 111.547 461.75 111.984 461.438 112.547C461.141 113.094 460.938 113.742 460.828 114.492C460.719 115.242 460.664 116.062 460.664 116.953ZM488.742 127.523L495.305 105.141H503.789L493.594 134.273C493.375 134.914 493.086 135.602 492.727 136.336C492.367 137.086 491.875 137.797 491.25 138.469C490.625 139.141 489.82 139.688 488.836 140.109C487.867 140.531 486.664 140.742 485.227 140.742C484.461 140.742 483.898 140.703 483.539 140.625C483.195 140.562 482.664 140.445 481.945 140.273V134.625C482.148 134.625 482.32 134.625 482.461 134.625C482.617 134.625 482.789 134.625 482.977 134.625C483.82 134.625 484.492 134.539 484.992 134.367C485.508 134.195 485.898 133.945 486.164 133.617C486.445 133.289 486.664 132.891 486.82 132.422L488.742 127.523ZM487.078 105.141L492.07 122.883L492.938 131.25H487.641L478.617 105.141H487.078Z" fill="black"/>
<path d="M1134 0H1348C1356.28 0 1363 6.71573 1363 15V171C1363 179.284 1356.28 186 1348 186H1134V0Z" fill="#3D2365"/>
<path d="M1234.26 115.286H1262.74V120.857H1234.26V115.286ZM1239.96 126.429H1257.04V132H1239.96V126.429ZM1248.5 54C1240.95 54 1233.71 56.9349 1228.37 62.1592C1223.03 67.3834 1220.03 74.469 1220.03 81.8571C1219.84 85.9057 1220.63 89.9412 1222.34 93.6315C1224.05 97.3219 1226.64 100.562 1229.88 103.084C1232.73 105.675 1234.26 107.151 1234.26 109.714H1239.96C1239.96 104.589 1236.8 101.719 1233.72 98.9614C1231.06 96.9676 1228.94 94.3658 1227.55 91.3838C1226.15 88.4019 1225.53 85.1308 1225.72 81.8571C1225.72 75.9466 1228.12 70.2781 1232.39 66.0988C1236.67 61.9194 1242.46 59.5714 1248.5 59.5714C1254.54 59.5714 1260.33 61.9194 1264.61 66.0988C1268.88 70.2781 1271.28 75.9466 1271.28 81.8571C1271.47 85.1333 1270.84 88.4059 1269.44 91.388C1268.04 94.3701 1265.92 96.9706 1263.25 98.9614C1260.2 101.747 1257.04 104.533 1257.04 109.714H1262.74C1262.74 107.151 1264.25 105.675 1267.12 103.056C1270.36 100.538 1272.94 97.3031 1274.66 93.6176C1276.37 89.9321 1277.16 85.9014 1276.97 81.8571C1276.97 78.1989 1276.24 74.5765 1274.81 71.1967C1273.37 67.8169 1271.28 64.7459 1268.63 62.1592C1265.99 59.5724 1262.85 57.5205 1259.4 56.1205C1255.94 54.7205 1252.24 54 1248.5 54Z" fill="white"/>
</svg>
