<svg width="1363" height="163" viewBox="0 0 1363 163" fill="none" xmlns="http://www.w3.org/2000/svg">
<g clip-path="url(#clip0_326_423)">
<path d="M0 15C0 6.71573 6.71573 0 15 0H37V163H15C6.71573 163 0 156.284 0 148V15Z" fill="#424242"/>
<path d="M1134 0H37V163H1134V0Z" fill="#F0F0F0"/>
<path d="M118.594 98.422V104.75H101.086V98.422H118.594ZM103.828 84.8751V119H95.6016V84.8751H103.828ZM124.125 84.8751V119H115.922V84.8751H124.125ZM127.992 106.578V106.086C127.992 104.227 128.258 102.516 128.789 100.953C129.32 99.3751 130.102 98.0079 131.133 96.8517C132.164 95.6954 133.438 94.7969 134.953 94.1562C136.469 93.5001 138.219 93.172 140.203 93.172C142.203 93.172 143.961 93.5001 145.477 94.1562C147.008 94.7969 148.289 95.6954 149.32 96.8517C150.352 98.0079 151.133 99.3751 151.664 100.953C152.195 102.516 152.461 104.227 152.461 106.086V106.578C152.461 108.422 152.195 110.133 151.664 111.711C151.133 113.273 150.352 114.641 149.32 115.812C148.289 116.969 147.016 117.867 145.5 118.508C143.984 119.148 142.234 119.469 140.25 119.469C138.266 119.469 136.508 119.148 134.977 118.508C133.445 117.867 132.164 116.969 131.133 115.812C130.102 114.641 129.32 113.273 128.789 111.711C128.258 110.133 127.992 108.422 127.992 106.578ZM135.891 106.086V106.578C135.891 107.531 135.961 108.422 136.102 109.25C136.242 110.078 136.477 110.805 136.805 111.43C137.133 112.039 137.578 112.516 138.141 112.859C138.703 113.203 139.406 113.375 140.25 113.375C141.078 113.375 141.766 113.203 142.312 112.859C142.875 112.516 143.32 112.039 143.648 111.43C143.977 110.805 144.211 110.078 144.352 109.25C144.492 108.422 144.562 107.531 144.562 106.578V106.086C144.562 105.164 144.492 104.297 144.352 103.484C144.211 102.656 143.977 101.93 143.648 101.305C143.32 100.664 142.875 100.164 142.312 99.8048C141.75 99.4454 141.047 99.2657 140.203 99.2657C139.375 99.2657 138.68 99.4454 138.117 99.8048C137.57 100.164 137.133 100.664 136.805 101.305C136.477 101.93 136.242 102.656 136.102 103.484C135.961 104.297 135.891 105.164 135.891 106.086ZM163.688 111.453L168.375 93.6407H173.32L171.562 102.57L166.922 119H162.961L163.688 111.453ZM161.836 93.6407L164.742 111.312L165.07 119H160.266L154.266 93.6407H161.836ZM177.492 110.938L180.422 93.6407H187.992L182.039 119H177.234L177.492 110.938ZM173.883 93.6407L178.617 111.406L179.344 119H175.336L170.789 102.617L169.102 93.6407H173.883ZM218.297 84.8751V119H210.07V84.8751H218.297ZM228.562 84.8751V91.2267H200.039V84.8751H228.562ZM225.773 106.578V106.086C225.773 104.227 226.039 102.516 226.57 100.953C227.102 99.3751 227.883 98.0079 228.914 96.8517C229.945 95.6954 231.219 94.7969 232.734 94.1562C234.25 93.5001 236 93.172 237.984 93.172C239.984 93.172 241.742 93.5001 243.258 94.1562C244.789 94.7969 246.07 95.6954 247.102 96.8517C248.133 98.0079 248.914 99.3751 249.445 100.953C249.977 102.516 250.242 104.227 250.242 106.086V106.578C250.242 108.422 249.977 110.133 249.445 111.711C248.914 113.273 248.133 114.641 247.102 115.812C246.07 116.969 244.797 117.867 243.281 118.508C241.766 119.148 240.016 119.469 238.031 119.469C236.047 119.469 234.289 119.148 232.758 118.508C231.227 117.867 229.945 116.969 228.914 115.812C227.883 114.641 227.102 113.273 226.57 111.711C226.039 110.133 225.773 108.422 225.773 106.578ZM233.672 106.086V106.578C233.672 107.531 233.742 108.422 233.883 109.25C234.023 110.078 234.258 110.805 234.586 111.43C234.914 112.039 235.359 112.516 235.922 112.859C236.484 113.203 237.188 113.375 238.031 113.375C238.859 113.375 239.547 113.203 240.094 112.859C240.656 112.516 241.102 112.039 241.43 111.43C241.758 110.805 241.992 110.078 242.133 109.25C242.273 108.422 242.344 107.531 242.344 106.578V106.086C242.344 105.164 242.273 104.297 242.133 103.484C241.992 102.656 241.758 101.93 241.43 101.305C241.102 100.664 240.656 100.164 240.094 99.8048C239.531 99.4454 238.828 99.2657 237.984 99.2657C237.156 99.2657 236.461 99.4454 235.898 99.8048C235.352 100.164 234.914 100.664 234.586 101.305C234.258 101.93 234.023 102.656 233.883 103.484C233.742 104.297 233.672 105.164 233.672 106.086ZM266.086 84.8751H279.516C282.141 84.8751 284.422 85.2657 286.359 86.047C288.297 86.8282 289.789 87.9845 290.836 89.5157C291.898 91.047 292.43 92.9376 292.43 95.1876C292.43 97.1407 292.125 98.7735 291.516 100.086C290.906 101.398 290.055 102.484 288.961 103.344C287.883 104.188 286.625 104.883 285.188 105.43L282.492 106.953H271.219L271.172 100.602H279.516C280.562 100.602 281.43 100.414 282.117 100.039C282.805 99.6642 283.32 99.1329 283.664 98.4454C284.023 97.7423 284.203 96.9063 284.203 95.9376C284.203 94.9532 284.023 94.1094 283.664 93.4062C283.305 92.7031 282.773 92.1642 282.07 91.7892C281.383 91.4142 280.531 91.2267 279.516 91.2267H274.312V119H266.086V84.8751ZM284.766 119L277.219 103.906L285.938 103.859L293.578 118.648V119H284.766ZM311.836 112.836V93.6407H319.758V119H312.352L311.836 112.836ZM312.586 107.68L314.648 107.633C314.648 109.336 314.445 110.914 314.039 112.367C313.633 113.805 313.031 115.055 312.234 116.117C311.453 117.18 310.484 118.008 309.328 118.602C308.188 119.18 306.867 119.469 305.367 119.469C304.117 119.469 302.969 119.297 301.922 118.953C300.891 118.594 300 118.039 299.25 117.289C298.5 116.523 297.914 115.547 297.492 114.359C297.086 113.156 296.883 111.719 296.883 110.047V93.6407H304.781V110.094C304.781 110.656 304.852 111.141 304.992 111.547C305.133 111.953 305.336 112.297 305.602 112.578C305.867 112.844 306.195 113.047 306.586 113.188C306.992 113.312 307.453 113.375 307.969 113.375C309.156 113.375 310.086 113.125 310.758 112.625C311.43 112.125 311.898 111.445 312.164 110.586C312.445 109.727 312.586 108.758 312.586 107.68ZM331.875 99.0548V119H323.977V93.6407H331.383L331.875 99.0548ZM330.938 105.453L329.086 105.5C329.086 103.562 329.32 101.836 329.789 100.32C330.258 98.7892 330.922 97.4923 331.781 96.4298C332.641 95.3673 333.664 94.5626 334.852 94.0157C336.055 93.4532 337.391 93.172 338.859 93.172C340.031 93.172 341.102 93.3439 342.07 93.6876C343.055 94.0313 343.898 94.586 344.602 95.3517C345.32 96.1173 345.867 97.1329 346.242 98.3985C346.633 99.6485 346.828 101.195 346.828 103.039V119H338.883V103.016C338.883 102 338.742 101.227 338.461 100.695C338.18 100.148 337.773 99.7735 337.242 99.5704C336.711 99.3673 336.062 99.2657 335.297 99.2657C334.484 99.2657 333.797 99.422 333.234 99.7345C332.672 100.047 332.219 100.484 331.875 101.047C331.547 101.594 331.305 102.242 331.148 102.992C331.008 103.742 330.938 104.562 330.938 105.453ZM363.773 108.195H357.047C357.047 106.82 357.141 105.609 357.328 104.562C357.531 103.5 357.875 102.547 358.359 101.703C358.844 100.859 359.5 100.078 360.328 99.3595C361.062 98.7501 361.695 98.1642 362.227 97.6017C362.758 97.0392 363.164 96.4689 363.445 95.8907C363.727 95.3126 363.867 94.6954 363.867 94.0392C363.867 93.2267 363.75 92.5626 363.516 92.047C363.297 91.5313 362.961 91.1485 362.508 90.8985C362.07 90.6329 361.516 90.5001 360.844 90.5001C360.297 90.5001 359.781 90.6329 359.297 90.8985C358.828 91.1642 358.445 91.5782 358.148 92.1407C357.852 92.6876 357.688 93.4142 357.656 94.3204H349.711C349.758 91.9923 350.273 90.1017 351.258 88.6485C352.258 87.1798 353.586 86.1095 355.242 85.4376C356.914 84.7501 358.781 84.4062 360.844 84.4062C363.125 84.4062 365.086 84.7579 366.727 85.461C368.367 86.1642 369.625 87.211 370.5 88.6017C371.375 89.9767 371.812 91.672 371.812 93.6876C371.812 95.0313 371.555 96.2032 371.039 97.2032C370.539 98.1876 369.859 99.1095 369 99.9689C368.156 100.812 367.211 101.719 366.164 102.688C365.258 103.484 364.641 104.297 364.312 105.125C363.984 105.938 363.805 106.961 363.773 108.195ZM356.086 115.32C356.086 114.195 356.492 113.258 357.305 112.508C358.117 111.742 359.172 111.359 360.469 111.359C361.766 111.359 362.82 111.742 363.633 112.508C364.445 113.258 364.852 114.195 364.852 115.32C364.852 116.445 364.445 117.391 363.633 118.156C362.82 118.906 361.766 119.281 360.469 119.281C359.172 119.281 358.117 118.906 357.305 118.156C356.492 117.391 356.086 116.445 356.086 115.32Z" fill="black"/>
<path d="M1134 0H1348C1356.28 0 1363 6.71573 1363 15V148C1363 156.284 1356.28 163 1348 163H1134V0Z" fill="#3D2365"/>
<path d="M1260.62 78.8847C1263.81 78.8847 1266.93 79.805 1269.59 81.5293C1272.25 83.2536 1274.32 85.7044 1275.54 88.5718C1276.76 91.4391 1277.08 94.5943 1276.46 97.6383C1275.84 100.682 1274.3 103.478 1272.04 105.673C1269.78 107.868 1266.9 109.362 1263.77 109.968C1260.63 110.573 1257.39 110.262 1254.43 109.075C1251.48 107.887 1248.96 105.876 1247.18 103.295C1245.41 100.714 1244.46 97.6806 1244.46 94.5769C1244.46 90.4151 1246.16 86.4237 1249.19 83.4808C1252.22 80.538 1256.33 78.8847 1260.62 78.8847ZM1260.62 73.6539C1256.36 73.6539 1252.19 74.881 1248.65 77.1801C1245.11 79.4791 1242.35 82.7469 1240.72 86.57C1239.09 90.3932 1238.66 94.6001 1239.49 98.6588C1240.32 102.717 1242.37 106.446 1245.39 109.372C1248.4 112.298 1252.24 114.291 1256.41 115.098C1260.59 115.905 1264.92 115.491 1268.86 113.907C1272.79 112.324 1276.16 109.642 1278.52 106.201C1280.89 102.76 1282.15 98.7151 1282.15 94.5769C1282.15 89.0278 1279.88 83.706 1275.85 79.7821C1271.81 75.8583 1266.33 73.6539 1260.62 73.6539Z" fill="white"/>
<path d="M1274.08 47.5H1220.23C1218.8 47.5 1217.43 48.0511 1216.42 49.0321C1215.41 50.013 1214.85 51.3435 1214.85 52.7307V105.038C1214.85 106.426 1215.41 107.756 1216.42 108.737C1217.43 109.718 1218.8 110.269 1220.23 110.269H1231V105.038H1220.23V68.423H1279.46V52.7307C1279.46 51.3435 1278.89 50.013 1277.88 49.0321C1276.87 48.0511 1275.5 47.5 1274.08 47.5ZM1220.23 63.1922V52.7307H1274.08V63.1922H1220.23Z" fill="white"/>
<path d="M1255.23 86.731V102.423L1268.69 94.5771L1255.23 86.731Z" fill="white"/>
<path d="M97.224 45.888L108.984 51.12V54.648L97.224 59.88V56.016L105.816 52.896L97.224 49.776V45.888ZM118.144 60V44.16H130.48V47.352H122.272V50.568H128.8V53.568H122.272V56.808H130.792V60H118.144ZM138.04 47.76C139.256 47.76 140.264 47.936 141.064 48.288C141.88 48.624 142.512 49.08 142.96 49.656C143.424 50.216 143.712 50.824 143.824 51.48L140.056 52.728C139.944 52.04 139.736 51.528 139.432 51.192C139.144 50.84 138.72 50.664 138.16 50.664C137.648 50.664 137.216 50.784 136.864 51.024C136.528 51.248 136.272 51.616 136.096 52.128C135.92 52.624 135.832 53.264 135.832 54.048C135.832 54.832 135.928 55.472 136.12 55.968C136.312 56.448 136.584 56.8 136.936 57.024C137.288 57.232 137.704 57.336 138.184 57.336C138.584 57.336 138.912 57.264 139.168 57.12C139.44 56.96 139.664 56.736 139.84 56.448C140.016 56.16 140.128 55.808 140.176 55.392L143.848 56.568C143.736 57.272 143.432 57.904 142.936 58.464C142.456 59.008 141.816 59.44 141.016 59.76C140.216 60.08 139.28 60.24 138.208 60.24C136.896 60.24 135.752 60 134.776 59.52C133.8 59.024 133.048 58.312 132.52 57.384C131.992 56.44 131.728 55.312 131.728 54C131.728 52.688 131.992 51.568 132.52 50.64C133.048 49.696 133.784 48.984 134.728 48.504C135.688 48.008 136.792 47.76 138.04 47.76ZM145.489 60V42.912H149.569V50.184C149.921 49.384 150.425 48.784 151.081 48.384C151.737 47.968 152.497 47.76 153.361 47.76C154.193 47.76 154.913 47.92 155.521 48.24C156.145 48.56 156.633 49.032 156.985 49.656C157.337 50.28 157.513 51.064 157.513 52.008V60H153.433V53.136C153.433 52.272 153.273 51.68 152.953 51.36C152.649 51.024 152.241 50.856 151.729 50.856C151.345 50.856 150.985 50.952 150.649 51.144C150.313 51.336 150.049 51.64 149.857 52.056C149.665 52.472 149.569 53.016 149.569 53.688V60H145.489ZM165.604 47.76C166.868 47.76 167.972 48.008 168.916 48.504C169.876 48.984 170.62 49.696 171.148 50.64C171.692 51.568 171.964 52.688 171.964 54C171.964 55.312 171.692 56.44 171.148 57.384C170.62 58.312 169.876 59.024 168.916 59.52C167.972 60 166.868 60.24 165.604 60.24C164.372 60.24 163.276 60 162.316 59.52C161.356 59.024 160.604 58.312 160.06 57.384C159.532 56.44 159.268 55.312 159.268 54C159.268 52.688 159.532 51.568 160.06 50.64C160.604 49.696 161.356 48.984 162.316 48.504C163.276 48.008 164.372 47.76 165.604 47.76ZM165.604 50.664C165.14 50.664 164.74 50.776 164.404 51C164.068 51.224 163.812 51.584 163.636 52.08C163.46 52.576 163.372 53.216 163.372 54C163.372 54.784 163.46 55.424 163.636 55.92C163.812 56.4 164.068 56.76 164.404 57C164.74 57.224 165.14 57.336 165.604 57.336C166.084 57.336 166.492 57.224 166.828 57C167.164 56.76 167.42 56.4 167.596 55.92C167.772 55.424 167.86 54.784 167.86 54C167.86 53.216 167.772 52.576 167.596 52.08C167.42 51.584 167.164 51.224 166.828 51C166.492 50.776 166.084 50.664 165.604 50.664ZM183.057 60L178.497 44.16H182.889L185.577 56.664L188.409 44.16H192.153L195.057 56.64L197.697 44.16H201.945L197.361 60H192.873L191.001 52.32L190.281 48.456H190.233L189.537 52.32L187.689 60H183.057ZM208.906 52.392C208.906 51.832 208.746 51.392 208.426 51.072C208.122 50.736 207.706 50.568 207.178 50.568C206.65 50.568 206.194 50.704 205.81 50.976C205.442 51.232 205.186 51.696 205.042 52.368L201.586 51.552C201.81 50.4 202.402 49.48 203.362 48.792C204.322 48.104 205.674 47.76 207.418 47.76C208.586 47.76 209.578 47.936 210.394 48.288C211.226 48.624 211.858 49.136 212.29 49.824C212.738 50.496 212.962 51.328 212.962 52.32V56.712C212.962 57.336 213.242 57.648 213.802 57.648C214.09 57.648 214.322 57.616 214.498 57.552L214.258 59.88C213.778 60.104 213.194 60.216 212.506 60.216C211.882 60.216 211.33 60.12 210.85 59.928C210.37 59.72 209.994 59.416 209.722 59.016C209.45 58.6 209.314 58.08 209.314 57.456V57.312L209.77 57.144C209.77 57.832 209.562 58.408 209.146 58.872C208.746 59.336 208.218 59.68 207.562 59.904C206.922 60.128 206.25 60.24 205.546 60.24C204.73 60.24 204.018 60.112 203.41 59.856C202.802 59.6 202.33 59.232 201.994 58.752C201.674 58.256 201.514 57.648 201.514 56.928C201.514 56.064 201.77 55.352 202.282 54.792C202.81 54.216 203.634 53.816 204.754 53.592L209.29 52.656L209.266 54.816L206.962 55.296C206.482 55.392 206.122 55.536 205.882 55.728C205.658 55.904 205.546 56.176 205.546 56.544C205.546 56.896 205.674 57.16 205.93 57.336C206.186 57.512 206.49 57.6 206.842 57.6C207.114 57.6 207.37 57.56 207.61 57.48C207.866 57.4 208.09 57.28 208.282 57.12C208.474 56.944 208.626 56.728 208.738 56.472C208.85 56.216 208.906 55.912 208.906 55.56V52.392ZM222.913 48H227.137L222.817 60H217.945L213.625 48H217.921L220.393 57.144L222.913 48ZM233.731 60.24C232.403 60.24 231.251 59.992 230.275 59.496C229.315 59 228.571 58.288 228.043 57.36C227.515 56.432 227.251 55.312 227.251 54C227.251 52.688 227.515 51.568 228.043 50.64C228.571 49.712 229.307 49 230.251 48.504C231.211 48.008 232.307 47.76 233.539 47.76C234.803 47.76 235.875 48.008 236.755 48.504C237.651 48.984 238.331 49.656 238.795 50.52C239.259 51.368 239.491 52.344 239.491 53.448C239.491 53.736 239.483 54.024 239.467 54.312C239.451 54.6 239.427 54.84 239.395 55.032H229.891V52.848H237.595L235.651 53.592C235.651 52.632 235.475 51.896 235.123 51.384C234.787 50.872 234.259 50.616 233.539 50.616C233.027 50.616 232.587 50.736 232.219 50.976C231.867 51.216 231.595 51.592 231.403 52.104C231.227 52.616 231.139 53.272 231.139 54.072C231.139 54.856 231.243 55.496 231.451 55.992C231.659 56.472 231.955 56.824 232.339 57.048C232.723 57.256 233.187 57.36 233.731 57.36C234.339 57.36 234.819 57.24 235.171 57C235.539 56.76 235.811 56.424 235.987 55.992L239.251 57.072C239.027 57.76 238.635 58.344 238.075 58.824C237.531 59.288 236.875 59.64 236.107 59.88C235.355 60.12 234.563 60.24 233.731 60.24Z" fill="#888888"/>
</g>
<defs>
<clipPath id="clip0_326_423">
<rect width="1363" height="163" fill="white"/>
</clipPath>
</defs>
</svg>
